<svg xmlns="http://www.w3.org/2000/svg" xmlns:xlink="http://www.w3.org/1999/xlink" width="542" height="533" viewBox="0 0 542 533">
  <defs>
    <filter id="Ellipse_14" x="0" y="0" width="542" height="533" filterUnits="userSpaceOnUse">
      <feOffset dx="22" dy="13" input="SourceAlpha"/>
      <feGaussianBlur stdDeviation="3" result="blur"/>
      <feFlood flood-opacity="0.161"/>
      <feComposite operator="in" in2="blur"/>
      <feComposite in="SourceGraphic"/>
    </filter>
  </defs>
  <g id="Group_27" data-name="Group 27" transform="translate(-738 -220)">
    <g transform="matrix(1, 0, 0, 1, 738, 220)" filter="url(#Ellipse_14)">
      <circle id="Ellipse_14-2" data-name="Ellipse 14" cx="255.5" cy="255.5" r="255.5" fill="#020202"/>
    </g>
    <g id="Group_25" data-name="Group 25" transform="translate(792.456 321.734)">
      <path id="Path_28" data-name="Path 28" d="M21.25,0c11.984.251,21.9,10.62,22.153,23.161L48.17,261.592c.251,12.541-9.261,22.5-21.245,22.253s-21.9-10.62-22.153-23.161L0,22.258C-.246,9.717,9.266-.246,21.25,0Z" transform="translate(101.723 13.379) rotate(21)" fill="#fff"/>
      <path id="Path_29" data-name="Path 29" d="M23.181.005C36.255.279,47.074,11.591,47.348,25.272l4.685,234.3c.274,13.681-10.1,24.55-23.176,24.276S4.964,272.26,4.69,258.579L.005,24.281C-.268,10.6,10.108-.268,23.181.005Z" transform="translate(353.92 11.613) rotate(21)" fill="#fff"/>
      <path id="Path_30" data-name="Path 30" d="M31.306.01C43.465-.351,53.03,9.382,52.669,21.747L44.042,317.906c-.36,12.366-10.509,22.682-22.668,23.042S-.35,331.576.01,319.211L8.637,23.052C9,10.686,19.147.37,31.306.01Z" transform="translate(35.134 35.644) rotate(-37)" fill="#fff"/>
      <path id="Path_31" data-name="Path 31" d="M31.306.01C43.465-.351,53.03,9.382,52.669,21.747L44.042,317.906c-.36,12.366-10.509,22.682-22.668,23.042S-.35,331.576.01,319.211L8.637,23.052C9,10.686,19.147.37,31.306.01Z" transform="translate(118.3 31.703) rotate(-37)" fill="#fff"/>
      <path id="Path_32" data-name="Path 32" d="M21.25,0c11.984.251,21.9,10.62,22.153,23.161L48.17,261.592c.251,12.541-9.261,22.5-21.245,22.253s-21.9-10.62-22.153-23.161L0,22.258C-.246,9.717,9.266-.246,21.25,0Z" transform="translate(184.889 9.438) rotate(21)" fill="#fff"/>
      <path id="Path_33" data-name="Path 33" d="M23.181.005C36.255.279,47.074,11.591,47.348,25.272l4.685,234.3c.274,13.681-10.1,24.55-23.176,24.276S4.964,272.26,4.69,258.579L.005,24.281C-.268,10.6,10.108-.268,23.181.005Z" transform="translate(270.754 15.554) rotate(21)" fill="#fff"/>
    </g>
  </g>
</svg>
