<svg xmlns="http://www.w3.org/2000/svg" xmlns:xlink="http://www.w3.org/1999/xlink" width="646.15" height="635.15" viewBox="0 0 646.15 635.15">
  <defs>
    <filter id="Rectangle_3" x="0" y="0" width="646.15" height="635.15" filterUnits="userSpaceOnUse">
      <feOffset dx="26" dy="15" input="SourceAlpha"/>
      <feGaussianBlur stdDeviation="3" result="blur"/>
      <feFlood flood-opacity="0.161"/>
      <feComposite operator="in" in2="blur"/>
      <feComposite in="SourceGraphic"/>
    </filter>
    <filter id="Path_7" x="96.358" y="128.559" width="423.035" height="425.653" filterUnits="userSpaceOnUse">
      <feOffset dx="30" dy="10" input="SourceAlpha"/>
      <feGaussianBlur stdDeviation="6" result="blur-2"/>
      <feFlood flood-opacity="0.161"/>
      <feComposite operator="in" in2="blur-2"/>
      <feComposite in="SourceGraphic"/>
    </filter>
    <filter id="Path_8" x="126.48" y="66.799" width="423.035" height="425.653" filterUnits="userSpaceOnUse">
      <feOffset dx="30" dy="10" input="SourceAlpha"/>
      <feGaussianBlur stdDeviation="6" result="blur-3"/>
      <feFlood flood-opacity="0.161"/>
      <feComposite operator="in" in2="blur-3"/>
      <feComposite in="SourceGraphic"/>
    </filter>
    <filter id="Ellipse_3" x="296.201" y="65.401" width="144.714" height="132.714" filterUnits="userSpaceOnUse">
      <feOffset dx="30" dy="10" input="SourceAlpha"/>
      <feGaussianBlur stdDeviation="6" result="blur-4"/>
      <feFlood flood-opacity="0.161"/>
      <feComposite operator="in" in2="blur-4"/>
      <feComposite in="SourceGraphic"/>
    </filter>
    <filter id="Ellipse_4" x="226.481" y="437.869" width="144.714" height="132.714" filterUnits="userSpaceOnUse">
      <feOffset dx="30" dy="10" input="SourceAlpha"/>
      <feGaussianBlur stdDeviation="6" result="blur-5"/>
      <feFlood flood-opacity="0.161"/>
      <feComposite operator="in" in2="blur-5"/>
      <feComposite in="SourceGraphic"/>
    </filter>
    <filter id="Ellipse_5" x="250.66" y="462.048" width="96.357" height="84.357" filterUnits="userSpaceOnUse">
      <feOffset dx="30" dy="10" input="SourceAlpha"/>
      <feGaussianBlur stdDeviation="6" result="blur-6"/>
      <feFlood flood-opacity="0.161"/>
      <feComposite operator="in" in2="blur-6"/>
      <feComposite in="SourceGraphic"/>
    </filter>
    <filter id="Ellipse_6" x="320.38" y="89.579" width="96.357" height="84.357" filterUnits="userSpaceOnUse">
      <feOffset dx="30" dy="10" input="SourceAlpha"/>
      <feGaussianBlur stdDeviation="6" result="blur-7"/>
      <feFlood flood-opacity="0.161"/>
      <feComposite operator="in" in2="blur-7"/>
      <feComposite in="SourceGraphic"/>
    </filter>
  </defs>
  <g id="Group_52" data-name="Group 52" transform="translate(-2469.924 695.027) rotate(-45)">
    <g id="Group_7" data-name="Group 7" transform="translate(2015 1478)">
      <g transform="matrix(0.71, 0.71, -0.71, 0.71, 222.96, -222.96)" filter="url(#Rectangle_3)">
        <rect id="Rectangle_3-2" data-name="Rectangle 3" width="445.917" height="418.38" rx="75" transform="translate(0 315.31) rotate(-45)" fill="#f2f0ef"/>
      </g>
      <g id="Group_6" data-name="Group 6" transform="translate(4.014 154.269) rotate(-20)">
        <g transform="matrix(0.42, 0.91, -0.91, 0.42, 334.76, -279.59)" filter="url(#Path_7)">
          <path id="Path_7-2" data-name="Path 7" d="M0,196.57S51.656,50.83,67.022,7.418,173.627,123.65,209.162,162.394,253.182,46.162,267.855,7.418" transform="translate(130.61 381.48) rotate(-52)" fill="none" stroke="#2155cd" stroke-width="50"/>
        </g>
        <g transform="matrix(0.42, 0.91, -0.91, 0.42, 334.76, -279.59)" filter="url(#Path_8)">
          <path id="Path_8-2" data-name="Path 8" d="M0,196.57S51.656,50.83,67.022,7.418,173.627,123.65,209.162,162.394,253.182,46.162,267.855,7.418" transform="translate(160.73 319.72) rotate(-52)" fill="none" stroke="#2155cd" stroke-width="50"/>
        </g>
      </g>
    </g>
    <g transform="matrix(0.71, 0.71, -0.71, 0.71, 2237.96, 1255.04)" filter="url(#Ellipse_3)">
      <circle id="Ellipse_3-2" data-name="Ellipse 3" cx="34.199" cy="34.199" r="34.199" transform="translate(296.2 122.6) rotate(-46)" fill="#f66b0e"/>
    </g>
    <g transform="matrix(0.71, 0.71, -0.71, 0.71, 2237.96, 1255.04)" filter="url(#Ellipse_4)">
      <circle id="Ellipse_4-2" data-name="Ellipse 4" cx="34.199" cy="34.199" r="34.199" transform="translate(226.48 495.07) rotate(-46)" fill="#f66b0e"/>
    </g>
    <g transform="matrix(0.71, 0.71, -0.71, 0.71, 2237.96, 1255.04)" filter="url(#Ellipse_5)">
      <ellipse id="Ellipse_5-2" data-name="Ellipse 5" cx="17.099" cy="17.099" rx="17.099" ry="17.099" transform="translate(250.66 494.65) rotate(-46)" fill="#fdfdfd"/>
    </g>
    <g transform="matrix(0.71, 0.71, -0.71, 0.71, 2237.96, 1255.04)" filter="url(#Ellipse_6)">
      <ellipse id="Ellipse_6-2" data-name="Ellipse 6" cx="17.099" cy="17.099" rx="17.099" ry="17.099" transform="translate(320.38 122.18) rotate(-46)" fill="#fdfdfd"/>
    </g>
  </g>
</svg>
