<svg xmlns="http://www.w3.org/2000/svg" xmlns:xlink="http://www.w3.org/1999/xlink" width="89" height="80" viewBox="0 0 89 80">
  <defs>
    <filter id="Ellipse_14" x="0" y="0" width="89" height="80" filterUnits="userSpaceOnUse">
      <feOffset dx="22" dy="13" input="SourceAlpha"/>
      <feGaussianBlur stdDeviation="3" result="blur"/>
      <feFlood flood-opacity="0.161"/>
      <feComposite operator="in" in2="blur"/>
      <feComposite in="SourceGraphic"/>
    </filter>
  </defs>
  <g id="Group_219" data-name="Group 219" transform="translate(-738 -220)">
    <g transform="matrix(1, 0, 0, 1, 738, 220)" filter="url(#Ellipse_14)">
      <circle id="Ellipse_14-2" data-name="Ellipse 14" cx="29" cy="29" r="29" fill="#fdfbeb"/>
    </g>
    <g id="Group_25" data-name="Group 25" transform="translate(744.78 231.209)">
      <path id="Path_28" data-name="Path 28" d="M2.615.064A2.634,2.634,0,0,1,5.127,2.679l.49,26.966A2.408,2.408,0,0,1,3.2,32.167,2.634,2.634,0,0,1,.688,29.552L.2,2.586A2.408,2.408,0,0,1,2.615.064Z" transform="translate(10.808 1.665) rotate(21)" fill="#151d3b"/>
      <path id="Path_29" data-name="Path 29" d="M2.838.07A2.873,2.873,0,0,1,5.578,2.922l.482,26.5a2.627,2.627,0,0,1-2.638,2.751A2.873,2.873,0,0,1,.683,29.32L.2,2.82A2.627,2.627,0,0,1,2.838.07Z" transform="translate(39.473 1.459) rotate(21)" fill="#151d3b"/>
      <path id="Path_30" data-name="Path 30" d="M2.479-.086a2.361,2.361,0,0,1,2.43,2.469L4.021,35.922a2.685,2.685,0,0,1-2.564,2.6,2.361,2.361,0,0,1-2.43-2.469L-.085,2.517A2.685,2.685,0,0,1,2.479-.086Z" transform="translate(4.318 3.75) rotate(-37)" fill="#151d3b"/>
      <path id="Path_31" data-name="Path 31" d="M2.479-.086a2.361,2.361,0,0,1,2.43,2.469L4.021,35.922a2.685,2.685,0,0,1-2.564,2.6,2.361,2.361,0,0,1-2.43-2.469L-.085,2.517A2.685,2.685,0,0,1,2.479-.086Z" transform="translate(13.771 3.304) rotate(-37)" fill="#151d3b"/>
      <path id="Path_32" data-name="Path 32" d="M2.615.064A2.634,2.634,0,0,1,5.127,2.679l.49,26.966A2.408,2.408,0,0,1,3.2,32.167,2.634,2.634,0,0,1,.688,29.552L.2,2.586A2.408,2.408,0,0,1,2.615.064Z" transform="translate(20.261 1.22) rotate(21)" fill="#151d3b"/>
      <path id="Path_33" data-name="Path 33" d="M2.838.07A2.873,2.873,0,0,1,5.578,2.922l.482,26.5a2.627,2.627,0,0,1-2.638,2.751A2.873,2.873,0,0,1,.683,29.32L.2,2.82A2.627,2.627,0,0,1,2.838.07Z" transform="translate(30.02 1.904) rotate(21)" fill="#151d3b"/>
    </g>
  </g>
</svg>
