<svg xmlns="http://www.w3.org/2000/svg" xmlns:xlink="http://www.w3.org/1999/xlink" width="723.015" height="717.015" viewBox="0 0 723.015 717.015">
  <defs>
    <filter id="Rectangle_3" x="0" y="0" width="723.015" height="717.015" filterUnits="userSpaceOnUse">
      <feOffset dx="-26" dy="20" input="SourceAlpha"/>
      <feGaussianBlur stdDeviation="3" result="blur"/>
      <feFlood flood-opacity="0.161"/>
      <feComposite operator="in" in2="blur"/>
      <feComposite in="SourceGraphic"/>
    </filter>
    <filter id="Path_7" x="147.786" y="149.993" width="463.255" height="467.42" filterUnits="userSpaceOnUse">
      <feOffset dx="30" dy="10" input="SourceAlpha"/>
      <feGaussianBlur stdDeviation="6" result="blur-2"/>
      <feFlood flood-opacity="0.161"/>
      <feComposite operator="in" in2="blur-2"/>
      <feComposite in="SourceGraphic"/>
    </filter>
    <filter id="Path_8" x="181.697" y="80.465" width="463.255" height="467.419" filterUnits="userSpaceOnUse">
      <feOffset dx="30" dy="10" input="SourceAlpha"/>
      <feGaussianBlur stdDeviation="6" result="blur-3"/>
      <feFlood flood-opacity="0.161"/>
      <feComposite operator="in" in2="blur-3"/>
      <feComposite in="SourceGraphic"/>
    </filter>
    <filter id="Ellipse_3" x="368.455" y="74.632" width="156.878" height="144.878" filterUnits="userSpaceOnUse">
      <feOffset dx="30" dy="10" input="SourceAlpha"/>
      <feGaussianBlur stdDeviation="6" result="blur-4"/>
      <feFlood flood-opacity="0.161"/>
      <feComposite operator="in" in2="blur-4"/>
      <feComposite in="SourceGraphic"/>
    </filter>
    <filter id="Ellipse_4" x="289.966" y="493.947" width="156.878" height="144.878" filterUnits="userSpaceOnUse">
      <feOffset dx="30" dy="10" input="SourceAlpha"/>
      <feGaussianBlur stdDeviation="6" result="blur-5"/>
      <feFlood flood-opacity="0.161"/>
      <feComposite operator="in" in2="blur-5"/>
      <feComposite in="SourceGraphic"/>
    </filter>
    <filter id="Ellipse_5" x="317.185" y="521.166" width="102.439" height="90.439" filterUnits="userSpaceOnUse">
      <feOffset dx="30" dy="10" input="SourceAlpha"/>
      <feGaussianBlur stdDeviation="6" result="blur-6"/>
      <feFlood flood-opacity="0.161"/>
      <feComposite operator="in" in2="blur-6"/>
      <feComposite in="SourceGraphic"/>
    </filter>
    <filter id="Ellipse_6" x="395.674" y="101.852" width="102.439" height="90.439" filterUnits="userSpaceOnUse">
      <feOffset dx="30" dy="10" input="SourceAlpha"/>
      <feGaussianBlur stdDeviation="6" result="blur-7"/>
      <feFlood flood-opacity="0.161"/>
      <feComposite operator="in" in2="blur-7"/>
      <feComposite in="SourceGraphic"/>
    </filter>
  </defs>
  <g id="Group_8" data-name="Group 8" transform="translate(-2434.924 734.684) rotate(-45)">
    <g id="Group_7" data-name="Group 7">
      <g transform="matrix(0.71, 0.71, -0.71, 0.71, 2241.25, 1202.25)" filter="url(#Rectangle_3)">
        <rect id="Rectangle_3-2" data-name="Rectangle 3" width="502" height="471" rx="75" transform="translate(35 354.97) rotate(-45)" fill="#2155cd"/>
      </g>
      <g id="Group_6" data-name="Group 6" transform="translate(2019.519 1651.671) rotate(-20)">
        <g transform="matrix(0.42, 0.91, -0.91, 0.42, 362.07, -346.48)" filter="url(#Path_7)">
          <path id="Path_7-2" data-name="Path 7" d="M0,221.293S58.153,57.223,75.451,8.351,195.464,139.2,235.469,182.818,285.024,51.968,301.543,8.351" transform="translate(182.04 429.46) rotate(-52)" fill="none" stroke="#fdfdfd" stroke-width="50"/>
        </g>
        <g transform="matrix(0.42, 0.91, -0.91, 0.42, 362.07, -346.48)" filter="url(#Path_8)">
          <path id="Path_8-2" data-name="Path 8" d="M0,221.293S58.153,57.223,75.451,8.351,195.464,139.2,235.469,182.818,285.024,51.968,301.543,8.351" transform="translate(215.95 359.93) rotate(-52)" fill="none" stroke="#fdfdfd" stroke-width="50"/>
        </g>
      </g>
    </g>
    <g transform="matrix(0.71, 0.71, -0.71, 0.71, 2241.25, 1202.25)" filter="url(#Ellipse_3)">
      <circle id="Ellipse_3-2" data-name="Ellipse 3" cx="38.5" cy="38.5" r="38.5" transform="translate(368.45 138.02) rotate(-46)" fill="#f66b0e"/>
    </g>
    <g transform="matrix(0.71, 0.71, -0.71, 0.71, 2241.25, 1202.25)" filter="url(#Ellipse_4)">
      <circle id="Ellipse_4-2" data-name="Ellipse 4" cx="38.5" cy="38.5" r="38.5" transform="translate(289.97 557.34) rotate(-46)" fill="#f66b0e"/>
    </g>
    <g transform="matrix(0.71, 0.71, -0.71, 0.71, 2241.25, 1202.25)" filter="url(#Ellipse_5)">
      <ellipse id="Ellipse_5-2" data-name="Ellipse 5" cx="19.25" cy="19.25" rx="19.25" ry="19.25" transform="translate(317.19 556.86) rotate(-46)" fill="#fdfdfd"/>
    </g>
    <g transform="matrix(0.71, 0.71, -0.71, 0.71, 2241.25, 1202.25)" filter="url(#Ellipse_6)">
      <ellipse id="Ellipse_6-2" data-name="Ellipse 6" cx="19.25" cy="19.25" rx="19.25" ry="19.25" transform="translate(395.67 137.55) rotate(-46)" fill="#fdfdfd"/>
    </g>
  </g>
</svg>
