<svg xmlns="http://www.w3.org/2000/svg" xmlns:xlink="http://www.w3.org/1999/xlink" width="674" height="675" viewBox="0 0 674 675"><defs><filter id="a" x="0" y="0" width="674" height="675" filterUnits="userSpaceOnUse"><feOffset dx="-20" dy="23" input="SourceAlpha"/><feGaussianBlur stdDeviation="3" result="b"/><feFlood flood-opacity="0.161"/><feComposite operator="in" in2="b"/><feComposite in="SourceGraphic"/></filter></defs><g transform="translate(-1188 -269)"><g transform="matrix(1, 0, 0, 1, 1188, 269)" filter="url(#a)"><rect width="645" height="643" rx="48" transform="translate(29)" fill="#ff4c29"/></g><g transform="translate(1309.271 398.584)"><path d="M24.314.005c13.712.287,25.061,12.152,25.348,26.5L55.117,299.32c.287,14.35-10.6,25.75-24.309,25.463S5.747,312.63,5.46,298.281L.006,25.468C-.281,11.118,10.6-.282,24.314.005Z" transform="translate(116.393 15.308) rotate(21)" fill="#151d3b"/><path d="M26.525.006C41.483.319,53.864,13.263,54.177,28.917l5.36,268.089c.313,15.654-11.56,28.09-26.519,27.777S5.68,311.526,5.367,295.872L.006,27.783C-.307,12.129,11.566-.307,26.525.006Z" transform="translate(404.964 13.288) rotate(21)" fill="#151d3b"/><path d="M35.821.011C49.733-.4,60.678,10.735,60.265,24.884L50.394,363.756c-.412,14.149-12.025,25.953-25.937,26.365S-.4,379.4.011,365.248L9.883,26.377C10.3,12.228,21.908.423,35.821.011Z" transform="translate(40.201 40.785) rotate(-37)" fill="#151d3b"/><path d="M35.821.011C49.733-.4,60.678,10.735,60.265,24.884L50.394,363.756c-.412,14.149-12.025,25.953-25.937,26.365S-.4,379.4.011,365.248L9.883,26.377C10.3,12.228,21.908.423,35.821.011Z" transform="translate(135.361 36.275) rotate(-37)" fill="#151d3b"/><path d="M24.314.005c13.712.287,25.061,12.152,25.348,26.5L55.117,299.32c.287,14.35-10.6,25.75-24.309,25.463S5.747,312.63,5.46,298.281L.006,25.468C-.281,11.118,10.6-.282,24.314.005Z" transform="translate(211.554 10.799) rotate(21)" fill="#151d3b"/><path d="M26.525.006C41.483.319,53.864,13.263,54.177,28.917l5.36,268.089c.313,15.654-11.56,28.09-26.519,27.777S5.68,311.526,5.367,295.872L.006,27.783C-.307,12.129,11.566-.307,26.525.006Z" transform="translate(309.803 17.797) rotate(21)" fill="#151d3b"/></g></g></svg>