<svg xmlns="http://www.w3.org/2000/svg" xmlns:xlink="http://www.w3.org/1999/xlink" width="1993.912" height="1719.549" viewBox="0 0 1993.912 1719.549">
  <defs>
    <filter id="Rectangle_212" x="0" y="412.812" width="1168.715" height="1306.737" filterUnits="userSpaceOnUse">
      <feOffset dx="-20" dy="14" input="SourceAlpha"/>
      <feGaussianBlur stdDeviation="3" result="blur"/>
      <feFlood flood-opacity="0.161"/>
      <feComposite operator="in" in2="blur"/>
      <feComposite in="SourceGraphic"/>
    </filter>
    <filter id="Rectangle_213" x="586.854" y="206.567" width="1017.631" height="1098.788" filterUnits="userSpaceOnUse">
      <feOffset dx="-20" dy="14" input="SourceAlpha"/>
      <feGaussianBlur stdDeviation="3" result="blur-2"/>
      <feFlood flood-opacity="0.161"/>
      <feComposite operator="in" in2="blur-2"/>
      <feComposite in="SourceGraphic"/>
    </filter>
    <filter id="Rectangle_215" x="736.063" y="367.324" width="724.111" height="817.161" filterUnits="userSpaceOnUse">
      <feOffset dx="-20" dy="14" input="SourceAlpha"/>
      <feGaussianBlur stdDeviation="3" result="blur-3"/>
      <feFlood flood-opacity="0.161"/>
      <feComposite operator="in" in2="blur-3"/>
      <feComposite in="SourceGraphic"/>
    </filter>
    <filter id="Rectangle_216" x="170.577" y="586.407" width="854.6" height="996.763" filterUnits="userSpaceOnUse">
      <feOffset dx="-20" dy="14" input="SourceAlpha"/>
      <feGaussianBlur stdDeviation="3" result="blur-4"/>
      <feFlood flood-opacity="0.161"/>
      <feComposite operator="in" in2="blur-4"/>
      <feComposite in="SourceGraphic"/>
    </filter>
    <filter id="Rectangle_214" x="1173.665" y="0" width="820.248" height="827.113" filterUnits="userSpaceOnUse">
      <feOffset dx="-20" dy="14" input="SourceAlpha"/>
      <feGaussianBlur stdDeviation="3" result="blur-5"/>
      <feFlood flood-opacity="0.161"/>
      <feComposite operator="in" in2="blur-5"/>
      <feComposite in="SourceGraphic"/>
    </filter>
    <filter id="Rectangle_217" x="1295.669" y="109.874" width="577.165" height="614.907" filterUnits="userSpaceOnUse">
      <feOffset dx="-20" dy="14" input="SourceAlpha"/>
      <feGaussianBlur stdDeviation="3" result="blur-6"/>
      <feFlood flood-opacity="0.161"/>
      <feComposite operator="in" in2="blur-6"/>
      <feComposite in="SourceGraphic"/>
    </filter>
    <filter id="Eloquent" x="263.012" y="696.929" width="670.331" height="776.518" filterUnits="userSpaceOnUse">
      <feOffset dx="-20" dy="14" input="SourceAlpha"/>
      <feGaussianBlur stdDeviation="3" result="blur-7"/>
      <feFlood flood-opacity="0.161"/>
      <feComposite operator="in" in2="blur-7"/>
      <feComposite in="SourceGraphic"/>
    </filter>
    <filter id="Versatile" x="833.84" y="481.084" width="532.337" height="620.417" filterUnits="userSpaceOnUse">
      <feOffset dx="-20" dy="14" input="SourceAlpha"/>
      <feGaussianBlur stdDeviation="3" result="blur-8"/>
      <feFlood flood-opacity="0.161"/>
      <feComposite operator="in" in2="blur-8"/>
      <feComposite in="SourceGraphic"/>
    </filter>
    <filter id="Proactive" x="1397.831" y="201.727" width="372.841" height="431.201" filterUnits="userSpaceOnUse">
      <feOffset dx="-20" dy="14" input="SourceAlpha"/>
      <feGaussianBlur stdDeviation="3" result="blur-9"/>
      <feFlood flood-opacity="0.161"/>
      <feComposite operator="in" in2="blur-9"/>
      <feComposite in="SourceGraphic"/>
    </filter>
  </defs>
  <g id="Group_248" data-name="Group 248" transform="translate(-234.948 -186.361)">
    <g transform="matrix(1, 0, 0, 1, 234.95, 186.36)" filter="url(#Rectangle_212)">
      <rect id="Rectangle_212-2" data-name="Rectangle 212" width="542" height="1193" rx="271" transform="matrix(0.81, -0.59, 0.59, 0.81, 29, 731.39)" fill="#fec260"/>
    </g>
    <g transform="matrix(1, 0, 0, 1, 234.95, 186.36)" filter="url(#Rectangle_213)">
      <rect id="Rectangle_213-2" data-name="Rectangle 213" width="542" height="935.961" rx="271" transform="matrix(0.81, -0.59, 0.59, 0.81, 615.85, 525.15)" fill="#fec260"/>
    </g>
    <g transform="matrix(1, 0, 0, 1, 234.95, 186.36)" filter="url(#Rectangle_215)">
      <rect id="Rectangle_215-2" data-name="Rectangle 215" width="309.241" height="756.961" rx="154.62" transform="matrix(0.81, -0.59, 0.59, 0.81, 765.06, 549.09)" fill="#3b185f"/>
    </g>
    <g transform="matrix(1, 0, 0, 1, 234.95, 186.36)" filter="url(#Rectangle_216)">
      <rect id="Rectangle_216-2" data-name="Rectangle 216" width="309.241" height="978.961" rx="154.62" transform="matrix(0.81, -0.59, 0.59, 0.81, 199.58, 768.17)" fill="#3b185f"/>
    </g>
    <g transform="matrix(1, 0, 0, 1, 234.95, 186.36)" filter="url(#Rectangle_214)">
      <rect id="Rectangle_214-2" data-name="Rectangle 214" width="542" height="600.152" rx="271" transform="matrix(0.81, -0.59, 0.59, 0.81, 1202.66, 318.58)" fill="#fec260"/>
    </g>
    <g transform="matrix(1, 0, 0, 1, 234.95, 186.36)" filter="url(#Rectangle_217)">
      <rect id="Rectangle_217-2" data-name="Rectangle 217" width="309.241" height="506.961" rx="154.62" transform="matrix(0.81, -0.59, 0.59, 0.81, 1324.67, 291.64)" fill="#3b185f"/>
    </g>
    <g transform="matrix(1, 0, 0, 1, 234.95, 186.36)" filter="url(#Eloquent)">
      <text id="Eloquent-2" data-name="Eloquent" transform="translate(333.54 793.82) rotate(53)" fill="#fcf6cd" font-size="163" font-family="Fira Code"><tspan x="0" y="0">Eloquent</tspan></text>
    </g>
    <g transform="matrix(1, 0, 0, 1, 234.95, 186.36)" filter="url(#Versatile)">
      <text id="Versatile-2" data-name="Versatile" transform="translate(893.19 550.9) rotate(53)" fill="#fcf6cd" font-size="117" font-family="Fira Code"><tspan x="0" y="0">Versatile</tspan></text>
    </g>
    <g transform="matrix(1, 0, 0, 1, 234.95, 186.36)" filter="url(#Proactive)">
      <text id="Proactive-2" data-name="Proactive" transform="translate(1447.6 249.27) rotate(53)" fill="#fcf6cd" font-size="80" font-family="Fira Code"><tspan x="0" y="0">Proactive</tspan></text>
    </g>
  </g>
</svg>
