<svg xmlns="http://www.w3.org/2000/svg" width="40" height="36" viewBox="0 0 40 36">
  <path id="about_destination" d="M4,42V18L20,6l12.05,9.05a9.8,9.8,0,0,0-1.975.2,10.271,10.271,0,0,0-1.925.6L20,9.75,7,19.5V39h9.5v3Zm16,0V38.2a3.938,3.938,0,0,1,.525-1.975A4.033,4.033,0,0,1,21.95,34.75a20.11,20.11,0,0,1,4.825-2.05,19.85,19.85,0,0,1,10.45,0,20.11,20.11,0,0,1,4.825,2.05,4.033,4.033,0,0,1,1.425,1.475A3.938,3.938,0,0,1,44,38.2V42Zm3-3H41V37.55a20.785,20.785,0,0,0-4.35-1.875A16.1,16.1,0,0,0,32,35a15.562,15.562,0,0,0-4.65.7A21.8,21.8,0,0,0,23,37.6Zm9-9a5.975,5.975,0,0,1-6-6,6.01,6.01,0,0,1,10.25-4.25,6.036,6.036,0,0,1,0,8.5A5.786,5.786,0,0,1,32,30Zm0-3a2.87,2.87,0,0,0,2.15-.875,3.023,3.023,0,0,0-4.275-4.275A3.013,3.013,0,0,0,32,27Z" transform="translate(-4 -6)" fill="#fff"/>
</svg>
