<svg xmlns="http://www.w3.org/2000/svg" width="36.8" height="40" viewBox="0 0 36.8 40">
  <path id="about_background" d="M37.35,44a29.073,29.073,0,0,0,1.725-7.025A32.176,32.176,0,0,0,39.1,29.7a14.878,14.878,0,0,1-5.725,7.525A15.761,15.761,0,0,1,24.15,40.1a15.35,15.35,0,0,1-7.875-2.025,18.2,18.2,0,0,1-5.825-5.4,25.938,25.938,0,0,1-3.6-7.725,32.425,32.425,0,0,1-1.25-9A43.079,43.079,0,0,1,6.025,9.9,27.448,27.448,0,0,1,7.55,4h3.1A30.521,30.521,0,0,0,9,11.025a37.329,37.329,0,0,0-.1,7.225,14.654,14.654,0,0,1,5.875-7.475A16.45,16.45,0,0,1,24.15,7.9,14.9,14.9,0,0,1,32,9.95a18.233,18.233,0,0,1,5.7,5.425,25.81,25.81,0,0,1,3.5,7.7A33.227,33.227,0,0,1,42.4,32a43.611,43.611,0,0,1-.425,6.075A27.413,27.413,0,0,1,40.45,44Zm-13.2-7a12.89,12.89,0,0,0,13-13,12.89,12.89,0,0,0-13-13,12.89,12.89,0,0,0-13,13,12.89,12.89,0,0,0,13,13Zm0-5.5a7.427,7.427,0,0,0,7.5-7.5,7.427,7.427,0,0,0-7.5-7.5,7.427,7.427,0,0,0-7.5,7.5,7.427,7.427,0,0,0,7.5,7.5Zm0-3a4.44,4.44,0,0,1-4.5-4.5,4.44,4.44,0,0,1,4.5-4.5,4.44,4.44,0,0,1,4.5,4.5,4.44,4.44,0,0,1-4.5,4.5Zm0-4.5Z" transform="translate(-5.6 -4)" fill="#fff"/>
</svg>
