<svg id="Group_16164" data-name="Group 16164" xmlns="http://www.w3.org/2000/svg" width="423.733" height="392" viewBox="0 0 423.733 392">
  <path id="Path_2699" data-name="Path 2699" d="M127.549,0A127.549,127.549,0,0,1,255.1,127.549c0,36.842-112.191-31.887-144.078,0S161.15,255.1,127.549,255.1a127.549,127.549,0,0,1,0-255.1Z" transform="translate(168.636 136.902)" fill="#d5cdde"/>
  <path id="Path_2698" data-name="Path 2698" d="M144.489,0a127.549,127.549,0,0,1,0,255.1c-70.443,0,0-57.106,0-127.549S74.046,0,144.489,0Z" transform="translate(-113.181 136.902)" fill="#d0f0d6"/>
  <circle id="Ellipse_60" data-name="Ellipse 60" cx="84" cy="84" r="84" transform="translate(84.319)" fill="#a7d6e6"/>
  <circle id="Ellipse_65" data-name="Ellipse 65" cx="44.5" cy="44.5" r="44.5" transform="translate(124.319 40)" fill="#f1ffff"/>
</svg>
