<svg xmlns="http://www.w3.org/2000/svg" width="189.911" height="241" viewBox="0 0 189.911 241">
  <path id="directions-svgrepo-com" d="M200.685,84.275,181.6,68.95A19.841,19.841,0,0,0,170.792,65H133.167V17.433A17.152,17.152,0,0,0,116.067,0h-.135A17.72,17.72,0,0,0,98.166,17.433V23H58.208A19.443,19.443,0,0,0,47.4,26.592L28.314,41.646a6.771,6.771,0,0,0,0,10.924L47.4,67.473A19.376,19.376,0,0,0,58.208,71H98.166v37H58.208A19.678,19.678,0,0,0,47.4,111.81L28.313,126.973a6.85,6.85,0,0,0,0,11l19.083,15.2A19.692,19.692,0,0,0,58.208,157H98.166v37H57.932a17.72,17.72,0,0,0-17.766,17.433v.135A17.72,17.72,0,0,0,57.932,229H173.067a17.151,17.151,0,0,0,17.1-17.433v-.135A17.152,17.152,0,0,0,173.067,194h-39.9V114h37.625a19.532,19.532,0,0,0,10.81-3.68l19.084-15.1a6.79,6.79,0,0,0,0-10.944Z" transform="translate(-19.544 6)" fill="none" stroke="#000" stroke-width="12" opacity="0.999"/>
</svg>
