<svg xmlns="http://www.w3.org/2000/svg" width="107.117" height="62.399" viewBox="0 0 107.117 62.399">
  <g id="Group_16126" data-name="Group 16126" transform="translate(-344 -283.84)">
    <path id="Path_11" data-name="Path 11" d="M12.3,68.6h0A9.063,9.063,0,0,1,7.7,56.7L25.8,15.5a9.063,9.063,0,0,1,11.9-4.6h0a9.063,9.063,0,0,1,4.6,11.9L24.1,64A8.9,8.9,0,0,1,12.3,68.6Z" transform="translate(359.058 273.699)" fill="#6cc57c"/>
    <path id="Path_14" data-name="Path 14" d="M12.3,68.6h0A9.063,9.063,0,0,1,7.7,56.7L25.8,15.5a9.063,9.063,0,0,1,11.9-4.6h0a9.063,9.063,0,0,1,4.6,11.9L24.1,64A8.9,8.9,0,0,1,12.3,68.6Z" transform="translate(337.058 273.699)" fill="#020202"/>
    <path id="Path_13" data-name="Path 13" d="M62.3,68.6h0a9.063,9.063,0,0,1-4.6-11.9L75.8,15.5a9.063,9.063,0,0,1,11.9-4.6h0a9.063,9.063,0,0,1,4.6,11.9L74.2,64A8.979,8.979,0,0,1,62.3,68.6Z" transform="translate(358.058 275.919)" fill="#020202"/>
    <path id="Path_10" data-name="Path 10" d="M67.5,69.2h0a9.1,9.1,0,0,1-10.4-7.4l-7-41.2a9.1,9.1,0,0,1,7.4-10.4h0a9.1,9.1,0,0,1,10.4,7.4l7,41.2A9,9,0,0,1,67.5,69.2Z" transform="translate(358.058 276.919)" fill="#6cc57c"/>
    <path id="Path_12" data-name="Path 12" d="M37.3,68.6h0a9.063,9.063,0,0,1-4.6-11.9L50.8,15.5a9.063,9.063,0,0,1,11.9-4.6h0a9.063,9.063,0,0,1,4.6,11.9L49.1,64A8.9,8.9,0,0,1,37.3,68.6Z" transform="translate(358.058 275.919)" fill="#020202"/>
  </g>
</svg>
