<svg xmlns="http://www.w3.org/2000/svg" width="349.538" height="338.857" viewBox="0 0 349.538 338.857">
  <g id="filled_line" data-name="filled line" transform="translate(-2.732 -1.281)">
    <path id="Path_2710" data-name="Path 2710" d="M17.427,17.663a7.711,7.711,0,0,1-3.09-3.09,1,1,0,0,0-.735-.517,1.01,1.01,0,0,0-.853.282l-9,9a3.474,3.474,0,1,0,4.912,4.912l9-9a1,1,0,0,0-.234-1.588Z" transform="translate(84 230.87)" fill="#1a1a1a"/>
    <path id="Path_2714" data-name="Path 2714" d="M319.9,38.323a42.3,42.3,0,0,0-3.036-3.181,35.315,35.315,0,0,0-2.836-2.506C276.912-.82,222.2-8.266,177.022,13.99a43.993,43.993,0,0,0-10.57-1.438h-.011A45.159,45.159,0,0,0,135.593,24.79a40.765,40.765,0,0,0-11.184,40.56,114.035,114.035,0,0,0-2.688,99.96L15.439,268.346a41.15,41.15,0,0,0,0,59.476,44.355,44.355,0,0,0,61.352,0L183.051,224.8a122.415,122.415,0,0,0,103.34-2.728,43.946,43.946,0,0,0,10.768,1.5,5.107,5.107,0,0,0,.611,0,43.143,43.143,0,0,0,30.252-12.236h.006a41.391,41.391,0,0,0,11.249-40.395c22.824-43.777,15.09-96.7-19.378-132.613ZM297.258,50.584c.28.26.792.674,1.1.91a12.164,12.164,0,0,1,1.043.958,12.4,12.4,0,0,1,1.11,1.136,11.868,11.868,0,0,0,.884,1,90.8,90.8,0,0,1,21.356,92.154l-60.273-58.43L202.211,29.892a98.072,98.072,0,0,1,95.047,20.692ZM59.129,310.7a18.819,18.819,0,0,1-26.031,0,17.461,17.461,0,0,1,0-25.235l101.383-98.28c.087.121.2.217.295.333a118.24,118.24,0,0,0,25.4,24.62c.125.085.219.2.336.28ZM186.269,199.624a94.8,94.8,0,0,1-38.613-37.45,90.846,90.846,0,0,1-6.8-72.811L261.406,206.229a99.328,99.328,0,0,1-75.142-6.606Zm124.1-5.416h-.006a18.083,18.083,0,0,1-12.758,5.143,20.7,20.7,0,0,1-7.672-1.477,16.864,16.864,0,0,1-5.6-3.666L153.261,67.15c-.237-.23-.4-.484-.624-.726.375-.536.722-1.09,1.105-1.618a93.485,93.485,0,0,1,10.425-12.318,95.843,95.843,0,0,1,12.721-10.119c.538-.363,1.1-.7,1.649-1.058.241.212.508.363.742.6l131.085,127.07a16.731,16.731,0,0,1,3.92,5.77,17.4,17.4,0,0,1-3.92,19.462Z" transform="translate(0 0)" opacity="0.646"/>
  </g>
</svg>
