<svg xmlns="http://www.w3.org/2000/svg" width="370.5" height="344.331" viewBox="0 0 370.5 344.331">
  <g id="Group_227" data-name="Group 227" transform="translate(-650.946 -1988.28)">
    <path id="api-management-svgrepo-com" d="M792.149,803.714c-26.208,0-47.756,23.4-47.756,51.853s21.549,51.853,47.756,51.853,47.756-23.4,47.756-51.853S818.356,803.714,792.149,803.714Zm46.2-193.177c-69.7,0-102.706,58.715-110.495,74.56H703.816l-.936.339a98.885,98.885,0,0,0-36.519,15.59c-18.326,12.677-37.456,36.632-37.456,74.9,0,42.567,21.635,67.618,42.45,79.643a100.417,100.417,0,0,0,41.513,12.878l.312.338h.311l82.4-1.016v-21.69L713.8,847.093s-.6,0-.624,0a86.609,86.609,0,0,1-32.462-10.845c-16.418-9.485-31.838-25.292-31.838-60.326,0-30.818,13.643-46.6,28.092-56.6A81.478,81.478,0,0,1,706,706.786h34.023l2.5-6.1s28.182-68.459,95.824-68.459c33.986,0,54.412,13.375,68.357,28.468s20.666,31.882,24.659,41.008c2.193,5.013,4.073,23.317,4.058,38.635s-.936,28.469-.936,28.469l-.936,12.2,11.237-.678a45.717,45.717,0,0,1,18.1,4.067c8.751,4.19,16.517,10.56,16.543,30.841.019,13.727-5.855,20.016-12.8,24.74a42.124,42.124,0,0,1-14.046,6.1l-83.027-1.695-.311,21.69,84.9,1.695h.936l.624-.338a61.3,61.3,0,0,0,21.537-9.151c10.682-7.269,22.189-21.469,22.161-43.041-.039-27.648-14.652-44.253-28.4-50.836-5.959-2.853-11.494-3.68-16.231-4.406.318-5.4.613-9.013.625-19.656.019-16.332.029-34.158-5.931-47.786-3.42-7.818-11.371-29.012-28.4-47.447s-43.8-34.569-82.715-34.569Zm-46.2,144.036a85.755,85.755,0,0,0-35.583,8.134l9.676,23.046a64.426,64.426,0,0,1,25.907-5.761c38.25,0,68.669,33.367,68.669,74.9s-30.419,74.56-68.669,74.56a64.446,64.446,0,0,1-27.155-5.761l-9.676,23.046a85.714,85.714,0,0,0,36.832,8.134c50.855,0,92.079-44.76,92.079-99.978S843,754.573,792.149,754.573Z" transform="translate(22.042 1377.744)" fill="#3b185f"/>
  </g>
</svg>
