<svg xmlns="http://www.w3.org/2000/svg" width="149.488" height="156.314" viewBox="0 0 149.488 156.314">
  <g id="XMLID_1256_" transform="translate(6.499)">
    <path id="XMLID_1257_" d="M277.445,181.3h0L250,208.144,289,241.8V170Z" transform="translate(-146.008 -134.1)" fill="#fec260"/>
    <path id="XMLID_1258_" d="M25,170v71.8l39-33.656Z" transform="translate(-25 -119.142)" fill="#fec260"/>
    <path id="XMLID_1259_" d="M64,297.5,25,331.156H77V310.215Z" transform="translate(-31.499 -174.842)" fill="#fec260"/>
    <path id="XMLID_1260_" d="M205,310.215v20.942h52L218,297.5Z" transform="translate(-153.004 -208.498)" fill="#fec260"/>
    <path id="XMLID_1261_" d="M36.553,132.229,25,143.529H36.552Z" transform="translate(-25 -92.671)" fill="#fec260"/>
    <path id="XMLID_1262_" d="M356.558,143.527l-11.553-11.3v11.3Z" transform="translate(-252.566 -92.669)" fill="#fec260"/>
    <path id="XMLID_1263_" d="M159.639,0,141.213,18.023l36.805-.045Z" transform="translate(-107.643)" fill="#fec260"/>
    <path id="XMLID_1264_" d="M345.009,181.3,356.56,170H345.008Z" transform="translate(-252.569 -119.142)" fill="#fec260"/>
    <path id="XMLID_1265_" d="M77,220.858,36.551,181.3V170H25l39,38.144Z" transform="translate(-25 -119.142)" fill="#fec260"/>
    <path id="XMLID_1266_" d="M64.986,104.206l40.445,39.56,13-12.715,27.445-26.844h0V60l-22.062.028-36.805.045L64.99,60.1l0,21.509v22.6ZM79.433,95.9h52v8.975h-52Zm0-8.975V77.95h52v8.975Z" transform="translate(-53.435 -42.05)" fill="#795b98"/>
    <rect id="XMLID_1270_" width="51.996" height="8.975" transform="translate(25.998 35.9)" fill="#fec260"/>
    <rect id="XMLID_1271_" width="51.996" height="8.975" transform="translate(25.998 53.85)" fill="#fec260"/>
  </g>
</svg>
