<svg xmlns="http://www.w3.org/2000/svg" width="26.068" height="29.537" viewBox="0 0 26.068 29.537">
  <g id="Path_2705" data-name="Path 2705" transform="translate(29 -2.231) rotate(90)" fill="#a7d6e6">
    <path d="M 28.76391983032227 28.50000190734863 L 5.236080169677734 28.50000190734863 C 4.328829765319824 28.50000190734863 3.517920017242432 28.03003120422363 3.066900014877319 27.24284172058105 C 2.615869998931885 26.45564270019531 2.620520114898682 25.51839256286621 3.079339981079102 24.73570251464844 L 14.8432502746582 4.667842388153076 C 15.29683017730713 3.894082069396973 16.10309982299805 3.43214225769043 17 3.43214225769043 C 17.89690017700195 3.43214225769043 18.70315933227539 3.894082069396973 19.15674018859863 4.667842388153076 L 30.9206600189209 24.73570251464844 C 31.37948036193848 25.51839256286621 31.38413047790527 26.45563125610352 30.93310928344727 27.24283218383789 C 30.48208045959473 28.03003120422363 29.67116928100586 28.50000190734863 28.76391983032227 28.50000190734863 Z" stroke="none"/>
    <path d="M 17 3.93214225769043 C 16.282470703125 3.93214225769043 15.63746070861816 4.301692962646484 15.27459907531738 4.92070198059082 L 3.510690689086914 24.98856163024902 C 3.14362907409668 25.61471176147461 3.139909744262695 26.364501953125 3.500730514526367 26.9942626953125 C 3.861549377441406 27.62402153015137 4.510280609130859 28.00000190734863 5.236080169677734 28.00000190734863 L 28.76391983032227 28.00000190734863 C 29.48971939086914 28.00000190734863 30.13845062255859 27.62402153015137 30.49926948547363 26.9942626953125 C 30.8600902557373 26.364501953125 30.85636901855469 25.61471176147461 30.48930931091309 24.98856163024902 L 18.72539138793945 4.92070198059082 C 18.36252975463867 4.301692962646484 17.71751976013184 3.93214225769043 17 3.93214225769043 M 16.99999809265137 2.93214225769043 C 18.00429534912109 2.93214225769043 19.00859069824219 3.426422119140625 19.58808898925781 4.414981842041016 L 31.35201072692871 24.48284149169922 C 32.52439117431641 26.48277282714844 31.08214950561523 29.00000190734863 28.76391983032227 29.00000190734863 L 5.236080169677734 29.00000190734863 C 2.917850494384766 29.00000190734863 1.475608825683594 26.48277282714844 2.647989273071289 24.48284149169922 L 14.41189956665039 4.414981842041016 C 14.99140548706055 3.426422119140625 15.99570274353027 2.93214225769043 16.99999809265137 2.93214225769043 Z" stroke="none" fill="#a7d6e6"/>
  </g>
</svg>
