<svg xmlns="http://www.w3.org/2000/svg" xmlns:xlink="http://www.w3.org/1999/xlink" width="292" height="299" viewBox="0 0 292 299"><defs><linearGradient id="a" x1="0.041" y1="0.347" x2="0.974" y2="0.943" gradientUnits="objectBoundingBox"><stop offset="0" stop-color="#31ba6b"/><stop offset="1" stop-color="#0a7c66"/></linearGradient><filter id="b" x="0" y="0" width="236" height="133" filterUnits="userSpaceOnUse"><feOffset dx="-8" dy="-6" input="SourceAlpha"/><feGaussianBlur stdDeviation="10" result="c"/><feFlood flood-opacity="0.161"/><feComposite operator="in" in2="c"/><feComposite in="SourceGraphic"/></filter><linearGradient id="d" x1="0.977" y1="0.063" x2="0.02" y2="1" gradientUnits="objectBoundingBox"><stop offset="0" stop-color="#f56666"/><stop offset="1" stop-color="#e02525"/></linearGradient><filter id="e" x="56" y="83" width="236" height="133" filterUnits="userSpaceOnUse"><feOffset dx="-8" dy="-6" input="SourceAlpha"/><feGaussianBlur stdDeviation="10" result="f"/><feFlood flood-opacity="0.161"/><feComposite operator="in" in2="f"/><feComposite in="SourceGraphic"/></filter><linearGradient id="g" x1="0.027" y1="0.05" x2="1" y2="1" gradientUnits="objectBoundingBox"><stop offset="0" stop-color="#ffeb00"/><stop offset="1" stop-color="#e3d357"/></linearGradient><filter id="h" x="24" y="166" width="236" height="133" filterUnits="userSpaceOnUse"><feOffset dx="-8" dy="-6" input="SourceAlpha"/><feGaussianBlur stdDeviation="10" result="i"/><feFlood flood-opacity="0.161"/><feComposite operator="in" in2="i"/><feComposite in="SourceGraphic"/></filter></defs><g transform="translate(-218 -1376)"><g transform="translate(-22 2)"><g transform="matrix(1, 0, 0, 1, 240, 1374)" filter="url(#b)"><rect width="176" height="73" rx="6" transform="translate(38 36)" fill="url(#a)"/></g><text transform="translate(326 1458)" fill="#fff" font-size="46" font-family="Dancing Script"><tspan x="0" y="0">God</tspan></text></g><g transform="translate(34 -2)"><g transform="matrix(1, 0, 0, 1, 184, 1378)" filter="url(#e)"><rect width="176" height="73" rx="6" transform="translate(94 119)" fill="url(#d)"/></g><text transform="translate(319 1541)" fill="#fff" font-size="39" font-family="Dancing Script"><tspan x="0" y="0">Family</tspan></text></g><g transform="translate(2 -6)"><g transform="matrix(1, 0, 0, 1, 216, 1382)" filter="url(#h)"><rect width="176" height="73" rx="6" transform="translate(62 202)" fill="url(#g)"/></g><text transform="translate(300 1630)" fill="#fff" font-size="29" font-family="Dancing Script"><tspan x="0" y="0">Mathematics</tspan></text></g></g></svg>