<svg xmlns="http://www.w3.org/2000/svg" width="72.4" height="72.4" viewBox="0 0 72.4 72.4">
  <g id="linkedin" transform="matrix(0.999, 0.035, -0.035, 0.999, 2.443, 0)">
    <ellipse id="Ellipse_276" data-name="Ellipse 276" cx="35" cy="35" rx="35" ry="35" transform="translate(0)" fill="#007ab9"/>
    <g id="Group_170" data-name="Group 170" transform="translate(16.463 14.615)">
      <path id="Path_4664" data-name="Path 4664" d="M39.8,23.318V38.035H31.27V24.3c0-3.448-1.232-5.8-4.322-5.8a4.667,4.667,0,0,0-4.377,3.12,5.84,5.84,0,0,0-.283,2.08V38.035H13.756s.115-23.257,0-25.664H22.29v3.637c-.017.029-.041.057-.057.084h.057v-.084a8.473,8.473,0,0,1,7.69-4.239c5.614,0,9.823,3.668,9.823,11.549ZM4.829,0C1.91,0,0,1.916,0,4.434A4.419,4.419,0,0,0,4.717,8.869h.055C7.748,8.869,9.6,6.9,9.6,4.434A4.433,4.433,0,0,0,4.829,0ZM.507,38.035h8.53V12.371H.507Z" fill="#f1f2f2"/>
    </g>
  </g>
</svg>
