<svg xmlns="http://www.w3.org/2000/svg" width="71.211" height="71.211" viewBox="0 0 71.211 71.211">
  <g id="github" transform="matrix(1, -0.017, 0.017, 1, 0, 1.222)">
    <path id="SVGCleanerId_0" d="M35,0C15.672,0,0,16.065,0,35.888A35.819,35.819,0,0,0,23.94,69.938c1.749.331,2.387-.777,2.387-1.73,0-.851-.03-3.107-.047-6.1-9.738,2.171-11.792-4.81-11.792-4.81C12.9,53.148,10.6,52.047,10.6,52.047c-3.179-2.228.239-2.185.239-2.185,3.511.253,5.36,3.7,5.36,3.7,3.125,5.484,8.195,3.9,10.188,2.979a7.728,7.728,0,0,1,2.221-4.8c-7.77-.907-15.94-3.984-15.94-17.734a14.081,14.081,0,0,1,3.6-9.632,13.185,13.185,0,0,1,.341-9.494s2.94-.964,9.625,3.678a32.352,32.352,0,0,1,17.527,0c6.679-4.642,9.615-3.678,9.615-3.678a13.18,13.18,0,0,1,.347,9.494,14.051,14.051,0,0,1,3.6,9.632c0,13.785-8.183,16.817-15.98,17.707,1.257,1.108,2.375,3.3,2.375,6.646,0,4.8-.042,8.666-.042,9.843,0,.962.631,2.079,2.406,1.725A35.827,35.827,0,0,0,70,35.888C70,16.065,54.328,0,35,0Z" transform="translate(0 0)" fill="#3e77bf"/>
    <g id="Group_171" data-name="Group 171" transform="translate(0 0)">
      <path id="SVGCleanerId_0_1_" d="M35,0C15.672,0,0,16.065,0,35.888A35.819,35.819,0,0,0,23.94,69.938c1.749.331,2.387-.777,2.387-1.73,0-.851-.03-3.107-.047-6.1-9.738,2.171-11.792-4.81-11.792-4.81C12.9,53.148,10.6,52.047,10.6,52.047c-3.179-2.228.239-2.185.239-2.185,3.511.253,5.36,3.7,5.36,3.7,3.125,5.484,8.195,3.9,10.188,2.979a7.728,7.728,0,0,1,2.221-4.8c-7.77-.907-15.94-3.984-15.94-17.734a14.081,14.081,0,0,1,3.6-9.632,13.185,13.185,0,0,1,.341-9.494s2.94-.964,9.625,3.678a32.352,32.352,0,0,1,17.527,0c6.679-4.642,9.615-3.678,9.615-3.678a13.18,13.18,0,0,1,.347,9.494,14.051,14.051,0,0,1,3.6,9.632c0,13.785-8.183,16.817-15.98,17.707,1.257,1.108,2.375,3.3,2.375,6.646,0,4.8-.042,8.666-.042,9.843,0,.962.631,2.079,2.406,1.725A35.827,35.827,0,0,0,70,35.888C70,16.065,54.328,0,35,0Z" fill="#3e77bf"/>
    </g>
    <g id="Group_172" data-name="Group 172" transform="translate(16.891 14.985)">
      <path id="Path_4665" data-name="Path 4665" d="M12.07,0a13.152,13.152,0,0,1,.31,9.394,14.05,14.05,0,0,1,3.6,9.632C15.98,32.811,7.8,35.843,0,36.734c1.257,1.108,2.375,3.3,2.375,6.646,0,4.8-.042,8.666-.042,9.844,0,.962.631,2.079,2.406,1.725A35.826,35.826,0,0,0,28.654,20.9,36.621,36.621,0,0,0,26.6,8.768C21.772,3.579,16.4.123,12.07,0Z" transform="translate(24.455)" fill="#114c82"/>
      <path id="Path_4666" data-name="Path 4666" d="M10.343,6.758A6.151,6.151,0,0,1,11.72,4.864C7.462,4.365,3.088,3.2,0,0,2.375,4.038,6.244,5.875,10.343,6.758Z" transform="translate(0 31.897)" fill="#114c82"/>
    </g>
    <path id="Path_4667" data-name="Path 4667" d="M1.822,38.307c0-19.823,15.672-35.888,35-35.888A34.575,34.575,0,0,1,63.57,15.173,34.7,34.7,0,0,0,35,0C15.672,0,0,16.065,0,35.888A36.247,36.247,0,0,0,8.292,59.063,36.3,36.3,0,0,1,1.822,38.307Z" transform="translate(0 0)" fill="#6ca9ea"/>
    <path id="Path_4668" data-name="Path 4668" d="M4.2,43.56c0-3.348-1.119-5.54-2.375-6.648,7.8-.888,15.981-3.923,15.981-17.706a14.039,14.039,0,0,0-3.6-9.631A13.141,13.141,0,0,0,13.855.08,3.446,3.446,0,0,0,12.741.01a12.476,12.476,0,0,1-.36,7.144,14.05,14.05,0,0,1,3.6,9.633C15.98,30.571,7.8,33.6,0,34.494c1.257,1.108,2.375,3.3,2.375,6.646,0,4.8-.042,8.666-.042,9.844a1.683,1.683,0,0,0,1.823,1.788C4.166,51.15,4.2,47.705,4.2,43.56Z" transform="translate(41.346 17.224)" fill="#083e66"/>
    <path id="Path_4669" data-name="Path 4669" d="M0,0C.735,1.545,3.205,5.246,9.722,4.467c-.009-.814-.016-1.726-.02-2.728C4.674,2.86,1.706,1.538,0,0Z" transform="translate(16.578 60.366)" fill="#114c82"/>
    <path id="Path_4670" data-name="Path 4670" d="M1.257,1.52A8.787,8.787,0,0,0,0,0,8.575,8.575,0,0,0,1.257,1.52Z" transform="translate(16.578 54.147)" fill="#6ca9ea"/>
  </g>
</svg>
