<svg xmlns="http://www.w3.org/2000/svg" width="79.061" height="79.061" viewBox="0 0 79.061 79.061">
  <g id="twitter" transform="translate(9.742) rotate(8)">
    <ellipse id="Ellipse_279" data-name="Ellipse 279" cx="35" cy="35" rx="35" ry="35" transform="translate(0)" fill="#55acee"/>
    <g id="Group_180" data-name="Group 180" transform="translate(15.225 20.849)">
      <path id="Path_4703" data-name="Path 4703" d="M41.591,4a17.025,17.025,0,0,1-4.9,1.342A8.556,8.556,0,0,0,40.443.624a17.082,17.082,0,0,1-5.419,2.07,8.54,8.54,0,0,0-14.541,7.784A24.222,24.222,0,0,1,2.895,1.561a8.542,8.542,0,0,0,2.64,11.393A8.473,8.473,0,0,1,1.67,11.885c0,.036,0,.073,0,.108A8.538,8.538,0,0,0,8.515,20.36a8.566,8.566,0,0,1-3.853.148,8.542,8.542,0,0,0,7.971,5.926,17.121,17.121,0,0,1-10.6,3.653A17.183,17.183,0,0,1,0,29.966,24.136,24.136,0,0,0,13.079,33.8c15.7,0,24.279-13,24.279-24.279,0-.37-.008-.738-.025-1.1A17.3,17.3,0,0,0,41.591,4Z" transform="translate(0)" fill="#f1f2f2"/>
    </g>
  </g>
</svg>
