<svg xmlns="http://www.w3.org/2000/svg" width="330.575" height="423.609" viewBox="0 0 330.575 423.609">
  <g id="layer1" transform="translate(-0.373)">
    <path id="Path_2715" data-name="Path 2715" d="M153.458,0V22.484l-5.027,1.63-4.888,2.34-4.611,3.009-4.3,3.636-3.883,4.263-3.467,4.764L124.3,47.351l-2.427,5.6-1.872,5.935-1.248,6.144L118.1,71.3l-.035,6.352.555,6.269,1.213,6.144,1.768,5.976-17.16,39.034L87.766,174.4,71.438,213.978H11.5v21.4H62.807L48.212,272.613,33.93,310.059,20.618,346.168,19.4,349.511l-.693,3.552-.173,3.636.277,3.594.832,3.552,1.283,3.26L1.552,407.6l-.9,2.591L.373,412.91l.277,2.8.9,2.591,1.421,2.215L4.81,422.23l2.149,1.045,2.288.334,2.323-.334,2.115-1.045,1.837-1.713,1.387-2.215,19.413-40.539,3.12-.334,2.981-1,2.808-1.546,2.531-2.173,2.219-2.633,1.664-2.842,63.127-131.856h38.687v21.4h17.784v-21.4h38.687l63.057,131.647,1.768,3.051,2.184,2.633,2.531,2.173,2.808,1.546,3.016,1,3.085.334L307.791,418.3l1.387,2.215,1.872,1.713,2.115,1.045,2.288.334,2.323-.334,2.149-1.045,1.8-1.713,1.421-2.215.9-2.591.277-2.8-.277-2.717-.9-2.591-19.378-40.5,1.317-3.26.8-3.552.312-3.594-.208-3.636-.693-3.552-1.213-3.343L290.77,310.059l-14.248-37.446-14.629-37.237h69.055v-21.4H253.3L236.969,174.4,220.26,135.074,203.135,96.039l1.768-5.976,1.179-6.144.589-6.269-.035-6.352-.659-6.269-1.283-6.144-1.872-5.935-2.427-5.6-2.947-5.224-3.467-4.764L190.1,33.1l-4.3-3.636-4.611-3.009-4.888-2.34-5.061-1.63V0Zm7.835,42.8,4.264.251,4.195,1,4.021,1.839,3.709,2.591,3.328,3.26,2.843,3.845,2.253,4.388,1.733,4.764,1.005,5.015.347,5.14-.347,5.14-1.005,5.015-1.733,4.764L183.652,94.2l-2.843,3.845-3.328,3.26-3.709,2.591-4.021,1.8-4.195,1.045-4.264.251-4.264-.669L152.9,104.9l-3.848-2.215-3.536-2.925-3.085-3.594-2.565-4.1-1.976-4.6-1.387-4.89-.693-5.1V72.3l.693-5.1,1.387-4.89,1.976-4.6,2.565-4.1,3.085-3.594,3.536-2.925,3.848-2.215,4.125-1.421Zm-28.079,72.427,4.3,3.97,4.611,3.3,4.957,2.633L44.295,339.732l-.52.5-.659-.084-.416-.585v-.794l17.056-45.345L77.3,248.415,95.427,203.7l18.616-44.384Zm58.308,0,19.136,44.091L229.273,203.7l18.13,44.718,17.541,45.011L282,338.771v.794l-.416.585-.659.084-.485-.5L177.62,125.127l4.957-2.633,4.645-3.3Zm-29.154,20.771,37.3,77.985H171.242v-21.4H153.458s7.107,16.048,0,21.4-28.426,0-28.426,0Z"/>
  </g>
</svg>
