<svg xmlns="http://www.w3.org/2000/svg" width="502.69" height="470.222" viewBox="0 0 502.69 470.222">
  <g id="file-management-svgrepo-com" transform="translate(0 -16.234)">
    <g id="Group_239" data-name="Group 239">
      <g id="Group_238" data-name="Group 238">
        <path id="Path_6139" data-name="Path 6139" d="M486.9,253.06H138.312c-13.352,0-29.077,9.772-34.966,21.743L9.621,464.713c-5.889,11.972.194,21.743,13.5,21.743H371.729c13.352,0,29.077-9.772,34.966-21.743L500.442,274.8C506.331,262.832,500.248,253.06,486.9,253.06Z" fill="#3b185f"/>
        <path id="Path_6140" data-name="Path 6140" d="M138.312,228.771H397.1v-.906h33.629V16.234H120.02v37.9H62.6v87.124H30.631A30.759,30.759,0,0,0,0,171.868V429.38L81.624,264.062C91.5,243.957,115.921,228.771,138.312,228.771ZM89.627,81.119H120.02V200.837H89.627ZM403.74,43.241v157.6H147.069V43.241Z" fill="#3b185f"/>
      </g>
    </g>
  </g>
</svg>
