<svg xmlns="http://www.w3.org/2000/svg" width="384.068" height="341.775" viewBox="0 0 384.068 341.775">
  <g id="think-svgrepo-com" transform="translate(0 -2)">
    <path id="Path_2707" data-name="Path 2707" d="M383.568,171.888c0,21.958-11.432,42.121-31.375,55.321l-3.359,2.221.593,3.689c3.5,21.87-4.4,43.2-21.664,58.545-14.481,12.873-33.859,19.963-54.592,19.963h0a88.75,88.75,0,0,1-11.249-.715l-4.149-.527-2.5,2.986c-14.862,17.742-37.542,27.9-62.241,27.9s-47.38-10.163-62.227-27.892l-2.5-2.986-4.149.527a88.75,88.75,0,0,1-11.249.715c-20.733,0-40.125-7.089-54.606-19.963C41.044,276.331,33.155,255,36.641,233.131l.593-3.689-3.359-2.221C13.932,214.009,2.5,193.845,2.5,171.888s11.432-42.121,31.375-55.321l3.359-2.221-.593-3.689c-3.486-21.87,4.4-43.2,21.664-58.545,14.481-12.873,33.859-19.963,54.606-19.963a88.752,88.752,0,0,1,11.249.715l4.149.527,2.5-2.986C145.655,12.663,168.335,2.5,193.034,2.5s47.38,10.163,62.227,27.893l2.5,2.986,4.149-.527a88.752,88.752,0,0,1,11.249-.715c20.733,0,40.125,7.089,54.606,19.963,17.261,15.345,25.15,36.676,21.664,58.545l-.593,3.689,3.359,2.221C372.136,129.767,383.568,149.93,383.568,171.888ZM23.67,303.634c-11.686,0-21.17,8.432-21.17,18.821s9.484,18.821,21.17,18.821,21.17-8.432,21.17-18.821S35.357,303.634,23.67,303.634Z" fill="none" opacity="0.344"/>
    <g id="Group_16248" data-name="Group 16248" transform="translate(205.128 147.555)">
      <g id="Group_16247" data-name="Group 16247">
        <path id="Path_2708" data-name="Path 2708" d="M20,12v1H12V12Zm-8,3h8V14H12Zm0,2h8V16H12Zm0,2h8V18H12Z" transform="translate(-12 -12)" fill="#dbd2c1"/>
      </g>
    </g>
    <path id="Path_2709" data-name="Path 2709" d="M384.068,161.5c0-22.466-12.239-42.335-31.033-54.8,3.277-20.563-3.687-42.164-21.457-57.977-14.94-13.3-34.477-19.8-54.051-19.8a90.259,90.259,0,0,0-11.1.695C252.41,12.891,230.083,2,204.836,2s-47.573,10.891-61.579,27.615a88.374,88.374,0,0,0-11.1-.695c-19.575,0-39.111,6.505-54.051,19.8C60.337,64.534,53.36,86.134,56.637,106.7,37.844,119.161,25.6,139.029,25.6,161.5s12.239,42.335,31.033,54.8c-3.277,20.563,3.687,42.164,21.457,57.977,14.94,13.3,34.477,19.8,54.051,19.8a90.254,90.254,0,0,0,11.1-.695c14.019,16.724,36.346,27.615,61.592,27.615s47.573-10.891,61.579-27.615a88.372,88.372,0,0,0,11.1.695c19.575,0,39.111-6.505,54.051-19.8,17.77-15.813,24.747-37.424,21.457-57.977C371.829,203.83,384.068,183.961,384.068,161.5ZM345.38,207.156l-6.094,4.044,1.075,6.7c2.881,18.057-3.623,35.67-17.834,48.327-11.932,10.618-27.909,16.462-45,16.462a74.9,74.9,0,0,1-9.307-.581l-7.528-.957-4.545,5.423C243.9,301.2,225.192,309.6,204.836,309.6s-39.06-8.4-51.312-23.036l-4.545-5.423-7.528.957a74.75,74.75,0,0,1-9.307.581c-17.091,0-33.068-5.844-45-16.462-14.223-12.657-20.714-30.27-17.834-48.327l1.075-6.7-6.094-4.044c-16.451-10.891-25.886-27.536-25.886-45.65s9.435-34.759,25.886-45.661l6.094-4.044-1.075-6.7c-2.881-18.057,3.623-35.67,17.846-48.316,11.932-10.618,27.909-16.462,45-16.462a74.747,74.747,0,0,1,9.307.581l7.528.957,4.545-5.423c12.239-14.639,30.943-23.036,51.3-23.036s39.06,8.4,51.312,23.024l4.545,5.423,7.528-.957a74.747,74.747,0,0,1,9.307-.581c17.091,0,33.068,5.844,45,16.462,14.223,12.657,20.714,30.27,17.834,48.327l-1.075,6.7,6.094,4.044c16.451,10.9,25.886,27.536,25.886,45.661S361.831,196.254,345.38,207.156ZM25.6,332.383c0,6.289-5.735,11.393-12.8,11.393S0,338.672,0,332.383,5.735,320.99,12.8,320.99,25.6,326.094,25.6,332.383Zm25.6-56.963c-14.147,0-25.6,10.2-25.6,22.785s11.458,22.785,25.6,22.785,25.6-10.2,25.6-22.785S65.356,275.42,51.209,275.42Zm0,33.3c-6.516,0-11.817-4.716-11.817-10.515s5.3-10.515,11.817-10.515,11.817,4.716,11.817,10.515S57.725,308.721,51.209,308.721Z"/>
  </g>
</svg>
