<svg xmlns="http://www.w3.org/2000/svg" xmlns:xlink="http://www.w3.org/1999/xlink" width="3015" height="3015" viewBox="0 0 3015 3015">
  <defs>
    <clipPath id="clip-path">
      <circle id="Ellipse_13" data-name="Ellipse 13" cx="1408" cy="1408" r="1408" transform="translate(978 5728)" fill="#fff" stroke="#707070" stroke-width="1"/>
    </clipPath>
  </defs>
  <g id="Analytics" transform="translate(-937 -5687)">
    <g id="Ellipse_12" data-name="Ellipse 12" transform="translate(937 5687)" fill="#fff" stroke="#2155cd" stroke-width="100">
      <circle cx="1507.5" cy="1507.5" r="1507.5" stroke="none"/>
      <circle cx="1507.5" cy="1507.5" r="1457.5" fill="none"/>
    </g>
    <g id="Mask_Group_3" data-name="Mask Group 3" transform="translate(59 59)" clip-path="url(#clip-path)">
      <g id="analytics-2" data-name="analytics" transform="translate(978 5732.667)">
        <g id="freepik--Floor--inject-197" transform="translate(0 1180.844)">
          <ellipse id="freepik--floor--inject-197-2" data-name="freepik--floor--inject-197" cx="1408" cy="812.911" rx="1408" ry="812.911" fill="#f0f0f0"/>
        </g>
        <g id="freepik--Shadows--inject-197" transform="translate(98.072 1321.829)">
          <path id="freepik--Shadow--inject-197" d="M2010.2,2430.469a77.046,77.046,0,0,0-11.25-39.527h0c-1.52-2.554-3.1-4.986-4.8-7.358l-.3-.365a77.8,77.8,0,0,0-5.23-6.446l-.547-.547a69.067,69.067,0,0,0-5.655-5.534l-.547-.426a55.288,55.288,0,0,0-6.081-4.622l-3.649-2.007-1.642-.729-1.885-.852a26.887,26.887,0,0,0-2.676-.852h-.729a20.683,20.683,0,0,0-3.162-.608h0a19.886,19.886,0,0,0-11.615,1.824h0c-32.169,16.115-217.518,134.086-302.835,187.235l-42.263,25.662a9.612,9.612,0,0,0-3.162,2.919,2.134,2.134,0,0,1-.3.487,12.807,12.807,0,0,0-.973,1.824,7.851,7.851,0,0,0-.426,1.277,12.978,12.978,0,0,0-.486,1.642v1.095l-6.993,3.831-6.081,3.406a243.617,243.617,0,0,0-48.162-35.756c-58.5-33.75-135.972-52.358-218.187-52.358s-159.688,18.608-218.187,52.357c-60.81,34.966-93.891,82.216-93.891,132.992s33.324,97.965,93.891,132.992c58.5,33.75,135.972,52.3,218.187,52.3s159.688-18.547,218.187-52.3c60.81-35.027,93.891-82.215,93.891-132.992a122.292,122.292,0,0,0-19.824-65.736l5.595-2.979a12.588,12.588,0,0,0,12.162,1.156h0c28.946-15.932,311.105-136.215,368.814-167.167h0C2005.459,2450.232,2009.776,2442.205,2010.2,2430.469Zm-498.644,345.037c-50.473,29.128-118.519,45.182-191.491,45.182s-141.019-16.054-191.491-45.182c-43.358-25.054-67.256-55.885-67.256-86.776s23.9-61.783,67.256-86.776c50.473-29.189,118.458-45.243,191.491-45.243s141.019,16.054,191.491,45.243c43.358,24.993,67.256,55.824,67.256,86.776s-24.081,61.722-67.56,86.776Z" transform="translate(-249.731 -1544.247)" fill="#e0e0e0"/>
          <path id="freepik--shadow--inject-197-2" data-name="freepik--shadow--inject-197" d="M2021.584,1681.932l-286.173-165.586a58.2,58.2,0,0,0-52.662,0L228.837,2355.527c-14.534,8.392-14.534,22.013,0,30.405l286.234,165.586a58.2,58.2,0,0,0,52.662,0l544.8-314.571,83.8,48.648c44.331,25.6,116.208,25.6,160.6,0l249.626-143.086c44.391-25.6,44.391-66.891,0-92.736l-83.736-48.648,498.644-289.092C2036.056,1703.945,2036.056,1690.445,2021.584,1681.932Z" transform="translate(-217.937 -1510.048)" fill="#e0e0e0"/>
          <ellipse id="freepik--shadow--inject-197-3" data-name="freepik--shadow--inject-197" cx="280.639" cy="162.059" rx="280.639" ry="162.059" transform="translate(2003.043 631.67)" fill="#e0e0e0"/>
        </g>
        <g id="freepik--Plant--inject-197" transform="translate(2501.028 1669.377)">
          <g id="freepik--Plants--inject-197">
            <path id="Path_327" data-name="Path 327" d="M2763.406,2135.363c0-38.006-7.54-108,24.324-173.674,23.351-47.614,65.006-93.83,103.8-89.209,36.061,4.257,39.344,59.776,4.8,97.783s-78.445,90.607-88.053,174.586l-24.872,62.391Z" transform="translate(-2723.236 -1872.16)" fill="#407bff"/>
            <g id="Group_40" data-name="Group 40" transform="translate(39.393)" opacity="0.2">
              <path id="Path_328" data-name="Path 328" d="M2763.406,2135.363c0-38.006-7.54-108,24.324-173.674,23.351-47.614,65.006-93.83,103.8-89.209,36.061,4.257,39.344,59.776,4.8,97.783s-78.445,90.607-88.053,174.586l-24.872,62.391Z" transform="translate(-2762.628 -1872.16)"/>
            </g>
            <path id="Path_329" data-name="Path 329" d="M2776.791,2163.033a2.736,2.736,0,0,0,2.189-2.737c-4.378-108,30.77-197.694,101.614-259.295a2.629,2.629,0,1,0-3.466-3.953c-72.121,62.7-107.877,153.789-103.377,263.491a2.675,2.675,0,0,0,2.736,2.554Z" transform="translate(-2723.668 -1873.135)" fill="#fff"/>
            <path id="Path_330" data-name="Path 330" d="M2754.7,2279.725a134.144,134.144,0,0,0,66.891,18.608c40.682.973,55.7-20.432,55.7-20.432s-20.736-35.209-44.7-42.567a224.635,224.635,0,0,1,72.972,19.034s24.324-2.858,29.067-41.29c0,0-17.392-20.371-67.317-25.966a160.84,160.84,0,0,1,72.182-6.081c3.344.851,10.459-48.648,11.615-71.635s-7.723-21.223-25.6-23.533-76.986,2.676-86.533,13.621-10.642,44.148-10.642,44.148-12.831-17.027-12.527-33.75a62.389,62.389,0,0,0-36.486,6.081c-18.243,9.365-24.324,16.845-25.3,31.014s-2.128,35.452,3.588,51.932c0,0-16.844-27.182-15.993-50.777a251.42,251.42,0,0,0-17.331,35.513C2716.331,2204.32,2725.756,2254.367,2754.7,2279.725Z" transform="translate(-2721.585 -1880.732)" fill="#407bff"/>
            <path id="Path_331" data-name="Path 331" d="M2756.837,2282.769a2.555,2.555,0,0,0,1.824-1.7c23.108-70.966,132.019-164.187,173.613-178.417a2.635,2.635,0,1,0-1.7-4.986c-42.567,14.291-153.364,109.458-176.958,181.762a2.676,2.676,0,0,0,1.7,3.344A2.617,2.617,0,0,0,2756.837,2282.769Z" transform="translate(-2722.868 -1881.223)" fill="#fff"/>
          </g>
        </g>
        <g id="freepik--Device--inject-197" transform="translate(283.376 0)">
          <g id="freepik--device--inject-197-2" data-name="freepik--device--inject-197">
            <g id="freepik--Monitor--inject-197">
              <path id="Path_332" data-name="Path 332" d="M1389.831,2267.669l215.147-124.418c22.135-12.77,33.2-29.554,33.2-46.337V2067l-202.437-114.87a47.553,47.553,0,0,1-21.405-37.094V1649.472l-375.26,217.153v265.193a47.25,47.25,0,0,0,21.466,37.094l168.688,98.756C1273.562,2292.966,1345.5,2292.966,1389.831,2267.669Z" transform="translate(-436.266 -193.827)" fill="#37474f"/>
              <path id="Path_333" data-name="Path 333" d="M1128.94,2186.134v29.8l-68.837-39.648a47.371,47.371,0,0,1-21.405-37.094V1873.995l71.574-41.29c1.459,18.243,3.1,36.973,4.561,55.276l-50.168,29.006v207.242a47.005,47.005,0,0,0,21.405,37.094Z" transform="translate(-436.25 -201.196)" fill="#263238"/>
              <path id="Path_334" data-name="Path 334" d="M1065.751,2118.725a47.371,47.371,0,0,0,21.405,37.094l143.147,83.249c44.331,25.6,116.208,25.6,160.6,0l215.208-124.357c44.331-25.6,44.331-66.891,0-92.675L1462.9,1938.666a47.25,47.25,0,0,1-21.466-37.095V1694.33l-375.686,217.153Z" transform="translate(-437.338 -195.631)" fill="#455a64"/>
              <path id="Path_335" data-name="Path 335" d="M1506.5,1963.9h0l-43.6-25.176a47.25,47.25,0,0,1-21.466-37.094v-207.3l-375.686,217.153v207.241a47.371,47.371,0,0,0,21.405,37.094l42.871,24.689Z" transform="translate(-437.338 -195.631)" opacity="0.15"/>
              <path id="Path_336" data-name="Path 336" d="M1649.728,2084.491v29.919c0,16.844-11.128,33.506-33.263,46.4l-215.147,124.3a160.958,160.958,0,0,1-76.621,19.034v-29.8a160.962,160.962,0,0,0,76.621-19.034l215.146-124.418C1638.6,2117.815,1649.728,2101.031,1649.728,2084.491Z" transform="translate(-447.753 -211.323)" fill="#37474f"/>
              <path id="Path_337" data-name="Path 337" d="M436.12,2342.036a57.589,57.589,0,0,0,51.871-.973l1453.365-839.181a59.047,59.047,0,0,0,26.756-46.338V183.942A57.344,57.344,0,0,0,1943,138.577a57.406,57.406,0,0,0-51.872.912L437.762,978.671a59.169,59.169,0,0,0-26.757,46.337v1271.6A57.467,57.467,0,0,0,436.12,2342.036Z" transform="translate(-411.006 -132.831)" fill="#455a64"/>
              <path id="Path_338" data-name="Path 338" d="M490.109,2342.343l1453.365-838.877a59.168,59.168,0,0,0,26.756-46.337V185.282c0-17.088-12.162-24.02-26.756-15.446L490.413,1009.018a59.168,59.168,0,0,0-26.756,46.338V2326.9C463.352,2343.984,475.332,2350.917,490.109,2342.343Z" transform="translate(-413.123 -134.171)" fill="#37474f"/>
              <path id="Path_339" data-name="Path 339" d="M515.674,2162.327V1075.162a35.452,35.452,0,0,1,15.872-27.79L1905.856,254.1c8.818-5.108,16.054-.973,16.054,9.243V1350.571a35.269,35.269,0,0,1-16.054,27.79L531.545,2171.631C522.849,2176.739,515.674,2172.6,515.674,2162.327Z" transform="translate(-415.215 -137.62)" fill="#407bff"/>
              <path id="Path_340" data-name="Path 340" d="M515.674,2162.327V1075.162a35.452,35.452,0,0,1,15.872-27.79L1905.856,254.1c8.818-5.108,16.054-.973,16.054,9.243V1350.571a35.269,35.269,0,0,1-16.054,27.79L531.545,2171.631C522.849,2176.739,515.674,2172.6,515.674,2162.327Z" transform="translate(-415.215 -137.62)" fill="#fff" opacity="0.7"/>
              <path id="Path_341" data-name="Path 341" d="M1244.6,1939.9a15.813,15.813,0,0,1-8.027-2.068,20.554,20.554,0,0,1-8.878-18.912,57.952,57.952,0,0,1,26.635-46.094h0A18.243,18.243,0,0,1,1284,1889.911a58.013,58.013,0,0,1-26.635,46.155,25.843,25.843,0,0,1-12.77,3.831Zm22.439-64.763a19.947,19.947,0,0,0-9.669,3.041h0a52.236,52.236,0,0,0-23.594,40.865,12.162,12.162,0,0,0,20.554,11.858,52.175,52.175,0,0,0,23.594-40.864,14.9,14.9,0,0,0-6.081-13.621,9.913,9.913,0,0,0-4.8-1.277Z" transform="translate(-443.848 -202.639)" fill="#407bff"/>
            </g>
          </g>
        </g>
        <g id="freepik--Window--inject-197" transform="translate(579.757 221.033)">
          <g id="freepik--window--inject-197-2" data-name="freepik--window--inject-197">
            <path id="Path_342" data-name="Path 342" d="M2170.093,467.331,754.979,1283.648V2326.361a18.243,18.243,0,0,0,27.061,15.689l25.236-14.534L2143.7,1556.929a58.319,58.319,0,0,0,26.392-45.729Z" transform="translate(-721.222 -367.316)" fill="#f0f0f0"/>
            <path id="Path_343" data-name="Path 343" d="M2164.012,477.852V1511.2a52.54,52.54,0,0,1-23.351,40.439L804.235,2322.226,779,2336.76a11.737,11.737,0,0,1-6.081,1.642,12.164,12.164,0,0,1-8.331-3.405,11.737,11.737,0,0,1-3.649-8.635V1286.932L2163.891,478.156m6.081-10.52L754.979,1283.648V2326.361a18.243,18.243,0,0,0,18.243,18.243,17.569,17.569,0,0,0,9-2.433l25.236-14.534L2143.7,1556.929a58.319,58.319,0,0,0,26.392-45.729V467.331Z" transform="translate(-721.222 -367.316)" fill="#e0e0e0"/>
            <path id="Path_344" data-name="Path 344" d="M2135.115,447.184,719.878,1263.135l33.689,19.459L2168.682,466.521Z" transform="translate(-719.81 -366.506)" fill="#455a64" opacity="0.8"/>
            <path id="Path_345" data-name="Path 345" d="M763.05,2375.684a18.242,18.242,0,0,1-9.486-15.932V1317.039l-33.689-19.459v1037a27,27,0,0,0,0,3.831,27.974,27.974,0,0,0,13.743,20.433l27.79,16.115,1.4.729Z" transform="translate(-719.807 -400.707)" fill="#ebebeb"/>
            <path id="Path_346" data-name="Path 346" d="M719.878,1260.241v-70.357a29.25,29.25,0,0,1,13.135-22.865L2121.979,366.27a29.007,29.007,0,0,1,26.27,0l7.236,4.2a29.068,29.068,0,0,1,13.2,22.8v70.418L753.567,1279.457Z" transform="translate(-719.81 -363.125)" fill="#407bff"/>
            <path id="Path_347" data-name="Path 347" d="M719.878,1260.241v-70.357a29.25,29.25,0,0,1,13.135-22.865L2121.979,366.27a29.007,29.007,0,0,1,26.27,0l7.236,4.2a29.068,29.068,0,0,1,13.2,22.8v70.418L753.567,1279.457Z" transform="translate(-719.81 -363.125)" opacity="0.3"/>
            <path id="Path_348" data-name="Path 348" d="M754.979,1210.145a29.189,29.189,0,0,1,13.135-22.865L2156.958,386.409c7.236-4.257,13.135-.851,13.135,7.54v70.6L754.979,1280.32Z" transform="translate(-721.222 -363.988)" fill="#407bff"/>
            <path id="Path_349" data-name="Path 349" d="M754.979,1210.145a29.189,29.189,0,0,1,13.135-22.865L2156.958,386.409c7.236-4.257,13.135-.851,13.135,7.54v70.6L754.979,1280.32Z" transform="translate(-721.222 -363.988)" opacity="0.4"/>
            <path id="Path_350" data-name="Path 350" d="M757.4,1230.367a27.182,27.182,0,0,0-3.831,13.013v70.175l-33.628-19.4v-70.236a26.94,26.94,0,0,1,3.831-12.953Z" transform="translate(-719.812 -397.224)" fill="#407bff"/>
            <path id="Path_351" data-name="Path 351" d="M757.4,1230.367a27.182,27.182,0,0,0-3.831,13.013v70.175l-33.628-19.4v-70.236a26.94,26.94,0,0,1,3.831-12.953Z" transform="translate(-719.812 -397.224)" opacity="0.5"/>
            <path id="Path_352" data-name="Path 352" d="M2165.019,463.639c0,7.845,5.534,11.067,12.162,7.115a27.242,27.242,0,0,0,12.162-21.405c0-7.845-5.534-11.067-12.162-7.115a27.3,27.3,0,0,0-12.162,21.405Z" transform="translate(-777.931 -366.239)" fill="#fafafa"/>
            <path id="Path_353" data-name="Path 353" d="M2113.572,493.228c0,7.845,5.534,11.067,12.162,7.115a27.3,27.3,0,0,0,12.162-21.405c0-7.845-5.534-11.067-12.162-7.115a27.3,27.3,0,0,0-12.162,21.405Z" transform="translate(-775.862 -367.429)" fill="#fafafa"/>
            <path id="Path_354" data-name="Path 354" d="M2062.062,523.069c0,7.845,5.534,11.067,12.162,7.115a27.3,27.3,0,0,0,12.162-21.405c0-7.845-5.534-11.067-12.162-7.115A27.243,27.243,0,0,0,2062.062,523.069Z" transform="translate(-773.79 -368.629)" fill="#fafafa"/>
            <path id="Path_355" data-name="Path 355" d="M754.979,1309.127V2351.84a18.243,18.243,0,0,0,27.061,15.689L807.275,2353l309.22-178.356V1100.852Z" transform="translate(-721.222 -392.795)" fill="#fafafa"/>
            <path id="Path_356" data-name="Path 356" d="M1157.368,1095.052V2107.6L2156.6,1530.7V518.145Z" transform="translate(-737.405 -369.36)" fill="#fafafa"/>
            <path id="Path_357" data-name="Path 357" d="M1035.425,1228.286l-230.653,133.3a17.027,17.027,0,0,0-7.723,13.378v24.02c0,4.926,3.466,6.872,7.723,4.439l230.653-133.3a17.027,17.027,0,0,0,7.723-13.378v-23.959C1043.147,1227.86,1039.681,1225.853,1035.425,1228.286Z" transform="translate(-722.914 -397.879)" fill="#407bff"/>
            <path id="Path_358" data-name="Path 358" d="M1035.425,1228.286l-230.653,133.3a17.027,17.027,0,0,0-7.723,13.378v24.02c0,4.926,3.466,6.872,7.723,4.439l230.653-133.3a17.027,17.027,0,0,0,7.723-13.378v-23.959C1043.147,1227.86,1039.681,1225.853,1035.425,1228.286Z" transform="translate(-722.914 -397.879)" fill="#fafafa" opacity="0.8"/>
            <path id="Path_359" data-name="Path 359" d="M1097.684,1237.016l-6.75-6.567a30.4,30.4,0,0,0,2.128-10.824,12.77,12.77,0,0,0-5.047-11.676,7.845,7.845,0,0,0-8.27.365,27.06,27.06,0,0,0-10.7,22.074,12.77,12.77,0,0,0,5.108,11.676,6.75,6.75,0,0,0,3.588.973,9.3,9.3,0,0,0,4.682-1.338,19.036,19.036,0,0,0,6.081-6.081l5.595,5.351a2.371,2.371,0,0,0,1.824.791,2.736,2.736,0,0,0,1.946-.851,2.615,2.615,0,0,0-.183-3.892Zm-17.939,0a2.919,2.919,0,0,1-2.919.365c-1.156-.669-2.432-2.919-2.432-7.054a22.014,22.014,0,0,1,8.027-17.453,3.588,3.588,0,0,1,1.885-.608,2.005,2.005,0,0,1,1.034,0c1.095.669,2.372,2.858,2.372,7.054a22.318,22.318,0,0,1-7.966,17.757Z" transform="translate(-733.85 -397.062)" fill="#455a64"/>
            <path id="Path_360" data-name="Path 360" d="M802.7,1483.584l-5.169,2.98s-.547,0-.547-.426v-13.986a1.4,1.4,0,0,1,.547-1.094l5.169-2.98s.547,0,.547.426v13.986a1.4,1.4,0,0,1-.547,1.094Z" transform="translate(-722.911 -407.564)" fill="#455a64"/>
            <path id="Path_361" data-name="Path 361" d="M810.748,1478.9l-5.169,2.98c-.3,0-.547,0-.547-.426V1467.47a1.277,1.277,0,0,1,.547-1.034l5.169-2.858c.3,0,.547,0,.547.365v14.047A1.338,1.338,0,0,1,810.748,1478.9Z" transform="translate(-723.235 -407.384)" fill="#455a64"/>
            <path id="Path_362" data-name="Path 362" d="M818.858,1474.209l-5.169,3.041c-.3,0-.547,0-.547-.426v-14.047a1.338,1.338,0,0,1,.547-1.034l5.169-2.98c.3,0,.547,0,.547.426v13.986a1.156,1.156,0,0,1-.547,1.034Z" transform="translate(-723.561 -407.19)" fill="#455a64"/>
            <path id="Path_363" data-name="Path 363" d="M802.7,1502.4l-5.169,2.98s-.547,0-.547-.426v-13.986a1.4,1.4,0,0,1,.547-1.094l5.169-2.98s.547,0,.547.426v13.986a1.4,1.4,0,0,1-.547,1.094Z" transform="translate(-722.911 -408.321)" fill="#455a64"/>
            <path id="Path_364" data-name="Path 364" d="M810.748,1497.728l-5.169,2.98c-.3,0-.547,0-.547-.426V1486.3a1.277,1.277,0,0,1,.547-1.034l5.169-2.676c.3,0,.547,0,.547.365V1497a1.338,1.338,0,0,1-.547.73Z" transform="translate(-723.235 -408.148)" fill="#455a64"/>
            <path id="Path_365" data-name="Path 365" d="M818.858,1493.027l-5.169,3.041c-.3,0-.547,0-.547-.426v-14.047a1.337,1.337,0,0,1,.547-1.034l5.169-2.98c.3,0,.547,0,.547.426v13.986a1.156,1.156,0,0,1-.547,1.034Z" transform="translate(-723.561 -407.947)" fill="#455a64"/>
            <path id="Path_366" data-name="Path 366" d="M803.51,1552.027l-6.081-3.831v-1.155l6.081-11.25a.4.4,0,0,1,.79,0v15.142C804.361,1551.6,803.814,1552.21,803.51,1552.027Z" transform="translate(-722.929 -410.272)" fill="#455a64"/>
            <path id="Path_367" data-name="Path 367" d="M800.923,1543.589l8.392-4.8v3.953l-8.392,4.865c-.669.426-1.277,0-1.277-1.277a3.588,3.588,0,0,1,1.277-2.736Z" transform="translate(-723.018 -410.408)" fill="#455a64"/>
            <path id="Path_368" data-name="Path 368" d="M811.367,1537.766l2.858-1.642v3.953l-2.858,1.642Z" transform="translate(-723.489 -410.301)" fill="#455a64"/>
            <path id="Path_369" data-name="Path 369" d="M822.134,1533.22v14.655a3.223,3.223,0,0,1-1.338,2.736c-.669.426-1.277,0-1.277-1.216v-12.649l-3.527,2.007V1534.8l4.8-2.8C821.526,1531.822,822.134,1532.369,822.134,1533.22Z" transform="translate(-723.675 -410.134)" fill="#455a64"/>
            <path id="Path_370" data-name="Path 370" d="M805.984,1586.939a27.608,27.608,0,0,0-8.818,23.716c1.034,7.6,5.534,7.3,6.081,10.824,0,.426.3.547.547.426l5.655-3.223a1.52,1.52,0,0,0,.608-1.034c.608-4.682,6.385-10.338,6.385-21.709C816.5,1587.243,811.7,1582.986,805.984,1586.939Z" transform="translate(-722.91 -412.285)" fill="#455a64"/>
            <path id="Path_371" data-name="Path 371" d="M809.653,1629.29l-5.473,3.162c-.365,0-.669,0-.669-.547v-4.987a1.7,1.7,0,0,1,.669-1.338l5.473-3.162c.365,0,.669,0,.669.547v5.108A1.642,1.642,0,0,1,809.653,1629.29Z" transform="translate(-723.174 -413.772)" fill="#455a64"/>
            <path id="Path_372" data-name="Path 372" d="M807.323,1463.47a33.2,33.2,0,0,0-9.912,21.041,22.257,22.257,0,0,0,1.4,11.432l-1.824,9.608c0,.791,0,1.156.73.669l5.534-6.081a8.574,8.574,0,0,0,8.027-2.311,33.2,33.2,0,0,0,9.912-21.04C822.586,1463.47,815.532,1456.842,807.323,1463.47Zm1.946,31.378c-5.047,2.919-9.182-1.034-9.182-8.878a24.324,24.324,0,0,1,9.182-19.459c5.108-2.919,9.243,1.034,9.243,8.878a24.324,24.324,0,0,1-9.243,19.581Z" transform="translate(-722.911 -407.275)" fill="#455a64"/>
            <path id="Path_373" data-name="Path 373" d="M807.323,1655.887a33.02,33.02,0,0,0-9.912,20.979,22.379,22.379,0,0,0,1.4,11.493l-1.824,9.547c0,.791,0,1.216.73.73l5.534-6.081a8.575,8.575,0,0,0,8.027-2.311,33.386,33.386,0,0,0,9.912-21.04C822.586,1655.887,815.532,1649.137,807.323,1655.887Zm1.946,31.378c-5.047,2.919-9.182-1.034-9.182-8.878a24.324,24.324,0,0,1,9.182-19.459c5.108-2.919,9.243,1.034,9.243,8.878a24.324,24.324,0,0,1-9.243,19.459Z" transform="translate(-722.911 -415.011)" fill="#455a64"/>
            <path id="Path_374" data-name="Path 374" d="M815.458,1726.235a12.769,12.769,0,0,1-4.865,10.277c-2.676,1.581-4.865-.547-4.865-4.682a12.953,12.953,0,0,1,4.865-10.277C813.269,1720.033,815.458,1722.1,815.458,1726.235Z" transform="translate(-723.263 -417.739)" fill="#455a64"/>
            <path id="Path_375" data-name="Path 375" d="M824.273,1727.829a8.574,8.574,0,0,1-3.223,6.871c-1.824,1.034-3.284-.365-3.284-3.1a8.514,8.514,0,0,1,3.284-6.872C822.814,1723.694,824.273,1725.093,824.273,1727.829Z" transform="translate(-723.747 -417.873)" fill="#455a64"/>
            <path id="Path_376" data-name="Path 376" d="M816.266,1756.409l-11.615,6.568v-14.716a10.034,10.034,0,0,1,4.2-7.966l3.162-1.824c2.25-1.277,4.135,0,4.135,3.162Z" transform="translate(-723.219 -418.419)" fill="#455a64"/>
            <path id="Path_377" data-name="Path 377" d="M821.562,1736.893l-3.162,1.824v16.723l6.081-3.466V1738.96C824.36,1736.893,823.083,1736.042,821.562,1736.893Z" transform="translate(-723.772 -418.363)" fill="#455a64"/>
            <path id="Path_378" data-name="Path 378" d="M797.048,1743.574c0,2.736,1.459,4.135,3.223,3.1a8.513,8.513,0,0,0,3.223-6.811c0-2.8-1.46-4.2-3.223-3.162A8.7,8.7,0,0,0,797.048,1743.574Z" transform="translate(-722.914 -418.354)" fill="#455a64"/>
            <path id="Path_379" data-name="Path 379" d="M799.775,1749.375l3.1-1.824v16.784l-6.081,3.405v-13.014A6.628,6.628,0,0,1,799.775,1749.375Z" transform="translate(-722.903 -418.804)" fill="#455a64"/>
            <path id="Path_380" data-name="Path 380" d="M855.063,1446.7l135.12-78.2c3.649-2.128,6.568-.608,6.568,3.345a14.108,14.108,0,0,1-6.568,10.946l-135.12,78.2c-3.649,2.068-6.568.608-6.568-3.345a14.108,14.108,0,0,1,6.568-10.946Z" transform="translate(-724.983 -403.521)" fill="#e0e0e0"/>
            <path id="Path_381" data-name="Path 381" d="M855.063,1512.924l135.059-77.959c3.649-2.067,6.568-.608,6.568,3.345a14.108,14.108,0,0,1-6.568,10.946l-135.059,77.959c-3.649,2.068-6.568.608-6.568-3.344a14.108,14.108,0,0,1,6.568-10.946Z" transform="translate(-724.983 -406.195)" fill="#e0e0e0"/>
            <path id="Path_382" data-name="Path 382" d="M855.063,1579.208l135.12-77.655c3.649-2.128,6.568-.608,6.568,3.284a14.047,14.047,0,0,1-6.568,10.946l-135.12,77.655c-3.649,2.128-6.568.608-6.568-3.345A13.986,13.986,0,0,1,855.063,1579.208Z" transform="translate(-724.983 -408.872)" fill="#e0e0e0"/>
            <path id="Path_383" data-name="Path 383" d="M855.063,1645.4l135.059-77.959c3.649-2.128,6.568-.608,6.568,3.345a13.986,13.986,0,0,1-6.568,10.885L855.063,1659.7c-3.649,2.068-6.568.608-6.568-3.344a14.047,14.047,0,0,1,6.568-10.946Z" transform="translate(-724.983 -411.522)" fill="#e0e0e0"/>
            <path id="Path_384" data-name="Path 384" d="M855.063,1711.615l135.059-77.959c3.649-2.068,6.568-.608,6.568,3.344a14.108,14.108,0,0,1-6.568,10.946l-135.059,77.837c-3.649,2.068-6.568.608-6.568-3.344a14.107,14.107,0,0,1,6.568-10.824Z" transform="translate(-724.983 -414.186)" fill="#e0e0e0"/>
            <path id="Path_385" data-name="Path 385" d="M880.85,1765.722l135.06-77.959c3.649-2.128,6.568-.608,6.568,3.284a14.047,14.047,0,0,1-6.568,10.946l-135.06,77.959c-3.649,2.128-6.568.608-6.568-3.284A14.047,14.047,0,0,1,880.85,1765.722Z" transform="translate(-726.02 -416.361)" fill="#455a64"/>
            <path id="Path_386" data-name="Path 386" d="M880.85,1810.453l135.06-77.959c3.649-2.128,6.568-.608,6.568,3.344a13.987,13.987,0,0,1-6.568,10.885l-135.06,77.958c-3.649,2.128-6.568.608-6.568-3.284a14.047,14.047,0,0,1,6.568-10.946Z" transform="translate(-726.02 -418.16)" fill="#e0e0e0"/>
            <path id="Path_387" data-name="Path 387" d="M880.85,1855.184l135.06-77.959c3.649-2.128,6.568-.608,6.568,3.344a13.987,13.987,0,0,1-6.568,10.885l-135.06,78.019c-3.649,2.067-6.568.608-6.568-3.345A14.108,14.108,0,0,1,880.85,1855.184Z" transform="translate(-726.02 -419.959)" fill="#e0e0e0"/>
            <path id="Path_388" data-name="Path 388" d="M908.221,1883.632l135.059-77.959c3.649-2.128,6.568-.608,6.568,3.284a14.047,14.047,0,0,1-6.568,10.946l-135.059,77.959c-3.588,2.128-6.568.608-6.568-3.284a14.168,14.168,0,0,1,6.567-10.946Z" transform="translate(-727.121 -421.103)" fill="#e0e0e0"/>
            <path id="Path_389" data-name="Path 389" d="M875.559,1924.223l11.007-19.338c.426-.73.426-1.7,0-1.946l-11.007-6.689c-.487-.3-1.277.669-1.277,1.7v26.027C874.343,1924.892,875.073,1925.2,875.559,1924.223Z" transform="translate(-726.02 -424.783)" fill="#455a64"/>
            <path id="Path_390" data-name="Path 390" d="M908.221,1928.167l135.059-78.141c3.649-2.068,6.568-.608,6.568,3.344a14.108,14.108,0,0,1-6.568,10.946l-135.059,78.141c-3.588,2.128-6.568.608-6.568-3.344a14.291,14.291,0,0,1,6.567-10.946Z" transform="translate(-727.121 -422.888)" fill="#e0e0e0"/>
            <path id="Path_391" data-name="Path 391" d="M875.559,1968.825l11.007-19.338c.426-.73.426-1.7,0-2.007l-11.007-6.689c-.487-.3-1.277.73-1.277,1.763v26.027C874.343,1969.616,875.073,1969.737,875.559,1968.825Z" transform="translate(-726.02 -426.574)" fill="#455a64"/>
            <path id="Path_392" data-name="Path 392" d="M908.221,1972.778l135.059-77.959c3.649-2.129,6.568-.608,6.568,3.344a14.109,14.109,0,0,1-6.568,10.946l-135.059,77.959c-3.588,2.068-6.568.608-6.568-3.344A14.29,14.29,0,0,1,908.221,1972.778Z" transform="translate(-727.121 -424.689)" fill="#e0e0e0"/>
            <path id="Path_393" data-name="Path 393" d="M875.559,2013.62l11.007-19.4c.426-.73.426-1.7,0-1.946l-11.007-6.689c-.487-.3-1.277.73-1.277,1.763v26.027C874.343,2014.228,875.073,2014.349,875.559,2013.62Z" transform="translate(-726.02 -428.376)" fill="#455a64"/>
            <path id="Path_394" data-name="Path 394" d="M908.221,2017.382l135.059-77.959c3.649-2.128,6.568-.608,6.568,3.284a14.048,14.048,0,0,1-6.568,10.946l-135.059,77.959c-3.588,2.128-6.568.608-6.568-3.284a14.168,14.168,0,0,1,6.567-10.946Z" transform="translate(-727.121 -426.482)" fill="#e0e0e0"/>
            <path id="Path_395" data-name="Path 395" d="M875.559,2057.972l11.007-19.338c.426-.73.426-1.7,0-1.946L875.559,2030c-.487-.365-1.277.669-1.277,1.7v26.27C874.343,2058.763,875.073,2058.945,875.559,2057.972Z" transform="translate(-726.02 -430.161)" fill="#455a64"/>
            <path id="Path_396" data-name="Path 396" d="M908.221,2062.177l135.059-77.959c3.649-2.068,6.568-.608,6.568,3.344a14.108,14.108,0,0,1-6.568,10.946l-135.059,77.959c-3.588,2.068-6.568.608-6.568-3.344a14.29,14.29,0,0,1,6.567-10.946Z" transform="translate(-727.121 -428.285)" fill="#e0e0e0"/>
            <path id="Path_397" data-name="Path 397" d="M875.559,2102.321l11.007-19.338c.426-.729.426-1.7,0-2.006l-11.007-6.689c-.487-.3-1.277.73-1.277,1.763v26.27C874.343,2103.355,875.073,2103.477,875.559,2102.321Z" transform="translate(-726.02 -431.943)" fill="#455a64"/>
            <path id="Path_398" data-name="Path 398" d="M908.221,2106.527l135.059-77.959c3.649-2.128,6.568-.608,6.568,3.344a13.986,13.986,0,0,1-6.568,10.885l-135.059,78.019c-3.588,2.068-6.568.608-6.568-3.344A14.291,14.291,0,0,1,908.221,2106.527Z" transform="translate(-727.121 -430.068)" fill="#e0e0e0"/>
            <path id="Path_399" data-name="Path 399" d="M875.559,2147.179l11.007-19.4c.426-.73.426-1.7,0-1.946l-11.007-6.689c-.487-.3-1.277.73-1.277,1.763v25.784C874.343,2147.969,875.073,2148.091,875.559,2147.179Z" transform="translate(-726.02 -433.747)" fill="#455a64"/>
            <path id="Path_400" data-name="Path 400" d="M908.221,2150.878l135.059-77.959c3.649-2.128,6.568-.608,6.568,3.284a14.048,14.048,0,0,1-6.568,10.946l-135.059,77.959c-3.588,2.128-6.568.608-6.568-3.344a14.168,14.168,0,0,1,6.567-10.885Z" transform="translate(-727.121 -431.851)" fill="#e0e0e0"/>
            <path id="Path_401" data-name="Path 401" d="M875.559,2191.722l11.007-19.338c.426-.73.426-1.7,0-1.946l-11.007-6.689c-.487-.365-1.277.669-1.277,1.7v26.026C874.343,2192.512,875.073,2192.695,875.559,2191.722Z" transform="translate(-726.02 -435.54)" fill="#455a64"/>
            <path id="Path_402" data-name="Path 402" d="M908.221,2195.674l135.059-77.959c3.649-2.067,6.568-.608,6.568,3.344a14.109,14.109,0,0,1-6.568,10.946l-135.059,77.958c-3.588,2.068-6.568.608-6.568-3.344a14.29,14.29,0,0,1,6.567-10.946Z" transform="translate(-727.121 -433.654)" fill="#e0e0e0"/>
            <path id="Path_403" data-name="Path 403" d="M875.557,2236.332l10.946-19.155c.426-.73.426-1.7,0-2.007l-11.007-6.689c-.486-.3-1.277.73-1.277,1.763v26.027C874.341,2237.123,875.07,2237.244,875.557,2236.332Z" transform="translate(-726.017 -437.34)" fill="#455a64"/>
            <path id="Path_404" data-name="Path 404" d="M1189.719,1247.717l443.915-256.254a14.533,14.533,0,0,0,6.568-11.371V866.923c0-4.2-2.98-6.081-6.567-3.77l-443.915,256.194a14.472,14.472,0,0,0-6.628,11.371v113.229C1183.091,1248.142,1186.071,1249.845,1189.719,1247.717Z" transform="translate(-738.44 -383.195)" fill="#f0f0f0"/>
            <path id="Path_405" data-name="Path 405" d="M1230.246,1179.975l2.919-12.162-4.013,2.311h0v-2.554a1.033,1.033,0,0,1,0-.426v-.365l6.446-3.709h0a.669.669,0,0,1,0,.365v1.946a9.941,9.941,0,0,1,0,1.155l-2.919,12.162a3.9,3.9,0,0,1,0,.426.671.671,0,0,1,0,.3l-1.946,1.094h0a.487.487,0,0,1-.486-.547Z" transform="translate(-740.291 -395.298)" fill="#455a64"/>
            <path id="Path_406" data-name="Path 406" d="M1241.669,1159.435a2.8,2.8,0,0,1,1.763-.547,1.825,1.825,0,0,1,1.216.487,2.978,2.978,0,0,1,.669,1.4,9.914,9.914,0,0,1,0,2.007v3.709a16.131,16.131,0,0,1,0,2.311,10.037,10.037,0,0,1-.669,2.189,13.016,13.016,0,0,1-1.216,1.946,8.329,8.329,0,0,1-1.763,1.459,3.649,3.649,0,0,1-1.763.547,2.068,2.068,0,0,1-1.156-.547,2.554,2.554,0,0,1-.73-1.4,9.913,9.913,0,0,1,0-2.007v-3.649a14.1,14.1,0,0,1,0-2.311,7.486,7.486,0,0,1,.73-2.25,9.8,9.8,0,0,1,1.155-1.885A6.625,6.625,0,0,1,1241.669,1159.435Zm1.459,8.392V1164.3a4.687,4.687,0,0,0,0-.912,1.832,1.832,0,0,0,0-.608.487.487,0,0,0-.426,0h-.669a3.156,3.156,0,0,0-.669.608,2.858,2.858,0,0,0-.426.73,5.038,5.038,0,0,0,0,.912s0,.669,0,1.034v4.378a1.4,1.4,0,0,0,0,.608.609.609,0,0,0,.426,0,1.034,1.034,0,0,0,.669,0,2.19,2.19,0,0,0,.669-.608,1.762,1.762,0,0,0,.426-.729,2.559,2.559,0,0,0,0-.912,5.344,5.344,0,0,0-.3-1.034Z" transform="translate(-740.647 -395.13)" fill="#455a64"/>
            <path id="Path_407" data-name="Path 407" d="M1251.1,1156.695v1.581a9.251,9.251,0,0,1,0,1.277,4.255,4.255,0,0,1-.365,1.155,5.543,5.543,0,0,1-.669.973,3.894,3.894,0,0,1-.912.791,2.254,2.254,0,0,1-.912,0,.853.853,0,0,1-.669,0,1.033,1.033,0,0,1-.365-.669,2.916,2.916,0,0,1,0-1.094v-1.581a4.186,4.186,0,0,1,0-1.216,3.648,3.648,0,0,1,.365-1.155,3.766,3.766,0,0,1,.669-1.034,2.672,2.672,0,0,1,.912-.73,1.579,1.579,0,0,1,.912,0,.912.912,0,0,1,.669,0l.365.73a4.5,4.5,0,0,1,0,.973Zm3.345-4.378v-.426a.61.61,0,0,1,.3,0l1.095-.669h0l-6.689,17.392v.365a.728.728,0,0,1-.3.3l-1.095.608h0Zm-6.081,7.419a2,2,0,0,0,0,.73h.426a1.157,1.157,0,0,0,.426-.486,3.72,3.72,0,0,0,0-.912v-1.338a1.765,1.765,0,0,0,0-.73h-.426a.971.971,0,0,0-.426.547,2.8,2.8,0,0,0,0,.851,5.345,5.345,0,0,0,.061,1.338Zm8.939.608v1.581a9.268,9.268,0,0,1,0,1.277,8.452,8.452,0,0,1-.365,1.156,5.54,5.54,0,0,1-.669.973,3.9,3.9,0,0,1-.912.79,2.246,2.246,0,0,1-.912,0,1.094,1.094,0,0,1-.669,0,1.4,1.4,0,0,1-.365-.73,2.918,2.918,0,0,1,0-1.094v-1.52a4.617,4.617,0,0,1,0-1.277,3.657,3.657,0,0,1,.365-1.156,3.776,3.776,0,0,1,.425-1.216,2.677,2.677,0,0,1,.912-.73,2.255,2.255,0,0,1,.912,0,.912.912,0,0,1,.669,0,2.072,2.072,0,0,1,.365.73Zm-2.676,3.041a1.764,1.764,0,0,0,0,.73h.426c.426,0,.3,0,.426-.486a3.708,3.708,0,0,0,0-.912v-1.338a1.766,1.766,0,0,0,0-.73h-.426a.973.973,0,0,0-.426.547,2.792,2.792,0,0,0,0,.851,5.344,5.344,0,0,0,.061,1.338Z" transform="translate(-741.016 -394.821)" fill="#455a64"/>
            <path id="Path_408" data-name="Path 408" d="M1229.6,1144.091l-4.439-6.871a87.808,87.808,0,0,0-10.52,28.4l7.176-.608A66.4,66.4,0,0,1,1229.6,1144.091Z" transform="translate(-739.708 -394.258)" fill="#455a64"/>
            <path id="Path_409" data-name="Path 409" d="M1242.631,1129.7v-11.615a49.62,49.62,0,0,0-17.027,18.243l4.439,6.872A37.152,37.152,0,0,1,1242.631,1129.7Z" transform="translate(-740.149 -393.488)" fill="#455a64"/>
            <path id="Path_410" data-name="Path 410" d="M1220.724,1177a59.829,59.829,0,0,1,1.034-10.824l-7.176.608a74.737,74.737,0,0,0-1.46,14.594,52.733,52.733,0,0,0,1.46,12.953l7.176-7.784a41.339,41.339,0,0,1-1.034-9.547Z" transform="translate(-739.647 -395.422)" fill="#455a64"/>
            <path id="Path_411" data-name="Path 411" d="M1269.738,1132.858a24.324,24.324,0,0,0-10.52-16.236,17.088,17.088,0,0,0-17.027,1.338v11.615a12.648,12.648,0,0,1,12.588-.912,17.817,17.817,0,0,1,7.784,12.162,41.35,41.35,0,0,1,1.034,9.547,59.268,59.268,0,0,1-1.034,10.824,67.922,67.922,0,0,1-7.784,20.919,38.19,38.19,0,0,1-12.588,13.621,12.527,12.527,0,0,1-12.588.912,17.635,17.635,0,0,1-7.784-12.162l-7.176,7.784a23.777,23.777,0,0,0,10.52,16.236,16.906,16.906,0,0,0,17.027-1.338,50.653,50.653,0,0,0,17.027-18.243,88.9,88.9,0,0,0,10.52-28.338,79.731,79.731,0,0,0,1.4-14.655,56.006,56.006,0,0,0-1.4-13.074Z" transform="translate(-739.708 -393.363)" fill="#407bff"/>
            <path id="Path_412" data-name="Path 412" d="M1318.4,1097.1l135-77.959c3.649-2.128,6.628-.608,6.628,3.284a14.108,14.108,0,0,1-6.628,10.946l-135,77.837c-3.649,2.128-6.628.608-6.628-3.284A14.11,14.11,0,0,1,1318.4,1097.1Z" transform="translate(-743.615 -389.47)" fill="#455a64"/>
            <path id="Path_413" data-name="Path 413" d="M1318.4,1124.68l233.815-135c3.649-2.128,6.568-.608,6.568,3.345a13.986,13.986,0,0,1-6.568,10.885l-233.815,135c-3.649,2.128-6.628.608-6.628-3.345a14.047,14.047,0,0,1,6.628-10.885Z" transform="translate(-743.615 -388.285)" fill="#e0e0e0"/>
            <path id="Path_414" data-name="Path 414" d="M1691.394,957.976l443.915-256.254a14.6,14.6,0,0,0,6.568-11.432V577.122c0-4.2-2.919-6.081-6.567-3.77L1691.394,829.545a14.6,14.6,0,0,0-6.567,11.432V954.145C1684.948,958.341,1687.867,960.044,1691.394,957.976Z" transform="translate(-758.618 -371.54)" fill="#f0f0f0"/>
            <path id="Path_415" data-name="Path 415" d="M1734.372,879.777a8.03,8.03,0,0,1,.365-2.372,8.21,8.21,0,0,1,.852-2.128,9.359,9.359,0,0,1,1.277-1.764,8.577,8.577,0,0,1,1.459-1.216,6.083,6.083,0,0,1,1.459-.487,2.192,2.192,0,0,1,1.277.3,2.739,2.739,0,0,1,.912,1.095,6.083,6.083,0,0,1,.3,2.007,7,7,0,0,1,0,1.155,7.031,7.031,0,0,1,0,1.095,6.639,6.639,0,0,1-.3,1.034l-.365.973-2.554,6.932a.852.852,0,0,0,0,.365.73.73,0,0,1-.3.3l-2.128,1.216h0a.364.364,0,0,1,0-.3h0l1.764-4.682a3.038,3.038,0,0,1-1.277,0,1.582,1.582,0,0,1-1.034-.426,2.494,2.494,0,0,1-.729-1.094,5.165,5.165,0,0,1-.973-2.007Zm5.412-3.1a2.248,2.248,0,0,0,0-.73.609.609,0,0,0-.3-.365h-.486a.974.974,0,0,0-.547,0l-.547.426-.426.669a3.168,3.168,0,0,0-.365.791,3.6,3.6,0,0,0,0,.791,2.252,2.252,0,0,0,0,.73.391.391,0,0,0,.365.365h.426a.974.974,0,0,0,.547,0,1.948,1.948,0,0,0,.547-.487,2.368,2.368,0,0,0,.486-.608,3.038,3.038,0,0,0,.3-.791,3.6,3.6,0,0,0,0-.791Z" transform="translate(-760.611 -383.584)" fill="#455a64"/>
            <path id="Path_416" data-name="Path 416" d="M1747.774,866.91a2.674,2.674,0,0,1,1.7-.547,1.7,1.7,0,0,1,1.217.487,3.767,3.767,0,0,1,.73,1.4,6.987,6.987,0,0,1,0,2.007v3.709a10.287,10.287,0,0,1,0,2.311,15.383,15.383,0,0,1-.73,2.189,9.44,9.44,0,0,1-1.216,1.946,7.968,7.968,0,0,1-1.7,1.459,3.894,3.894,0,0,1-1.764.547,2.068,2.068,0,0,1-1.216-.547,3.345,3.345,0,0,1-.73-1.4,9.408,9.408,0,0,1,0-1.946v-3.709a14.153,14.153,0,0,1,0-2.311,13.929,13.929,0,0,1,.73-2.25,7.719,7.719,0,0,1,1.216-1.885A6.082,6.082,0,0,1,1747.774,866.91Zm1.4,8.392a34.2,34.2,0,0,0,0-3.527,3.733,3.733,0,0,0,0-.851,1.706,1.706,0,0,0,0-.669.607.607,0,0,0-.426,0h-.669a2.188,2.188,0,0,0-.669.608,5.048,5.048,0,0,0-.486.73s0,.608,0,.912v1.034a32.963,32.963,0,0,0,0,3.466q0,.547,0,.912a3.085,3.085,0,0,0,0,.608.547.547,0,0,0,.486,0h.669l.669-.547a3.285,3.285,0,0,0,.426-.791,5.037,5.037,0,0,0,0-.912,5.277,5.277,0,0,0,0-.973Z" transform="translate(-760.999 -383.365)" fill="#455a64"/>
            <path id="Path_417" data-name="Path 417" d="M1757.458,864.232a6.862,6.862,0,0,1,0,1.581,9.026,9.026,0,0,1,0,1.277,8.844,8.844,0,0,1-.426,1.155,5.235,5.235,0,0,1-.608.973,3.954,3.954,0,0,1-.973.791,1.822,1.822,0,0,1-.912.3.912.912,0,0,1-.608,0,2.12,2.12,0,0,1-.426-.73,5.475,5.475,0,0,1,0-1.095,2.978,2.978,0,0,1,0-.73,4.313,4.313,0,0,1,0-.851,8.254,8.254,0,0,1,0-1.216,6.518,6.518,0,0,1,.426-1.155,3.592,3.592,0,0,1,.608-1.034,4.809,4.809,0,0,1,.912-.73,2.252,2.252,0,0,1,.973,0,.791.791,0,0,1,.608,0,2.135,2.135,0,0,1,.426.73A5.386,5.386,0,0,1,1757.458,864.232Zm3.405-4.378v-.426h.3l1.094-.669h0l-6.628,17.392a2.013,2.013,0,0,1,0,.365v.3l-1.095.608h0Zm-6.081,7.419V868c0,.121,0,0,.365,0a.609.609,0,0,0,.426-.487v-2.25a3.065,3.065,0,0,0,0-.73h-.426a.913.913,0,0,0-.365.547,2.554,2.554,0,0,0,0,.851Zm8.939.608a6.877,6.877,0,0,1,0,1.581,9.06,9.06,0,0,1,0,1.277,8.893,8.893,0,0,1-.426,1.156,3.465,3.465,0,0,1-.669.973,2.249,2.249,0,0,1-.912.791,1.823,1.823,0,0,1-.912,0,.729.729,0,0,1-.608,0,2.13,2.13,0,0,1-.426-.73,5.357,5.357,0,0,1,0-1.034,5.167,5.167,0,0,1,0-1.581,9.046,9.046,0,0,1,0-1.277,6.511,6.511,0,0,1,.426-1.155,2.672,2.672,0,0,1,.608-.973,3.528,3.528,0,0,1,.912-.79,2.254,2.254,0,0,1,.912,0,.851.851,0,0,1,.669,0,2.126,2.126,0,0,1,.426.73,5.34,5.34,0,0,1,0,.791Zm-2.676,3.041v.73c0,.122,0,0,.365,0a.608.608,0,0,0,.426-.486,3.285,3.285,0,0,0,0-.912,4.931,4.931,0,0,0,0-1.338,1.762,1.762,0,0,0,0-.73h-.426a.913.913,0,0,0-.365.547,2.551,2.551,0,0,0,0,.851Z" transform="translate(-761.379 -383.059)" fill="#455a64"/>
            <path id="Path_418" data-name="Path 418" d="M1748.612,837.491V825.876a49.618,49.618,0,0,0-17.027,18.243l4.439,6.872a37.156,37.156,0,0,1,12.588-13.5Z" transform="translate(-760.499 -381.736)" fill="#455a64"/>
            <path id="Path_419" data-name="Path 419" d="M1775.649,840.648a23.96,23.96,0,0,0-10.52-16.236,16.905,16.905,0,0,0-17.027,1.338v11.615a12.526,12.526,0,0,1,12.588-.912,17.817,17.817,0,0,1,7.784,12.162,41.349,41.349,0,0,1,1.034,9.547,59.852,59.852,0,0,1-1.034,10.824,66.4,66.4,0,0,1-7.784,20.919,38.186,38.186,0,0,1-12.588,13.622,12.527,12.527,0,0,1-12.588.912,17.635,17.635,0,0,1-7.784-12.162,41.358,41.358,0,0,1-1.034-9.547,59.291,59.291,0,0,1,1.034-10.824,66.409,66.409,0,0,1,7.6-20.919l-4.439-6.872a88,88,0,0,0-10.52,28.338,80.335,80.335,0,0,0-1.46,14.655,55.824,55.824,0,0,0,1.459,12.953,23.777,23.777,0,0,0,10.521,16.236,16.9,16.9,0,0,0,17.027-1.338,50.109,50.109,0,0,0,17.027-18.243h0a89.451,89.451,0,0,0,10.521-28.338,80.751,80.751,0,0,0,1.4-14.655A55.98,55.98,0,0,0,1775.649,840.648Z" transform="translate(-759.989 -381.609)" fill="#407bff"/>
            <path id="Path_420" data-name="Path 420" d="M1824.446,804.891l135.059-78.02c3.588-2.068,6.567-.608,6.567,3.345a14.17,14.17,0,0,1-6.567,10.946l-135.06,77.959c-3.649,2.128-6.568.608-6.568-3.345A13.987,13.987,0,0,1,1824.446,804.891Z" transform="translate(-763.969 -377.717)" fill="#455a64"/>
            <path id="Path_421" data-name="Path 421" d="M1824.446,832.41l233.815-134.938c3.649-2.128,6.628-.608,6.628,3.345a14.047,14.047,0,0,1-6.628,10.885l-233.815,135c-3.649,2.068-6.568.608-6.568-3.345A14.107,14.107,0,0,1,1824.446,832.41Z" transform="translate(-763.969 -376.533)" fill="#e0e0e0"/>
            <path id="Path_422" data-name="Path 422" d="M1236.8,1293.915l94.742-54.729c3.649-2.128,6.568-.608,6.568,3.284a14.048,14.048,0,0,1-6.568,10.946l-94.742,54.729c-3.649,2.129-6.568.608-6.568-3.345a13.987,13.987,0,0,1,6.568-10.885Z" transform="translate(-740.335 -398.32)" fill="#455a64"/>
            <path id="Path_423" data-name="Path 423" d="M2118.474,801.358h0m-2.8,1.642v723.642a8.452,8.452,0,0,1-3.527,6.081l-922.978,532.7V1341.779a8.757,8.757,0,0,1,3.588-6.081l11.493-6.628a20.615,20.615,0,0,0,9.669-16.662v-41.716a8.453,8.453,0,0,1,3.527-6.081l132.505-76.5v38.918a9.912,9.912,0,0,0,9.73,10.763,12.162,12.162,0,0,0,6.081-1.7L2115.8,803.061m-763.047,383.348h0m765.358-391.071a6.081,6.081,0,0,0-2.919.912L1362.6,1230.739a6.077,6.077,0,0,1-2.919.912c-2.189,0-3.649-1.763-3.649-4.682v-41.9c0-2.98-1.52-4.683-3.649-4.683a6.083,6.083,0,0,0-2.919.912l-135.059,77.959a14.6,14.6,0,0,0-6.568,11.433v41.837a14.473,14.473,0,0,1-6.628,11.372l-11.493,6.689a14.472,14.472,0,0,0-6.628,11.372v726.378c0,2.979,1.52,4.743,3.649,4.743a6.079,6.079,0,0,0,2.98-.912l925.41-534.339a14.473,14.473,0,0,0,6.567-11.372V800.02c0-2.98-1.459-4.682-3.649-4.682Z" transform="translate(-738.44 -380.508)" fill="#e0e0e0"/>
            <path id="Path_424" data-name="Path 424" d="M1244.838,1393.845a6.506,6.506,0,0,1-3.223-.791,7.723,7.723,0,0,1-3.466-6.932v-27.547a17.635,17.635,0,0,1,8.148-14.047l73.4-42.567a7.6,7.6,0,0,1,7.662-.486,7.723,7.723,0,0,1,3.466,6.932v27.547a17.635,17.635,0,0,1-8.148,14.047l-73.337,42.567a9.24,9.24,0,0,1-4.5,1.277Zm4.5-44.027a11.311,11.311,0,0,0-5.108,8.757v27.547a2.311,2.311,0,0,0,.426,1.642,2.371,2.371,0,0,0,1.642-.486l73.4-42.263a11.676,11.676,0,0,0,5.047-8.817V1308.65a2.311,2.311,0,0,0-.426-1.642,2.372,2.372,0,0,0-1.642.486Z" transform="translate(-740.653 -400.831)" fill="#e0e0e0"/>
            <path id="Path_425" data-name="Path 425" d="M1254.313,1362.474l47.858-27.729c2.432-1.4,4.378-.426,4.378,2.189a9.3,9.3,0,0,1-4.378,7.3l-47.858,27.79c-2.432,1.4-4.378.365-4.378-2.25a9.426,9.426,0,0,1,4.378-7.3Z" transform="translate(-741.128 -402.176)" fill="#e0e0e0"/>
            <path id="Path_426" data-name="Path 426" d="M1315.763,1329.78l3.953,5.655a.717.717,0,0,0,.608-.365l3.953-10.216v-.73l-7.905,4.561a.973.973,0,0,0-.608,1.094Z" transform="translate(-743.775 -401.773)" fill="#455a64"/>
            <path id="Path_427" data-name="Path 427" d="M1234.347,1676.174c3.527-2.007,6.081-.365,6.081,3.649a13.925,13.925,0,0,1-6.081,11.007c-3.527,2.007-6.081.365-6.081-3.649a13.925,13.925,0,0,1,6.081-11.006Z" transform="translate(-740.256 -415.899)" fill="#407bff"/>
            <path id="Path_428" data-name="Path 428" d="M1285.92,1616.743c3.527-2.007,6.385-.365,6.385,3.649a13.986,13.986,0,0,1-6.385,11.007c-3.466,2.007-6.081.365-6.081-3.649a14.048,14.048,0,0,1,6.081-11.007Z" transform="translate(-742.331 -413.509)" fill="#407bff"/>
            <path id="Path_429" data-name="Path 429" d="M1337.291,1587.028c3.466-2.007,6.081-.365,6.081,3.649a14.047,14.047,0,0,1-6.081,11.006c-3.527,2.007-6.385.365-6.385-3.649a13.986,13.986,0,0,1,6.385-11.006Z" transform="translate(-744.384 -412.314)" fill="#407bff"/>
            <path id="Path_430" data-name="Path 430" d="M1388.751,1570.365c3.527-2.007,6.081-.365,6.081,3.649a13.926,13.926,0,0,1-6.081,11.007c-3.527,2.007-6.081.365-6.081-3.649a13.926,13.926,0,0,1,6.081-11.007Z" transform="translate(-746.466 -411.644)" fill="#407bff"/>
            <path id="Path_431" data-name="Path 431" d="M1440.261,1516.827c3.527-2.007,6.081-.365,6.081,3.709a13.925,13.925,0,0,1-6.081,10.946c-3.466,2.068-6.081.426-6.081-3.649a14.229,14.229,0,0,1,6.081-11.007Z" transform="translate(-748.538 -409.491)" fill="#407bff"/>
            <path id="Path_432" data-name="Path 432" d="M1491.708,1497.883c3.527-2.007,6.081-.365,6.081,3.649a13.926,13.926,0,0,1-6.081,11.007c-3.527,2.007-6.081.365-6.081-3.649a13.926,13.926,0,0,1,6.081-11.007Z" transform="translate(-750.607 -408.729)" fill="#407bff"/>
            <path id="Path_433" data-name="Path 433" d="M1543.156,1438.2c3.527-2.068,6.385-.426,6.385,3.649a14.047,14.047,0,0,1-6.385,11.006c-3.466,2.007-6.081.365-6.081-3.709a14.047,14.047,0,0,1,6.081-10.946Z" transform="translate(-752.676 -406.327)" fill="#407bff"/>
            <path id="Path_434" data-name="Path 434" d="M1594.666,1423.564c3.466-2.007,6.081-.365,6.081,3.709a14.047,14.047,0,0,1-6.081,10.946c-3.527,2.068-6.081.426-6.081-3.649a14.047,14.047,0,0,1,6.081-11.007Z" transform="translate(-754.748 -405.74)" fill="#407bff"/>
            <path id="Path_435" data-name="Path 435" d="M1646.113,1260.1c3.527-2.007,6.081-.365,6.081,3.709a14.169,14.169,0,0,1-6.081,11.007c-3.527,2.007-6.081.365-6.081-3.709a14.109,14.109,0,0,1,6.081-11.007Z" transform="translate(-756.817 -399.166)" fill="#407bff"/>
            <path id="Path_436" data-name="Path 436" d="M1697.737,1349.5c3.466-2.068,6.081-.426,6.081,3.649a14.229,14.229,0,0,1-6.081,11.007c-3.527,2.007-6.385.365-6.385-3.709a13.925,13.925,0,0,1,6.385-10.946Z" transform="translate(-758.881 -402.759)" fill="#407bff"/>
            <path id="Path_437" data-name="Path 437" d="M1749.07,1349.5c3.527-2.068,6.081-.426,6.081,3.649a14.107,14.107,0,0,1-6.081,11.007c-3.527,2.007-6.081.365-6.081-3.71A13.865,13.865,0,0,1,1749.07,1349.5Z" transform="translate(-760.958 -402.759)" fill="#407bff"/>
            <path id="Path_438" data-name="Path 438" d="M1800.517,1349.5c3.527-2.068,6.081-.426,6.081,3.649a14.168,14.168,0,0,1-6.081,11.007c-3.466,2.007-6.081.365-6.081-3.709A14.047,14.047,0,0,1,1800.517,1349.5Z" transform="translate(-763.027 -402.759)" fill="#407bff"/>
            <path id="Path_439" data-name="Path 439" d="M1852.015,1260.161c3.466-2.068,6.081-.426,6.081,3.649a14.231,14.231,0,0,1-6.081,11.007c-3.527,2.007-6.385.365-6.385-3.709a13.926,13.926,0,0,1,6.385-10.946Z" transform="translate(-765.086 -399.167)" fill="#407bff"/>
            <path id="Path_440" data-name="Path 440" d="M1903.474,1243.056c3.527-2.007,6.081-.365,6.081,3.649a13.926,13.926,0,0,1-6.081,11.007c-3.527,2.007-6.081.365-6.081-3.649a13.926,13.926,0,0,1,6.081-11.006Z" transform="translate(-767.167 -398.48)" fill="#407bff"/>
            <path id="Path_441" data-name="Path 441" d="M1955.112,1170.954c3.527-2.007,6.385-.365,6.385,3.709a13.925,13.925,0,0,1-6.385,10.946c-3.466,2.067-6.081.426-6.081-3.649a14.229,14.229,0,0,1,6.081-11.007Z" transform="translate(-769.244 -395.58)" fill="#407bff"/>
            <ellipse id="Ellipse_39" data-name="Ellipse 39" cx="9" cy="5.169" rx="9" ry="5.169" transform="matrix(0.5, -0.866, 0.866, 0.5, 1226.193, 788.039)" fill="#407bff"/>
            <ellipse id="Ellipse_40" data-name="Ellipse 40" cx="9" cy="5.169" rx="9" ry="5.169" transform="matrix(0.5, -0.866, 0.866, 0.5, 1275.632, 788.025)" fill="#407bff"/>
            <path id="Path_442" data-name="Path 442" d="M2109.567,1141.239c3.466-2.007,6.081-.365,6.081,3.709a14.047,14.047,0,0,1-6.081,10.946c-3.527,2.068-6.385.426-6.385-3.648A14.17,14.17,0,0,1,2109.567,1141.239Z" transform="translate(-775.444 -394.385)" fill="#407bff"/>
            <path id="Path_443" data-name="Path 443" d="M1234.413,1663.7a1.642,1.642,0,0,1-1.034-.365,1.582,1.582,0,0,1,0-2.189l49.864-57.283.426-.365,49.013-28.277L1382,1559.229l49.135-51.141.608-.365,49.013-18.243,49.135-56.736a2.559,2.559,0,0,1,.73-.486l48.648-14.047,49.013-155.857a1.581,1.581,0,0,1,1.277-1.095,1.642,1.642,0,0,1,1.52.791l48.952,84.769h97.3l48.709-84.466a1.461,1.461,0,0,1,.851-.73l48.952-16.236,49.074-68.776a1.643,1.643,0,0,1,1.277-.608h98.391l49.013-28.338a1.513,1.513,0,1,1,1.52,2.615l-49.378,28.581a1.7,1.7,0,0,1-.79,0H1926.92l-48.952,68.533a1.338,1.338,0,0,1-.729.547l-48.648,16.236-49.135,85.134a1.581,1.581,0,0,1-1.338.73H1679.3a1.581,1.581,0,0,1-1.277-.73l-47.675-82.58L1582,1420.46a1.763,1.763,0,0,1-1.034,1.034l-49.013,14.108-49.074,56.736-.608.426-49.135,18.243-49.135,51.141a1.278,1.278,0,0,1-.608.365l-49.439,15.993-48.648,28.094-49.925,56.736A1.523,1.523,0,0,1,1234.413,1663.7Z" transform="translate(-740.444 -394.67)" fill="#407bff"/>
            <path id="Path_444" data-name="Path 444" d="M1234.475,1696.445a3.04,3.04,0,0,1-2.615-1.52,3.1,3.1,0,0,1,1.095-4.2l839.85-484.84a3.041,3.041,0,0,1,3.041,5.23l-839.85,484.658a2.857,2.857,0,0,1-1.52.669Z" transform="translate(-740.384 -397.009)" fill="#e0e0e0"/>
            <path id="Path_445" data-name="Path 445" d="M1234.347,1646.458c3.527-2.007,6.081-.365,6.081,3.649a13.925,13.925,0,0,1-6.081,11.007c-3.527,2.007-6.081.365-6.081-3.649a13.926,13.926,0,0,1,6.081-11.006Z" transform="translate(-740.256 -414.704)" fill="#407bff"/>
            <path id="Path_446" data-name="Path 446" d="M1285.92,1557.313c3.527-2.007,6.385-.365,6.385,3.649a13.986,13.986,0,0,1-6.385,11.007c-3.466,2.007-6.081.365-6.081-3.649A14.048,14.048,0,0,1,1285.92,1557.313Z" transform="translate(-742.331 -411.119)" fill="#407bff"/>
            <ellipse id="Ellipse_41" data-name="Ellipse 41" cx="9" cy="5.169" rx="9" ry="5.169" transform="matrix(0.5, -0.866, 0.866, 0.5, 583.984, 1148.104)" fill="#407bff"/>
            <path id="Path_447" data-name="Path 447" d="M1388.751,1438.2c3.527-2.068,6.081-.426,6.081,3.649a13.986,13.986,0,0,1-6.081,11.006c-3.527,2.007-6.081.365-6.081-3.709a13.865,13.865,0,0,1,6.081-10.946Z" transform="translate(-746.466 -406.327)" fill="#407bff"/>
            <path id="Path_448" data-name="Path 448" d="M1440.261,1468.168c3.527-2.007,6.081-.365,6.081,3.649a13.987,13.987,0,0,1-6.081,11.007c-3.466,2.007-6.081.365-6.081-3.649A14.047,14.047,0,0,1,1440.261,1468.168Z" transform="translate(-748.538 -407.534)" fill="#407bff"/>
            <path id="Path_449" data-name="Path 449" d="M1491.708,1453.279c3.527-2.007,6.081-.365,6.081,3.709a13.864,13.864,0,0,1-6.081,10.946c-3.527,2.068-6.081.426-6.081-3.649a14.108,14.108,0,0,1,6.081-11.007Z" transform="translate(-750.607 -406.935)" fill="#407bff"/>
            <path id="Path_450" data-name="Path 450" d="M1543.156,1408.736c3.527-2.068,6.385-.426,6.385,3.649a14.048,14.048,0,0,1-6.385,11.007c-3.466,2.007-6.081.365-6.081-3.649a14.047,14.047,0,0,1,6.081-11.007Z" transform="translate(-752.676 -405.142)" fill="#407bff"/>
            <path id="Path_451" data-name="Path 451" d="M1594.666,1349.5c3.466-2.068,6.081-.426,6.081,3.649a14.229,14.229,0,0,1-6.081,11.007c-3.527,2.007-6.081.365-6.081-3.709a13.925,13.925,0,0,1,6.081-10.946Z" transform="translate(-754.748 -402.759)" fill="#407bff"/>
            <path id="Path_452" data-name="Path 452" d="M1646.113,1334.418c3.527-2.007,6.081-.365,6.081,3.649a13.987,13.987,0,0,1-6.081,11.007c-3.527,2.007-6.081.365-6.081-3.649A13.925,13.925,0,0,1,1646.113,1334.418Z" transform="translate(-756.817 -402.155)" fill="#407bff"/>
            <path id="Path_453" data-name="Path 453" d="M1697.75,1289.876c3.527-2.068,6.081-.426,6.081,3.649a14.169,14.169,0,0,1-6.081,11.007c-3.466,2.007-6.081.365-6.081-3.709a14.046,14.046,0,0,1,6.081-10.946Z" transform="translate(-758.894 -400.362)" fill="#407bff"/>
            <path id="Path_454" data-name="Path 454" d="M1749.07,1289.876c3.527-2.068,6.081-.426,6.081,3.649a14.108,14.108,0,0,1-6.081,11.007c-3.527,2.007-6.081.365-6.081-3.709A13.865,13.865,0,0,1,1749.07,1289.876Z" transform="translate(-760.958 -400.362)" fill="#407bff"/>
            <path id="Path_455" data-name="Path 455" d="M1800.517,1170.954c3.527-2.007,6.081-.365,6.081,3.709a13.925,13.925,0,0,1-6.081,10.946c-3.466,2.067-6.081.426-6.081-3.649A14.229,14.229,0,0,1,1800.517,1170.954Z" transform="translate(-763.027 -395.58)" fill="#407bff"/>
            <path id="Path_456" data-name="Path 456" d="M1852.015,1230c3.466-2.007,6.081-.426,6.081,3.649a14.047,14.047,0,0,1-6.081,11.007c-3.527,2.007-6.385.365-6.385-3.649a13.987,13.987,0,0,1,6.385-11.006Z" transform="translate(-765.086 -397.955)" fill="#407bff"/>
            <path id="Path_457" data-name="Path 457" d="M1903.474,1170.954c3.527-2.007,6.081-.365,6.081,3.709a13.925,13.925,0,0,1-6.081,10.946c-3.527,2.068-6.081.426-6.081-3.649a14.108,14.108,0,0,1,6.081-11.007Z" transform="translate(-767.167 -395.58)" fill="#407bff"/>
            <path id="Path_458" data-name="Path 458" d="M1954.972,1141.239c3.466-2.007,6.081-.365,6.081,3.709a14.047,14.047,0,0,1-6.081,10.946c-3.527,2.068-6.385.426-6.385-3.649A14.17,14.17,0,0,1,1954.972,1141.239Z" transform="translate(-769.226 -394.385)" fill="#407bff"/>
            <path id="Path_459" data-name="Path 459" d="M2006.432,1141.239c3.527-2.007,6.081-.365,6.081,3.709a13.865,13.865,0,0,1-6.081,10.946c-3.527,2.068-6.081.426-6.081-3.649a14.108,14.108,0,0,1,6.081-11.007Z" transform="translate(-771.308 -394.385)" fill="#407bff"/>
            <path id="Path_460" data-name="Path 460" d="M2057.879,1111.524c3.527-2.007,6.385-.365,6.385,3.709a13.926,13.926,0,0,1-6.385,10.946c-3.466,2.068-6.081.426-6.081-3.649a14.229,14.229,0,0,1,6.081-11.007Z" transform="translate(-773.377 -393.19)" fill="#407bff"/>
            <path id="Path_461" data-name="Path 461" d="M2109.567,1111.524c3.466-2.007,6.081-.365,6.081,3.709a14.047,14.047,0,0,1-6.081,10.946c-3.527,2.068-6.385.426-6.385-3.648a14.169,14.169,0,0,1,6.385-11.006Z" transform="translate(-775.444 -393.19)" fill="#407bff"/>
            <path id="Path_462" data-name="Path 462" d="M1234.537,1634.119a1.337,1.337,0,0,1-.791,0,1.52,1.52,0,0,1-.547-2.068l49.743-85.742a1.4,1.4,0,0,1,1.034-.73l48.283-10.338,49.074-102.769a1.581,1.581,0,0,1,.973-.791,1.459,1.459,0,0,1,1.216,0l48.648,28.216,48.648-14.047,49.074-42.567,49.317-56.918a1.216,1.216,0,0,1,.73-.487l49.074-14.169,49.135-42.567a1.52,1.52,0,0,1,1.034-.365h48.648l48.77-113.168a1.7,1.7,0,0,1,1.216-.912,1.459,1.459,0,0,1,1.338.547l48.283,55.7,48.222-55.7a1.216,1.216,0,0,1,.426-.365l49.56-28.581a1.156,1.156,0,0,1,.729,0h49.013l48.648-28.216a1.641,1.641,0,0,1,.73,0h49.8a1.52,1.52,0,1,1,0,3.04h-49.013l-48.648,28.216h-49.743l-49.013,28.277-49.2,56.858a1.581,1.581,0,0,1-2.311,0l-47.858-55.216-48.648,111.891a1.521,1.521,0,0,1-1.4.912h-48.648l-49.439,42.081h-.608l-48.952,14.108-49.2,56.736-49.5,42.932-.547.3-49.378,14.291a1.338,1.338,0,0,1-1.155,0l-48.04-27.729-48.648,101.979a1.277,1.277,0,0,1-1.034.791l-48.648,10.338-49.439,85.134a1.459,1.459,0,0,1-.973,1.094Z" transform="translate(-740.447 -393.487)" fill="#407bff"/>
            <g id="Group_41" data-name="Group 41" transform="translate(488.009 717.478)" opacity="0.3">
              <path id="Path_463" data-name="Path 463" d="M1234.347,1646.458c3.527-2.007,6.081-.365,6.081,3.649a13.925,13.925,0,0,1-6.081,11.007c-3.527,2.007-6.081.365-6.081-3.649a13.926,13.926,0,0,1,6.081-11.006Z" transform="translate(-1228.266 -1132.183)"/>
              <path id="Path_464" data-name="Path 464" d="M1285.92,1557.313c3.527-2.007,6.385-.365,6.385,3.649a13.986,13.986,0,0,1-6.385,11.007c-3.466,2.007-6.081.365-6.081-3.649A14.048,14.048,0,0,1,1285.92,1557.313Z" transform="translate(-1230.34 -1128.597)"/>
              <ellipse id="Ellipse_42" data-name="Ellipse 42" cx="9" cy="5.169" rx="9" ry="5.169" transform="matrix(0.5, -0.866, 0.866, 0.5, 95.975, 430.626)"/>
              <path id="Path_465" data-name="Path 465" d="M1388.751,1438.2c3.527-2.068,6.081-.426,6.081,3.649a13.986,13.986,0,0,1-6.081,11.006c-3.527,2.007-6.081.365-6.081-3.709a13.865,13.865,0,0,1,6.081-10.946Z" transform="translate(-1234.475 -1123.805)"/>
              <path id="Path_466" data-name="Path 466" d="M1440.261,1468.168c3.527-2.007,6.081-.365,6.081,3.649a13.987,13.987,0,0,1-6.081,11.007c-3.466,2.007-6.081.365-6.081-3.649A14.047,14.047,0,0,1,1440.261,1468.168Z" transform="translate(-1236.547 -1125.012)"/>
              <path id="Path_467" data-name="Path 467" d="M1491.708,1453.279c3.527-2.007,6.081-.365,6.081,3.709a13.864,13.864,0,0,1-6.081,10.946c-3.527,2.068-6.081.426-6.081-3.649a14.108,14.108,0,0,1,6.081-11.007Z" transform="translate(-1238.616 -1124.413)"/>
              <path id="Path_468" data-name="Path 468" d="M1543.156,1408.736c3.527-2.068,6.385-.426,6.385,3.649a14.048,14.048,0,0,1-6.385,11.007c-3.466,2.007-6.081.365-6.081-3.649a14.047,14.047,0,0,1,6.081-11.007Z" transform="translate(-1240.685 -1122.62)"/>
              <path id="Path_469" data-name="Path 469" d="M1594.666,1349.5c3.466-2.068,6.081-.426,6.081,3.649a14.229,14.229,0,0,1-6.081,11.007c-3.527,2.007-6.081.365-6.081-3.709a13.925,13.925,0,0,1,6.081-10.946Z" transform="translate(-1242.757 -1120.238)"/>
              <path id="Path_470" data-name="Path 470" d="M1646.113,1334.418c3.527-2.007,6.081-.365,6.081,3.649a13.987,13.987,0,0,1-6.081,11.007c-3.527,2.007-6.081.365-6.081-3.649A13.925,13.925,0,0,1,1646.113,1334.418Z" transform="translate(-1244.826 -1119.633)"/>
              <path id="Path_471" data-name="Path 471" d="M1697.75,1289.876c3.527-2.068,6.081-.426,6.081,3.649a14.169,14.169,0,0,1-6.081,11.007c-3.466,2.007-6.081.365-6.081-3.709a14.046,14.046,0,0,1,6.081-10.946Z" transform="translate(-1246.903 -1117.84)"/>
              <path id="Path_472" data-name="Path 472" d="M1749.07,1289.876c3.527-2.068,6.081-.426,6.081,3.649a14.108,14.108,0,0,1-6.081,11.007c-3.527,2.007-6.081.365-6.081-3.709A13.865,13.865,0,0,1,1749.07,1289.876Z" transform="translate(-1248.967 -1117.84)"/>
              <path id="Path_473" data-name="Path 473" d="M1800.517,1170.954c3.527-2.007,6.081-.365,6.081,3.709a13.925,13.925,0,0,1-6.081,10.946c-3.466,2.067-6.081.426-6.081-3.649A14.229,14.229,0,0,1,1800.517,1170.954Z" transform="translate(-1251.036 -1113.059)"/>
              <path id="Path_474" data-name="Path 474" d="M1852.015,1230c3.466-2.007,6.081-.426,6.081,3.649a14.047,14.047,0,0,1-6.081,11.007c-3.527,2.007-6.385.365-6.385-3.649a13.987,13.987,0,0,1,6.385-11.006Z" transform="translate(-1253.095 -1115.433)"/>
              <path id="Path_475" data-name="Path 475" d="M1903.474,1170.954c3.527-2.007,6.081-.365,6.081,3.709a13.925,13.925,0,0,1-6.081,10.946c-3.527,2.068-6.081.426-6.081-3.649a14.108,14.108,0,0,1,6.081-11.007Z" transform="translate(-1255.177 -1113.059)"/>
              <path id="Path_476" data-name="Path 476" d="M1954.972,1141.239c3.466-2.007,6.081-.365,6.081,3.709a14.047,14.047,0,0,1-6.081,10.946c-3.527,2.068-6.385.426-6.385-3.649A14.17,14.17,0,0,1,1954.972,1141.239Z" transform="translate(-1257.236 -1111.864)"/>
              <path id="Path_477" data-name="Path 477" d="M2006.432,1141.239c3.527-2.007,6.081-.365,6.081,3.709a13.865,13.865,0,0,1-6.081,10.946c-3.527,2.068-6.081.426-6.081-3.649a14.108,14.108,0,0,1,6.081-11.007Z" transform="translate(-1259.318 -1111.864)"/>
              <path id="Path_478" data-name="Path 478" d="M2057.879,1111.524c3.527-2.007,6.385-.365,6.385,3.709a13.926,13.926,0,0,1-6.385,10.946c-3.466,2.068-6.081.426-6.081-3.649a14.229,14.229,0,0,1,6.081-11.007Z" transform="translate(-1261.387 -1110.669)"/>
              <path id="Path_479" data-name="Path 479" d="M2109.567,1111.524c3.466-2.007,6.081-.365,6.081,3.709a14.047,14.047,0,0,1-6.081,10.946c-3.527,2.068-6.385.426-6.385-3.648a14.169,14.169,0,0,1,6.385-11.006Z" transform="translate(-1263.453 -1110.669)"/>
              <path id="Path_480" data-name="Path 480" d="M1234.537,1634.119a1.337,1.337,0,0,1-.791,0,1.52,1.52,0,0,1-.547-2.068l49.743-85.742a1.4,1.4,0,0,1,1.034-.73l48.283-10.338,49.074-102.769a1.581,1.581,0,0,1,.973-.791,1.459,1.459,0,0,1,1.216,0l48.648,28.216,48.648-14.047,49.074-42.567,49.317-56.918a1.216,1.216,0,0,1,.73-.487l49.074-14.169,49.135-42.567a1.52,1.52,0,0,1,1.034-.365h48.648l48.77-113.168a1.7,1.7,0,0,1,1.216-.912,1.459,1.459,0,0,1,1.338.547l48.283,55.7,48.222-55.7a1.216,1.216,0,0,1,.426-.365l49.56-28.581a1.156,1.156,0,0,1,.729,0h49.013l48.648-28.216a1.641,1.641,0,0,1,.73,0h49.8a1.52,1.52,0,1,1,0,3.04h-49.013l-48.648,28.216h-49.743l-49.013,28.277-49.2,56.858a1.581,1.581,0,0,1-2.311,0l-47.858-55.216-48.648,111.891a1.521,1.521,0,0,1-1.4.912h-48.648l-49.439,42.081h-.608l-48.952,14.108-49.2,56.736-49.5,42.932-.547.3-49.378,14.291a1.338,1.338,0,0,1-1.155,0l-48.04-27.729-48.648,101.979a1.277,1.277,0,0,1-1.034.791l-48.648,10.338-49.439,85.134a1.459,1.459,0,0,1-.973,1.094Z" transform="translate(-1228.456 -1110.965)"/>
            </g>
            <path id="Path_481" data-name="Path 481" d="M1261.35,1424.816l47.979-27.79c2.432-1.4,4.378-.426,4.378,2.25a9.3,9.3,0,0,1-4.378,7.236l-47.858,27.791c-2.372,1.4-4.378.426-4.378-2.25A9.486,9.486,0,0,1,1261.35,1424.816Z" transform="translate(-741.416 -404.681)" fill="#e0e0e0"/>
            <path id="Path_482" data-name="Path 482" d="M1234.334,1438.2c3.527-2.068,6.081-.426,6.081,3.649a13.925,13.925,0,0,1-6.081,11.006c-3.527,2.007-6.385.365-6.385-3.649A13.986,13.986,0,0,1,1234.334,1438.2Z" transform="translate(-740.244 -406.327)" fill="#407bff"/>
            <path id="Path_483" data-name="Path 483" d="M1234.334,1438.2c3.527-2.068,6.081-.426,6.081,3.649a13.925,13.925,0,0,1-6.081,11.006c-3.527,2.007-6.385.365-6.385-3.649A13.986,13.986,0,0,1,1234.334,1438.2Z" transform="translate(-740.244 -406.327)" opacity="0.3"/>
            <path id="Path_484" data-name="Path 484" d="M1261.345,1454.407l47.858-27.73c2.432-1.4,4.378-.426,4.378,2.189a9.3,9.3,0,0,1-4.378,7.3l-47.858,27.79c-2.372,1.4-4.378.365-4.378-2.25A9.547,9.547,0,0,1,1261.345,1454.407Z" transform="translate(-741.411 -405.874)" fill="#e0e0e0"/>
            <path id="Path_485" data-name="Path 485" d="M1234.334,1468.167c3.527-2.007,6.081-.426,6.081,3.649a13.925,13.925,0,0,1-6.081,11.007c-3.527,2.007-6.385.365-6.385-3.649a13.986,13.986,0,0,1,6.385-11.006Z" transform="translate(-740.244 -407.533)" fill="#407bff"/>
            <path id="Path_486" data-name="Path 486" d="M1234.539,1858.088a1.58,1.58,0,0,1-1.034-.426,1.52,1.52,0,0,1,0-2.189l25.054-25.784,24.324-3.1,24.871-32.108,24.871,3.405,24.324-21.831,24.689-14.777,25.115-34.844,24.993,7.844,24.02-21.466a1.52,1.52,0,0,1,2.128,0,1.4,1.4,0,0,1,0,2.129l-25.3,22.621-24.324-7.723-24.324,33.75-24.689,14.777-24.993,22.621-24.324-3.344-24.324,31.682-25.905,3.04-24.324,24.993a1.64,1.64,0,0,1-.851.73Z" transform="translate(-740.448 -417.39)" fill="#407bff"/>
            <path id="Path_487" data-name="Path 487" d="M1244.46,1776.614a2.732,2.732,0,0,1,.608-.547,3.586,3.586,0,0,1,.669-.486,6.749,6.749,0,0,1,3.709-1.095,4.318,4.318,0,0,1,2.98,1.095,7.173,7.173,0,0,1,1.946,3.1,15.018,15.018,0,0,1,.73,4.926,22.566,22.566,0,0,1-.73,5.655,25.958,25.958,0,0,1-1.946,5.412,19.709,19.709,0,0,1-2.98,4.561,13.873,13.873,0,0,1-3.709,3.162,7.483,7.483,0,0,1-3.77,1.156,4.622,4.622,0,0,1-2.919-1.156,7.238,7.238,0,0,1-2.007-3.1,16.6,16.6,0,0,1-.669-4.926,17.756,17.756,0,0,1,0-3.1,23.437,23.437,0,0,1,.608-2.98,9.3,9.3,0,0,1,.851-2.8c.3-.912.608-1.824.912-2.676l6.568-18.729a6.522,6.522,0,0,0,.426-.912,1.46,1.46,0,0,1,.73-.851l2.068-1.155a.3.3,0,0,1,.486,0v1.52Zm-4.682,15.811a10.523,10.523,0,0,0,.426,2.919,4.683,4.683,0,0,0,1.216,2.007,2.8,2.8,0,0,0,1.824.79,4.807,4.807,0,0,0,2.493-.73,11.617,11.617,0,0,0,2.493-2.128,14.657,14.657,0,0,0,1.824-2.919,14.96,14.96,0,0,0,1.581-6.811,10.637,10.637,0,0,0-.365-2.919,4.685,4.685,0,0,0-1.216-2.007,2.8,2.8,0,0,0-1.824-.79,5.227,5.227,0,0,0-2.493.73,10.268,10.268,0,0,0-2.493,2.128,13.5,13.5,0,0,0-1.824,2.98,15.694,15.694,0,0,0-1.216,3.344,16.849,16.849,0,0,0-.426,3.406Z" transform="translate(-740.58 -419.347)" fill="#455a64"/>
            <path id="Path_488" data-name="Path 488" d="M1262.141,1782.879a11.131,11.131,0,0,0,.486,1.52,2.127,2.127,0,0,0,.973.973,2.555,2.555,0,0,0,1.7,0,8.754,8.754,0,0,0,2.8-1.155,10.524,10.524,0,0,0,2.128-1.642,11.067,11.067,0,0,0,1.763-2.311,12.229,12.229,0,0,0,1.642-6.324,6.933,6.933,0,0,0-.426-2.8,2.31,2.31,0,0,0-1.156-1.338,2.859,2.859,0,0,0-1.763,0,8.389,8.389,0,0,0-2.189.973l-2.98,1.7a.547.547,0,0,1-.73,0,1.216,1.216,0,0,1,0-.851v-2.007a3.1,3.1,0,0,1,0-1.034l.365-.973,6.507-14.594-10.4,6.081a.426.426,0,0,1-.669,0,1.726,1.726,0,0,1-.3-.851v-2.007a2.129,2.129,0,0,1,.3-1.216,1.64,1.64,0,0,1,.669-.851l14.229-8.21h.669a1.094,1.094,0,0,1,0,.912v1.7a3.768,3.768,0,0,1,0,1.095,4.686,4.686,0,0,1-.487,1.155l-6.385,14.351a7.055,7.055,0,0,1,3.345-1.034,3.466,3.466,0,0,1,2.554.791,5.107,5.107,0,0,1,1.642,2.615,12.706,12.706,0,0,1,.608,4.318,20.919,20.919,0,0,1-.73,5.534,21.9,21.9,0,0,1-1.946,4.926,20.862,20.862,0,0,1-2.858,4.013,14.6,14.6,0,0,1-3.466,2.8,10.34,10.34,0,0,1-4.2,1.581,4.257,4.257,0,0,1-2.858-.608,4.684,4.684,0,0,1-1.7-2.189,9.31,9.31,0,0,1-.608-3.284,1.945,1.945,0,0,1,0-.973,1.52,1.52,0,0,1,.547-.669l1.642-.973h.669A1.4,1.4,0,0,1,1262.141,1782.879Z" transform="translate(-741.477 -418.741)" fill="#455a64"/>
            <path id="Path_489" data-name="Path 489" d="M1284.583,1769.946a4.441,4.441,0,0,0,.487,1.52,1.885,1.885,0,0,0,.973.973,2.555,2.555,0,0,0,1.7,0,8.761,8.761,0,0,0,2.8-1.155,10.512,10.512,0,0,0,2.129-1.642,10.03,10.03,0,0,0,1.763-2.372,13.5,13.5,0,0,0,1.216-2.858,12.167,12.167,0,0,0,.426-3.405,6.932,6.932,0,0,0-.426-2.8,2.556,2.556,0,0,0-1.156-1.338,2.859,2.859,0,0,0-1.763,0,10.53,10.53,0,0,0-2.189.912l-3.041,1.763a.547.547,0,0,1-.669,0,1.215,1.215,0,0,1,0-.851v-2.007a2.007,2.007,0,0,1,0-1.034,8.408,8.408,0,0,1,.365-.973l6.507-14.594-10.4,6.081a.547.547,0,0,1-.73,0,1.216,1.216,0,0,1,0-.851v-2.007a2.738,2.738,0,0,1,0-1.216,1.46,1.46,0,0,1,.73-.851l14.23-8.27a.547.547,0,0,1,.669,0,1.277,1.277,0,0,1,.3.912v2.007a4.068,4.068,0,0,1,0,1.095c0,.365-.3.73-.486,1.155l-6.385,14.351a8.031,8.031,0,0,1,3.284-1.094,3.892,3.892,0,0,1,2.615.851,6.081,6.081,0,0,1,1.642,2.554,14.6,14.6,0,0,1,.608,4.378,21.28,21.28,0,0,1-.729,5.534,23.227,23.227,0,0,1-1.946,4.865,17.7,17.7,0,0,1-2.858,4.014,14.894,14.894,0,0,1-3.466,2.858,10.64,10.64,0,0,1-4.2,1.581,4.927,4.927,0,0,1-2.919-.608,5.594,5.594,0,0,1-1.7-2.189,9.3,9.3,0,0,1-.547-3.284,1.945,1.945,0,0,1,0-.973,1.4,1.4,0,0,1,.547-.73l1.642-.912a.486.486,0,0,1,.669,0A1.4,1.4,0,0,1,1284.583,1769.946Z" transform="translate(-742.392 -418.214)" fill="#455a64"/>
            <path id="Path_490" data-name="Path 490" d="M1239.043,1879.447l213.5-123.749c2.372-1.4,4.378-.365,4.378,2.25a9.547,9.547,0,0,1-4.378,7.3l-213.5,123.567c-2.372,1.4-4.378.426-4.378-2.25A9.486,9.486,0,0,1,1239.043,1879.447Z" transform="translate(-740.514 -419.107)" fill="#e0e0e0"/>
            <path id="Path_491" data-name="Path 491" d="M1239.043,1734.831,1286.9,1707.1c2.432-1.4,4.378-.426,4.378,2.189a9.425,9.425,0,0,1-4.378,7.3l-47.858,27.729c-2.372,1.4-4.378.426-4.378-2.189A9.547,9.547,0,0,1,1239.043,1734.831Z" transform="translate(-740.514 -417.152)" fill="#e0e0e0"/>
            <path id="Path_492" data-name="Path 492" d="M1234.539,2035.379a1.4,1.4,0,0,1-1.034-.486,1.459,1.459,0,0,1,0-2.128l25.054-25.784,24.811-3.1,24.932-21.831,24.324-6.567,25.115-49.925,25.115,12.162,24.324-21.405h.426l24.02-4.561,24.324-42.02a1.52,1.52,0,1,1,2.615,1.52l-24.993,43.236-24.993,4.743-25.175,22.135-24.324-12.162-24.324,48.648-24.993,6.811-24.811,21.831-24.628,3.162L1236,2034.649a1.641,1.641,0,0,1-1.459.73Z" transform="translate(-740.448 -423.682)" fill="#407bff"/>
            <g id="Group_42" data-name="Group 42" transform="translate(492.596 1445.156)" opacity="0.3">
              <path id="Path_493" data-name="Path 493" d="M1234.539,2035.379a1.4,1.4,0,0,1-1.034-.486,1.459,1.459,0,0,1,0-2.128l25.054-25.784,24.811-3.1,24.932-21.831,24.324-6.567,25.115-49.925,25.115,12.162,24.324-21.405h.426l24.02-4.561,24.324-42.02a1.52,1.52,0,1,1,2.615,1.52l-24.993,43.236-24.993,4.743-25.175,22.135-24.324-12.162-24.324,48.648-24.993,6.811-24.811,21.831-24.628,3.162L1236,2034.649a1.641,1.641,0,0,1-1.459.73Z" transform="translate(-1233.044 -1868.838)"/>
            </g>
            <path id="Path_494" data-name="Path 494" d="M1247.244,1977.657a3.162,3.162,0,0,1,0,1.277,1.581,1.581,0,0,1-.73.791l-1.459.851a.486.486,0,0,1-.669,0,1.277,1.277,0,0,1,0-.913v-30.4l-6.081,10.216q-.365.669-.73.73a.487.487,0,0,1-.669,0l-.851-1.216a1.215,1.215,0,0,1,0-.973,2.188,2.188,0,0,1,.365-1.216l7.723-13.621a2.434,2.434,0,0,1,.608-.73l.547-.365,1.459-.851a.547.547,0,0,1,.729,0,1.094,1.094,0,0,1,0,.851Z" transform="translate(-740.565 -426.588)" fill="#455a64"/>
            <path id="Path_495" data-name="Path 495" d="M1263.729,1949.133a22.852,22.852,0,0,0,1.642-3.953,15.993,15.993,0,0,0,.547-4.378,6.446,6.446,0,0,0-1.155-4.318c-.73-.851-1.885-.851-3.527,0a6.931,6.931,0,0,0-2.128,1.824,12.167,12.167,0,0,0-1.52,2.372,21.473,21.473,0,0,0-.912,2.8,24.329,24.329,0,0,0-.547,2.919,3.651,3.651,0,0,1-.365,1.156,2.191,2.191,0,0,1-.608.669l-1.642.912h-.547a.973.973,0,0,1,0-.73,21.4,21.4,0,0,1,.608-4.561,24.93,24.93,0,0,1,1.642-4.8,27.249,27.249,0,0,1,2.675-4.379,12.6,12.6,0,0,1,3.588-3.162,6.873,6.873,0,0,1,3.527-1.094,3.769,3.769,0,0,1,2.493,1.094,6.383,6.383,0,0,1,1.581,2.919,18.236,18.236,0,0,1,.486,4.317,28.466,28.466,0,0,1,0,3.345,27.608,27.608,0,0,1-.547,3.1c-.3,1.034-.669,2.068-1.094,3.162s-.973,2.189-1.581,3.405l-8.088,16.237,11.068-6.385a.487.487,0,0,1,.669,0v2.858a2.127,2.127,0,0,1,0,1.216,1.4,1.4,0,0,1-.669.851l-15.567,9a.547.547,0,0,1-.669,0,1.215,1.215,0,0,1-.3-.851v-2.007a3.522,3.522,0,0,1,0-1.155,10.945,10.945,0,0,1,.608-1.459Z" transform="translate(-741.24 -426.158)" fill="#455a64"/>
            <path id="Path_496" data-name="Path 496" d="M1293.2,1928.464v9.365a36.468,36.468,0,0,1-.547,6.385,32.709,32.709,0,0,1-1.7,6.081,19.335,19.335,0,0,1-2.858,4.865,14.106,14.106,0,0,1-4.074,3.527,7.174,7.174,0,0,1-4.135,1.216,4.136,4.136,0,0,1-2.8-1.581,9.18,9.18,0,0,1-1.7-3.892,31.082,31.082,0,0,1-.608-5.716v-9.608a45.388,45.388,0,0,1,.608-6.446,25.966,25.966,0,0,1,1.7-6.081,22.5,22.5,0,0,1,2.8-4.865,14.535,14.535,0,0,1,4.135-3.588,6.873,6.873,0,0,1,4.074-1.155,4.014,4.014,0,0,1,2.858,1.642,10.1,10.1,0,0,1,1.7,3.892A26.452,26.452,0,0,1,1293.2,1928.464Zm-15.02,18.243a11.432,11.432,0,0,0,1.52,6.871c.973,1.156,2.432,1.156,4.317,0a10.155,10.155,0,0,0,4.257-4.986,22.924,22.924,0,0,0,1.581-8.7v-9.365a11.494,11.494,0,0,0-1.581-6.932c-.973-1.155-2.372-1.155-4.257,0a10.276,10.276,0,0,0-4.318,4.986,23.227,23.227,0,0,0-1.52,8.7v9.425Z" transform="translate(-742.127 -425.618)" fill="#455a64"/>
            <path id="Path_497" data-name="Path 497" d="M1239.043,2057.549l213.5-123.688c2.372-1.4,4.378-.426,4.378,2.25a9.487,9.487,0,0,1-4.379,7.236l-213.5,123.749c-2.372,1.4-4.378.365-4.378-2.25A9.547,9.547,0,0,1,1239.043,2057.549Z" transform="translate(-740.514 -426.272)" fill="#e0e0e0"/>
            <path id="Path_498" data-name="Path 498" d="M1239.043,1912.929l47.858-27.79c2.432-1.4,4.378-.365,4.378,2.25a9.425,9.425,0,0,1-4.378,7.3l-47.858,27.729c-2.372,1.4-4.378.426-4.378-2.189a9.486,9.486,0,0,1,4.378-7.3Z" transform="translate(-740.514 -424.313)" fill="#e0e0e0"/>
            <path id="Path_499" data-name="Path 499" d="M1543.343,1679.226a1.581,1.581,0,0,1-1.156-.608,1.46,1.46,0,0,1,0-2.128l24.689-19.7,24.871-28.4,25.236-3.709,24.324-5.412,24.993-29.432,24.324,4.318,24.324-38.979,25.054.365,24.324-21.588a1.527,1.527,0,0,1,2.189,2.128l-25.115,22.439-24.324-.426-24.75,39.283L1667.456,1593l-24.324,28.885L1617.9,1627.6l-24.324,3.527-24.324,27.73-24.932,20.371A1.519,1.519,0,0,1,1543.343,1679.226Z" transform="translate(-752.863 -410.195)" fill="#407bff"/>
            <path id="Path_500" data-name="Path 500" d="M1553.27,1597.938l.608-.547.669-.486a6.931,6.931,0,0,1,3.527-.852,4.378,4.378,0,0,1,2.98,1.095,7.782,7.782,0,0,1,1.946,3.1,16.909,16.909,0,0,1,.669,4.926,25.661,25.661,0,0,1-.669,5.655,30,30,0,0,1-1.946,5.412,21.891,21.891,0,0,1-2.98,4.561,14.111,14.111,0,0,1-3.77,3.162,7.294,7.294,0,0,1-3.709,1.155,4.8,4.8,0,0,1-2.98-1.155,7.176,7.176,0,0,1-1.7-3.588,14.774,14.774,0,0,1-.73-4.926,26.684,26.684,0,0,1,0-3.1,12.358,12.358,0,0,1,.608-2.98l.851-2.858c.3-.912.669-1.764.973-2.615l6.568-18.729.365-.912a2.005,2.005,0,0,1,.73-.851l2.068-1.156h.547a1.034,1.034,0,0,1,0,.73,1.152,1.152,0,0,1,0,.486.487.487,0,0,1,0,.3Zm-4.622,15.811a8.691,8.691,0,0,0,.426,2.919,4.622,4.622,0,0,0,1.155,2.007,2.8,2.8,0,0,0,1.885.791,4.624,4.624,0,0,0,2.432-.73,10.279,10.279,0,0,0,2.493-2.128,16.492,16.492,0,0,0,1.885-2.98,18.247,18.247,0,0,0,1.156-3.344,16.31,16.31,0,0,0,.426-3.406,10.524,10.524,0,0,0-.426-2.919,5.292,5.292,0,0,0-1.156-2.007,3.1,3.1,0,0,0-1.885-.791,5.474,5.474,0,0,0-2.493.73,10.038,10.038,0,0,0-2.432,2.128,11.728,11.728,0,0,0-1.885,2.98,15.51,15.51,0,0,0-1.155,3.345,13.379,13.379,0,0,0-.426,3.405Z" transform="translate(-753 -412.156)" fill="#455a64"/>
            <path id="Path_501" data-name="Path 501" d="M1579.258,1588.5a23.312,23.312,0,0,0,1.642-4.014,18.732,18.732,0,0,0,.547-4.378,6.568,6.568,0,0,0-1.156-4.257c-.73-.912-1.946-.851-3.527,0a9.007,9.007,0,0,0-2.189,1.764,13.55,13.55,0,0,0-1.46,2.432,13.133,13.133,0,0,0-.912,2.736,16.628,16.628,0,0,1-.608,2.919,2.858,2.858,0,0,1-.365,1.155,1.579,1.579,0,0,1-.547.669l-1.642.973a.486.486,0,0,1-.608,0,1.035,1.035,0,0,1,0-.73,17.7,17.7,0,0,1,.608-4.5,23.59,23.59,0,0,1,1.642-4.8,20.131,20.131,0,0,1,2.676-4.378,12.826,12.826,0,0,1,3.588-3.223,6.689,6.689,0,0,1,3.466-1.034,3.527,3.527,0,0,1,2.554,1.095,6.08,6.08,0,0,1,1.52,2.858,15.986,15.986,0,0,1,.547,4.378,28.119,28.119,0,0,1,0,3.284,18.589,18.589,0,0,1-.608,3.1,23.91,23.91,0,0,1-1.034,3.162c-.486,1.095-.973,2.189-1.581,3.406l-8.088,16.236,11.068-6.385a.547.547,0,0,1,.669,0,1.277,1.277,0,0,1,.3.912v2.007a3.223,3.223,0,0,1-.3,1.216,2.432,2.432,0,0,1-.669.851l-15.568,8.939h-.73a1.277,1.277,0,0,1,0-.912v-2.007a3.526,3.526,0,0,1,0-1.155,8.088,8.088,0,0,1,.608-1.4Z" transform="translate(-753.935 -411.657)" fill="#455a64"/>
            <path id="Path_502" data-name="Path 502" d="M1604.661,1555.253a.487.487,0,0,1,.669,0,1.035,1.035,0,0,1,.3.912v2.311a7.512,7.512,0,0,1,0,1.094,12.606,12.606,0,0,1,0,1.338l-8.027,36.486a8.913,8.913,0,0,1-.426,1.156,1.457,1.457,0,0,1-.669.791l-1.642.973a.487.487,0,0,1-.608,0,1.035,1.035,0,0,1,0-.791h0a1.881,1.881,0,0,1,0-.486l8.027-36.486-12.162,6.872a.547.547,0,0,1-.669,0,1.277,1.277,0,0,1-.3-.912V1566.5a3.224,3.224,0,0,1,.3-1.216,2.007,2.007,0,0,1,.669-.851Z" transform="translate(-754.771 -411.065)" fill="#455a64"/>
            <path id="Path_503" data-name="Path 503" d="M1547.915,1700.776l213.444-123.749c2.432-1.4,4.378-.365,4.378,2.25a9.425,9.425,0,0,1-4.378,7.3l-213.444,123.688c-2.432,1.4-4.378.365-4.378-2.25a9.3,9.3,0,0,1,4.378-7.237Z" transform="translate(-752.936 -411.921)" fill="#e0e0e0"/>
            <path id="Path_504" data-name="Path 504" d="M1547.915,1556.1l47.8-27.729c2.432-1.4,4.439-.426,4.439,2.189a9.487,9.487,0,0,1-4.439,7.3l-47.8,27.729c-2.432,1.4-4.378.426-4.378-2.189a9.426,9.426,0,0,1,4.378-7.3Z" transform="translate(-752.936 -409.964)" fill="#e0e0e0"/>
            <path id="Path_505" data-name="Path 505" d="M1543.348,1857.532a1.885,1.885,0,0,1-.791,0,1.641,1.641,0,0,1-.486-2.128l25.236-41.351,25.419,4.682,23.9-6.567,24.689-30.1,24.324-6.081,24.932-44.513,25.54,7.419,23.959-4.561,24.324-21.648a1.52,1.52,0,1,1,2.007,2.25l-24.993,22.257h-.365l-25.176,4.743-23.534-6.872-24.324,43.54-24.871,6.081-24.689,30.1h-.426l-25.054,6.872h-.365l-23.655-4.378-24.324,39.588A1.519,1.519,0,0,1,1543.348,1857.532Z" transform="translate(-752.869 -417.381)" fill="#407bff"/>
            <g id="Group_43" data-name="Group 43" transform="translate(788.999 1294.774)" opacity="0.3">
              <path id="Path_506" data-name="Path 506" d="M1543.348,1857.532a1.885,1.885,0,0,1-.791,0,1.641,1.641,0,0,1-.486-2.128l25.236-41.351,25.419,4.682,23.9-6.567,24.689-30.1,24.324-6.081,24.932-44.513,25.54,7.419,23.959-4.561,24.324-21.648a1.52,1.52,0,1,1,2.007,2.25l-24.993,22.257h-.365l-25.176,4.743-23.534-6.872-24.324,43.54-24.871,6.081-24.689,30.1h-.426l-25.054,6.872h-.365l-23.655-4.378-24.324,39.588A1.519,1.519,0,0,1,1543.348,1857.532Z" transform="translate(-1541.868 -1712.155)"/>
            </g>
            <path id="Path_507" data-name="Path 507" d="M1554.911,1787.8l-.486.365h-.486a7.48,7.48,0,0,1-3.345,1.095,4.5,4.5,0,0,1-2.919-.912,6.079,6.079,0,0,1-1.763-2.676,13.8,13.8,0,0,1-.791-5.169,22.558,22.558,0,0,1,.73-5.655,28.744,28.744,0,0,1,1.946-5.291,22.86,22.86,0,0,1,2.919-4.379,13.254,13.254,0,0,1,3.466-3.04,7.968,7.968,0,0,1,3.77-1.216,4.318,4.318,0,0,1,2.858,1.156,7,7,0,0,1,1.824,3.1,16.362,16.362,0,0,1,.608,4.865,17.793,17.793,0,0,1,0,2.98,15.758,15.758,0,0,1-.73,3.162,26.274,26.274,0,0,1-.973,3.1c-.365,1.034-.608,1.946-.912,2.737l-6.568,18.729-.426.912a1.459,1.459,0,0,1-.73.851l-2.068,1.216a.365.365,0,0,1-.486,0,1.335,1.335,0,0,1,0-.791v-.426a2.363,2.363,0,0,0,0-.365Zm4.682-15.75a8.818,8.818,0,0,0-.426-2.98,3.831,3.831,0,0,0-1.094-1.642,2.373,2.373,0,0,0-1.763-.669,5.169,5.169,0,0,0-2.311.669,9.847,9.847,0,0,0-2.311,1.946,12.149,12.149,0,0,0-1.764,2.737,14.47,14.47,0,0,0-1.52,6.689,10.956,10.956,0,0,0,.365,3.041,4.318,4.318,0,0,0,1.155,1.885,2.674,2.674,0,0,0,1.764.669,4.015,4.015,0,0,0,2.311-.669,9.853,9.853,0,0,0,2.311-1.946,16.189,16.189,0,0,0,1.764-2.736,14.531,14.531,0,0,0,1.156-3.223,13.687,13.687,0,0,0,.365-3.77Z" transform="translate(-752.999 -419.342)" fill="#455a64"/>
            <path id="Path_508" data-name="Path 508" d="M1569.828,1783a6.455,6.455,0,0,0,.547,1.52,2.25,2.25,0,0,0,.973,1.034,2.981,2.981,0,0,0,1.7,0,8.755,8.755,0,0,0,2.8-1.156,10.515,10.515,0,0,0,2.128-1.641,13.617,13.617,0,0,0,1.763-2.311,15.494,15.494,0,0,0,1.216-2.919,12.167,12.167,0,0,0,.426-3.405,6.932,6.932,0,0,0-.426-2.8,2.554,2.554,0,0,0-1.155-1.338,3.4,3.4,0,0,0-1.764,0,8.394,8.394,0,0,0-2.189.973l-3.041,1.7a.487.487,0,0,1-.669,0,1.094,1.094,0,0,1,0-.852V1769.8a3.108,3.108,0,0,1,0-1.034l.426-.973,6.507-14.594-10.459,6.081a.487.487,0,0,1-.669,0,1.4,1.4,0,0,1-.3-.912v-2.007a2.979,2.979,0,0,1,.3-1.216,2.007,2.007,0,0,1,.669-.852l14.29-8.209a.486.486,0,0,1,.669,0,1.216,1.216,0,0,1,.3.852v2.007a3.465,3.465,0,0,1,0,1.094,9.38,9.38,0,0,1-.487,1.156L1577,1765.547a7.055,7.055,0,0,1,3.284-1.034,3.588,3.588,0,0,1,2.554.791,5.593,5.593,0,0,1,1.7,2.615,14.474,14.474,0,0,1,.608,4.318,20.623,20.623,0,0,1-.73,5.534,25.17,25.17,0,0,1-1.946,4.926,20.84,20.84,0,0,1-2.858,4.014,14.59,14.59,0,0,1-3.466,2.8,10.64,10.64,0,0,1-4.2,1.581,4.561,4.561,0,0,1-2.919-.608,5.594,5.594,0,0,1-1.7-2.189,9.177,9.177,0,0,1-.547-3.223,3.1,3.1,0,0,1,0-1.034,1.642,1.642,0,0,1,.608-.669l1.642-.973h.608a.73.73,0,0,1,.182.609Z" transform="translate(-753.869 -418.74)" fill="#455a64"/>
            <path id="Path_509" data-name="Path 509" d="M1547.915,1878.871,1761.359,1755c2.432-1.4,4.378-.426,4.378,2.25a9.3,9.3,0,0,1-4.378,7.237l-213.444,123.749c-2.432,1.4-4.378.365-4.378-2.25A9.426,9.426,0,0,1,1547.915,1878.871Z" transform="translate(-752.936 -419.078)" fill="#e0e0e0"/>
            <path id="Path_510" data-name="Path 510" d="M1547.915,1734.259l47.8-27.79c2.432-1.4,4.439-.365,4.439,2.25a9.487,9.487,0,0,1-4.439,7.3l-47.8,27.73c-2.432,1.4-4.378.426-4.378-2.189A9.3,9.3,0,0,1,1547.915,1734.259Z" transform="translate(-752.936 -417.127)" fill="#e0e0e0"/>
            <path id="Path_511" data-name="Path 511" d="M1878,1396.082a27.851,27.851,0,0,1,27.912-2.311l-28.155,75.891Z" transform="translate(-766.377 -404.467)" fill="#407bff"/>
            <path id="Path_512" data-name="Path 512" d="M1848.671,1426.7a83.676,83.676,0,0,1,28.155-30.405v73.824Z" transform="translate(-765.208 -404.677)" fill="#407bff"/>
            <path id="Path_513" data-name="Path 513" d="M1830.487,1474.917a148.319,148.319,0,0,1,17.453-46.945l28.155,43.418Z" transform="translate(-764.477 -405.951)" fill="#407bff"/>
            <path id="Path_514" data-name="Path 514" d="M1847.94,1426.7a148.318,148.318,0,0,0-17.452,46.945l45.607-3.527v-73.824A83.673,83.673,0,0,0,1847.94,1426.7Z" transform="translate(-764.477 -404.677)" opacity="0.3"/>
            <path id="Path_515" data-name="Path 515" d="M1905.907,1393.884a39.405,39.405,0,0,1,17.453,26.756l-45.608,49.135Z" transform="translate(-766.377 -404.581)" fill="#407bff"/>
            <path id="Path_516" data-name="Path 516" d="M1830.388,1522.336a92,92,0,0,1-2.372-21.466,130.445,130.445,0,0,1,2.372-24.324l45.608-3.527Z" transform="translate(-764.377 -407.763)" fill="#407bff"/>
            <path id="Path_517" data-name="Path 517" d="M1923.614,1469.534a148.319,148.319,0,0,1-17.453,46.946l-28.155-43.418Z" transform="translate(-766.388 -407.623)" fill="#407bff"/>
            <path id="Path_518" data-name="Path 518" d="M1876.826,1547.033a27.851,27.851,0,0,1-28.155,2.068l28.155-75.891Z" transform="translate(-765.208 -407.771)" fill="#407bff"/>
            <path id="Path_519" data-name="Path 519" d="M1830.487,1522.344l45.608-49.135L1847.94,1549.1a39.4,39.4,0,0,1-17.452-26.756Z" transform="translate(-764.477 -407.771)" fill="#407bff"/>
            <path id="Path_520" data-name="Path 520" d="M1923.614,1422.016a92.2,92.2,0,0,1,2.311,21.466,130.319,130.319,0,0,1-2.311,24.324l-45.608,3.527Z" transform="translate(-766.388 -405.712)" fill="#407bff"/>
            <path id="Path_521" data-name="Path 521" d="M1905.907,1516.628a83.675,83.675,0,0,1-28.155,30.405v-73.824Z" transform="translate(-766.377 -407.771)" fill="#407bff"/>
            <path id="Path_522" data-name="Path 522" d="M1852.923,1588.156l47.8-27.73c2.432-1.4,4.378-.426,4.378,2.189a9.425,9.425,0,0,1-4.378,7.3l-47.8,27.729c-2.432,1.4-4.378.426-4.378-2.189a9.426,9.426,0,0,1,4.379-7.3Z" transform="translate(-765.203 -411.253)" fill="#455a64"/>
            <path id="Path_523" data-name="Path 523" d="M1841.9,1623.824l68.959-39.891c2.432-1.4,4.378-.426,4.378,2.25a9.3,9.3,0,0,1-4.378,7.236l-68.959,40.013c-2.432,1.4-4.378.426-4.378-2.189A9.3,9.3,0,0,1,1841.9,1623.824Z" transform="translate(-764.759 -412.198)" fill="#e0e0e0"/>
            <path id="Path_524" data-name="Path 524" d="M1841.9,1653.6l68.959-40.013c2.432-1.4,4.378-.365,4.378,2.25a9.3,9.3,0,0,1-4.378,7.236l-68.959,40.013c-2.432,1.4-4.378.426-4.378-2.189A9.3,9.3,0,0,1,1841.9,1653.6Z" transform="translate(-764.759 -413.391)" fill="#e0e0e0"/>
            <path id="Path_525" data-name="Path 525" d="M1841.9,1683.63l68.959-40.013c2.432-1.4,4.378-.365,4.378,2.25a9.425,9.425,0,0,1-4.378,7.3l-68.959,39.952c-2.432,1.4-4.378.426-4.378-2.189a9.427,9.427,0,0,1,4.379-7.3Z" transform="translate(-764.759 -414.599)" fill="#e0e0e0"/>
            <path id="Path_526" data-name="Path 526" d="M2058.134,1291.67a27.851,27.851,0,0,1,28.155-2.068l-28.155,75.648Z" transform="translate(-773.632 -400.271)" fill="#407bff"/>
            <path id="Path_527" data-name="Path 527" d="M2028.8,1322.283a84.222,84.222,0,0,1,28.155-30.405v73.58Z" transform="translate(-772.452 -400.478)" fill="#407bff"/>
            <path id="Path_528" data-name="Path 528" d="M2010.678,1370.5a148.253,148.253,0,0,1,17.392-46.945l28.155,43.418Z" transform="translate(-771.724 -401.752)" fill="#407bff"/>
            <path id="Path_529" data-name="Path 529" d="M2086.289,1289.723a39.405,39.405,0,0,1,17.452,26.756l-45.608,49.135Z" transform="translate(-773.632 -400.391)" fill="#407bff"/>
            <path id="Path_530" data-name="Path 530" d="M2010.579,1417.922a92.017,92.017,0,0,1-2.372-21.466,130.9,130.9,0,0,1,2.371-24.324l45.547-3.527Z" transform="translate(-771.624 -403.564)" fill="#407bff"/>
            <path id="Path_531" data-name="Path 531" d="M2103.741,1365.12a147.772,147.772,0,0,1-17.453,46.945l-28.155-43.662Z" transform="translate(-773.632 -403.424)" fill="#407bff"/>
            <path id="Path_532" data-name="Path 532" d="M2056.954,1442.608a27.973,27.973,0,0,1-28.155,2.128l28.155-76.2Z" transform="translate(-772.452 -403.561)" fill="#407bff"/>
            <path id="Path_533" data-name="Path 533" d="M2010.678,1417.929l45.547-49.135-28.155,75.952A39.648,39.648,0,0,1,2010.678,1417.929Z" transform="translate(-771.724 -403.572)" fill="#407bff"/>
            <path id="Path_534" data-name="Path 534" d="M2027.97,1322.283a148.256,148.256,0,0,0-17.392,46.945,130.9,130.9,0,0,0-2.372,24.324,92.017,92.017,0,0,0,2.372,21.466,39.649,39.649,0,0,0,17.392,26.818l28.155-76.378v-73.58A84.223,84.223,0,0,0,2027.97,1322.283Z" transform="translate(-771.624 -400.478)" opacity="0.3"/>
            <path id="Path_535" data-name="Path 535" d="M2103.741,1317.854a92,92,0,0,1,2.372,21.466,130.4,130.4,0,0,1-2.372,24.324l-45.608,3.527Z" transform="translate(-773.632 -401.523)" fill="#407bff"/>
            <path id="Path_536" data-name="Path 536" d="M2086.289,1412.2a83.2,83.2,0,0,1-28.155,30.405v-74.067Z" transform="translate(-773.632 -403.561)" fill="#407bff"/>
            <path id="Path_537" data-name="Path 537" d="M2033.05,1484.122l47.858-27.729c2.432-1.4,4.378-.426,4.378,2.189a9.3,9.3,0,0,1-4.378,7.3l-47.858,27.79c-2.432,1.4-4.378.365-4.378-2.25A9.425,9.425,0,0,1,2033.05,1484.122Z" transform="translate(-772.447 -407.069)" fill="#455a64"/>
            <path id="Path_538" data-name="Path 538" d="M2022.087,1519.785l68.9-40.013c2.432-1.4,4.378-.365,4.378,2.25a9.425,9.425,0,0,1-4.378,7.3l-68.9,39.952c-2.432,1.4-4.439.426-4.439-2.189A9.488,9.488,0,0,1,2022.087,1519.785Z" transform="translate(-772.004 -408.01)" fill="#e0e0e0"/>
            <path id="Path_539" data-name="Path 539" d="M2022.087,1549.566l68.9-39.952c2.432-1.4,4.378-.426,4.378,2.189a9.425,9.425,0,0,1-4.378,7.3l-68.9,39.952c-2.432,1.459-4.439.426-4.439-2.189a9.488,9.488,0,0,1,4.439-7.3Z" transform="translate(-772.004 -409.209)" fill="#e0e0e0"/>
            <path id="Path_540" data-name="Path 540" d="M2022.087,1579.352l68.9-39.77c2.432-1.4,4.378-.426,4.378,2.189a9.424,9.424,0,0,1-4.378,7.3l-68.9,40.013c-2.432,1.4-4.439.365-4.439-2.25a9.486,9.486,0,0,1,4.439-7.48Z" transform="translate(-772.004 -410.415)" fill="#e0e0e0"/>
          </g>
        </g>
        <g id="freepik--magnifying-glass--inject-197" transform="translate(872.976 2031.803)">
          <g id="freepik--Glass--inject-197">
            <path id="Path_541" data-name="Path 541" d="M2039.952,2320.271a81.182,81.182,0,0,0-34.6-64.945c-9.851-6.081-18.912-6.993-25.662-3.527h0c-40.682,20.432-326.551,203.775-344.855,212.836h0a12.952,12.952,0,0,0-6.081,11.8,40.864,40.864,0,0,0,17.391,32.655,12.83,12.83,0,0,0,13.074,1.7h0c28.946-15.932,311.166-136.215,368.814-167.106h0C2035.209,2340.035,2039.587,2331.947,2039.952,2320.271Z" transform="translate(-1049.581 -2249.773)" fill="#407bff"/>
            <path id="Path_542" data-name="Path 542" d="M2028.718,2280.744a72.968,72.968,0,0,0-23.351-25.419c-9.791-6.081-18.851-6.993-25.541-3.588l-.851.426c-37.155,19.033-249.93,154.762-321.5,198.91h-.486l-2.919,1.824-.852.547-1.642.973-1.946,1.155h0c-7.541,4.622-12.709,7.6-14.655,8.574h0a8.757,8.757,0,0,0-1.642,1.338,14.109,14.109,0,0,0-4.135,10.459,30.421,30.421,0,0,0,0,4.075q0,.821,0,1.642a5.145,5.145,0,0,0,.486,2.493l.547,2.007a6.958,6.958,0,0,0,.791,2.311,15,15,0,0,0,.608,1.763h0Z" transform="translate(-1049.597 -2249.773)" opacity="0.1"/>
            <path id="Path_543" data-name="Path 543" d="M1646.212,2518.179a40.56,40.56,0,0,1-17.331-32.533c.365-11.737,8.756-16.237,18.79-10.034a40.927,40.927,0,0,1,17.148,32.533C1664.819,2519.7,1656.184,2524.382,1646.212,2518.179Z" transform="translate(-1049.587 -2258.744)" fill="#407bff"/>
            <path id="Path_544" data-name="Path 544" d="M1557.919,2526.367a31.378,31.378,0,0,0,13.318,24.993,10.155,10.155,0,0,0,9.973,1.338h0l69.2-36.79h0a9.972,9.972,0,0,0,4.378-9,31.378,31.378,0,0,0-13.318-24.993,9.973,9.973,0,0,0-9.973-1.277h0l-69.141,36.79h0A10.034,10.034,0,0,0,1557.919,2526.367Z" transform="translate(-1046.733 -2259.026)" fill="#37474f"/>
            <path id="Path_545" data-name="Path 545" d="M1562.418,2517.306a10.034,10.034,0,0,0-4.5,9.061,26.936,26.936,0,0,0,2.068,10.642l89.208-47.432a27,27,0,0,0-7.662-7.662,9.973,9.973,0,0,0-9.973-1.277l-69.141,36.79Z" transform="translate(-1046.732 -2259.026)" fill="#263238"/>
            <path id="Path_546" data-name="Path 546" d="M1625.222,2584.99c0-44.331-29.311-88.6-87.871-122.411-117.12-67.621-307.031-67.621-424.151,0-58.56,33.811-87.871,78.08-87.871,122.411h0v81.668c0,44.27,29.31,88.6,87.871,122.411,117.12,67.621,307.031,67.621,424.151,0,58.56-33.811,87.871-78.141,87.871-122.411Zm-497.488-97.3c52.3-30.405,122.472-46.824,197.572-46.824s145.276,16.6,197.573,46.824c47.31,27.3,73.337,61.844,73.337,97.3s-26.027,70.053-73.337,97.3c-52.3,30.405-122.472,46.824-197.573,46.824s-145.276-16.662-197.572-46.824c-47.31-27.3-73.4-61.9-73.4-97.3s26.088-69.993,73.4-97.3Z" transform="translate(-1025.313 -2256.292)" fill="#407bff"/>
            <path id="Path_547" data-name="Path 547" d="M1113.2,2707.462c117.12,67.621,307.031,67.621,424.151,0s117.121-177.262,0-244.883-307.031-67.621-424.151,0S995.957,2639.841,1113.2,2707.462Zm-58.864-122.472c0-35.452,26.027-69.993,73.337-97.3,52.3-30.405,122.472-46.824,197.573-46.824s145.276,16.6,197.633,46.824c47.25,27.3,73.337,61.844,73.337,97.3s-26.088,70.053-73.337,97.3c-52.358,30.405-122.533,46.824-197.633,46.824s-145.276-16.662-197.573-46.824C1080.422,2655.044,1054.335,2620.625,1054.335,2584.99Z" transform="translate(-1025.313 -2256.292)" fill="#fff" opacity="0.3"/>
            <path id="Path_548" data-name="Path 548" d="M1055.551,2586.206a81.124,81.124,0,0,0,11.676,40.865c12.162-20.615,32.837-39.952,61.722-56.553,52.236-30.405,122.411-46.824,197.572-46.824s145.276,16.6,197.512,46.824c28.824,16.6,49.8,35.939,61.722,56.553a81.12,81.12,0,0,0,11.676-40.864c0-35.452-26.027-69.993-73.4-97.3-52.236-30.405-122.472-46.824-197.512-46.824s-145.336,16.662-197.572,46.824C1081.578,2516.213,1055.551,2550.753,1055.551,2586.206Z" transform="translate(-1026.529 -2257.507)" fill="#407bff"/>
            <path id="Path_549" data-name="Path 549" d="M1055.551,2586.206a81.124,81.124,0,0,0,11.676,40.865c12.162-20.615,32.837-39.952,61.722-56.553,52.236-30.405,122.411-46.824,197.572-46.824s145.276,16.6,197.512,46.824c28.824,16.6,49.8,35.939,61.722,56.553a81.12,81.12,0,0,0,11.676-40.864c0-35.452-26.027-69.993-73.4-97.3-52.236-30.405-122.472-46.824-197.512-46.824s-145.336,16.662-197.572,46.824C1081.578,2516.213,1055.551,2550.753,1055.551,2586.206Z" transform="translate(-1026.529 -2257.507)" opacity="0.1"/>
            <path id="Path_550" data-name="Path 550" d="M1128.99,2527.368c52.3-30.405,122.472-46.824,197.573-46.824s145.276,16.662,197.633,46.824c38.979,22.561,63.486,50.047,70.9,79.053-7.419,28.824-31.925,56.311-70.9,79.053-52.358,30.405-122.533,46.824-197.633,46.824s-145.276-16.662-197.573-46.824c-39.04-22.561-63.547-50.047-70.9-79.053C1065.443,2577.415,1089.95,2549.929,1128.99,2527.368Z" transform="translate(-1026.631 -2259.054)" fill="#fff" opacity="0.4"/>
            <path id="Path_551" data-name="Path 551" d="M1254.583,2759.507v81.547A391.8,391.8,0,0,1,1113.2,2795.2c-58.56-33.811-87.871-78.141-87.871-122.472v-81.607a103.376,103.376,0,0,1,3.588-26.756h0c-14.23,52.722,13.865,108.546,84.222,149.228A395.26,395.26,0,0,0,1254.583,2759.507Z" transform="translate(-1025.313 -2262.425)" opacity="0.1"/>
          </g>
        </g>
        <g id="freepik--Character--inject-197" transform="translate(1995.011 782.003)">
          <g id="freepik--character--inject-197-2" data-name="freepik--character--inject-197">
            <path id="Path_552" data-name="Path 552" d="M2749.352,2245.59c3.588,1.459,4.317,8.27,4.561,21.831,0,10.277,1.946,28.277-10.094,31.561s-29.676,1.094-37.155-8.757c-9.365-12.162-15.628-23.047-29.006-38.128-11.615-13.013-24.324-25.236-28.642-43.236-3.952-16.3,0-23.229,11.007-27.729,15.324-6.081,38.675,15.567,50.533,19.155C2720.71,2203.387,2745.642,2244.13,2749.352,2245.59Z" transform="translate(-2212.59 -997.169)" fill="#263238"/>
            <path id="Path_553" data-name="Path 553" d="M2752,2234.978l-.365,16.6a40.621,40.621,0,0,1-42.081,0c-.73-1.581-3.831-23.9-3.831-23.9Z" transform="translate(-2214.931 -999.084)" fill="#ffa8a7"/>
            <path id="Path_554" data-name="Path 554" d="M2603.1,2345.142s4.439,14.594,6.75,27.3c1.824,10.094,4.378,27,.669,34.479s-17.574,12.162-38.858,11.432c-13.8-.426-35.513,8.453-50.472,16.358s-47.128,10.824-63.182,8.574c-18.912-2.676-38.311-14.108-41.168-22.013s1.338-15.993,46.459-34.054c.426,0,62.635-18.851,84.77-42.2Z" transform="translate(-2203.284 -1003.803)" fill="#263238"/>
            <path id="Path_555" data-name="Path 555" d="M2609.045,2326.378s-.365,12.162-.487,19.4-8.635,17.392-30.405,16.115c-15.142-.851-25.662-5.169-24.75-17.635l.426-18.243Z" transform="translate(-2208.803 -1003.039)" fill="#ffa8a7"/>
            <path id="Path_556" data-name="Path 556" d="M2759.74,1986.023a450.955,450.955,0,0,0-17.7-87.141s7.6-74.675,12.162-145.58c4.8-76.5,9.3-115.9-5.777-226.457,0,0-234.667-21.1-241.052,67.378s2.676,314.206,4.743,353.186,7.966,73.52,14.594,136.762,25.479,209.856,25.479,209.856a58.56,58.56,0,0,0,55.033,0s21.344-176.714,20.554-221.593a384.85,384.85,0,0,0-14.837-98.391s6.081-72.972,12.162-136.337,10.642-93.83,12.162-121.62l5.351-2.493s2.98,109.458,5.047,148.62,7.358,76.439,16.966,148.924c8.392,63,34.175,196.782,34.175,196.782,27.912,15.871,45.121-.973,45.121-.973S2766.125,2040.57,2759.74,1986.023Z" transform="translate(-2206.863 -970.809)" fill="#37474f"/>
            <path id="Path_557" data-name="Path 557" d="M2642.488,1722.155s60.81-28.216,91.215-54.182c0,0-28.7,38.615-65.675,55.216,0,0-16.115,135.85-15.993,133.114l-4.5-134.208Z" transform="translate(-2212.387 -976.574)" fill="#263238"/>
            <path id="Path_558" data-name="Path 558" d="M2598.708,1197.7l9.122,81,76.5-3.831-8.452-94.56Z" transform="translate(-2210.627 -956.961)" fill="#ffa8a7"/>
            <path id="Path_559" data-name="Path 559" d="M2717.728,1230.727c28.459-1.338,42.932,2.98,55.763,27.547s17.757,97.965,22.257,135.85,5.534,64.52-10.034,68.411-76.256,5.594-76.256,5.594Z" transform="translate(-2215.081 -958.98)" fill="#37474f"/>
            <path id="Path_560" data-name="Path 560" d="M2757.484,1272.673c-4.074-22.621-33.932-46.459-61.844-41.959l-18.912,3.223c-3.344,13.621-40.682,22.135-76.378,13.743-10.763,2.858-46.155,9.486-55.155,12.466-25.6,8.513-36.486,33.75-40.2,117.364,0,0,2.068,189.424,1.034,227.126,63.3,26.756,129.769,27.426,166.681,20.25,76.864-14.959,86.776-46.459,86.776-46.459l-11.432-86.655S2766.849,1324,2757.484,1272.673Z" transform="translate(-2206.858 -958.966)" fill="#455a64"/>
            <path id="Path_561" data-name="Path 561" d="M2600.941,1225.663l.608,5.108a113.289,113.289,0,0,0,46.946,0c24.871-5.534,29.919-12.527,29.919-12.527l-.547-6.081s6.081-2.25,9.426,7.236a111.807,111.807,0,0,1,3.649,11.615s2.858,17.453-26.392,26.331a90.545,90.545,0,0,1-72.972-7.966l-11.433,2.432s9.912-22.865,12.892-27.486a7.6,7.6,0,0,1,7.176-4.013Z" transform="translate(-2209.88 -958.232)" fill="#37474f"/>
            <path id="Path_562" data-name="Path 562" d="M2352.095,1135.7l-151.721,79.236,75.4,206.086,141.566-79.3Z" transform="translate(-2194.606 -955.167)" fill="#455a64"/>
            <path id="Path_563" data-name="Path 563" d="M2345.894,1156.734,2218.557,1223.2l66.77,177.2,118.762-66.526Z" transform="translate(-2195.338 -956.013)" fill="#f5f5f5"/>
            <path id="Path_564" data-name="Path 564" d="M2320.4,1176.371s-1.094-2.858-2.493-6.081-12.162-1.4-23.655,4.621l-22.378,11.615c-11.736,6.081-20.128,13.743-18.729,17.209l2.432,6.081Z" transform="translate(-2196.723 -956.495)" opacity="0.15"/>
            <path id="Path_565" data-name="Path 565" d="M2317.368,1150.315c-.791-2.189-5.412-1.824-10.277.791l-8.757,4.743s-5.412-13.621-25.6-4.2-15.567,25.236-15.567,25.236l-9.3,5.108c-5.169,2.858-8.818,6.932-8.209,9.122l1.155,4.014,78.141-40.743Z" transform="translate(-2196.184 -955.675)" fill="#407bff"/>
            <path id="Path_566" data-name="Path 566" d="M2309.642,1159.782c-7.3,3.588-10.155,5.351-8.087,10.7s4.622,10.52,4.622,10.52l-34.54,18.243s-2.858-7.784-4.135-10.763-3.831-4.439-9.3-1.581l-2.067-2.189,54.729-27.79Z" transform="translate(-2196.849 -956.02)" fill="#407bff"/>
            <path id="Path_567" data-name="Path 567" d="M2309.642,1159.782c-7.3,3.588-10.155,5.351-8.087,10.7s4.622,10.52,4.622,10.52l-34.54,18.243s-2.858-7.784-4.135-10.763-3.831-4.439-9.3-1.581l-2.067-2.189,54.729-27.79Z" transform="translate(-2196.849 -956.02)" opacity="0.3"/>
            <path id="Path_568" data-name="Path 568" d="M2321.922,1176.682l-2.432-6.081c-1.4-3.527-12.162-1.459-23.655,4.622l-22.439,11.554c-11.676,6.081-20.067,13.743-18.729,17.27l2.493,6.081Z" transform="translate(-2196.784 -956.501)" fill="#407bff"/>
            <path id="Path_569" data-name="Path 569" d="M2539.673,1261.4c-35.027,3.041-49.925,9.426-76.2,56.8-28.581,51.506-83.432,144.607-90.364,156.4-9.669,16.358-11.493,41.229-3.162,56.25,7.784,14.047,32.534,20.432,60.81-11.25,33.385-37.7,95.472-129.769,95.472-129.769S2578.653,1320.266,2539.673,1261.4Z" transform="translate(-2201.213 -960.222)" fill="#ffa8a7"/>
            <path id="Path_570" data-name="Path 570" d="M2377.515,1542.38c-26.878-3.223-89.573-88.3-107.391-116.087a198.18,198.18,0,0,0-54.365-57.344c-28.4-20.98-24.324-53.27-11.858-82.824,4.257-10.216,18.851-3.588,18.851-3.588l5.108,14.047,8.878,24.324c6.081,5.595,9.486,7.419,9.851,5.777.791-3.162-4.378-16.236-4.257-29.858,0-16.358,11.615-5.594,15.02,0a197.725,197.725,0,0,1,12.162,27.061c5.716,14.655,3.406,29.493,10.338,39.466s100.519,99.668,100.519,99.668Z" transform="translate(-2194.365 -960.987)" fill="#ffa8a7"/>
            <path id="Path_571" data-name="Path 571" d="M2543.7,1259.436c-21.223-.487-46.7,2.919-66.466,28.581s-98.816,165.161-98.816,165.161l-44.331-39.77a77.289,77.289,0,0,0-34.175,48.04,483.347,483.347,0,0,0,40.135,54.729c18.79,20.554,39.709,34.844,56.858,28.52s34.662-19.885,71.573-71.33,77.229-112.073,77.229-112.073S2571.184,1302.064,2543.7,1259.436Z" transform="translate(-2198.61 -960.142)" fill="#37474f"/>
            <path id="Path_572" data-name="Path 572" d="M2541.793,1095.086s-19.094,28.946-16.905,31.8,16.237,5.412,16.237,5.412Z" transform="translate(-2207.651 -953.533)" fill="#f28f8f"/>
            <path id="Path_573" data-name="Path 573" d="M2550.867,1112.563a22.8,22.8,0,1,1,22.8-22.743A22.8,22.8,0,0,1,2550.867,1112.563Zm0-40.5a17.757,17.757,0,1,0,17.7,17.757,17.757,17.757,0,0,0-17.7-17.757Z" transform="translate(-2207.786 -952.402)" fill="#263238"/>
            <path id="Path_574" data-name="Path 574" d="M2595.406,1011.357c-38.675,8.148-49.864,25.175-53.513,86.533-3.77,64.216,2.8,84.344,11.189,92.979,5.716,6.081,37.338,6.932,53.27,2.493,20.007-5.473,65.128-21.466,86.229-53.756,24.872-37.946,31.378-89.452,4.8-110.553C2660.047,999.317,2611.216,1008.013,2595.406,1011.357Z" transform="translate(-2208.298 -950.013)" fill="#ffa8a7"/>
            <path id="Path_575" data-name="Path 575" d="M2597.479,1202.555l-1.824-11.8a76.014,76.014,0,0,1-39.588,8.939C2563.425,1203.284,2582.641,1204.379,2597.479,1202.555Z" transform="translate(-2208.912 -957.381)" fill="#f28f8f"/>
            <path id="Path_576" data-name="Path 576" d="M2530.344,1085.773l68.716,8.939-2.737,4.8-65.979-8.574Z" transform="translate(-2207.877 -953.159)" fill="#263238"/>
            <path id="Path_577" data-name="Path 577" d="M2534.6,1033.757a22.375,22.375,0,0,0,8.757-.547,13.744,13.744,0,0,0,4.683,16.115,19.581,19.581,0,0,0,17.331,2.311,16.661,16.661,0,0,0-1.885,12.162,19.337,19.337,0,0,0,20.006,14.473c.426,9,.548,17.757,10.095,21.831,0,0,6.081-23.716,26.148-20.736s22.8,28.642,10.156,44.27-24.324,9.669-24.324,9.608c1.155.547,1.581,8.149,1.946,9.547a72.511,72.511,0,0,0,5.169,13.013,61.84,61.84,0,0,0,18.243,21.162,44.514,44.514,0,0,0,36.486,10.094,39.224,39.224,0,0,0,26.452-21.223,22.258,22.258,0,0,1,4.257-7.723,25.6,25.6,0,0,1,9.851-4.257,28.945,28.945,0,0,0,16.419-40.865,26.574,26.574,0,0,0,10.155-46.337,31.924,31.924,0,0,0,13.683-34.54,32.411,32.411,0,0,0-22.865-21.892c-7.844-2.25-4.8-3.466-7.236-11.128a28.521,28.521,0,0,0-9-13.439,28.824,28.824,0,0,0-26.574-4.926,27,27,0,0,0-19.338-20.736,25.9,25.9,0,0,0-13.622-.547c-3.223.791-9.79,3.77-11.007,6.872-4.074-4.014-5.412-9.3-10.338-12.892a29.371,29.371,0,0,0-43.175,9.182,36,36,0,0,0-27-11.311,29.493,29.493,0,0,0-24.628,15.02,25.053,25.053,0,0,0,3.345,28.094,29.127,29.127,0,0,0-14.959,12.892,18.243,18.243,0,0,0,2.128,20.189,15.569,15.569,0,0,0,7.541,5.655A24.285,24.285,0,0,0,2534.6,1033.757Z" transform="translate(-2207.45 -947.602)" fill="#263238"/>
            <path id="Path_578" data-name="Path 578" d="M2595.75,1119.24l.669-26.878a13.443,13.443,0,0,0-.669,26.878Z" transform="translate(-2209.981 -953.424)" fill="#263238"/>
          </g>
        </g>
      </g>
    </g>
  </g>
</svg>
