<svg xmlns="http://www.w3.org/2000/svg" xmlns:xlink="http://www.w3.org/1999/xlink" width="3015" height="3015" viewBox="0 0 3015 3015">
  <defs>
    <clipPath id="clip-path">
      <circle id="Ellipse_11" data-name="Ellipse 11" cx="1361.5" cy="1361.5" r="1361.5" transform="translate(3835 3469)" fill="#fff" stroke="#707070" stroke-width="1"/>
    </clipPath>
  </defs>
  <g id="Android" transform="translate(-3794 -3428)">
    <g id="Ellipse_10" data-name="Ellipse 10" transform="translate(3794 3428)" fill="#fff" stroke="#2155cd" stroke-width="100">
      <circle cx="1507.5" cy="1507.5" r="1507.5" stroke="none"/>
      <circle cx="1507.5" cy="1507.5" r="1457.5" fill="none"/>
    </g>
    <g id="Mask_Group_4" data-name="Mask Group 4" transform="translate(105 68)" clip-path="url(#clip-path)">
      <g id="android-2" data-name="android" transform="translate(3835 3816.019)">
        <g id="freepik--background-complete--inject-98" transform="translate(0 0)">
          <rect id="Rectangle_16" data-name="Rectangle 16" width="2723" height="1.362" transform="translate(0 1783.02)" fill="#ebebeb"/>
          <rect id="Rectangle_17" data-name="Rectangle 17" width="115.51" height="1.362" transform="translate(285.697 1834.866)" fill="#ebebeb"/>
          <rect id="Rectangle_18" data-name="Rectangle 18" width="462.747" height="1.362" transform="translate(932.028 1820.108)" fill="#ebebeb"/>
          <rect id="Rectangle_19" data-name="Rectangle 19" width="207.547" height="1.362" transform="translate(368.531 1885.46)" fill="#ebebeb"/>
          <rect id="Rectangle_20" data-name="Rectangle 20" width="235.213" height="1.362" transform="translate(2214.943 1876.31)" fill="#ebebeb"/>
          <rect id="Rectangle_21" data-name="Rectangle 21" width="65.189" height="1.362" transform="translate(2131.946 1876.31)" fill="#ebebeb"/>
          <rect id="Rectangle_22" data-name="Rectangle 22" width="125.258" height="1.362" transform="translate(1894.609 1853.328)" fill="#ebebeb"/>
          <rect id="Rectangle_23" data-name="Rectangle 23" width="263.804" height="1.362" transform="translate(1567.849 1853.328)" fill="#ebebeb"/>
          <path id="Path_579" data-name="Path 579" d="M1306.827,1862.869H255.258a31.1,31.1,0,0,1-31.042-31.1V353.564a31.1,31.1,0,0,1,31.042-30.824H1306.827a31.1,31.1,0,0,1,31.1,31.1V1831.772A31.1,31.1,0,0,1,1306.827,1862.869ZM255.258,323.829a29.735,29.735,0,0,0-29.681,29.735V1831.772a29.735,29.735,0,0,0,29.681,29.735H1306.827a29.79,29.79,0,0,0,29.735-29.735V353.564a29.79,29.79,0,0,0-29.735-29.735Z" transform="translate(-16.125 -322.74)" fill="#ebebeb"/>
          <path id="Path_580" data-name="Path 580" d="M2576.125,1862.869H1524.5a31.151,31.151,0,0,1-31.1-31.1V353.564a31.151,31.151,0,0,1,31.1-30.824H2576.125a31.1,31.1,0,0,1,30.988,30.824V1831.772A31.1,31.1,0,0,1,2576.125,1862.869ZM1524.5,323.829a29.79,29.79,0,0,0-29.735,29.735V1831.772a29.79,29.79,0,0,0,29.735,29.735H2576.125a29.79,29.79,0,0,0,29.735-29.735V353.564a29.79,29.79,0,0,0-29.735-29.735Z" transform="translate(-107.399 -322.74)" fill="#ebebeb"/>
          <g id="Group_44" data-name="Group 44" transform="translate(1586.179 101.581)" opacity="0.6">
            <path id="Path_581" data-name="Path 581" d="M2054.142,1261.6l40.355-40.355a218.548,218.548,0,0,1-210.869,365.645l14.759-55.113A161.474,161.474,0,0,0,2054.415,1261.6Z" transform="translate(-1721.641 -488.938)" fill="#ebebeb"/>
            <path id="Path_582" data-name="Path 582" d="M1778,1216.293c85.4-85.256,223.712-85.256,309.115,0l-40.355,40.355a161.528,161.528,0,0,0-228.405,0Z" transform="translate(-1714.045 -483.983)" fill="#f5f5f5"/>
            <path id="Path_583" data-name="Path 583" d="M1773.048,1221.248,1813.4,1261.6a161.473,161.473,0,0,0,0,228.405,159.622,159.622,0,0,0,72.377,41.771l-14.7,55.113a218.6,218.6,0,0,1-98.028-365.644Z" transform="translate(-1709.089 -488.938)" fill="#e0e0e0"/>
            <path id="Path_584" data-name="Path 584" d="M2235.271,1006.325v85.611a328.176,328.176,0,0,1-164.088-612.4l42.86,74.174a242.51,242.51,0,0,0,121.228,452.617Z" transform="translate(-1723.324 -435.597)" fill="#ebebeb"/>
            <path id="Path_585" data-name="Path 585" d="M2588.882,785.784c-.06,181.222-146.954,328.116-328.176,328.176v-85.611c133.9,0,242.5-108.558,242.565-242.51Z" transform="translate(-1748.759 -457.621)" fill="#f5f5f5"/>
            <path id="Path_586" data-name="Path 586" d="M2576.171,760.355H2490.56A242.511,242.511,0,0,0,2126.767,550.3l-42.805-74.174a328.176,328.176,0,0,1,492.21,284.227Z" transform="translate(-1736.048 -432.193)" fill="#e0e0e0"/>
          </g>
          <g id="Group_45" data-name="Group 45" transform="translate(633.642 1422.876)" opacity="0.5">
            <rect id="Rectangle_24" data-name="Rectangle 24" width="145.517" height="307.427" transform="translate(1041.82 360.09) rotate(180)" fill="#f5f5f5"/>
            <rect id="Rectangle_25" data-name="Rectangle 25" width="145.517" height="214.681" transform="translate(866.622 360.144) rotate(180)" fill="#e6e6e6"/>
            <rect id="Rectangle_26" data-name="Rectangle 26" width="145.517" height="135.66" transform="translate(691.424 360.09) rotate(180)" fill="#f0f0f0"/>
            <rect id="Rectangle_27" data-name="Rectangle 27" width="145.517" height="214.681" transform="translate(1587.727 360.144) rotate(180)" fill="#f5f5f5"/>
            <rect id="Rectangle_28" data-name="Rectangle 28" width="145.517" height="167.192" transform="translate(1412.583 360.144) rotate(180)" fill="#e6e6e6"/>
            <rect id="Rectangle_29" data-name="Rectangle 29" width="145.517" height="360.144" transform="translate(1237.331 360.144) rotate(180)" fill="#f0f0f0"/>
            <rect id="Rectangle_30" data-name="Rectangle 30" width="145.517" height="336.018" transform="translate(495.913 360.144) rotate(180)" fill="#f5f5f5"/>
            <rect id="Rectangle_31" data-name="Rectangle 31" width="145.517" height="214.681" transform="translate(320.715 360.144) rotate(180)" fill="#e6e6e6"/>
            <rect id="Rectangle_32" data-name="Rectangle 32" width="145.517" height="282.538" transform="translate(145.517 360.144) rotate(180)" fill="#f0f0f0"/>
          </g>
          <g id="Group_46" data-name="Group 46" transform="translate(305.575 96.122)" opacity="0.6">
            <path id="Path_587" data-name="Path 587" d="M329.253,463.4a37.251,37.251,0,0,1,37.087-37.087H1522.309a37.251,37.251,0,0,1,37.142,37.087V582.883H329.253Z" transform="translate(-329.253 -426.31)" fill="#f0f0f0"/>
            <path id="Path_588" data-name="Path 588" d="M650.133,539.069a30.824,30.824,0,1,1,30.824-30.933,30.824,30.824,0,0,1-30.824,30.933Zm0-56.148a25.378,25.378,0,1,0,25.378,25.215,25.378,25.378,0,0,0-25.378-25.215Z" transform="translate(-350.113 -429.986)" fill="#fff"/>
            <path id="Path_589" data-name="Path 589" d="M543.31,539.069a30.824,30.824,0,1,1,30.5-30.933,30.824,30.824,0,0,1-30.5,30.933Zm0-56.148a25.378,25.378,0,1,0,25.052,25.215,25.378,25.378,0,0,0-25.052-25.215Z" transform="translate(-342.407 -429.986)" fill="#fff"/>
            <path id="Path_590" data-name="Path 590" d="M435.888,539.069a30.824,30.824,0,1,1,30.77-30.933A30.824,30.824,0,0,1,435.888,539.069Zm0-56.148a25.378,25.378,0,1,0,25.324,25.215,25.378,25.378,0,0,0-25.324-25.215Z" transform="translate(-334.701 -429.986)" fill="#fff"/>
            <path id="Path_591" data-name="Path 591" d="M1522.309,1399.5H366.341a37.251,37.251,0,0,1-37.087-37.087v-767.4h1230.2v767.4a37.251,37.251,0,0,1-37.142,37.087Z" transform="translate(-329.253 -438.443)" fill="#e0e0e0"/>
            <path id="Path_592" data-name="Path 592" d="M531.523,773.458a37.2,37.2,0,0,1,37.087-37.142H1724.579a37.251,37.251,0,0,1,37.087,37.142V892.889H531.523Z" transform="translate(-343.8 -448.605)" fill="#f5f5f5"/>
            <path id="Path_593" data-name="Path 593" d="M852.4,849.076a30.824,30.824,0,1,1,30.77-30.77,30.824,30.824,0,0,1-30.77,30.77Zm0-56.148a25.378,25.378,0,1,0,25.324,25.378A25.378,25.378,0,0,0,852.4,792.927Z" transform="translate(-364.655 -452.28)" fill="#e6e6e6"/>
            <path id="Path_594" data-name="Path 594" d="M745.249,849.076a30.824,30.824,0,1,1,30.77-30.77,30.824,30.824,0,0,1-30.77,30.77Zm0-56.148a25.378,25.378,0,1,0,25.324,25.378,25.378,25.378,0,0,0-25.324-25.378Z" transform="translate(-356.949 -452.28)" fill="#e6e6e6"/>
            <path id="Path_595" data-name="Path 595" d="M638.158,849.076a30.824,30.824,0,1,1,30.77-30.77A30.824,30.824,0,0,1,638.158,849.076Zm0-56.148a25.378,25.378,0,1,0,25.324,25.378,25.378,25.378,0,0,0-25.324-25.378Z" transform="translate(-349.248 -452.28)" fill="#e6e6e6"/>
            <path id="Path_596" data-name="Path 596" d="M1724.579,1709.777H568.611a37.142,37.142,0,0,1-37.087-37.087V905.022H1761.666v767.4a37.2,37.2,0,0,1-37.087,37.359Z" transform="translate(-343.8 -460.737)" fill="#e6e6e6"/>
          </g>
        </g>
        <g id="freepik--Shadow--inject-98" transform="translate(305.575 1905.664)">
          <ellipse id="freepik--path--inject-98" cx="1055.925" cy="61.649" rx="1055.925" ry="61.649" fill="#f5f5f5"/>
        </g>
        <g id="freepik--Smartphone--inject-98" transform="translate(368.531 201.5)">
          <path id="Path_597" data-name="Path 597" d="M1501.018,928.482a13.343,13.343,0,0,0,13.452-14.105l-4.03-80.437a15.031,15.031,0,0,0-14.813-14.16h-10.892l-9.857-200.141a84.848,84.848,0,0,0-83.324-79.784H764.773a75.264,75.264,0,0,0-75.645,79.62l9.912,201.066a14.105,14.105,0,0,0-9.258,14.051l9.53,192.952A15.957,15.957,0,0,0,710.2,1041.6l41.88,851.482a84.849,84.849,0,0,0,83.542,79.62h626.726a75.264,75.264,0,0,0,75.645-79.62l-40.573-820.712h10.892a13.343,13.343,0,0,0,13.452-14.105l-3.976-80.6a15.085,15.085,0,0,0-14.813-14.105h-10.892l-1.743-35.072Z" transform="translate(-418.081 -539.854)" fill="#407bff"/>
          <path id="Path_598" data-name="Path 598" d="M849.885,1972.7h626.726a75.318,75.318,0,0,0,75.7-79.62L1489.354,619.531a84.794,84.794,0,0,0-83.487-79.675H779.087a75.318,75.318,0,0,0-75.7,79.62l62.956,1273.547A84.849,84.849,0,0,0,849.885,1972.7Z" transform="translate(-419.107 -539.854)" fill="#407bff"/>
          <path id="Path_599" data-name="Path 599" d="M849.885,1972.7h626.726a75.318,75.318,0,0,0,75.7-79.62L1489.354,619.531a84.794,84.794,0,0,0-83.487-79.675H779.087a75.318,75.318,0,0,0-75.7,79.62l62.956,1273.547A84.849,84.849,0,0,0,849.885,1972.7Z" transform="translate(-419.107 -539.854)" fill="#fafafa" opacity="0.4"/>
          <path id="Path_600" data-name="Path 600" d="M800.239,1870.474h718.872a11.709,11.709,0,0,0,11.818-12.363L1472.22,674.86A13.18,13.18,0,0,0,1459.2,662.5H740.332a11.655,11.655,0,0,0-11.763,12.362L787,1858.112a13.179,13.179,0,0,0,13.234,12.362Z" transform="translate(-420.925 -548.674)" fill="#fff"/>
          <path id="Path_601" data-name="Path 601" d="M1193.558,579.582H1042.432a9.258,9.258,0,0,0-9.313,9.8h0a10.456,10.456,0,0,0,10.293,9.857h151.126a9.258,9.258,0,0,0,9.313-9.857h0a10.456,10.456,0,0,0-10.293-9.8Z" transform="translate(-442.827 -542.711)" fill="#407bff" opacity="0.7"/>
          <path id="Path_602" data-name="Path 602" d="M1749.413,1628.1H1121.054l-45.039-911.442h628.36Z" transform="translate(-445.913 -552.569)" fill="#407bff" opacity="0.6"/>
          <path id="Path_603" data-name="Path 603" d="M1721.508,1429.87a2.447,2.447,0,0,1-.871,0,1.635,1.635,0,0,1-.708-.49,2.069,2.069,0,0,1-.49-.708,2.559,2.559,0,0,1,0-.871,2.287,2.287,0,1,1,4.575,0,2.553,2.553,0,0,1,0,.871,2.067,2.067,0,0,1-.49.708,1.634,1.634,0,0,1-.708.49,2.233,2.233,0,0,1-1.307,0Z" transform="translate(-492.182 -603.547)" fill="#fff"/>
          <path id="Path_604" data-name="Path 604" d="M1727.824,1601.491a2.233,2.233,0,0,1,2.124-2.342h0a2.287,2.287,0,0,1,2.4,2.124h0a2.288,2.288,0,0,1-2.178,2.4h0a2.287,2.287,0,0,1-2.342-2.179Zm-.871-17.209a2.287,2.287,0,0,1,2.178-2.4h0a2.233,2.233,0,0,1,2.342,2.178h0a2.233,2.233,0,0,1-2.124,2.342h0A2.287,2.287,0,0,1,1726.953,1584.282Zm-.817-17.264a2.233,2.233,0,0,1,2.124-2.342h0a2.179,2.179,0,0,1,2.342,2.124h0a2.233,2.233,0,0,1-2.124,2.4h0A2.288,2.288,0,0,1,1726.136,1567.018Zm-.871-17.264a2.287,2.287,0,0,1,2.124-2.342h0a2.287,2.287,0,0,1,2.4,2.124h0a2.287,2.287,0,0,1-2.124,2.4h0a2.287,2.287,0,0,1-2.4-2.178Zm-.871-17.209a2.287,2.287,0,0,1,2.178-2.4h0a2.233,2.233,0,0,1,2.342,2.178h0a2.233,2.233,0,0,1-2.124,2.342h0a2.287,2.287,0,0,1-2.4-2.124Zm-.817-17.264a2.233,2.233,0,0,1,2.124-2.342h0a2.233,2.233,0,0,1,2.4,2.124h0a2.342,2.342,0,0,1-2.178,2.4h0a2.287,2.287,0,0,1-2.342-2.178Zm-.871-17.264a2.287,2.287,0,0,1,2.178-2.342h0a2.233,2.233,0,0,1,2.342,2.124h0a2.287,2.287,0,0,1-2.124,2.4h0a2.288,2.288,0,0,1-2.4-2.178Zm-.817-17.209a2.232,2.232,0,0,1,2.124-2.4h0a2.233,2.233,0,0,1,2.341,2.178h0a2.233,2.233,0,0,1-2.124,2.342h0a2.233,2.233,0,0,1-2.342-2.124Zm-.871-17.264a2.233,2.233,0,0,1,2.124-2.342h0a2.287,2.287,0,0,1,2.4,2.124h0a2.342,2.342,0,0,1-2.178,2.4h0a2.287,2.287,0,0,1-2.342-2.178Zm-.871-17.209a2.287,2.287,0,0,1,2.178-2.4h0a2.233,2.233,0,0,1,2.342,2.124h0a2.287,2.287,0,0,1-2.124,2.4h0a2.288,2.288,0,0,1-2.4-2.124Z" transform="translate(-492.236 -604.872)" fill="#fff"/>
          <path id="Path_605" data-name="Path 605" d="M1731.588,1634.3a2.124,2.124,0,0,1-1.579-.708,2.07,2.07,0,0,1-.653-1.58,2.452,2.452,0,0,1,0-.871,1.633,1.633,0,0,1,.49-.708,2.062,2.062,0,0,1,.708-.49,2.4,2.4,0,0,1,1.743,0,2.289,2.289,0,0,1,.762.49,2.23,2.23,0,0,1,.436.708,1.742,1.742,0,0,1,0,.871,2.343,2.343,0,0,1-.653,1.579,2.292,2.292,0,0,1-.763.49A1.578,1.578,0,0,1,1731.588,1634.3Z" transform="translate(-492.896 -618.237)" fill="#fff"/>
          <path id="Path_606" data-name="Path 606" d="M1695.479,1632.011a2.233,2.233,0,0,1,2.287-2.233h0a2.233,2.233,0,0,1,2.233,2.233h0a2.287,2.287,0,0,1-2.233,2.287h0a2.287,2.287,0,0,1-2.287-2.287Zm-18.3,0a2.233,2.233,0,0,1,2.288-2.233h0a2.233,2.233,0,0,1,2.233,2.233h0a2.233,2.233,0,0,1-2.233,2.288h0a2.287,2.287,0,0,1-2.233-2.287Zm-18.244,0a2.233,2.233,0,0,1,2.233-2.233h0a2.233,2.233,0,0,1,2.287,2.233h0a2.288,2.288,0,0,1-2.288,2.287h0a2.233,2.233,0,0,1-2.233-2.287Zm-18.3,0a2.232,2.232,0,0,1,2.287-2.233h0a2.233,2.233,0,0,1,2.233,2.233h0a2.233,2.233,0,0,1-2.233,2.288h0a2.288,2.288,0,0,1-2.288-2.287Zm-18.244,0a2.233,2.233,0,0,1,2.233-2.233h0a2.233,2.233,0,0,1,2.287,2.233h0a2.287,2.287,0,0,1-2.287,2.287h0a2.233,2.233,0,0,1-2.233-2.288Zm-18.3,0a2.233,2.233,0,0,1,2.287-2.233h0a2.233,2.233,0,0,1,2.233,2.233h0a2.233,2.233,0,0,1-2.233,2.288h0a2.288,2.288,0,0,1-2.288-2.288Zm-18.3,0a2.233,2.233,0,0,1,2.287-2.233h0a2.233,2.233,0,0,1,2.233,2.233h0a2.233,2.233,0,0,1-2.233,2.288h0a2.288,2.288,0,0,1-2.288-2.288Zm-18.244,0a2.233,2.233,0,0,1,2.233-2.233h0a2.233,2.233,0,0,1,2.287,2.233h0a2.287,2.287,0,0,1-2.287,2.287h0a2.287,2.287,0,0,1-2.233-2.287Zm-18.3,0a2.233,2.233,0,0,1,2.287-2.233h0a2.233,2.233,0,0,1,2.233,2.233h0a2.233,2.233,0,0,1-2.233,2.288h0a2.288,2.288,0,0,1-2.288-2.288Zm-18.244,0a2.233,2.233,0,0,1,2.233-2.233h0a2.233,2.233,0,0,1,2.287,2.233h0a2.288,2.288,0,0,1-2.288,2.287h0a2.233,2.233,0,0,1-2.233-2.288Zm-18.3,0a2.233,2.233,0,0,1,2.287-2.233h0a2.233,2.233,0,0,1,2.233,2.233h0A2.233,2.233,0,0,1,1515,1634.3h0a2.288,2.288,0,0,1-2.288-2.288Z" transform="translate(-477.318 -618.237)" fill="#fff"/>
          <path id="Path_607" data-name="Path 607" d="M1495.3,1634.3a2.232,2.232,0,0,1-1.579-.708,1.635,1.635,0,0,1-.49-.708,2.46,2.46,0,0,1,0-.871,2.069,2.069,0,0,1,.653-1.579,2.124,2.124,0,0,1,2.451-.49,1.631,1.631,0,0,1,.708.49,2.124,2.124,0,0,1,.708,1.579,2.565,2.565,0,0,1,0,.871,2.4,2.4,0,0,1-1.2,1.2,2.286,2.286,0,0,1-1.253.218Z" transform="translate(-475.914 -618.234)" fill="#fff"/>
          <path id="Path_608" data-name="Path 608" d="M1716.356,959.55H1088l-11.981-242.892h628.36Z" transform="translate(-445.913 -552.569)" fill="#407bff" opacity="0.5"/>
          <path id="Path_609" data-name="Path 609" d="M1734,1388.288l-1.47-15.9A151.943,151.943,0,0,0,1836.6,1325.5a149.167,149.167,0,0,0,34.745-59.416l15.249,5.446a164.249,164.249,0,0,1-38.122,65.352A166.974,166.974,0,0,1,1734,1388.288Z" transform="translate(-493.126 -592.081)" fill="#263238"/>
          <path id="Path_610" data-name="Path 610" d="M1827.238,1081.288a170.351,170.351,0,0,0-68.892-40.137l3.867-15.249a187.943,187.943,0,0,1,75.754,44.113,182.059,182.059,0,0,1,50.484,184.456l-15.249-5.446A165.558,165.558,0,0,0,1827.238,1081.288Z" transform="translate(-494.983 -574.809)" fill="#407bff" opacity="0.5" style="mix-blend-mode: multiply;isolation: isolate"/>
          <path id="Path_611" data-name="Path 611" d="M1583.877,1332.747a185.435,185.435,0,0,1-57.728-122.589h15.9a170.515,170.515,0,0,0,175.634,158.424l1.47,15.9a184.729,184.729,0,0,1-135.279-51.737Z" transform="translate(-478.285 -588.059)" fill="#407bff"/>
          <path id="Path_612" data-name="Path 612" d="M1526.117,1196.278a168.008,168.008,0,0,1,45.42-127.164A171.059,171.059,0,0,1,1745.482,1025l-3.867,15.249a155.484,155.484,0,0,0-158.261,40.409,152.816,152.816,0,0,0-41.335,115.4Z" transform="translate(-478.252 -574.18)" fill="#fff" opacity="0.7"/>
          <ellipse id="Ellipse_43" data-name="Ellipse 43" cx="131.357" cy="138.001" rx="131.357" ry="138.001" transform="matrix(0.698, -0.716, 0.716, 0.698, 1033.751, 617.375)" fill="#fff" opacity="0.6"/>
          <path id="Path_613" data-name="Path 613" d="M1352.069,1491.131l-2.669,10.892a113.168,113.168,0,0,0-82.562,7.243A106.52,106.52,0,0,0,1229.1,1540.8l-9.258-7.08a116.926,116.926,0,0,1,41.444-34.691,124.551,124.551,0,0,1,90.785-7.9Z" transform="translate(-456.256 -607.897)" fill="#263238"/>
          <path id="Path_614" data-name="Path 614" d="M1220.116,1666.922a122.477,122.477,0,0,0,38.122,42.642l-6.208,9.258a135.5,135.5,0,0,1-41.989-46.89,125.258,125.258,0,0,1,7.9-134.516l9.258,7.08a113.767,113.767,0,0,0-7.08,122.426Z" transform="translate(-454.408 -611.594)" fill="#407bff" opacity="0.5" style="mix-blend-mode: multiply;isolation: isolate"/>
          <path id="Path_615" data-name="Path 615" d="M1443.371,1557.081a127.546,127.546,0,0,1,11.437,94.978l-10.892-3.486a116.109,116.109,0,0,0-10.4-86.483,123.025,123.025,0,0,0-73.957-59.906l2.668-10.892a134.844,134.844,0,0,1,81.146,65.788Z" transform="translate(-466.304 -608.277)" fill="#fff" opacity="0.7"/>
          <path id="Path_616" data-name="Path 616" d="M1447.389,1664.239a117.579,117.579,0,0,1-60.886,74.229,127.817,127.817,0,0,1-130.1-10.892l6.208-9.258a116.163,116.163,0,0,0,118.342,9.8,107.013,107.013,0,0,0,55.44-67.476Z" transform="translate(-458.885 -620.456)" fill="#407bff"/>
          <ellipse id="Ellipse_44" data-name="Ellipse 44" cx="94.052" cy="98.79" rx="94.052" ry="98.79" transform="matrix(0.698, -0.716, 0.716, 0.698, 729.997, 1002.813)" fill="#fff" opacity="0.6"/>
          <path id="Path_617" data-name="Path 617" d="M1502.206,749.637H1480.64l-54.188,80.819,62.193,80.819h21.566l-62.193-80.819Z" transform="translate(-471.115 -554.941)" fill="#fff"/>
          <path id="Path_618" data-name="Path 618" d="M1577.612,749.637h21.566l62.248,80.819-54.242,80.819h-21.621l54.242-80.819Z" transform="translate(-481.986 -554.941)" fill="#fff"/>
          <g id="Group_47" data-name="Group 47" transform="translate(397.703 175.611)" opacity="0.6">
            <path id="Path_619" data-name="Path 619" d="M973.221,828.444H835.492a9.694,9.694,0,0,0-9.748,10.293l4.684,94.706a10.892,10.892,0,0,0,10.892,10.293H979.048a9.694,9.694,0,0,0,9.748-10.293l-4.684-94.706A10.892,10.892,0,0,0,973.221,828.444ZM921.212,916.56H896.269l1.743-30.116a17.645,17.645,0,0,1-8.278-14,15.848,15.848,0,0,1,15.957-16.774,17.808,17.808,0,0,1,17.591,16.774,15.576,15.576,0,0,1-6.862,14Z" transform="translate(-825.616 -736.219)" fill="#407bff"/>
            <path id="Path_620" data-name="Path 620" d="M889.726,872.452a17.645,17.645,0,0,0,8.278,14l-1.743,30.116H908.95l1.307,27.23H841.2A10.892,10.892,0,0,1,830.31,933.5L825.626,838.8a9.694,9.694,0,0,1,9.748-10.293h68.892l1.307,27.23a15.848,15.848,0,0,0-15.848,16.719Z" transform="translate(-825.608 -736.224)" opacity="0.2"/>
            <path id="Path_621" data-name="Path 621" d="M961.483,814.49h0a9.639,9.639,0,0,1-9.531-9.095l-.49-9.258a51.411,51.411,0,0,0-47.489-49.014,44.766,44.766,0,0,0-47.489,47.38l.545,10.892a8.6,8.6,0,0,1-8.714,9.095h0a9.639,9.639,0,0,1-9.531-9.095l-.436-9.04A62.847,62.847,0,0,1,898.255,729.1a69.818,69.818,0,0,1,71.506,65.624l.49,10.892a8.551,8.551,0,0,1-8.768,8.877Z" transform="translate(-826.512 -729.073)" fill="#407bff"/>
          </g>
          <path id="Path_622" data-name="Path 622" d="M997.962,1853.654H548.177L509.4,1068.5H959.186Z" transform="translate(-405.165 -577.872)" fill="#407bff" opacity="0.4"/>
          <path id="Path_623" data-name="Path 623" d="M961.038,1106.136H511.253L509.4,1068.5H959.186Z" transform="translate(-405.165 -577.872)" fill="#407bff" opacity="0.3"/>
          <path id="Path_624" data-name="Path 624" d="M1000.823,1911.578H551.038l-1.852-37.632H998.971Z" transform="translate(-408.026 -635.796)" fill="#407bff" opacity="0.3"/>
          <path id="Path_625" data-name="Path 625" d="M640.959,1300.331l-16.338-8.387a113.439,113.439,0,0,0-9.367-20.2h0l4.411-17.046-35.344-33.656-16.774,5.446h0a115.45,115.45,0,0,0-20.64-8.387h0l-9.095-15.685H490.378l-7.624,15.685a104.2,104.2,0,0,0-19.769,8.387h0l-17.264-5.446L413.7,1254.693l6.045,17.046h0a106.4,106.4,0,0,0-7.352,20.2l-15.3,8.387,2.342,47.6,16.338,8.332h0a119.811,119.811,0,0,0,9.367,20.2h0l-4.466,17.046,35.345,33.656,16.774-5.446a114.908,114.908,0,0,0,20.586,8.387l8.986,15.957h47.6l7.57-15.739h0a102.714,102.714,0,0,0,19.769-8.387l17.318,5.446,31.968-33.656-6.045-17.046h0a101.566,101.566,0,0,0,7.352-20.2h0l15.358-8.332ZM524.415,1410.395A91.6,91.6,0,0,1,433.9,1324.13a81.363,81.363,0,0,1,82.017-86.319,91.656,91.656,0,0,1,90.567,86.319,81.363,81.363,0,0,1-82.071,86.265Z" transform="translate(-397.088 -587.502)" fill="#407bff"/>
          <path id="Path_626" data-name="Path 626" d="M520.3,1253.581a69.981,69.981,0,0,0-70.526,74.229,78.858,78.858,0,0,0,78.15,74.174,70.035,70.035,0,0,0,70.8-74.174A78.913,78.913,0,0,0,520.3,1253.581Z" transform="translate(-400.867 -591.182)" fill="#fff" opacity="0.6"/>
          <path id="Path_627" data-name="Path 627" d="M1019.641,1387.2H764.278a18.462,18.462,0,0,0-18.516,19.5l6.481,131.085a20.7,20.7,0,0,0,20.477,19.5H926.188l2.832,56.8,54.024-56.8h45.038a18.408,18.408,0,0,0,18.516-19.5l-6.481-130.976A20.749,20.749,0,0,0,1019.641,1387.2Z" transform="translate(-422.161 -600.791)" fill="#407bff"/>
          <path id="Path_628" data-name="Path 628" d="M668.382,1622.267H842.654a14.214,14.214,0,0,1,14,13.343l4.411,89.532a12.526,12.526,0,0,1-12.635,13.288H743.7l1.906,38.83-40.736-38.83H674.1a14.105,14.105,0,0,1-13.942-13.288l-4.411-89.532a12.526,12.526,0,0,1,12.635-13.343Z" transform="translate(-415.687 -617.696)" fill="#fff"/>
        </g>
        <g id="freepik--Character--inject-98" transform="translate(1786.211 314.343)">
          <path id="Path_629" data-name="Path 629" d="M2293.448,1277.258l-25.76-1.144,11.655,49.014a134.894,134.894,0,0,0,24.943-21.784,12.363,12.363,0,0,0-1.307-17.482Z" transform="translate(-1949.293 -705.645)" fill="#ff8b7b"/>
          <path id="Path_630" data-name="Path 630" d="M2235.473,1302.527l11.546,39.919,30.008-17.427-11.654-48.905Z" transform="translate(-1946.976 -705.645)" fill="#ff8b7b"/>
          <path id="Path_631" data-name="Path 631" d="M2073.21,1004.923l-12.362,14.268c-4.248,4.9-8.387,9.912-12.471,14.977-8.169,10.075-16.338,20.2-23.854,30.606a433.5,433.5,0,0,0-40.3,63.664c-1.361,2.723-2.451,5.446-3.7,8.115l-1.852,3.975h0a15.139,15.139,0,0,0,.272,8.115,122.64,122.64,0,0,0,13.288,30.5,578.885,578.885,0,0,0,44.221,63.664l-20.531,21.784a337.665,337.665,0,0,1-62.248-59.089,150.088,150.088,0,0,1-24.452-41.39,67.964,67.964,0,0,1-4.194-31.968,52.442,52.442,0,0,1,2.288-9.966l1.961-5.446c1.307-3.594,2.56-7.243,3.921-10.892a403.02,403.02,0,0,1,42.37-76.244c8.169-11.709,16.338-23.146,25.542-34.038,4.466-5.446,8.986-10.892,13.615-16.338s9.258-10.456,14.65-16.338Z" transform="translate(-1924.621 -683.119)" fill="#ff8b7b"/>
          <path id="Path_632" data-name="Path 632" d="M2076.879,1282.431l-23.254,45.855-22.71-19.5,18.625-32.676Z" transform="translate(-1932.265 -705.645)" fill="#ff8b7b"/>
          <path id="Path_633" data-name="Path 633" d="M2321.827,960.768c14.323,25.324,27.666,50.757,40.464,76.734s25.051,52.227,36.488,79.185l.926,2.342,1.035,3a33.421,33.421,0,0,1,1.525,5.991c.327,1.852.544,3.758.762,5.446a40.427,40.427,0,0,1,0,5.119,52.846,52.846,0,0,1-.926,9.312,61.437,61.437,0,0,1-1.96,8.006,115.755,115.755,0,0,1-11.273,25,189.563,189.563,0,0,1-13.561,20.041c-4.738,6.208-9.531,12.145-14.541,17.808a484.267,484.267,0,0,1-65.352,60.886l-20.8-21.784c17.427-21.784,34.746-44.439,49.776-67.04a245.1,245.1,0,0,0,19.333-33.765,64.326,64.326,0,0,0,5.01-14.7,17.194,17.194,0,0,0,.272-2.505v-1.416h0a.929.929,0,0,0,0,.381v.762a.876.876,0,0,0,0,.49s.272.436,0,0c-13.016-24.888-26.685-49.831-40.191-74.883s-27.23-50.158-40.3-75.209Z" transform="translate(-1949.352 -682.967)" fill="#ff8b7b"/>
          <path id="Path_634" data-name="Path 634" d="M2103.436,793.681c.654,3.159-.49,6.1-2.505,6.644s-4.248-1.634-4.956-4.792.49-6.154,2.505-6.644S2102.728,790.522,2103.436,793.681Z" transform="translate(-1936.929 -670.601)" fill="#263238"/>
          <path id="Path_635" data-name="Path 635" d="M2103.137,800.571a120.458,120.458,0,0,1-9.258,30.77,18.244,18.244,0,0,0,15.576-.926Z" transform="translate(-1936.793 -671.447)" fill="#ff5652"/>
          <path id="Path_636" data-name="Path 636" d="M2098.865,821.793c-4.139,0-8.169-3.213-11.382-9.149a62.683,62.683,0,0,1-3.268-45.311c2.4-6.644,6.154-10.456,10.51-10.892s8.551,2.886,11.927,9.095a56.1,56.1,0,0,1,5.881,22.383c1.362,18.244-4.411,33.057-13.125,33.711Zm-3.594-62.52h-.381c-3.159,0-6.1,3.54-8.115,8.986a53.862,53.862,0,0,0-2.451,21.784,53.1,53.1,0,0,0,5.446,21.239c2.778,5.174,6.209,8.005,9.367,7.733,6.916-.49,11.763-14.6,10.565-30.824a53.311,53.311,0,0,0-5.446-21.24c-2.669-4.9-5.936-7.679-8.986-7.679Z" transform="translate(-1935.899 -668.27)" fill="#263238"/>
          <path id="Path_637" data-name="Path 637" d="M2094.727,772.86a1.958,1.958,0,0,0,1.089-.327,14.869,14.869,0,0,1,13.561-.871,1.906,1.906,0,0,0,2.451-1.035,1.961,1.961,0,0,0-1.035-2.505,18.571,18.571,0,0,0-17.155,1.307,1.852,1.852,0,0,0-.49,2.614A1.906,1.906,0,0,0,2094.727,772.86Z" transform="translate(-1936.716 -669.005)" fill="#263238"/>
          <path id="Path_638" data-name="Path 638" d="M2213.934,817.94c-1.035,32.948-13.234,72.759,6.481,92.255,0,0-9.149,29.681-63.555,29.681-59.906,0-27.23-29.681-27.23-29.681,32.948-7.788,33.057-31.968,28.265-54.732Z" transform="translate(-1938.725 -672.696)" fill="#ff8b7b"/>
          <path id="Path_639" data-name="Path 639" d="M2235.041,925.687c4.683-9.367,9.422-23.8,0-27.23-10.62-3.7-64.535-13.07-105.544,0a35.833,35.833,0,0,1,.545,29.3Z" transform="translate(-1939.355 -678.003)" fill="#263238"/>
          <path id="Path_640" data-name="Path 640" d="M2319.762,2399.921c-4.085,0-8.06-.6-9.531-2.614a3.758,3.758,0,0,1,0-4.52,4.682,4.682,0,0,1,3.159-2.233c5.827-1.253,16.338,6.263,16.991,6.589a.871.871,0,0,1,.382.926.925.925,0,0,1-.708.763,51.532,51.532,0,0,1-10.293,1.089Zm-4.738-7.625h-1.089a3.049,3.049,0,0,0-1.906,1.307c-.926,1.579-.436,2.233-.272,2.451,1.634,2.233,9.8,2.287,15.793,1.252a29.572,29.572,0,0,0-12.526-5.01Z" transform="translate(-1952.298 -785.781)" fill="#fff"/>
          <path id="Path_641" data-name="Path 641" d="M2330.709,2398.089h-.435c-4.03-2.233-11.655-10.892-10.892-15.412a3.212,3.212,0,0,1,3.1-2.56,5.446,5.446,0,0,1,4.03,1.253c4.52,3.812,5.01,15.358,5.01,15.848a.981.981,0,0,1-.436.872Zm-7.461-16.338h-.436c-1.253,0-1.416.762-1.47,1.035-.49,2.668,4.357,9.258,8.278,12.308a22.057,22.057,0,0,0-4.248-12.526,2.943,2.943,0,0,0-1.961-.708Z" transform="translate(-1953.007 -785.039)" fill="#fff"/>
          <path id="Path_642" data-name="Path 642" d="M2060.764,2399.912c-5.446,0-10.075-.708-11.709-3a3.594,3.594,0,0,1,0-4.139c4.3-7.08,22.056,3.1,24.071,4.3a.926.926,0,0,1,.436.98.98.98,0,0,1-.762.762A72.978,72.978,0,0,1,2060.764,2399.912Zm-6.154-7.734a3.977,3.977,0,0,0-3.7,1.58c-.817,1.307-.436,1.852-.272,2.069,1.743,2.505,11.872,2.614,19.388,1.58A41.445,41.445,0,0,0,2054.61,2392.179Z" transform="translate(-1933.522 -785.772)" fill="#fff"/>
          <path id="Path_643" data-name="Path 643" d="M2073.7,2398.082h-.381c-4.792-2.233-13.887-10.892-13.125-15.3,0-1.089.926-2.451,3.594-2.723a6.589,6.589,0,0,1,5.446,1.688c4.956,4.193,5.446,14.922,5.446,15.412a.817.817,0,0,1-.381.817A1.031,1.031,0,0,1,2073.7,2398.082Zm-9.149-16.338H2064c-1.8,0-1.906.871-1.96,1.144-.436,2.778,5.718,9.476,10.511,12.417a21.782,21.782,0,0,0-4.738-12.362,5.009,5.009,0,0,0-3.268-1.089Z" transform="translate(-1934.368 -785.031)" fill="#fff"/>
          <path id="Path_644" data-name="Path 644" d="M2119.031,2391.3H2079l-.381-92.691H2118.6Z" transform="translate(-1935.696 -779.179)" fill="#ff8b7b"/>
          <path id="Path_645" data-name="Path 645" d="M2376.615,2391.3h-40.028l-16.556-92.691h40.028Z" transform="translate(-1953.057 -779.179)" fill="#ff8b7b"/>
          <path id="Path_646" data-name="Path 646" d="M2330.058,2393.5h44.929a3.323,3.323,0,0,1,3.322,2.723l6.535,35.562a6.1,6.1,0,0,1-6.154,7.08c-15.685,0-23.254-1.144-43.024-1.144-12.145,0-37.25,1.252-54.024,1.252s-18.353-16.61-11.437-18.135c31.1-6.753,43.078-16.011,53.262-24.888A9.913,9.913,0,0,1,2330.058,2393.5Z" transform="translate(-1949.197 -786.003)" fill="#263238"/>
          <path id="Path_647" data-name="Path 647" d="M2071.908,2393.5h43.568a3.268,3.268,0,0,1,3.268,2.723l6.535,35.563a5.99,5.99,0,0,1-6.045,7.08c-15.739,0-38.449-1.144-58.272-1.144-23.145,0-43.241,1.252-70.362,1.252-16.338,0-20.368-16.61-13.452-18.135,31.587-6.807,57.183-7.57,84.849-24.235A19.279,19.279,0,0,1,2071.908,2393.5Z" transform="translate(-1928.166 -786.003)" fill="#263238"/>
          <path id="Path_648" data-name="Path 648" d="M2306.209,927.049c37.142,8.6,76.244,110.826,76.244,110.826l-77.279,51.628a601.85,601.85,0,0,1-46.509-84.631C2238.188,958.091,2268.2,918.226,2306.209,927.049Z" transform="translate(-1948.167 -680.454)" fill="#407bff"/>
          <path id="Path_649" data-name="Path 649" d="M2306.209,927.049c37.142,8.6,76.244,110.826,76.244,110.826l-77.279,51.628a601.85,601.85,0,0,1-46.509-84.631C2238.188,958.091,2268.2,918.226,2306.209,927.049Z" transform="translate(-1948.167 -680.454)" fill="#fafafa" opacity="0.3"/>
          <path id="Path_650" data-name="Path 650" d="M2278.581,997.56l31.968,94.815-3.649,2.451s-14.6-21.784-30.116-50.811Z" transform="translate(-1949.947 -685.613)" opacity="0.2"/>
          <path id="Path_651" data-name="Path 651" d="M2041.418,1105.021c.327,44.657,3,100.206,9.639,169.153H2265.3c2.778-32.676-11.709-193.115,25.923-347.89a550.394,550.394,0,0,0-71.234-9.04,791.144,791.144,0,0,0-90.948,0,409.1,409.1,0,0,0-61.975,10.892s-18.3,19.823-23.854,112.787C2042.017,1059.493,2041.309,1080.623,2041.418,1105.021Z" transform="translate(-1933.02 -679.743)" fill="#407bff"/>
          <path id="Path_652" data-name="Path 652" d="M2041.418,1105.021c.327,44.657,3,100.206,9.639,169.153H2265.3c2.778-32.676-11.709-193.115,25.923-347.89a550.394,550.394,0,0,0-71.234-9.04,791.144,791.144,0,0,0-90.948,0,409.1,409.1,0,0,0-61.975,10.892s-18.3,19.823-23.854,112.787C2042.017,1059.493,2041.309,1080.623,2041.418,1105.021Z" transform="translate(-1933.02 -679.743)" fill="#fafafa" opacity="0.3"/>
          <path id="Path_653" data-name="Path 653" d="M2041.418,1112.077c12.962-23.636,36.489-71.07,33.166-98.028L2043,1048.25C2042.017,1066.548,2041.309,1087.679,2041.418,1112.077Z" transform="translate(-1933.02 -686.799)" opacity="0.2"/>
          <path id="Path_654" data-name="Path 654" d="M2102.2,965.39c3.376,38.122-83.052,129.833-83.052,129.833l-69.273-56.475a446.568,446.568,0,0,1,64.753-84.25C2055.149,915.287,2098.445,922.748,2102.2,965.39Z" transform="translate(-1926.438 -680.673)" fill="#407bff"/>
          <path id="Path_655" data-name="Path 655" d="M2102.2,965.39c3.376,38.122-83.052,129.833-83.052,129.833l-69.273-56.475a446.568,446.568,0,0,1,64.753-84.25C2055.149,915.287,2098.445,922.748,2102.2,965.39Z" transform="translate(-1926.438 -680.673)" fill="#fafafa" opacity="0.3"/>
          <path id="Path_656" data-name="Path 656" d="M2078.622,2298.672l.218,47.761h40.028l-.218-47.761Z" transform="translate(-1935.696 -779.183)" opacity="0.2"/>
          <path id="Path_657" data-name="Path 657" d="M2360.059,2298.672h-40.028l8.55,47.761h40.028Z" transform="translate(-1953.057 -779.183)" opacity="0.2"/>
          <path id="Path_658" data-name="Path 658" d="M2206.546,754.914c5.827,39.375,11.273,62.084-3.921,86.864a51.682,51.682,0,0,1-91.438-4.847c-15.63-32.676-22.6-91.711,11.763-116.653a52.173,52.173,0,0,1,83.6,34.636Z" transform="translate(-1937.11 -664.892)" fill="#ff8b7b"/>
          <path id="Path_659" data-name="Path 659" d="M2137.971,740.68c-125.857-3.05-22.873-79.239-22.873-79.239-20.695,36.325,38.612,33,53.589,16.665,18.19-19.987,51.083,7.842,48.469,29.626,19.17-2.4,34.364,11.818,27.23,57.564s-22.111,58.653-29.953,69.818-7.189.545-33.33,5.446c-17.971,3.376-48.088-35.4-51.41-58.054a61.052,61.052,0,0,1,8.278-41.825Z" transform="translate(-1935.466 -661.441)" fill="#263238"/>
          <path id="Path_660" data-name="Path 660" d="M2212.588,714.777s32.676-13.615,10.892-47.761C2253.76,682.755,2249.185,711.455,2212.588,714.777Z" transform="translate(-1945.33 -661.842)" fill="#263238"/>
          <path id="Path_661" data-name="Path 661" d="M2159.276,783.456a46.945,46.945,0,0,1-9.585,27.72c-8.115,10.456-17.427,5.446-19.66-6.317-1.96-10.456,0-28.483,10.129-34.8S2159.331,771.475,2159.276,783.456Z" transform="translate(-1939.345 -669.09)" fill="#ff8b7b"/>
          <path id="Path_662" data-name="Path 662" d="M2133.663,1301.916s33.6,305.684,54.079,420.05c22.437,125.258,108.92,543.293,108.92,543.293h73.3s-52.064-407.688-62.847-531.911C2295.41,1598.56,2271.5,1301.7,2271.5,1301.7Z" transform="translate(-1939.654 -707.485)" fill="#263238"/>
          <path id="Path_663" data-name="Path 663" d="M2298.084,2311.053c-.327,0,6.481,28.156,6.481,28.156h82.67l-.545-25.106Z" transform="translate(-1951.478 -780.074)" fill="#407bff"/>
          <path id="Path_664" data-name="Path 664" d="M2159.091,1419.26c52.118,10.293,38.993,206.077,28.81,306.773-12.417-71.179-29.3-208.146-40.682-305.357a18.19,18.19,0,0,1,11.872-1.416Z" transform="translate(-1940.629 -715.91)" opacity="0.2"/>
          <path id="Path_665" data-name="Path 665" d="M2050.513,1301.933s-17.1,299.149-17.427,421.139c-.381,126.892,27.884,542.422,27.884,542.422h67.585s18.244-408.123,26.087-532.728c8.5-136.15,36.325-430.833,36.325-430.833Z" transform="translate(-1932.421 -707.502)" fill="#263238"/>
          <path id="Path_666" data-name="Path 666" d="M2032.513,1260.564l19.006,1.525a10.4,10.4,0,0,1,9.15,13.343l-7.843,26.413a13.941,13.941,0,0,1-21.784,6.971,70.8,70.8,0,0,1-20.314-33.82Z" transform="translate(-1930.814 -704.527)" fill="#ff8b7b"/>
          <path id="Path_667" data-name="Path 667" d="M2078.478,2218.518a.709.709,0,0,1-.708-.654c-7.516-114.965-24.943-393.256-24.616-493.081.272-102.112,12.417-330.572,16.338-398.157a.708.708,0,1,1,1.361,0c-3.7,67.585-15.848,296.045-16.338,398.1-.327,99.771,17.1,378.007,24.616,493.026a.653.653,0,0,1-.654.708Z" transform="translate(-1933.864 -709.213)" fill="#fafafa" opacity="0.2"/>
          <path id="Path_668" data-name="Path 668" d="M2050.219,2311.053c-.327,0,2.723,28.156,2.723,28.156h82.289l3.213-25.106Z" transform="translate(-1933.652 -780.074)" fill="#407bff"/>
        </g>
      </g>
    </g>
  </g>
</svg>
