<svg xmlns="http://www.w3.org/2000/svg" width="620.169" height="535.535" viewBox="0 0 620.169 535.535">
  <g id="Usability_testing-bro" data-name="Usability testing-bro" transform="translate(-30.724 -64.816)">
    <g id="freepik--background-simple--inject-16" transform="translate(93.507 64.817)">
      <path id="Path_5972" data-name="Path 5972" d="M430.034,87.3c-27.651,16.446-49.685,40.819-75.906,59.46C320.716,170.487,281.3,184.3,241.5,194.282c-49.526,12.36-104.6,21.428-137.907,60.1-28.647,33.21-33.7,81.407-26.395,124.7,33.831,200.385,356.442,189.152,458.209,57.005,54.175-70.318,159.436-291.987,44.761-356.529a93.393,93.393,0,0,0-16.143-7.075C521.519,58.107,468.47,64.461,430.034,87.3Z" transform="translate(-74.205 -64.817)" fill="#ff725e"/>
      <path id="Path_5973" data-name="Path 5973" d="M430.034,87.3c-27.651,16.446-49.685,40.819-75.906,59.46C320.716,170.487,281.3,184.3,241.5,194.282c-49.526,12.36-104.6,21.428-137.907,60.1-28.647,33.21-33.7,81.407-26.395,124.7,33.831,200.385,356.442,189.152,458.209,57.005,54.175-70.318,159.436-291.987,44.761-356.529a93.393,93.393,0,0,0-16.143-7.075C521.519,58.107,468.47,64.461,430.034,87.3Z" transform="translate(-74.205 -64.817)" fill="#fff" opacity="0.7"/>
    </g>
    <g id="freepik--Plants--inject-16" transform="translate(94.524 400.374)">
      <g id="freepik--freepik--Plants--inject-2--inject-16" transform="translate(409.58)">
        <path id="Path_5974" data-name="Path 5974" d="M420.234,345.965s3.465-4.216,3.653-4.519c2.137-3.422,4.26-11.262,1.357-14.771a5.357,5.357,0,0,0-7.552-.462,5.918,5.918,0,0,0-.419.433c-2.209,2.281-2.469,6.209-1.993,9.2C415.816,339.352,420.22,345.965,420.234,345.965Z" transform="translate(-333.485 -284.934)" fill="#ff725e"/>
        <path id="Path_5975" data-name="Path 5975" d="M479.685,341.984l-.477-.318c-3.913-2.281-11.306,1.17-14.324,3.855-.26.245-3.841,4.332-3.841,4.332h0c-1.155.534-2.382,1.141-3.769,1.79-2.455,1.271-5.3,2.7-8.23,4.462a93.6,93.6,0,0,0-9.241,6.18,70.925,70.925,0,0,0-9.241,8.288l2.122-4.707c1.17-3.87,1.126-12.042-2.6-14.612a5.342,5.342,0,0,0-7.393,1.545l-.3.52c-1.531,2.8-.722,6.671.505,9.414,1.444,3.119,6.931,8,7.378,8.389a94.61,94.61,0,0,0-7.768,10.006c-1.372,2.036-2.715,4.13-4.014,6.238l.953-2.108c1.155-3.87,1.141-12.028-2.585-14.6a5.372,5.372,0,0,0-7.422,1.559l-.274.505c-1.531,2.787-.736,6.656.491,9.4s5.891,7.075,7.133,8.173l-1.444,2.455c-2.339,3.913-4.678,7.84-7.09,11.623-.852,1.328-1.733,2.613-2.6,3.9l.809-1.819c1.17-3.884,1.141-12.057-2.585-14.627a5.371,5.371,0,0,0-7.422,1.574l-.274.491c-1.545,2.816-.751,6.656.491,9.429s5.429,6.642,6.916,7.956c-.938,1.3-1.877,2.585-2.888,3.8-.693.809-1.285,1.646-2.007,2.411s-1.444,1.545-2.094,2.31c-1.444,1.444-2.816,2.888-4.2,4.332-.953.938-1.891,1.834-2.888,2.743.866-1.328,2.5-3.927,2.6-4.173a20.59,20.59,0,0,0,1.733-10.281,7.882,7.882,0,0,0,.4-1.112,5.357,5.357,0,0,0-3.552-6.7,4.612,4.612,0,0,1-.563-.144c-4.476-.722-10.107,5.155-11.97,8.765-.1.217-1.04,2.642-1.588,4.173.188-.939.375-1.877.563-2.888.361-1.949.679-3.913,1.025-6.021.13-1.04.26-2.065.4-3.1s.188-2.151.289-3.234c.173-2.5.231-5.054.231-7.638,1.733.332,7.8,1.444,10.743.679s6.5-2.4,7.783-5.328a5.371,5.371,0,0,0-2.5-7.22,3.465,3.465,0,0,0-.534-.216c-4.332-1.444-10.815,3.552-13.168,6.844-.1.217-1.588,2.729-2.354,4.144,0-1.545,0-3.09-.072-4.649-.188-4.519-.491-9.082-.794-13.645l-.26-4.187c.607.13,7.826,1.531,11.133.751,2.888-.693,6.483-2.426,7.768-5.342a5.357,5.357,0,0,0-2.628-7.118,5.037,5.037,0,0,0-1.141-.375c-4.332-1.444-10.8,3.567-13.168,6.83-.13.274-2.224,3.913-2.715,4.866-.173-3.047-.332-6.108-.346-9.14a91.088,91.088,0,0,1,.635-12.23c.26.115,7.8,1.6,11.19.751,2.888-.693,6.5-2.4,7.768-5.328a5.371,5.371,0,0,0-2.512-7.147,3.456,3.456,0,0,0-.534-.217c-4.332-1.444-10.8,3.552-13.154,6.83-.1.245-1.733,2.989-2.455,4.332l-.217-.1a68.828,68.828,0,0,1,2.8-11.927c.707-2.151,1.444-4.173,2.267-6.108,1.372.419,7.682,2.281,10.8,1.892s6.714-1.661,8.317-4.433a5.371,5.371,0,0,0-1.733-7.393,2.265,2.265,0,0,0-.477-.274c-4.144-1.848-11.132,2.354-13.847,5.342-.087.2-1.444,1.993-2.4,3.335l1.17-2.585c1.444-3.148,2.888-5.906,4.216-8.346.765-1.444,1.444-2.628,2.18-3.769,1.559-.289,7.855-1.444,10.4-3.278s5.184-4.577,5.357-7.754a5.357,5.357,0,0,0-4.866-5.776,4.5,4.5,0,0,0-.621,0c-4.519.26-8.866,7.22-9.833,11.133a46.963,46.963,0,0,0-.707,5.776c-.693,1.1-1.444,2.281-2.166,3.581-1.444,2.411-2.888,5.155-4.418,8.259-.549,1.155-1.083,2.3-1.6,3.465-.982,2.209-1.891,4.491-2.686,6.772a69.215,69.215,0,0,0-3.191,12.1v.13c-.173-1.314-.837-4.967-.924-5.227-1.17-3.87-5.689-10.685-10.237-10.786a5.357,5.357,0,0,0-5.314,5.429,3.5,3.5,0,0,0,0,.549c.4,3.061,3.162,5.906,5.776,7.508,2.888,1.863,10.194,2.888,10.771,2.888a94.577,94.577,0,0,0-.939,12.605c0,2.469,0,4.938.072,7.436-.188-1.141-.39-2.151-.433-2.281-1.155-3.87-5.689-10.656-10.237-10.757a5.357,5.357,0,0,0-5.314,5.386v.607c.274,3.191,3,5.92,5.617,7.566s8.808,2.657,10.483,2.816c0,.967.072,1.92.115,2.888.188,4.577.419,9.14.491,13.616v4.693c-.188-1.011-.346-1.848-.346-2.036-1.17-3.87-5.689-10.67-10.237-10.757a5.328,5.328,0,0,0-5.342,5.342,6.333,6.333,0,0,0,0,.736c.26,3.191,2.989,5.934,5.6,7.581s8.259,2.57,10.107,2.888c0,1.588-.144,3.191-.245,4.75-.115,1.054-.159,2.079-.332,3.119s-.3,2.065-.462,3.09c-.375,1.964-.736,3.985-1.141,5.877-.274,1.314-.563,2.585-.837,3.841,0-1.574-.1-4.635-.13-4.895-.563-4.029-4.029-11.407-8.476-12.172a5.371,5.371,0,0,0-6.021,4.606v.52c-.217,3.177,2.123,6.339,4.4,8.331,2.5,2.18,9.284,4.332,10.107,4.548-.476,2.079-.953,4.115-1.444,6.036-1.66,6.613-3.307,12.057-4.491,15.883-.144.491-.3.953-.448,1.357l2.729,1.271c.2-.534.318-1.126.52-1.79,1.126-3.87,2.657-9.414,4.187-16.128.505-2.123.982-4.4,1.444-6.743a67.639,67.639,0,0,0,6.844-.115c1.083,3.234,5.3,8.331,5.848,9-1.545,1.444-3.076,2.888-4.534,4.231-5.039,4.606-9.342,8.274-12.49,10.757-.491.361-.924.708-1.328,1.04l3.177,1.444.173-.144c3.061-2.613,7.422-6.382,12.4-11.133,1.574-1.444,3.278-3.1,4.938-4.823.708.52,6.483,4.649,9.732,5.314,2.974.606,6.9.534,9.3-1.588a5.342,5.342,0,0,0,.707-7.552,3.393,3.393,0,0,0-.375-.419c-3.321-3.076-11.291-1.3-14.815.679l-3.653,2.628c.693-.693,1.343-1.285,2.065-2.065,1.444-1.444,2.729-2.888,4.187-4.476.664-.78,1.357-1.559,2.036-2.368s1.343-1.675,2.021-2.512c1.531-2.007,2.989-4.1,4.418-6.252,1.242,1.2,5.776,5.458,8.591,6.483s6.8,1.617,9.472-.13a5.328,5.328,0,0,0,1.92-7.306l-.318-.477c-2.816-3.538-10.959-3.032-14.742-1.559-.245.087-2.888,1.444-4.245,2.166.852-1.3,1.689-2.585,2.5-3.927,2.354-3.855,4.606-7.855,6.859-11.826.693-1.227,1.444-2.411,2.108-3.624.433.433,5.675,5.588,8.88,6.757,2.816,1.04,6.8,1.6,9.458-.13a5.343,5.343,0,0,0,1.906-7.349,3.9,3.9,0,0,0-.289-.448c-2.888-3.538-10.959-3.032-14.757-1.559-.289.1-3.985,1.964-4.924,2.57,1.559-2.657,3.119-5.285,4.779-7.826a97.1,97.1,0,0,1,7.219-9.92c.2.217,5.66,5.631,8.923,6.83,2.888,1.025,6.729,1.559,9.472-.144a5.357,5.357,0,0,0,1.848-7.349,3.914,3.914,0,0,0-.318-.476c-2.816-3.538-10.959-3.032-14.757-1.559-.245.087-3.09,1.545-4.433,2.281l-.159-.2a67.86,67.86,0,0,1,8.981-8.418c1.762-1.444,3.523-2.686,5.27-3.87.91,1.112,5.126,6.151,7.913,7.537s6.512,2.281,9.385.866a5.357,5.357,0,0,0,2.657-7.075l-.274-.52c-2.426-3.841-10.569-4.187-14.439-3.177-.217,0-2.281.866-3.855,1.444.809-.534,1.617-1.068,2.4-1.545,2.888-1.834,5.66-3.35,8.1-4.635l3.927-2.007c1.444.65,7.378,3.061,10.483,2.989s6.844-.953,8.764-3.6a5.386,5.386,0,0,0-.866-7.552Z" transform="translate(-358.57 -297.213)" fill="#ff725e"/>
        <path id="Path_5976" data-name="Path 5976" d="M369.41,319.7c2.382,2.613,9.718,5.776,9.718,5.776s.534-5.415.549-5.776c-.072-4.043-2.657-11.8-7-13.082a5.371,5.371,0,0,0-6.555,3.826,3.707,3.707,0,0,0-.115.549C365.411,314.065,367.375,317.458,369.41,319.7Z" transform="translate(-355.318 -293.118)" fill="#ff725e"/>
        <path id="Path_5977" data-name="Path 5977" d="M479.685,341.984l-.477-.318c-3.913-2.281-11.306,1.17-14.324,3.855-.26.245-3.841,4.332-3.841,4.332h0c-1.155.534-2.382,1.141-3.769,1.79-2.455,1.271-5.3,2.7-8.23,4.462a93.6,93.6,0,0,0-9.241,6.18,70.925,70.925,0,0,0-9.241,8.288l2.122-4.707c1.17-3.87,1.126-12.042-2.6-14.612a5.342,5.342,0,0,0-7.393,1.545l-.3.52c-1.531,2.8-.722,6.671.505,9.414,1.444,3.119,6.931,8,7.378,8.389a94.61,94.61,0,0,0-7.768,10.006c-1.372,2.036-2.715,4.13-4.014,6.238l.953-2.108c1.155-3.87,1.141-12.028-2.585-14.6a5.372,5.372,0,0,0-7.422,1.559l-.274.505c-1.531,2.787-.736,6.656.491,9.4s5.891,7.075,7.133,8.173l-1.444,2.455c-2.339,3.913-4.678,7.84-7.09,11.623-.852,1.328-1.733,2.613-2.6,3.9l.809-1.819c1.17-3.884,1.141-12.057-2.585-14.627a5.371,5.371,0,0,0-7.422,1.574l-.274.491c-1.545,2.816-.751,6.656.491,9.429s5.429,6.642,6.916,7.956c-.938,1.3-1.877,2.585-2.888,3.8-.693.809-1.285,1.646-2.007,2.411s-1.444,1.545-2.094,2.31c-1.444,1.444-2.816,2.888-4.2,4.332-.953.938-1.891,1.834-2.888,2.743.866-1.328,2.5-3.927,2.6-4.173a20.59,20.59,0,0,0,1.733-10.281,7.882,7.882,0,0,0,.4-1.112,5.357,5.357,0,0,0-3.552-6.7,4.612,4.612,0,0,1-.563-.144c-4.476-.722-10.107,5.155-11.97,8.765-.1.217-1.04,2.642-1.588,4.173.188-.939.375-1.877.563-2.888.361-1.949.679-3.913,1.025-6.021.13-1.04.26-2.065.4-3.1s.188-2.151.289-3.234c.173-2.5.231-5.054.231-7.638,1.733.332,7.8,1.444,10.743.679s6.5-2.4,7.783-5.328a5.371,5.371,0,0,0-2.5-7.22,3.465,3.465,0,0,0-.534-.216c-4.332-1.444-10.815,3.552-13.168,6.844-.1.217-1.588,2.729-2.354,4.144,0-1.545,0-3.09-.072-4.649-.188-4.519-.491-9.082-.794-13.645l-.26-4.187c.607.13,7.826,1.531,11.133.751,2.888-.693,6.483-2.426,7.768-5.342a5.357,5.357,0,0,0-2.628-7.118,5.037,5.037,0,0,0-1.141-.375c-4.332-1.444-10.8,3.567-13.168,6.83-.13.274-2.224,3.913-2.715,4.866-.173-3.047-.332-6.108-.346-9.14a91.088,91.088,0,0,1,.635-12.23c.26.115,7.8,1.6,11.19.751,2.888-.693,6.5-2.4,7.768-5.328a5.371,5.371,0,0,0-2.512-7.147,3.456,3.456,0,0,0-.534-.217c-4.332-1.444-10.8,3.552-13.154,6.83-.1.245-1.733,2.989-2.455,4.332l-.217-.1a68.828,68.828,0,0,1,2.8-11.927c.707-2.151,1.444-4.173,2.267-6.108,1.372.419,7.682,2.281,10.8,1.892s6.714-1.661,8.317-4.433a5.371,5.371,0,0,0-1.733-7.393,2.265,2.265,0,0,0-.477-.274c-4.144-1.848-11.132,2.354-13.847,5.342-.087.2-1.444,1.993-2.4,3.335l1.17-2.585c1.444-3.148,2.888-5.906,4.216-8.346.765-1.444,1.444-2.628,2.18-3.769,1.559-.289,7.855-1.444,10.4-3.278s5.184-4.577,5.357-7.754a5.357,5.357,0,0,0-4.866-5.776,4.5,4.5,0,0,0-.621,0c-4.519.26-8.866,7.22-9.833,11.133a46.963,46.963,0,0,0-.707,5.776c-.693,1.1-1.444,2.281-2.166,3.581-1.444,2.411-2.888,5.155-4.418,8.259-.549,1.155-1.083,2.3-1.6,3.465-.982,2.209-1.891,4.491-2.686,6.772a69.215,69.215,0,0,0-3.191,12.1v.13c-.173-1.314-.837-4.967-.924-5.227-1.17-3.87-5.689-10.685-10.237-10.786a5.357,5.357,0,0,0-5.314,5.429,3.5,3.5,0,0,0,0,.549c.4,3.061,3.162,5.906,5.776,7.508,2.888,1.863,10.194,2.888,10.771,2.888a94.577,94.577,0,0,0-.939,12.605c0,2.469,0,4.938.072,7.436-.188-1.141-.39-2.151-.433-2.281-1.155-3.87-5.689-10.656-10.237-10.757a5.357,5.357,0,0,0-5.314,5.386v.607c.274,3.191,3,5.92,5.617,7.566s8.808,2.657,10.483,2.816c0,.967.072,1.92.115,2.888.188,4.577.419,9.14.491,13.616v4.693c-.188-1.011-.346-1.848-.346-2.036-1.17-3.87-5.689-10.67-10.237-10.757a5.328,5.328,0,0,0-5.342,5.342,6.333,6.333,0,0,0,0,.736c.26,3.191,2.989,5.934,5.6,7.581s8.259,2.57,10.107,2.888c0,1.588-.144,3.191-.245,4.75-.115,1.054-.159,2.079-.332,3.119s-.3,2.065-.462,3.09c-.375,1.964-.736,3.985-1.141,5.877-.274,1.314-.563,2.585-.837,3.841,0-1.574-.1-4.635-.13-4.895-.563-4.029-4.029-11.407-8.476-12.172a5.371,5.371,0,0,0-6.021,4.606v.52c-.217,3.177,2.123,6.339,4.4,8.331,2.5,2.18,9.284,4.332,10.107,4.548-.476,2.079-.953,4.115-1.444,6.036-1.66,6.613-3.307,12.057-4.491,15.883-.144.491-.3.953-.448,1.357l2.729,1.271c.2-.534.318-1.126.52-1.79,1.126-3.87,2.657-9.414,4.187-16.128.505-2.123.982-4.4,1.444-6.743a67.639,67.639,0,0,0,6.844-.115c1.083,3.234,5.3,8.331,5.848,9-1.545,1.444-3.076,2.888-4.534,4.231-5.039,4.606-9.342,8.274-12.49,10.757-.491.361-.924.708-1.328,1.04l3.177,1.444.173-.144c3.061-2.613,7.422-6.382,12.4-11.133,1.574-1.444,3.278-3.1,4.938-4.823.708.52,6.483,4.649,9.732,5.314,2.974.606,6.9.534,9.3-1.588a5.342,5.342,0,0,0,.707-7.552,3.393,3.393,0,0,0-.375-.419c-3.321-3.076-11.291-1.3-14.815.679l-3.653,2.628c.693-.693,1.343-1.285,2.065-2.065,1.444-1.444,2.729-2.888,4.187-4.476.664-.78,1.357-1.559,2.036-2.368s1.343-1.675,2.021-2.512c1.531-2.007,2.989-4.1,4.418-6.252,1.242,1.2,5.776,5.458,8.591,6.483s6.8,1.617,9.472-.13a5.328,5.328,0,0,0,1.92-7.306l-.318-.477c-2.816-3.538-10.959-3.032-14.742-1.559-.245.087-2.888,1.444-4.245,2.166.852-1.3,1.689-2.585,2.5-3.927,2.354-3.855,4.606-7.855,6.859-11.826.693-1.227,1.444-2.411,2.108-3.624.433.433,5.675,5.588,8.88,6.757,2.816,1.04,6.8,1.6,9.458-.13a5.343,5.343,0,0,0,1.906-7.349,3.9,3.9,0,0,0-.289-.448c-2.888-3.538-10.959-3.032-14.757-1.559-.289.1-3.985,1.964-4.924,2.57,1.559-2.657,3.119-5.285,4.779-7.826a97.1,97.1,0,0,1,7.219-9.92c.2.217,5.66,5.631,8.923,6.83,2.888,1.025,6.729,1.559,9.472-.144a5.357,5.357,0,0,0,1.848-7.349,3.914,3.914,0,0,0-.318-.476c-2.816-3.538-10.959-3.032-14.757-1.559-.245.087-3.09,1.545-4.433,2.281l-.159-.2a67.86,67.86,0,0,1,8.981-8.418c1.762-1.444,3.523-2.686,5.27-3.87.91,1.112,5.126,6.151,7.913,7.537s6.512,2.281,9.385.866a5.357,5.357,0,0,0,2.657-7.075l-.274-.52c-2.426-3.841-10.569-4.187-14.439-3.177-.217,0-2.281.866-3.855,1.444.809-.534,1.617-1.068,2.4-1.545,2.888-1.834,5.66-3.35,8.1-4.635l3.927-2.007c1.444.65,7.378,3.061,10.483,2.989s6.844-.953,8.764-3.6a5.386,5.386,0,0,0-.866-7.552Z" transform="translate(-358.57 -297.213)" fill="#ff725e" opacity="0.5" style="isolation: isolate"/>
        <path id="Path_5978" data-name="Path 5978" d="M420.234,345.965s3.465-4.216,3.653-4.519c2.137-3.422,4.26-11.262,1.357-14.771a5.357,5.357,0,0,0-7.552-.462,5.918,5.918,0,0,0-.419.433c-2.209,2.281-2.469,6.209-1.993,9.2C415.816,339.352,420.22,345.965,420.234,345.965Z" transform="translate(-333.485 -284.934)" fill="#ff725e" opacity="0.3" style="isolation: isolate"/>
        <path id="Path_5979" data-name="Path 5979" d="M369.41,319.7c2.382,2.613,9.718,5.776,9.718,5.776s.534-5.415.549-5.776c-.072-4.043-2.657-11.8-7-13.082a5.371,5.371,0,0,0-6.555,3.826,3.707,3.707,0,0,0-.115.549C365.411,314.065,367.375,317.458,369.41,319.7Z" transform="translate(-355.318 -293.118)" fill="#ff725e" opacity="0.3" style="isolation: isolate"/>
      </g>
      <g id="freepik--freepik-plants-inject-2--inject-16" transform="translate(0 26.466)">
        <path id="Path_5980" data-name="Path 5980" d="M134.527,343.607s-.505-5.068-.578-5.386c-.866-3.668-4.664-10.223-8.894-10.6a4.967,4.967,0,0,0-5.241,4.693,3.665,3.665,0,0,0,0,.563c0,2.96,2.484,5.7,4.765,7.349C127.307,342.191,134.527,343.607,134.527,343.607Z" transform="translate(-54.981 -310.183)" fill="#ff725e"/>
        <path id="Path_5981" data-name="Path 5981" d="M163.694,315.554l-.534.1c-4.072,1.1-6.656,8.245-6.844,12.013,0,.332.375,5.415.375,5.415h0c-.419,1.126-.823,2.325-1.3,3.682-.765,2.455-1.689,5.27-2.455,8.375a87.124,87.124,0,0,0-1.978,10.107,65.768,65.768,0,0,0-.578,11.551l-1.733-4.49c-1.79-3.321-7.22-8.663-11.364-7.884a4.967,4.967,0,0,0-3.826,5.906,4.422,4.422,0,0,0,.144.549c.837,2.888,3.927,4.852,6.555,5.848,2.974,1.112,9.833.664,10.382.621a88.678,88.678,0,0,0,1.531,11.71c.433,2.253.953,4.5,1.444,6.757l-.78-2.021c-1.79-3.307-7.22-8.663-11.335-7.884a5.01,5.01,0,0,0-3.841,5.949l.144.505c.837,2.888,3.913,4.852,6.541,5.848s8.548.736,10.107.65l.635,2.6c1.054,4.115,2.108,8.245,3.032,12.317.318,1.444.592,2.888.866,4.332l-.664-1.733c-1.8-3.321-7.22-8.663-11.378-7.9a5.01,5.01,0,0,0-3.826,5.949l.144.505c.837,2.888,3.913,4.866,6.57,5.862s7.941.765,9.79.65c.245,1.444.477,2.888.635,4.332.087,1,.245,1.935.289,2.888s.1,1.949.159,2.888c0,1.863.072,3.783.072,5.588v3.668c-.318-1.444-.967-4.231-1.054-4.447a19.146,19.146,0,0,0-5.776-7.869,7.133,7.133,0,0,0-.476-1.011,5,5,0,0,0-6.757-2.036,4.865,4.865,0,0,0-.462.274c-3.422,2.483-3.249,10.107-2.079,13.674.087.2,1.068,2.411,1.733,3.8l-1.531-2.267c-1.054-1.516-2.137-3.018-3.307-4.621-.592-.765-1.2-1.531-1.776-2.3s-1.3-1.545-1.964-2.325c-1.531-1.762-3.191-3.465-4.895-5.169,1.357-.924,6.036-4.26,7.508-6.671s2.671-5.862,1.574-8.663a5,5,0,0,0-6.382-3.047l-.477.2c-3.754,1.935-4.75,9.486-4.13,13.212.087.2.765,2.888,1.2,4.332-1.025-1.011-2.05-2.021-3.119-3-3.119-2.888-6.339-5.646-9.559-8.432l-2.888-2.585c.476-.318,6.151-4.173,7.8-6.859,1.444-2.411,2.657-5.891,1.574-8.663A4.967,4.967,0,0,0,119,383.446a4.142,4.142,0,0,0-1.011.505c-3.74,1.935-4.736,9.472-4.13,13.183.1.274,1.126,4.057,1.444,5-2.137-1.892-4.332-3.8-6.267-5.776a84.985,84.985,0,0,1-7.739-8.432c.245-.1,6.18-4.1,7.84-6.9,1.444-2.411,2.686-5.877,1.588-8.663a5.025,5.025,0,0,0-6.4-3.018,3.348,3.348,0,0,0-.477.2c-3.754,1.935-4.736,9.472-4.115,13.183.087.231.837,3.1,1.256,4.476l-.2.087a62.852,62.852,0,0,1-6.05-9.689c-.967-1.877-1.8-3.725-2.556-5.516,1.17-.635,6.541-3.581,8.346-5.906s3.307-5.53,2.527-8.4a5.025,5.025,0,0,0-6.036-3.711,1.924,1.924,0,0,0-.491.144c-3.942,1.516-5.776,8.909-5.559,12.663.072.188.361,2.267.635,3.769l-.91-2.455c-1.155-2.989-2.007-5.776-2.743-8.259-.4-1.444-.765-2.715-1.054-3.913.823-1.227,4.144-6.209,4.649-9.039s.39-6.425-1.617-8.663a4.981,4.981,0,0,0-7.017-.563,5.238,5.238,0,0,0-.4.39c-2.8,3.162-1.083,10.584.91,13.8a43.965,43.965,0,0,0,3.364,4.332c.274,1.184.578,2.44.953,3.783.679,2.5,1.444,5.328,2.556,8.346.4,1.126.809,2.238,1.242,3.335q1.242,3.162,2.729,6.223a63.535,63.535,0,0,0,5.877,9.977v.13c-1-.751-3.841-2.7-4.072-2.816-3.335-1.776-10.8-3.263-13.861-.318a5.01,5.01,0,0,0,.1,7.075,2.894,2.894,0,0,0,.39.346c2.3,1.747,5.978,1.776,8.663,1.155,3.162-.722,8.577-4.866,9.024-5.2a86.83,86.83,0,0,0,7.71,8.895c1.617,1.646,3.278,3.234,4.967,4.837-.866-.621-1.675-1.155-1.79-1.213-3.321-1.776-10.786-3.234-13.833-.3a4.981,4.981,0,0,0,0,7.061,4.925,4.925,0,0,0,.419.375c2.281,1.92,5.877,1.906,8.663,1.271s7.537-4.1,8.75-5.1c.664.606,1.3,1.213,1.964,1.8,3.148,2.888,6.324,5.776,9.328,8.663,1.083,1.025,2.079,2.065,3.09,3.09-.78-.534-1.444-.982-1.574-1.1-3.321-1.776-10.786-3.249-13.847-.3a4.981,4.981,0,0,0,0,7.046,3.851,3.851,0,0,0,.52.448c2.281,1.92,5.891,1.92,8.663,1.271s7.118-3.783,8.533-4.852c1.011,1.083,2.021,2.195,2.989,3.278.621.765,1.271,1.444,1.834,2.267s1.17,1.559,1.747,2.339c1.054,1.531,2.151,3.1,3.133,4.606.693,1.054,1.343,2.079,1.993,3.076-1.054-1.011-3.133-2.974-3.321-3.133-3.032-2.252-10.107-4.823-13.616-2.382a5,5,0,0,0-.91,7,2.719,2.719,0,0,0,.318.375c1.964,2.238,5.588,2.758,8.4,2.57,3.09-.231,8.923-3.35,9.645-3.725,1.068,1.689,2.108,3.35,3.047,4.924,3.292,5.443,5.776,10.107,7.537,13.385.231.4.433.809.606,1.17l2.628-.967c-.217-.476-.534-.953-.837-1.516-1.819-3.292-4.491-7.942-7.913-13.371-1.083-1.718-2.281-3.523-3.509-5.386a60.321,60.321,0,0,0,4.4-4.606c2.888,1.444,9,1.978,9.79,2.05,0,1.993-.087,3.927-.173,5.776-.26,6.368-.664,11.623-1.083,15.334q-.13.838-.173,1.559l3.061-1.112V453.5c.274-3.725.65-9.082.78-15.508,0-2.021.1-4.2,0-6.44.809-.115,7.335-1.227,9.92-2.888,2.339-1.574,4.88-4.216,5.039-7.22a5,5,0,0,0-4.519-5.429h-.52c-4.231.188-8.288,6.628-9.284,10.252,0,.231-.433,2.628-.65,4.144v-2.729c0-1.863-.13-3.711-.2-5.7,0-.953-.144-1.92-.231-2.888s-.231-1.978-.347-2.989c-.318-2.325-.736-4.678-1.227-7.017,1.617,0,7.378-.217,9.934-1.444s5.545-3.437,6.137-6.353a4.981,4.981,0,0,0-3.581-6.064l-.52-.115c-4.187-.448-9.2,5.27-10.714,8.736-.1.217-.924,2.8-1.357,4.231-.3-1.444-.592-2.8-.953-4.231-1.011-4.086-2.166-8.2-3.321-12.3-.347-1.271-.679-2.512-1.011-3.769.578,0,7.422-.087,10.3-1.444,2.556-1.2,5.53-3.465,6.137-6.353a5.025,5.025,0,0,0-3.61-6.093l-.491-.1c-4.2-.433-9.2,5.27-10.728,8.663a45.684,45.684,0,0,0-1.444,4.953c-.751-2.772-1.444-5.53-2.05-8.3a87.907,87.907,0,0,1-1.776-11.32c.274,0,7.422,0,10.367-1.444,2.541-1.2,5.458-3.422,6.122-6.353a5,5,0,0,0-3.639-6.05,3.469,3.469,0,0,0-.534-.1c-4.187-.462-9.2,5.256-10.714,8.736-.1.231-1.011,3.061-1.444,4.433h-.231a62.087,62.087,0,0,1,.318-11.465c.217-2.094.549-4.1.9-6.036,1.343.144,7.436.65,10.194-.289s5.776-2.787,6.729-5.631a4.981,4.981,0,0,0-2.888-6.4l-.52-.159c-4.13-.924-9.717,4.231-11.623,7.494-.1.173-.91,2.065-1.559,3.48.173-.866.347-1.762.534-2.585.693-3.119,1.444-5.934,2.252-8.4.448-1.444.866-2.686,1.256-3.913,1.444-.549,6.873-2.888,8.866-4.967s3.855-5.169,3.379-8.172A5.025,5.025,0,0,0,163.694,315.554Z" transform="translate(-72.294 -315.542)" fill="#ff725e"/>
        <path id="Path_5982" data-name="Path 5982" d="M83.992,359.824c3.307.13,10.107-2.686,10.107-2.686s-3.22-3.9-3.465-4.173c-2.729-2.6-9.544-5.978-13.255-3.956a5.025,5.025,0,0,0-1.776,6.873,4.33,4.33,0,0,0,.289.419C77.639,358.756,81.177,359.694,83.992,359.824Z" transform="translate(-74.909 -300.959)" fill="#ff725e"/>
        <path id="Path_5983" data-name="Path 5983" d="M163.694,315.554l-.534.1c-4.072,1.1-6.656,8.245-6.844,12.013,0,.332.375,5.415.375,5.415h0c-.419,1.126-.823,2.325-1.3,3.682-.765,2.455-1.689,5.27-2.455,8.375a87.124,87.124,0,0,0-1.978,10.107,65.768,65.768,0,0,0-.578,11.551l-1.733-4.49c-1.79-3.321-7.22-8.663-11.364-7.884a4.967,4.967,0,0,0-3.826,5.906,4.422,4.422,0,0,0,.144.549c.837,2.888,3.927,4.852,6.555,5.848,2.974,1.112,9.833.664,10.382.621a88.678,88.678,0,0,0,1.531,11.71c.433,2.253.953,4.5,1.444,6.757l-.78-2.021c-1.79-3.307-7.22-8.663-11.335-7.884a5.01,5.01,0,0,0-3.841,5.949l.144.505c.837,2.888,3.913,4.852,6.541,5.848s8.548.736,10.107.65l.635,2.6c1.054,4.115,2.108,8.245,3.032,12.317.318,1.444.592,2.888.866,4.332l-.664-1.733c-1.8-3.321-7.22-8.663-11.378-7.9a5.01,5.01,0,0,0-3.826,5.949l.144.505c.837,2.888,3.913,4.866,6.57,5.862s7.941.765,9.79.65c.245,1.444.477,2.888.635,4.332.087,1,.245,1.935.289,2.888s.1,1.949.159,2.888c0,1.863.072,3.783.072,5.588v3.668c-.318-1.444-.967-4.231-1.054-4.447a19.146,19.146,0,0,0-5.776-7.869,7.133,7.133,0,0,0-.476-1.011,5,5,0,0,0-6.757-2.036,4.865,4.865,0,0,0-.462.274c-3.422,2.483-3.249,10.107-2.079,13.674.087.2,1.068,2.411,1.733,3.8l-1.531-2.267c-1.054-1.516-2.137-3.018-3.307-4.621-.592-.765-1.2-1.531-1.776-2.3s-1.3-1.545-1.964-2.325c-1.531-1.762-3.191-3.465-4.895-5.169,1.357-.924,6.036-4.26,7.508-6.671s2.671-5.862,1.574-8.663a5,5,0,0,0-6.382-3.047l-.477.2c-3.754,1.935-4.75,9.486-4.13,13.212.087.2.765,2.888,1.2,4.332-1.025-1.011-2.05-2.021-3.119-3-3.119-2.888-6.339-5.646-9.559-8.432l-2.888-2.585c.476-.318,6.151-4.173,7.8-6.859,1.444-2.411,2.657-5.891,1.574-8.663A4.967,4.967,0,0,0,119,383.446a4.142,4.142,0,0,0-1.011.505c-3.74,1.935-4.736,9.472-4.13,13.183.1.274,1.126,4.057,1.444,5-2.137-1.892-4.332-3.8-6.267-5.776a84.985,84.985,0,0,1-7.739-8.432c.245-.1,6.18-4.1,7.84-6.9,1.444-2.411,2.686-5.877,1.588-8.663a5.025,5.025,0,0,0-6.4-3.018,3.348,3.348,0,0,0-.477.2c-3.754,1.935-4.736,9.472-4.115,13.183.087.231.837,3.1,1.256,4.476l-.2.087a62.852,62.852,0,0,1-6.05-9.689c-.967-1.877-1.8-3.725-2.556-5.516,1.17-.635,6.541-3.581,8.346-5.906s3.307-5.53,2.527-8.4a5.025,5.025,0,0,0-6.036-3.711,1.924,1.924,0,0,0-.491.144c-3.942,1.516-5.776,8.909-5.559,12.663.072.188.361,2.267.635,3.769l-.91-2.455c-1.155-2.989-2.007-5.776-2.743-8.259-.4-1.444-.765-2.715-1.054-3.913.823-1.227,4.144-6.209,4.649-9.039s.39-6.425-1.617-8.663a4.981,4.981,0,0,0-7.017-.563,5.238,5.238,0,0,0-.4.39c-2.8,3.162-1.083,10.584.91,13.8a43.965,43.965,0,0,0,3.364,4.332c.274,1.184.578,2.44.953,3.783.679,2.5,1.444,5.328,2.556,8.346.4,1.126.809,2.238,1.242,3.335q1.242,3.162,2.729,6.223a63.535,63.535,0,0,0,5.877,9.977v.13c-1-.751-3.841-2.7-4.072-2.816-3.335-1.776-10.8-3.263-13.861-.318a5.01,5.01,0,0,0,.1,7.075,2.894,2.894,0,0,0,.39.346c2.3,1.747,5.978,1.776,8.663,1.155,3.162-.722,8.577-4.866,9.024-5.2a86.83,86.83,0,0,0,7.71,8.895c1.617,1.646,3.278,3.234,4.967,4.837-.866-.621-1.675-1.155-1.79-1.213-3.321-1.776-10.786-3.234-13.833-.3a4.981,4.981,0,0,0,0,7.061,4.925,4.925,0,0,0,.419.375c2.281,1.92,5.877,1.906,8.663,1.271s7.537-4.1,8.75-5.1c.664.606,1.3,1.213,1.964,1.8,3.148,2.888,6.324,5.776,9.328,8.663,1.083,1.025,2.079,2.065,3.09,3.09-.78-.534-1.444-.982-1.574-1.1-3.321-1.776-10.786-3.249-13.847-.3a4.981,4.981,0,0,0,0,7.046,3.851,3.851,0,0,0,.52.448c2.281,1.92,5.891,1.92,8.663,1.271s7.118-3.783,8.533-4.852c1.011,1.083,2.021,2.195,2.989,3.278.621.765,1.271,1.444,1.834,2.267s1.17,1.559,1.747,2.339c1.054,1.531,2.151,3.1,3.133,4.606.693,1.054,1.343,2.079,1.993,3.076-1.054-1.011-3.133-2.974-3.321-3.133-3.032-2.252-10.107-4.823-13.616-2.382a5,5,0,0,0-.91,7,2.719,2.719,0,0,0,.318.375c1.964,2.238,5.588,2.758,8.4,2.57,3.09-.231,8.923-3.35,9.645-3.725,1.068,1.689,2.108,3.35,3.047,4.924,3.292,5.443,5.776,10.107,7.537,13.385.231.4.433.809.606,1.17l2.628-.967c-.217-.476-.534-.953-.837-1.516-1.819-3.292-4.491-7.942-7.913-13.371-1.083-1.718-2.281-3.523-3.509-5.386a60.321,60.321,0,0,0,4.4-4.606c2.888,1.444,9,1.978,9.79,2.05,0,1.993-.087,3.927-.173,5.776-.26,6.368-.664,11.623-1.083,15.334q-.13.838-.173,1.559l3.061-1.112V453.5c.274-3.725.65-9.082.78-15.508,0-2.021.1-4.2,0-6.44.809-.115,7.335-1.227,9.92-2.888,2.339-1.574,4.88-4.216,5.039-7.22a5,5,0,0,0-4.519-5.429h-.52c-4.231.188-8.288,6.628-9.284,10.252,0,.231-.433,2.628-.65,4.144v-2.729c0-1.863-.13-3.711-.2-5.7,0-.953-.144-1.92-.231-2.888s-.231-1.978-.347-2.989c-.318-2.325-.736-4.678-1.227-7.017,1.617,0,7.378-.217,9.934-1.444s5.545-3.437,6.137-6.353a4.981,4.981,0,0,0-3.581-6.064l-.52-.115c-4.187-.448-9.2,5.27-10.714,8.736-.1.217-.924,2.8-1.357,4.231-.3-1.444-.592-2.8-.953-4.231-1.011-4.086-2.166-8.2-3.321-12.3-.347-1.271-.679-2.512-1.011-3.769.578,0,7.422-.087,10.3-1.444,2.556-1.2,5.53-3.465,6.137-6.353a5.025,5.025,0,0,0-3.61-6.093l-.491-.1c-4.2-.433-9.2,5.27-10.728,8.663a45.684,45.684,0,0,0-1.444,4.953c-.751-2.772-1.444-5.53-2.05-8.3a87.907,87.907,0,0,1-1.776-11.32c.274,0,7.422,0,10.367-1.444,2.541-1.2,5.458-3.422,6.122-6.353a5,5,0,0,0-3.639-6.05,3.469,3.469,0,0,0-.534-.1c-4.187-.462-9.2,5.256-10.714,8.736-.1.231-1.011,3.061-1.444,4.433h-.231a62.087,62.087,0,0,1,.318-11.465c.217-2.094.549-4.1.9-6.036,1.343.144,7.436.65,10.194-.289s5.776-2.787,6.729-5.631a4.981,4.981,0,0,0-2.888-6.4l-.52-.159c-4.13-.924-9.717,4.231-11.623,7.494-.1.173-.91,2.065-1.559,3.48.173-.866.347-1.762.534-2.585.693-3.119,1.444-5.934,2.252-8.4.448-1.444.866-2.686,1.256-3.913,1.444-.549,6.873-2.888,8.866-4.967s3.855-5.169,3.379-8.172A5.025,5.025,0,0,0,163.694,315.554Z" transform="translate(-72.294 -315.542)" fill="#ff725e" opacity="0.5" style="isolation: isolate"/>
        <path id="Path_5984" data-name="Path 5984" d="M134.527,343.607s-.505-5.068-.578-5.386c-.866-3.668-4.664-10.223-8.894-10.6a4.967,4.967,0,0,0-5.241,4.693,3.665,3.665,0,0,0,0,.563c0,2.96,2.484,5.7,4.765,7.349C127.307,342.191,134.527,343.607,134.527,343.607Z" transform="translate(-54.981 -310.183)" fill="#ff725e" opacity="0.3" style="isolation: isolate"/>
        <path id="Path_5985" data-name="Path 5985" d="M83.992,359.824c3.307.13,10.107-2.686,10.107-2.686s-3.22-3.9-3.465-4.173c-2.729-2.6-9.544-5.978-13.255-3.956a5.025,5.025,0,0,0-1.776,6.873,4.33,4.33,0,0,0,.289.419C77.639,358.756,81.177,359.694,83.992,359.824Z" transform="translate(-74.909 -300.959)" fill="#ff725e" opacity="0.3" style="isolation: isolate"/>
      </g>
    </g>
    <g id="freepik--Shadow--inject-16" transform="translate(98.813 534.019)">
      <ellipse id="Ellipse_287" data-name="Ellipse 287" cx="248.525" cy="33.167" rx="248.525" ry="33.167" fill="#ff725e"/>
      <ellipse id="Ellipse_288" data-name="Ellipse 288" cx="248.525" cy="33.167" rx="248.525" ry="33.167" fill="#fff" opacity="0.5"/>
    </g>
    <g id="freepik--character-2--inject-16" transform="translate(299.822 102.526)">
      <path id="Path_5986" data-name="Path 5986" d="M485.8,210.786s-8.837,40.66-20.431,59.922l-13.241-4.678-6.584,5.516-28,23.565s-42.364-14.121-50.233-27.911,3.047-31.968,3.047-31.968l27.651-66.564.245-.13,11.883-6.339s2.151-.274,5.415-.505c1.112-.087,2.368-.144,3.711-.2,6.628-.274,15.378-.1,21.081,2.05A39.3,39.3,0,0,0,459,165.967s11.84,15.883,19.2,26.943S485.8,210.786,485.8,210.786Z" transform="translate(-151.673 -59.656)" fill="#ff725e"/>
      <path id="Path_5987" data-name="Path 5987" d="M344.648,284.07s-9.53,25.2-11.031,40.2,16.995,40.559,16.995,40.559-8.952,16-5.963,21.009,11.551-7.508,15.8-24.012-3.321-38.985-3.321-38.985,12.23-17.327,12.865-24.922S344.648,284.07,344.648,284.07Z" transform="translate(-165.405 -5.198)" fill="#fff"/>
      <path id="Path_5988" data-name="Path 5988" d="M344.822,284.07s-9.674,25.2-11.2,40.2,17.327,40.516,17.327,40.516-9.1,16-6.079,21.009,11.826-7.508,16.071-24.012-3.379-38.985-3.379-38.985S370,305.469,370.639,297.874,344.822,284.07,344.822,284.07Z" transform="translate(-165.406 -5.198)" fill="none" stroke="#263238" stroke-linecap="round" stroke-linejoin="round" stroke-width="1"/>
      <path id="Path_5989" data-name="Path 5989" d="M345.1,346s-2.455-4.505-1.025-5.776,6.743,1.834,7.566,4.086,4.895-1.372,4.895-1.372l2.354-8.461a40.1,40.1,0,0,1,2.57,7.985c.2,2.455-4.332,7.1-4.909,12.894-.679,6.8-9,13.5-13.9,12.88S340.6,352.962,345.1,346Z" transform="translate(-162.497 17.179)" fill="#263238"/>
      <path id="Path_5990" data-name="Path 5990" d="M359.51,339.31a74.478,74.478,0,0,0-6.844,12.5c-1.227,2.758-1.689,5.776-4.014,7.754a16.879,16.879,0,0,1-7.422,3.451" transform="translate(-161.987 19.323)" fill="none" stroke="#fff" stroke-linecap="round" stroke-linejoin="round" stroke-width="1"/>
      <path id="Path_5991" data-name="Path 5991" d="M445.547,271.794l-28,23.565s-42.364-14.121-50.233-27.911,3.047-31.968,3.047-31.968l27.651-66.564.245-.13c5.776-1.632,11.551-4.88,17.327-6.844a33.481,33.481,0,0,1,3.884-1.112,5.039,5.039,0,0,1-.173.91,113.765,113.765,0,0,0,15.739,80.57c3.018,4.736,4.173,10.425,6.5,15.522a45.891,45.891,0,0,1,3.6,9.862A23.474,23.474,0,0,1,445.547,271.794Z" transform="translate(-151.673 -59.905)" opacity="0.1"/>
      <path id="Path_5992" data-name="Path 5992" d="M423.675,189.095s.809,5.66,9.14,6.729a14.439,14.439,0,0,0,13-5.227,42.81,42.81,0,0,1,.1-14.8c1.444-7.855,3.841-10.208,3.841-10.208s9.674.116,10.266-7.451-8.909-11.7-12.042-8.49-7.22-8.476-7.22-8.476l-11.075-6.382-8.129-7.22-6.324,6.108s-2.079,7.22-2.57,10.685-2.888,9.573-2.888,12.591.866,19.623,2.743,24.85,6.772,6.7,8.967,6.281S423.675,189.095,423.675,189.095Z" transform="translate(-131.562 -74.669)" fill="#fff"/>
      <path id="Path_5993" data-name="Path 5993" d="M359.629,430.96c-1.011-5.184-.159-11.2,2.209-17.529,4.115-10.959,7.812-82.721,18.237-90.966,6.729-5.314,23.348,1.819,23.348,1.819a179.236,179.236,0,0,1,0,25.138c-.91,15.536-29.225,66.723-29.456,71.3a8.966,8.966,0,0,0,1.6,3.927Z" transform="translate(-154.006 10.972)" fill="#fff"/>
      <path id="Path_5994" data-name="Path 5994" d="M359.629,430.96c-1.011-5.184-.159-11.2,2.209-17.529,4.115-10.959,7.812-82.721,18.237-90.966,6.729-5.314,23.348,1.819,23.348,1.819a179.236,179.236,0,0,1,0,25.138c-.91,15.536-29.225,66.723-29.456,71.3a8.966,8.966,0,0,0,1.6,3.927Z" transform="translate(-154.006 10.972)" fill="none" stroke="#263238" stroke-linecap="round" stroke-linejoin="round" stroke-width="1"/>
      <path id="Path_5995" data-name="Path 5995" d="M360.808,388.59s-3.566,10.829-2.989,17.009,5.039,2.816,13.847,13,16.764,11.291,19.652,9.3,1.17-7.147-7.783-22.294-5.631-8.5-5.631-8.5,1.819-6.31-1.632-7.219c-5-1.3-7.956,5.963-11.089,5.963S360.808,388.59,360.808,388.59Z" transform="translate(-154.651 41.199)" fill="#263238"/>
      <path id="Path_5996" data-name="Path 5996" d="M358.49,398.31a11.105,11.105,0,0,0,2.816,2.888c2.166,1.559,4.678,2.541,6.916,4.014a49.092,49.092,0,0,1,7.566,6.931c1.675,1.7,3.437,3.321,5.256,4.866a15.638,15.638,0,0,0,4.736,3.018,6.035,6.035,0,0,0,5.429-.462" transform="translate(-154.325 45.514)" fill="none" stroke="#fff" stroke-linecap="round" stroke-linejoin="round" stroke-width="1"/>
      <path id="Path_5997" data-name="Path 5997" d="M423.719,126.27c-3.956,3.119-8.23,6.7-9.819,11.681s-1.141,10.526-3.205,15.363c-1.444,3.35-.823,8.086-.621,11.623a113.534,113.534,0,0,0,2.238,16.518c.837,4.057,2.541,6.613,6.83,7.118s8.837-1.689,12.475-3.581c5.877-3.032,12.836-12.721,16.316-18.5,4.62-1.1,13.443-.534,11.84-9.371s-8.259-4.548-10.107-2.007" transform="translate(-131.563 -75.246)" fill="none" stroke="#263238" stroke-linecap="round" stroke-linejoin="round" stroke-width="1"/>
      <path id="Path_5998" data-name="Path 5998" d="M421.3,144.475c2.281-2.411,4.635-1.675,7.349,0" transform="translate(-126.444 -67.851)" fill="none" stroke="#263238" stroke-linecap="round" stroke-linejoin="round" stroke-width="1"/>
      <path id="Path_5999" data-name="Path 5999" d="M418.4,145.1a12.778,12.778,0,0,1-2.339,9.833,5.256,5.256,0,0,0-1.372,2.484,3.639,3.639,0,0,0,1.444,2.787" transform="translate(-129.378 -66.888)" fill="none" stroke="#263238" stroke-linecap="round" stroke-linejoin="round" stroke-width="1"/>
      <path id="Path_6000" data-name="Path 6000" d="M417.12,160.8c3.494.3,5.472-.52,7.335-3.205" transform="translate(-128.299 -61.343)" fill="none" stroke="#263238" stroke-linecap="round" stroke-linejoin="round" stroke-width="1"/>
      <path id="Path_6001" data-name="Path 6001" d="M424.455,149.175c-.1,1.227-.693,2.18-1.3,2.137s-1.025-1.1-.91-2.325.693-2.195,1.3-2.137S424.571,147.948,424.455,149.175Z" transform="translate(-126.032 -66.112)" fill="#263238"/>
      <path id="Path_6002" data-name="Path 6002" d="M415.3,147.965c-.115,1.227-.693,2.18-1.314,2.137s-1.011-1.1-.91-2.339.693-2.18,1.314-2.123S415.4,146.738,415.3,147.965Z" transform="translate(-130.102 -66.649)" fill="#263238"/>
      <path id="Path_6003" data-name="Path 6003" d="M412.09,142.942a2.888,2.888,0,0,1,4.2.4" transform="translate(-130.532 -68.167)" fill="none" stroke="#263238" stroke-linecap="round" stroke-linejoin="round" stroke-width="1"/>
      <path id="Path_6004" data-name="Path 6004" d="M443.658,154.13a70.162,70.162,0,0,0-2.541,13.818,28.879,28.879,0,0,0,.375,10.858c-2.209,3.61-7.913,5.689-12.129,5.328a13.182,13.182,0,0,1-6.714-2.252A7.58,7.58,0,0,1,419.4,175.8" transform="translate(-127.287 -62.879)" fill="none" stroke="#263238" stroke-linecap="round" stroke-linejoin="round" stroke-width="1"/>
      <path id="Path_6005" data-name="Path 6005" d="M377,231.78s25.355,25.9,52.9,30.322c0,0,7.725,13.775,3.855,27s-18.771,70.535-18.771,70.535l-28.026-3.364V286.345s-9.328,23.767-17.948,35.376L341.23,307.282S350.586,253.28,377,231.78Z" transform="translate(-161.987 -28.41)" fill="#263238"/>
      <path id="Path_6006" data-name="Path 6006" d="M366.44,255.73l8.432,9.645.9,10.338" transform="translate(-150.796 -17.778)" fill="none" stroke="#fff" stroke-linecap="round" stroke-linejoin="round" stroke-width="1"/>
      <path id="Path_6007" data-name="Path 6007" d="M369.777,307.838s-1.531,8.866,1.834,22.612c0,0,19.565,5.2,31.492,1.531,0,0,5.776-12.23,6.714-17.11C409.816,314.87,390.569,303.55,369.777,307.838Z" transform="translate(-149.469 4.922)" fill="#263238"/>
      <path id="Path_6008" data-name="Path 6008" d="M337.9,292.481s13.154,10.4,29.658,13.443c0,0,8.418-5.776,11.551-9.775,0,0-17.962-18.049-39.058-18.049Z" transform="translate(-163.465 -7.848)" fill="#263238"/>
      <path id="Path_6009" data-name="Path 6009" d="M421.68,212.21s4.231-16.114,18.294-19.94" transform="translate(-126.275 -45.949)" fill="none" stroke="#263238" stroke-linecap="round" stroke-linejoin="round" stroke-width="1"/>
      <path id="Path_6010" data-name="Path 6010" d="M450.746,157.854c-1.314,1.04-.924,3.263-1.935,4.62a5.155,5.155,0,0,1-3.74,2.123.52.52,0,0,1-.39,0,.592.592,0,0,1-.188-.375,30.792,30.792,0,0,1,0-6.526c0-3.6-1.444-5.3-3.927-7.609-1.891-1.79-1.834-4.981-3.639-6.873a7.219,7.219,0,0,0-5.14-1.834,32.791,32.791,0,0,1-5.588-.245,8.938,8.938,0,0,1-6.8-7.219c-2.888,2.3-5.357,10.107-5.357,10.107l-1.819-1.588a13.818,13.818,0,0,1-2.195-16.576,16,16,0,0,1,15.738-7.321c4.043.563,7.8,2.57,11.869,2.888,4.953.448,10.107-1.574,14.829,0s7.638,6.324,9.024,11.089,1.646,9.8,3.133,14.54a25.99,25.99,0,0,1,1.343,4.736,9.645,9.645,0,0,1-4.982,9.5S459.554,150.924,450.746,157.854Z" transform="translate(-132.253 -78.747)" fill="#263238"/>
      <path id="Path_6011" data-name="Path 6011" d="M412.794,136.413a10.3,10.3,0,0,1-1.17-9.5,8.245,8.245,0,0,1,7.826-5.111c3.335.231,6.093,2.686,8.216,5.3s3.942,5.545,6.729,7.407c3.061,2.036,6.887,2.541,10.107,4.231a15.652,15.652,0,0,1,8.216,14.179" transform="translate(-131.033 -77.231)" fill="none" stroke="#fff" stroke-linecap="round" stroke-linejoin="round" stroke-width="1" opacity="0.2"/>
      <path id="Path_6012" data-name="Path 6012" d="M426.48,124.05c1.444,2.613,4.332,4.014,7.22,4.823a43.073,43.073,0,0,1,8.519,2.6,12.75,12.75,0,0,1,6.671,11.277" transform="translate(-124.144 -76.232)" fill="none" stroke="#fff" stroke-linecap="round" stroke-linejoin="round" stroke-width="1" opacity="0.2"/>
      <rect id="Rectangle_182" data-name="Rectangle 182" width="301.923" height="173.663" rx="7.366" transform="translate(0 279.056) rotate(-67.557)" fill="#fff" stroke="#263238" stroke-miterlimit="10" stroke-width="0.995"/>
      <path id="Path_6013" data-name="Path 6013" d="M412.185,161.877l-5.155,12.432a7.349,7.349,0,0,1-9.6,3.971l-84.873-35.231a7.349,7.349,0,0,1-4.491-7.624,7.032,7.032,0,0,1,.52-1.978l5.155-12.432a7.35,7.35,0,0,1,9.616-3.971l84.873,35.231a7.335,7.335,0,0,1,3.956,9.6Z" transform="translate(-176.73 -79.593)" fill="#ff725e"/>
      <path id="Path_6014" data-name="Path 6014" d="M342.409,132.252l-4.332,10.367-1.92-.794,1.848-4.447-5.357-2.224L330.8,139.6l-1.92-.809,4.332-10.353,1.935.794-1.762,4.346,5.357,2.224,1.776-4.332Z" transform="translate(-167.469 -74.283)" fill="#263238"/>
      <path id="Path_6015" data-name="Path 6015" d="M345.641,140.9l-6.209-2.57a2.585,2.585,0,0,0,1.776,2.888,3.075,3.075,0,0,0,2.5,0l.52,1.545a4.808,4.808,0,0,1-6.4-5.906,4.245,4.245,0,0,1,5.776-2.339,4.173,4.173,0,0,1,2.31,5.776Zm-5.7-3.812,4.476,1.863a2.325,2.325,0,0,0-1.444-2.888,2.368,2.368,0,0,0-3.032,1.025Z" transform="translate(-163.596 -71.766)" fill="#263238"/>
      <path id="Path_6016" data-name="Path 6016" d="M348.013,134.05l1.848.765L345.3,145.8l-1.848-.78Z" transform="translate(-161.002 -71.793)" fill="#263238"/>
      <path id="Path_6017" data-name="Path 6017" d="M350.968,135.28l1.848.765-4.548,10.988-1.848-.78Z" transform="translate(-159.683 -71.247)" fill="#263238"/>
      <path id="Path_6018" data-name="Path 6018" d="M350.166,142.111a4.563,4.563,0,1,1,2.527,5.776,4.332,4.332,0,0,1-2.527-5.776Zm6.555,2.715A2.541,2.541,0,1,0,353.4,146.2a2.54,2.54,0,0,0,3.321-1.372Z" transform="translate(-158.174 -69.545)" fill="#263238"/>
      <path id="Path_6019" data-name="Path 6019" d="M356.08,148.85a1.227,1.227,0,0,1,1.66-.635,1.213,1.213,0,0,1,.708,1.617,1.285,1.285,0,0,1-2.368-.982Zm3.956-9.27,2.195.91-3.249,6.772-1.444-.606Z" transform="translate(-155.424 -69.338)" fill="#263238"/>
      <rect id="Rectangle_183" data-name="Rectangle 183" width="116.812" height="7.09" transform="matrix(0.924, 0.383, -0.383, 0.924, 106.05, 104.249)" fill="#263238"/>
      <rect id="Rectangle_184" data-name="Rectangle 184" width="116.812" height="7.09" transform="matrix(0.924, 0.383, -0.383, 0.924, 99.062, 121.076)" fill="#263238"/>
      <rect id="Rectangle_185" data-name="Rectangle 185" width="116.812" height="7.09" transform="matrix(0.924, 0.383, -0.383, 0.924, 92.064, 137.905)" fill="#263238"/>
      <rect id="Rectangle_186" data-name="Rectangle 186" width="116.812" height="7.09" transform="matrix(0.924, 0.383, -0.383, 0.924, 85.076, 154.732)" fill="#263238"/>
      <rect id="Rectangle_187" data-name="Rectangle 187" width="116.812" height="7.09" transform="matrix(0.924, 0.383, -0.383, 0.924, 78.101, 171.579)" fill="#263238"/>
      <rect id="Rectangle_188" data-name="Rectangle 188" width="116.812" height="7.09" transform="matrix(0.924, 0.383, -0.383, 0.924, 71.118, 188.393)" fill="#263238"/>
      <path id="Path_6020" data-name="Path 6020" d="M397.636,278.888l-29.47,71A10.685,10.685,0,0,1,354.2,355.66L253,313.628a45.035,45.035,0,0,1,24.445-15.2c14.829-3.292,31.766.722,44.429-7.624,10.237-6.714,15.248-20.215,26.5-25.037,5.674-2.44,12.129-2.281,18.179-1.083A81.465,81.465,0,0,1,397.636,278.888Z" transform="translate(-201.153 -14.181)" fill="#ff725e" stroke="#263238" stroke-miterlimit="10" stroke-width="1"/>
      <path id="Path_6021" data-name="Path 6021" d="M323.2,121.572c-3.913,2.888-6.454,7.22-8.663,11.551-5.025,10.252-8.346,21.283-13.443,31.506s-12.389,19.911-22.742,24.734a29.773,29.773,0,0,1-9.154,2.541l38.7-93.117a10.67,10.67,0,0,1,13.963-5.776l24.705,10.252C344.586,112.129,331,115.941,323.2,121.572Z" transform="translate(-193.962 -90.374)" fill="#ff725e" stroke="#263238" stroke-miterlimit="10" stroke-width="1"/>
      <path id="Path_6022" data-name="Path 6022" d="M412.185,156.052l-5.155,12.432a7.349,7.349,0,0,1-9.6,3.971l-84.873-35.231a7.349,7.349,0,0,1-4.491-7.624c4.433,0,9.905,3.783,13.544,5.27q8.88,3.639,17.9,6.83c18.9,6.714,39.65,12.013,58.81,6.021a37.036,37.036,0,0,0,6.512-2.686l3.393,1.444A7.335,7.335,0,0,1,412.185,156.052Z" transform="translate(-176.73 -73.768)" opacity="0.1"/>
      <path id="Path_6023" data-name="Path 6023" d="M412.185,161.877l-5.155,12.432a7.349,7.349,0,0,1-9.6,3.971l-84.873-35.231a7.349,7.349,0,0,1-4.491-7.624,7.032,7.032,0,0,1,.52-1.978l5.155-12.432a7.35,7.35,0,0,1,9.616-3.971l84.873,35.231a7.335,7.335,0,0,1,3.956,9.6Z" transform="translate(-176.73 -79.593)" fill="none" stroke="#263238" stroke-miterlimit="10" stroke-width="1"/>
      <path id="Path_6024" data-name="Path 6024" d="M461.774,253.212s-21.153,15.71-28.171,20.749c0,0-34.018-21.76-46.089-33.065s-17.327-15.248-18.063-28.055c0,0-17.9,1.906-19.782-1.964a16.692,16.692,0,0,1,7.653-2.18s-8.331-2.4-8.346-5.444l16.692-.924s-18.771-2.816-18.6-4.548,23.1-4.418,29.282,0c0,0,7.393,13,10.425,21.846,0,0,22.958,20.6,46.826,25.326l8.663-9.227Z" transform="translate(-159.395 -44.571)" fill="#fff"/>
      <path id="Path_6025" data-name="Path 6025" d="M442.283,235.763l-8.663,9.227s-30.394-7.941-46.826-25.326c0,0-6.9-17.327-10.425-21.846s-30.7-1.993-29.282,0S363.807,203,363.807,203" transform="translate(-159.411 -44.608)" fill="none" stroke="#263238" stroke-linecap="round" stroke-linejoin="round" stroke-width="1"/>
      <path id="Path_6026" data-name="Path 6026" d="M460.957,248.519s-14.324,13.89-28.113,21.659c0,0-35.188-19.738-52.587-39.808l-1.574-1.083a23.016,23.016,0,0,1-9.992-20.215h0a27.521,27.521,0,0,1-18.973-1.083c-.39-.173-.837-.448-.809-.881a1,1,0,0,1,.52-.693c1.949-1.256,4.808-1.444,7.133-1.444,4.332-.2,8.36-1.444,12.663-.65" transform="translate(-158.578 -40.716)" fill="none" stroke="#263238" stroke-linecap="round" stroke-linejoin="round" stroke-width="1"/>
      <path id="Path_6027" data-name="Path 6027" d="M370.811,200.854l-5.776-.116-15.58-.289c-.433,0-1.011.116-1.025.549a.794.794,0,0,0,.245.52,15.882,15.882,0,0,0,4.5,3.35,14.855,14.855,0,0,0,2.888,1.444" transform="translate(-158.791 -42.317)" fill="none" stroke="#263238" stroke-linecap="round" stroke-linejoin="round" stroke-width="1"/>
      <path id="Path_6028" data-name="Path 6028" d="M397.531,252.76S393.7,275.79,409,279.79" transform="translate(-137.184 -19.097)" fill="none" stroke="#fff" stroke-linecap="round" stroke-linejoin="round" stroke-width="1"/>
      <path id="Path_6029" data-name="Path 6029" d="M374.66,307.249s14.194-.953,25.312,4.649" transform="translate(-147.147 5.064)" fill="none" stroke="#fff" stroke-linecap="round" stroke-linejoin="round" stroke-width="1"/>
      <path id="Path_6030" data-name="Path 6030" d="M364.883,288.794a86.279,86.279,0,0,0-8.043-5.314" transform="translate(-155.058 -5.46)" fill="none" stroke="#fff" stroke-linecap="round" stroke-linejoin="round" stroke-width="1"/>
      <path id="Path_6031" data-name="Path 6031" d="M400,161.479a54.868,54.868,0,0,1,15.782.751" transform="translate(-135.899 -59.731)" fill="none" stroke="#263238" stroke-linecap="round" stroke-linejoin="round" stroke-width="1"/>
      <path id="Path_6032" data-name="Path 6032" d="M444.57,169.47s16.331,21.4,20.417,37.729c0,0-6.8,38.985-20.417,59.908,0,0-16.908-.448-33.21-24.055A215.369,215.369,0,0,1,434.145,213.1" transform="translate(-130.856 -56.07)" fill="none" stroke="#263238" stroke-linecap="round" stroke-linejoin="round" stroke-width="1"/>
      <line id="Line_27" data-name="Line 27" y1="4.303" x2="4.938" transform="translate(267.957 229.389)" fill="none" stroke="#263238" stroke-linecap="round" stroke-linejoin="round" stroke-width="1"/>
      <path id="Path_6033" data-name="Path 6033" d="M419.66,175.28a9.559,9.559,0,0,0,9.891,3.047c6.007-1.848,11.32-21.326,11.32-21.326S430.764,171.656,419.66,175.28Z" transform="translate(-127.172 -61.605)" fill="#263238"/>
    </g>
    <g id="freepik--Device--inject-16" transform="translate(240.316 169.447)">
      <path id="Path_6034" data-name="Path 6034" d="M383.976,151.892V510.934a14.612,14.612,0,0,1-14.612,14.612H190.492a14.583,14.583,0,0,1-14.612-14.612V151.892a14.612,14.612,0,0,1,14.612-14.612H369.537a14.612,14.612,0,0,1,14.439,14.612Z" transform="translate(-175.88 -137.28)" fill="#263238"/>
      <path id="Path_6035" data-name="Path 6035" d="M388.168,151.892V510.934a14.612,14.612,0,0,1-14.612,14.612H194.511A14.583,14.583,0,0,1,180,510.934V151.892a14.612,14.612,0,0,1,14.612-14.612H373.657a14.612,14.612,0,0,1,14.511,14.612Z" transform="translate(-174.051 -137.28)" fill="#263238"/>
      <line id="Line_28" data-name="Line 28" x2="48.371" transform="translate(80.801 16.042)" fill="none" stroke="#fff" stroke-linecap="round" stroke-linejoin="round" stroke-width="2"/>
      <path id="Path_6036" data-name="Path 6036" d="M382.2,151.892V510.934a14.612,14.612,0,0,1-14.612,14.612H188.721a14.684,14.684,0,0,1-8.851-2.974L336,137.28h31.622A14.612,14.612,0,0,1,382.2,151.892Z" transform="translate(-174.109 -137.28)" fill="#fff" opacity="0.1"/>
      <path id="Path_6037" data-name="Path 6037" d="M383.976,151.892V510.934a14.612,14.612,0,0,1-14.612,14.612H190.492a14.583,14.583,0,0,1-14.612-14.612V151.892a14.612,14.612,0,0,1,14.612-14.612H369.537a14.612,14.612,0,0,1,14.439,14.612Z" transform="translate(-175.88 -137.28)" fill="none" stroke="#263238" stroke-miterlimit="10" stroke-width="1"/>
      <rect id="Rectangle_189" data-name="Rectangle 189" width="184.488" height="330.149" rx="12.81" transform="translate(11.927 25.297)" fill="#fff" stroke="#263238" stroke-miterlimit="10" stroke-width="1"/>
      <path id="Path_6038" data-name="Path 6038" d="M258.97,398.2a8.663,8.663,0,1,1-2.537-6.2,8.75,8.75,0,0,1,2.537,6.2Z" transform="translate(-146.764 -25.336)" fill="#263238"/>
      <path id="Path_6039" data-name="Path 6039" d="M289.33,405.836v-15.8l15.8,7.9Z" transform="translate(-125.519 -25.078)" fill="#263238"/>
      <rect id="Rectangle_190" data-name="Rectangle 190" width="14.338" height="14.338" transform="translate(29.672 365.842)" fill="#263238"/>
      <path id="Path_6040" data-name="Path 6040" d="M293.395,216.7l-2.253-4.967-6.021,1.054-.419,5.472A23.45,23.45,0,0,0,279.519,221l-4.779-2.888-4.231,4.332,2.888,4.808a23.969,23.969,0,0,0-3.74,9.169l-5.487,1.328v6.137l5.53,1.444a23.1,23.1,0,0,0,1.718,5.429l-3.725,4.332,3.451,4.953,5.314-2.036a25.462,25.462,0,0,0,4.505,3.465l-.578,5.776,5.675,2.065,3.205-4.722a23.1,23.1,0,0,0,3.985.347,16.664,16.664,0,0,0,1.7,0l2.772,4.953,5.848-1.574-.087-5.6a24.039,24.039,0,0,0,4.909-3.09l5.039,2.426,3.913-4.88-3.22-4.491a23.1,23.1,0,0,0,2.281-5.415l5.429-.9.52-6.021-5.111-1.834a23.447,23.447,0,0,0-1.343-5.776l3.87-3.8-3.032-5.241-5.212,1.444a23.894,23.894,0,0,0-4.332-3.985l.982-5.314-5.487-2.556-3.437,4.173A24.113,24.113,0,0,0,293.395,216.7Zm-.1,8.952a15.1,15.1,0,1,1-15.1,15.1,15.1,15.1,0,0,1,15.1-15.1Z" transform="translate(-136.688 -104.231)" fill="#263238"/>
      <path id="Path_6041" data-name="Path 6041" d="M295.2,214.461l-2.267-4.981-6.007,1.054-.419,5.487a24.459,24.459,0,0,0-5.2,2.729l-4.765-2.888-4.245,4.332,2.888,4.794a24.085,24.085,0,0,0-3.754,9.169l-5.472,1.328v6.05l5.516,1.444a24.14,24.14,0,0,0,1.733,5.444l-3.74,4.332,3.465,4.953,5.314-2.021a25.1,25.1,0,0,0,4.5,3.465l-.578,5.689,5.675,2.079,3.205-4.722a22.973,22.973,0,0,0,3.985.347,13.455,13.455,0,0,0,1.7-.072l2.758,4.967,5.848-1.574-.072-5.617a24.778,24.778,0,0,0,4.909-3.076l5.039,2.411,3.884-4.62-3.22-4.491a23.8,23.8,0,0,0,2.281-5.415l5.429-.91.52-6.021-5.155-1.906a24.358,24.358,0,0,0-1.328-5.776l3.87-3.8-3.032-5.241-5.212,1.444a23.1,23.1,0,0,0-4.332-3.985l.982-5.328-5.472-2.556L301,215.169a24.213,24.213,0,0,0-5.8-.708Zm-.115,8.952a15.1,15.1,0,1,1-15.1,15.1A15.1,15.1,0,0,1,295.084,223.414Z" transform="translate(-135.893 -105.23)" fill="#ff725e" stroke="#263238" stroke-miterlimit="10" stroke-width="1"/>
      <path id="Path_6042" data-name="Path 6042" d="M238.276,182.016l-3.624-7.956-9.616,1.675-.679,8.765a38.091,38.091,0,0,0-8.3,4.332l-7.638-4.519L201.63,191.3l4.577,7.682a38.437,38.437,0,0,0-5.992,14.67l-8.764,2.137v9.674l8.822,2.238a37.759,37.759,0,0,0,2.772,8.663l-5.978,6.916,5.53,7.941,8.5-3.249a39.653,39.653,0,0,0,7.22,5.545l-.939,9.111,9.082,3.321,5.126-7.552a37.826,37.826,0,0,0,6.382.549,24.368,24.368,0,0,0,2.729-.1l4.418,7.927,9.371-2.512-.13-8.967a39.274,39.274,0,0,0,7.855-4.938l8.057,3.87,6.209-7.407-5.14-7.22a37.541,37.541,0,0,0,3.653-8.663l8.663-1.444.837-9.631-8.187-2.888a38.553,38.553,0,0,0-2.137-9.284l6.194-6.079-4.852-8.389-8.346,2.3a38.266,38.266,0,0,0-7.017-6.382l1.574-8.5-8.765-4.086-5.516,6.685a37.846,37.846,0,0,0-9.169-1.213ZM238.1,204.3a16.143,16.143,0,1,1-16.143,16.143A16.143,16.143,0,0,1,238.1,204.3Z" transform="translate(-168.968 -120.953)" fill="#263238"/>
      <path id="Path_6043" data-name="Path 6043" d="M285.351,323.413l-2.7-5.963-7.22,1.271-.52,6.541a28.575,28.575,0,0,0-6.194,3.278l-5.776-3.364-5.068,5.126,3.408,5.776a28.719,28.719,0,0,0-4.476,10.988l-6.555,1.588v7.22l6.6,1.675a28.024,28.024,0,0,0,2.065,6.512l-4.462,5.169,4.13,5.934,6.368-2.44a30.121,30.121,0,0,0,5.386,4.159l-.693,6.8,6.786,2.484,3.841-5.646a29.371,29.371,0,0,0,4.765.419,16.13,16.13,0,0,0,2.05-.087l3.307,5.934,6.989-1.877-.087-6.714a28.457,28.457,0,0,0,5.862-3.7l6.036,2.888,4.649-5.53-3.855-5.386A27.748,27.748,0,0,0,312.728,360l6.483-1.083.621-7.22-6.122-2.18a29.386,29.386,0,0,0-1.588-6.945l4.621-4.548-3.624-6.267-6.238,1.718a28.3,28.3,0,0,0-5.241-4.765l1.17-6.368-6.555-3.061-4.115,5a28.373,28.373,0,0,0-6.786-.866Zm-.13,16.706A12.071,12.071,0,1,1,273.15,352.19,12.071,12.071,0,0,1,285.221,340.119Z" transform="translate(-142.867 -57.302)" fill="#263238"/>
      <path id="Path_6044" data-name="Path 6044" d="M287.108,320.423l-2.715-5.963-7.22,1.256-.505,6.555a29.025,29.025,0,0,0-6.209,3.278l-5.7-3.364-5.083,5.126,3.422,5.776a28.979,28.979,0,0,0-4.491,10.988l-6.555,1.588v7.22l6.613,1.675a28.022,28.022,0,0,0,2.065,6.512l-4.418,5.14,4.144,5.934,6.353-2.44a30.739,30.739,0,0,0,5.386,4.159l-.693,6.8,6.786,2.484,3.841-5.646a29.219,29.219,0,0,0,4.765.419,15.794,15.794,0,0,0,2.036-.087l3.307,5.934,7-1.877-.087-6.714a28.878,28.878,0,0,0,5.862-3.7l6.036,2.888,4.635-5.53-3.841-5.386a27.965,27.965,0,0,0,2.729-6.469l6.5-1.083.621-7.22-6.18-2.151a28.722,28.722,0,0,0-1.6-6.945l4.635-4.548-3.624-6.267-6.238,1.718a28.5,28.5,0,0,0-5.256-4.779l1.184-6.353-6.555-3.061-4.115,5a28.372,28.372,0,0,0-6.83-.866Zm-.13,16.706A12.071,12.071,0,1,1,274.907,349.2,12.071,12.071,0,0,1,286.978,337.129Z" transform="translate(-142.068 -58.629)" fill="#ff725e" stroke="#263238" stroke-miterlimit="10" stroke-width="1"/>
      <path id="Path_6045" data-name="Path 6045" d="M318.163,302.447v-9.039a15.1,15.1,0,0,1-12.316-17.442c1.1-6.3,6.021-12.75,12.316-13.833V249.6l-5.559.982-.433,5.458a24.459,24.459,0,0,0-5.184,2.758l-4.765-2.888-4.274,4.375,2.888,4.808a23.9,23.9,0,0,0-3.74,9.183L291.61,275.6v6.05l5.516,1.328a23.911,23.911,0,0,0,1.733,5.444l-3.754,4.332,3.48,4.938,5.314-2.036a23.911,23.911,0,0,0,4.505,3.48l-.578,5.7,5.675,2.065,3.205-4.707a6.989,6.989,0,0,0,1.458.245Z" transform="translate(-124.507 -87.42)" fill="#263238"/>
      <path id="Path_6046" data-name="Path 6046" d="M232.248,260.463l-5.415-6.555-8.663,4.014,1.545,8.346a37.817,37.817,0,0,0-6.887,6.266l-8.115-2.252-4.765,8.23,6.079,5.963a37.947,37.947,0,0,0-2.094,9.111l-8.043,2.888.823,9.458,8.519,1.444a36.644,36.644,0,0,0,3.581,8.49l-5.054,7.061,6.108,7.22,7.913-3.8a37.77,37.77,0,0,0,7.7,4.852l-.116,8.808,9.183,2.455,4.332-7.783a23.609,23.609,0,0,0,2.686.1,36.308,36.308,0,0,0,6.252-.534l5.039,7.407,8.909-3.249-.91-8.938a39.852,39.852,0,0,0,7.075-5.458l8.346,3.205,5.429-7.8-5.862-6.786a37.655,37.655,0,0,0,2.715-8.533l8.663-2.195v-9.5l-8.663-2.079a37.643,37.643,0,0,0-5.891-14.439l4.491-7.537-6.656-6.729L263,266.051a37.887,37.887,0,0,0-8.144-4.332l-.664-8.663-9.443-1.646-3.552,7.811A37.947,37.947,0,0,0,232.248,260.463Zm9.183,12.909a23.709,23.709,0,1,1-16.779,6.944,23.723,23.723,0,0,1,16.779-6.944Z" transform="translate(-166.997 -86.617)" fill="#263238"/>
      <path id="Path_6047" data-name="Path 6047" d="M229.025,258.653l-5.415-6.555-8.663,4.014,1.545,8.346a36.874,36.874,0,0,0-6.887,6.267l-8.187-2.253-4.765,8.216,6.079,5.978a37.832,37.832,0,0,0-2.094,9.1l-8.028,2.888.809,9.458,8.519,1.444a36.587,36.587,0,0,0,3.6,8.49l-5.054,7.061,6.093,7.22,7.913-3.8a38.108,38.108,0,0,0,7.7,4.837l-.116,8.808,9.183,2.469,4.332-7.783a23.329,23.329,0,0,0,2.671.1,36.323,36.323,0,0,0,6.252-.549l5.039,7.422,8.909-3.263-.91-8.938a39.111,39.111,0,0,0,7.075-5.443l8.346,3.191,5.429-7.783-5.8-6.772a37.654,37.654,0,0,0,2.715-8.533l8.663-2.195v-9.486l-8.663-2.094a37.541,37.541,0,0,0-5.891-14.439l4.491-7.537-6.656-6.729-7.494,4.433a36.327,36.327,0,0,0-8.144-4.332l-.664-8.663L241.5,249.6l-3.552,7.812a37.228,37.228,0,0,0-8.923,1.242Zm9.183,12.909A23.723,23.723,0,1,1,214.5,295.276,23.723,23.723,0,0,1,238.209,271.562Z" transform="translate(-168.453 -87.421)" fill="#ff725e" stroke="#263238" stroke-miterlimit="10" stroke-width="1"/>
      <path id="Path_6048" data-name="Path 6048" d="M186.541,392.657l5.039,7.378,8.909-3.234-.924-8.952a37.613,37.613,0,0,0,7.09-5.443L215,385.6l5.444-7.768-5.877-6.786a36.924,36.924,0,0,0,2.7-8.562l8.663-2.079v-9.5l-8.663-2.094a37.542,37.542,0,0,0-5.891-14.439l4.447-7.566-6.729-6.7-7.494,4.447a37.209,37.209,0,0,0-8.129-4.332l-.679-8.591-8.663-1.545v22.092a23.709,23.709,0,0,1,0,46.71v14.194a10.207,10.207,0,0,0,2.411-.419Z" transform="translate(-172.218 -60.573)" fill="#263238"/>
      <path id="Path_6049" data-name="Path 6049" d="M186.541,388.767l5.039,7.393,8.909-3.249-.924-8.952a37.613,37.613,0,0,0,7.09-5.444L215,381.706l5.444-7.768-5.877-6.786a36.92,36.92,0,0,0,2.7-8.562l8.663-2.079v-9.5l-8.663-2.094a37.541,37.541,0,0,0-5.891-14.439l4.447-7.566-6.729-6.7-7.494,4.447a37.848,37.848,0,0,0-8.129-4.332l-.679-8.591-8.663-1.545v22.092a23.709,23.709,0,0,1,0,46.71v14.194a10.21,10.21,0,0,0,2.411-.419Z" transform="translate(-172.218 -62.3)" fill="#ff725e" stroke="#263238" stroke-miterlimit="10" stroke-width="1"/>
      <path id="Path_6050" data-name="Path 6050" d="M236.476,179.576l-3.61-7.956-9.616,1.675-.679,8.779a38,38,0,0,0-8.3,4.332L206.63,181.9l-6.786,6.844,4.577,7.682a38.624,38.624,0,0,0-6.007,14.728l-8.765,2.123v9.689l8.822,2.224a38.236,38.236,0,0,0,2.772,8.663l-5.978,6.916,5.53,7.941,8.519-3.263a39.622,39.622,0,0,0,7.22,5.559l-.939,9.1,9.082,3.321,5.14-7.552a37.713,37.713,0,0,0,6.382.563,21.228,21.228,0,0,0,2.715-.116l4.433,7.941,9.357-2.512-.13-8.981a38.248,38.248,0,0,0,7.855-4.938l8.057,3.87,6.223-7.393-5.14-7.162a37.815,37.815,0,0,0,3.667-8.663l8.663-1.444.823-9.645-8.187-2.888a38.564,38.564,0,0,0-2.123-9.27l6.18-6.093-4.852-8.375-8.331,2.3a38.22,38.22,0,0,0-7.017-6.382l1.574-8.519-8.779-4.086-5.5,6.685A37.96,37.96,0,0,0,236.476,179.576Zm-.116,22.352a16.128,16.128,0,1,1-11.419,4.724A16.143,16.143,0,0,1,236.36,201.928Z" transform="translate(-169.767 -122.036)" fill="#ff725e" stroke="#263238" stroke-miterlimit="10" stroke-width="1"/>
      <path id="Path_6051" data-name="Path 6051" d="M320.091,300.847v-9.039a15.089,15.089,0,0,1,0-29.744V248l-5.559.982-.433,5.472a23.767,23.767,0,0,0-5.184,2.743l-4.765-2.888-4.332,4.332,2.888,4.808a23.838,23.838,0,0,0-3.74,9.169l-5.487,1.343V280L299,281.34a24.143,24.143,0,0,0,1.733,5.444l-3.754,4.332,3.48,4.953,5.314-2.036a23.841,23.841,0,0,0,4.5,3.465l-.578,5.776,5.675,2.065,3.205-4.707A5.631,5.631,0,0,0,320.091,300.847Z" transform="translate(-123.677 -88.131)" fill="#ff725e" stroke="#263238" stroke-miterlimit="10" stroke-width="1"/>
      <circle id="Ellipse_289" data-name="Ellipse 289" cx="23.42" cy="23.42" r="23.42" transform="translate(43 72.614)" fill="none" stroke="#fff" stroke-miterlimit="10" stroke-width="1"/>
      <circle id="Ellipse_290" data-name="Ellipse 290" cx="30.625" cy="30.625" r="30.625" transform="translate(38.509 177.225)" fill="none" stroke="#fff" stroke-miterlimit="10" stroke-width="1"/>
      <circle id="Ellipse_291" data-name="Ellipse 291" cx="18.496" cy="18.496" r="18.496" transform="translate(126.313 271.988)" fill="none" stroke="#263238" stroke-miterlimit="10" stroke-width="1"/>
    </g>
    <g id="freepik--character-1--inject-16" transform="translate(30.724 88.477)">
      <path id="Path_6052" data-name="Path 6052" d="M107.976,179.044c4.62,3.119,9.8,5.545,13.674,9.559a27.694,27.694,0,0,1,7.22,17.818,47.533,47.533,0,0,1-3.552,19.161,24.142,24.142,0,0,1-6.007,9.79,20.763,20.763,0,0,1-9.847,4.418,43.865,43.865,0,0,1-21.081-1.271,36.459,36.459,0,0,1-16.114-9.27,42.061,42.061,0,0,1-7.884-12.663,74.636,74.636,0,0,1-5.906-22.337,131.741,131.741,0,0,1,.419-22.381l1.444-18.439c.26-3.35-.13-12.028,4.1-13.414,3.494-1.141,8.909,4.664,11.262,6.772,7.349,6.613,13.356,14.54,20.215,21.659a74.866,74.866,0,0,0,12.057,10.6Z" transform="translate(-18.532 -55.161)" fill="#263238"/>
      <path id="Path_6053" data-name="Path 6053" d="M91.908,187.537s17.2,1.271,25.9-4.144,28.445,16.648,28.445,16.648l-6.8,115.426s-17.327,3.668-27.968-1.444-15.883-4.837-18.5-10.93-2.6-16.229-13.63-25.037-11.046-13.4-14.439-18.958S50.482,245.784,49.7,239.633s.39-21.659.39-21.659l21.067-16.417S76.314,183.393,91.908,187.537Z" transform="translate(-22.418 -36.22)" fill="#ff725e"/>
      <path id="Path_6054" data-name="Path 6054" d="M94.749,205.011a93.464,93.464,0,0,0,4.75,22.279A56.5,56.5,0,0,0,73.35,234.51a101.506,101.506,0,0,0,22.6,24.388,14.757,14.757,0,0,1,8.187-5.241c1.256-.3,2.541-.419,3.754-.837a13.993,13.993,0,0,0,3.234-1.66,42.465,42.465,0,0,0,18.958-34,53.641,53.641,0,0,0-5.2-23.1c-2.686-5.906-6.772-11.927-13-13.5a21.658,21.658,0,0,0-10.107.448c-2.57.578-6.353,1.069-8.663,2.512-3.494,2.238-2.512,1.444-1.357,5.342A77.6,77.6,0,0,1,94.749,205.011Z" transform="translate(-11.802 -37.277)" opacity="0.1"/>
      <path id="Path_6055" data-name="Path 6055" d="M85.809,147.48s9.1,15.724,11.753,23.391a43.216,43.216,0,0,1,1.444,19.334,36.2,36.2,0,0,0,4.13,11.9l5.573.982s7.725,16.215,8.187,40.126c0,0-13.168-16.663-22.294-21.023s-7.22-3.884-7.22-3.884-7.451-13.14-11.349-17.154-20.749,9.082-20.749,9.082l-17.645-28L46.3,165.919l11.753-9.111,11.479-9.328Z" transform="translate(-27.654 -51.782)" fill="#fff"/>
      <path id="Path_6056" data-name="Path 6056" d="M121.793,431.49a37.137,37.137,0,0,0,23.695,13.919c2.18.318,4.938.144,5.848-1.863a4.938,4.938,0,0,0,.159-2.888c-2.108-12.5-14.064-20.648-20.475-31.578-1.819-3.09-4.216-11.075-8.173-10.512-1.79.26-6.757,5.776-7.667,7.451C111.34,413.528,117.26,425.613,121.793,431.49Z" transform="translate(6.218 59.665)" fill="#fff" stroke="#263238" stroke-miterlimit="10" stroke-width="1"/>
      <path id="Path_6057" data-name="Path 6057" d="M114.8,403.75s.967,13.717,9.689,21.659,11.075,12.5,26.626,12.923" transform="translate(6.598 61.978)" fill="#fff" stroke="#263238" stroke-miterlimit="10" stroke-width="1"/>
      <path id="Path_6058" data-name="Path 6058" d="M147.193,387.842s-2.729,15.565,3.191,23.406,11.84,6.165,21.4,7.913c6.353,1.17,11.652,5.7,18.4,4.029,6.064-1.444,2.281-5.891-.592-8.3-6.368-5.314-13.89-9.125-20.3-14.439-11.161-9.183-9.2-17.327-9.2-17.327Z" transform="translate(20.699 52.82)" fill="#fff" stroke="#263238" stroke-miterlimit="10" stroke-width="1"/>
      <path id="Path_6059" data-name="Path 6059" d="M147.75,399.89c2.556,1.661,3.971,3.8,6.642,5.285,3.841,2.137,8.49,1.819,12.851,2.252a36.346,36.346,0,0,1,7.552,1.545,44.3,44.3,0,0,0,7.97,2.339,14.079,14.079,0,0,0,7.9-1.343" transform="translate(21.225 60.264)" fill="none" stroke="#263238" stroke-miterlimit="10" stroke-width="1"/>
      <path id="Path_6060" data-name="Path 6060" d="M95.119,273.62s-11.335,37.975,0,77.624.578,64.037,25.5,113.332c0,0,11.667,9.631,19.724-4.534,0,0-2.3-54.969-6.194-67.993s12.836-41.483,7.306-68.614a211.186,211.186,0,0,0-17.428-49.815S105.327,277.591,95.119,273.62Z" transform="translate(-4.375 4.212)" fill="#263238"/>
      <path id="Path_6061" data-name="Path 6061" d="M132.21,346.016s8.3,55.157,18.67,75.906c0,0,12.028,8.663,19.493-2.5,0,0,.837-91.659-6.642-98.705S132.21,346.016,132.21,346.016Z" transform="translate(14.327 24.674)" fill="#263238"/>
      <path id="Path_6062" data-name="Path 6062" d="M283.939,91.783l49.093,324.489a12.446,12.446,0,0,1-10.454,14.165L146.421,457.062a12.4,12.4,0,0,1-14.165-10.439L83.163,122.148A12.461,12.461,0,0,1,93.6,107.969L269.759,81.343a12.446,12.446,0,0,1,12.562,5.949,12.186,12.186,0,0,1,1.617,4.491Z" transform="translate(-7.508 -81.203)" fill="#fff"/>
      <rect id="Rectangle_191" data-name="Rectangle 191" width="23.334" height="2.007" transform="translate(238.482 36.945) rotate(-8.6)" fill="#263238"/>
      <rect id="Rectangle_192" data-name="Rectangle 192" width="23.334" height="2.007" transform="translate(237.624 31.246) rotate(-8.6)" fill="#263238"/>
      <rect id="Rectangle_193" data-name="Rectangle 193" width="23.364" height="2.01" transform="translate(237.165 25.579) rotate(-8.616)" fill="#263238"/>
      <path id="Path_6063" data-name="Path 6063" d="M256.631,253.074l2.339,15.479a8.562,8.562,0,0,1-7.219,9.746L145.985,294.283a8.577,8.577,0,0,1-9.746-7.22L133.9,271.57a8.562,8.562,0,0,1,7.22-9.746L246.871,245.84a8.562,8.562,0,0,1,9.761,7.234Z" transform="translate(15.034 -8.163)" fill="#ff725e"/>
      <path id="Path_6064" data-name="Path 6064" d="M169.337,261.27l-1.632,9.559-1.8.274-3.263-6.4-1.271,7.09-1.8.274-4.332-8.663,1.747-.274,3.307,6.584,1.314-7.22,1.559-.245,3.292,6.57,1.285-7.306Z" transform="translate(24.545 -1.27)" fill="#263238"/>
      <path id="Path_6065" data-name="Path 6065" d="M172.875,265.895l-5.444.823a2.137,2.137,0,0,0,2.5,1.328,2.556,2.556,0,0,0,1.776-1.054l1.025.881a3.956,3.956,0,0,1-7-1.444,3.494,3.494,0,0,1,3.047-4.1,3.436,3.436,0,0,1,4.057,3.061C172.846,265.534,172.86,265.736,172.875,265.895Zm-5.631-.26,3.942-.592a1.906,1.906,0,0,0-2.209-1.444,1.964,1.964,0,0,0-1.733,2.036Z" transform="translate(29.18 -0.826)" fill="#263238"/>
      <path id="Path_6066" data-name="Path 6066" d="M171.06,260.075l1.632-.245,1.444,9.66-1.632.245Z" transform="translate(31.572 -1.909)" fill="#263238"/>
      <path id="Path_6067" data-name="Path 6067" d="M173.924,265.213a3.566,3.566,0,0,1,3.234-4.13,3.176,3.176,0,0,1,3.205,1.169l-1.141.924a1.993,1.993,0,0,0-1.877-.708,2.195,2.195,0,0,0,.664,4.332,1.964,1.964,0,0,0,1.574-1.227l1.357.534a3.177,3.177,0,0,1-2.715,2.079,3.566,3.566,0,0,1-4.3-2.974Z" transform="translate(32.823 -1.386)" fill="#263238"/>
      <path id="Path_6068" data-name="Path 6068" d="M179.1,264.5a3.74,3.74,0,1,1,4.231,3,3.538,3.538,0,0,1-4.231-3Zm5.776-.881a2.094,2.094,0,1,0-1.747,2.484,2.036,2.036,0,0,0,1.733-2.484Z" transform="translate(35.112 -1.803)" fill="#263238"/>
      <path id="Path_6069" data-name="Path 6069" d="M196.96,261.448l.592,3.985-1.617.245-.578-3.769c-.188-1.242-.852-1.747-1.834-1.6a1.8,1.8,0,0,0-1.444,2.354l.534,3.523L191,266.43l-.578-3.769c-.188-1.242-.852-1.747-1.834-1.6a1.8,1.8,0,0,0-1.444,2.354l.52,3.523-1.617.245-1.054-6.945,1.545-.231.144.881a2.888,2.888,0,0,1,2.123-1.3,2.613,2.613,0,0,1,2.512.809,3.321,3.321,0,0,1,2.426-1.559,2.715,2.715,0,0,1,3.22,2.613Z" transform="translate(37.756 -2.372)" fill="#263238"/>
      <path id="Path_6070" data-name="Path 6070" d="M201.6,261.555l-5.458.823a2.123,2.123,0,0,0,2.5,1.314,2.484,2.484,0,0,0,1.776-1.04l1.025.881a3.956,3.956,0,0,1-7-1.444,3.494,3.494,0,0,1,3.061-4.1,3.422,3.422,0,0,1,4.043,3.061A4.59,4.59,0,0,1,201.6,261.555Zm-5.631-.26,3.942-.592a2.021,2.021,0,0,0-3.942.592Z" transform="translate(41.924 -2.753)" fill="#263238"/>
      <rect id="Rectangle_194" data-name="Rectangle 194" width="167.638" height="2.993" transform="translate(135.854 317.049) rotate(-8.616)" fill="#263238"/>
      <rect id="Rectangle_195" data-name="Rectangle 195" width="167.421" height="2.989" transform="translate(136.658 324.669) rotate(-8.6)" fill="#263238"/>
      <rect id="Rectangle_196" data-name="Rectangle 196" width="167.421" height="2.989" transform="translate(137.89 332.712) rotate(-8.6)" fill="#263238"/>
      <rect id="Rectangle_197" data-name="Rectangle 197" width="167.638" height="2.993" transform="translate(139.527 341.239) rotate(-8.616)" fill="#263238"/>
      <path id="Path_6071" data-name="Path 6071" d="M255.883,253.075l2.339,15.479A8.562,8.562,0,0,1,251,278.3L145.236,294.284a8.577,8.577,0,0,1-9.746-7.22v-.173c19.464.217,87.414-1.863,109.26-40.848l1.357-.2a8.562,8.562,0,0,1,9.775,7.234Z" transform="translate(15.783 -8.163)" opacity="0.1"/>
      <path id="Path_6072" data-name="Path 6072" d="M256.631,253.074l2.339,15.479a8.562,8.562,0,0,1-7.219,9.746L145.985,294.283a8.577,8.577,0,0,1-9.746-7.22L133.9,271.57a8.562,8.562,0,0,1,7.22-9.746L246.871,245.84a8.562,8.562,0,0,1,9.761,7.234Z" transform="translate(15.034 -8.163)" fill="none" stroke="#263238" stroke-linecap="round" stroke-linejoin="round" stroke-width="1"/>
      <path id="Path_6073" data-name="Path 6073" d="M167.681,235.009a2.57,2.57,0,1,1-2.888-2.151,2.57,2.57,0,0,1,2.888,2.151Z" transform="translate(27.804 -13.894)" fill="#263238"/>
      <path id="Path_6074" data-name="Path 6074" d="M176.063,233.739a2.556,2.556,0,1,1-2.888-2.151,2.556,2.556,0,0,1,2.888,2.151Z" transform="translate(31.536 -14.457)" fill="#263238"/>
      <path id="Path_6075" data-name="Path 6075" d="M184.471,232.469a2.57,2.57,0,1,1-2.888-2.151,2.57,2.57,0,0,1,2.888,2.151Z" transform="translate(35.257 -15.021)" fill="#263238"/>
      <rect id="Rectangle_198" data-name="Rectangle 198" width="91.847" height="12.533" rx="3.74" transform="translate(94.561 47.045) rotate(-8.6)" fill="#fff" stroke="#263238" stroke-miterlimit="10" stroke-width="1"/>
      <line id="Line_29" data-name="Line 29" x1="0.939" y1="6.18" transform="translate(103.061 49.089)" fill="none" stroke="#263238" stroke-linecap="round" stroke-linejoin="round" stroke-width="1"/>
      <rect id="Rectangle_199" data-name="Rectangle 199" width="167.146" height="142.513" transform="translate(99.744 81.329) rotate(-8.6)" fill="#ff725e"/>
      <rect id="Rectangle_200" data-name="Rectangle 200" width="167.146" height="142.513" transform="translate(99.744 81.329) rotate(-8.6)" fill="#fff" opacity="0.5"/>
      <rect id="Rectangle_201" data-name="Rectangle 201" width="167.146" height="142.513" transform="translate(99.744 81.329) rotate(-8.6)" fill="none" stroke="#263238" stroke-miterlimit="10" stroke-width="1"/>
      <circle id="Ellipse_292" data-name="Ellipse 292" cx="16.143" cy="16.143" r="16.143" transform="translate(217.335 96.483) rotate(-53.93)" fill="#ff725e" stroke="#263238" stroke-miterlimit="10" stroke-width="1"/>
      <path id="Path_6076" data-name="Path 6076" d="M270.271,163.68l11.811,78.187-165.269,24.98-7.393-48.891c5.054-11.551,12.576-24.85,21.355-28.734,16.3-7.22,33.065,40.819,63.979,32.979S231.459,164.027,270.271,163.68Z" transform="translate(4.21 -44.591)" fill="#ff725e"/>
      <path id="Path_6077" data-name="Path 6077" d="M270.271,163.68l11.811,78.187-165.269,24.98-7.393-48.891c5.054-11.551,12.576-24.85,21.355-28.734,16.3-7.22,33.065,40.819,63.979,32.979S231.459,164.027,270.271,163.68Z" transform="translate(4.21 -44.591)" opacity="0.1"/>
      <path id="Path_6078" data-name="Path 6078" d="M270.271,163.68l11.811,78.187-165.269,24.98-7.393-48.891c5.054-11.551,12.576-24.85,21.355-28.734,16.3-7.22,33.065,40.819,63.979,32.979S231.459,164.027,270.271,163.68Z" transform="translate(4.21 -44.591)" fill="none" stroke="#263238" stroke-miterlimit="10" stroke-width="1"/>
      <path id="Path_6079" data-name="Path 6079" d="M267.257,89.919,316.35,414.408A12.446,12.446,0,0,1,305.9,428.573L129.74,455.2a12.418,12.418,0,0,1-9.14-2.18C159.86,418.206,283.617,291.113,265.655,85.4a12.186,12.186,0,0,1,1.6,4.519Z" transform="translate(9.173 -79.34)" opacity="0.1"/>
      <path id="Path_6080" data-name="Path 6080" d="M283.939,91.783l49.093,324.489a12.446,12.446,0,0,1-10.454,14.165L146.421,457.062a12.4,12.4,0,0,1-14.165-10.439L83.163,122.148A12.461,12.461,0,0,1,93.6,107.969L269.759,81.343a12.446,12.446,0,0,1,12.562,5.949,12.186,12.186,0,0,1,1.617,4.491Z" transform="translate(-7.508 -81.203)" fill="none" stroke="#263238" stroke-miterlimit="10" stroke-width="1"/>
      <path id="Path_6081" data-name="Path 6081" d="M84.987,149.32s9.544,18.771,11.927,25.673,0,18.208-6.036,23.319-12.721,4.794-20.215,1.1A114.548,114.548,0,0,1,55.7,190.081a8.66,8.66,0,0,0-1.559.13c-1.444,0-7.22-2.267-9.241-5.906-4.866-9.053,5.891-5.776,8.057-4.332" transform="translate(-24.984 -50.965)" fill="none" stroke="#263238" stroke-linecap="round" stroke-linejoin="round" stroke-width="1"/>
      <path id="Path_6082" data-name="Path 6082" d="M71,162.66a12.591,12.591,0,0,0,4.852,5.66,5.6,5.6,0,0,1,2.368,1.949,3.133,3.133,0,0,1-.419,3.076,8.836,8.836,0,0,1-2.469,2.151" transform="translate(-12.845 -45.043)" fill="none" stroke="#263238" stroke-linecap="round" stroke-linejoin="round" stroke-width="1"/>
      <path id="Path_6083" data-name="Path 6083" d="M68.21,176.55a8.663,8.663,0,0,0,6.815,0" transform="translate(-14.083 -38.878)" fill="none" stroke="#263238" stroke-linecap="round" stroke-linejoin="round" stroke-width="1"/>
      <path id="Path_6084" data-name="Path 6084" d="M67.468,166.794c.592,1.256.635,2.484.1,2.743s-1.444-.549-2.079-1.819-.635-2.484-.087-2.743S66.876,165.524,67.468,166.794Z" transform="translate(-15.507 -44.037)" fill="#263238"/>
      <path id="Path_6085" data-name="Path 6085" d="M75.087,161.664c.592,1.256.635,2.5.087,2.743s-1.444-.549-2.065-1.8-.635-2.5-.087-2.758S74.495,160.408,75.087,161.664Z" transform="translate(-12.123 -46.314)" fill="#263238"/>
      <path id="Path_6086" data-name="Path 6086" d="M66.206,161.19s-4.548,0-5.646,5.53" transform="translate(-17.479 -45.696)" fill="none" stroke="#263238" stroke-linecap="round" stroke-linejoin="round" stroke-width="1"/>
      <path id="Path_6087" data-name="Path 6087" d="M70.1,158.462s1.632-3.653,4.678-1.444" transform="translate(-13.244 -47.863)" fill="none" stroke="#263238" stroke-linecap="round" stroke-linejoin="round" stroke-width="1"/>
      <path id="Path_6088" data-name="Path 6088" d="M57.864,184.22c.26.188,13.89-7.046,15.493-27.564,0,0,7.812,5.978,20.561,1,0,0-10.483-21.659-25.831-18.612s-28.719,13.067-29.239,31.1c-.361,12.779,2.382,25.5,2.382,38.278a62.868,62.868,0,0,1-2.31,19.262c-3.249,10.411-10.584,17.327-7.422,29.152,2.325,8.663,10.107,18.771,19.348,17.558,3.927-.52,13-2.8,14.439-4.62a26.972,26.972,0,0,1-4.664-10.7c-.621-10.541,1.762-14.555,1.762-14.555l24.431-28.228-6.8-10.656L61.445,194.775s-7.71.9-11.941-8.663C48.681,180.437,57.864,184.22,57.864,184.22Z" transform="translate(-30.724 -55.659)" fill="#263238"/>
      <path id="Path_6089" data-name="Path 6089" d="M97.638,244.8S79.026,230.562,70.81,214.78" transform="translate(-12.929 -21.907)" fill="none" stroke="#263238" stroke-linecap="round" stroke-linejoin="round" stroke-width="1"/>
      <path id="Path_6090" data-name="Path 6090" d="M100.235,231.849c-.491-1.328-2.426-1.444-3.653-.751a32.52,32.52,0,0,0-3.162,2.888,16.2,16.2,0,0,0-2.512,1.906,6.483,6.483,0,0,0-1.2,3.22,47.158,47.158,0,0,0-.2,14.67" transform="translate(-4.842 -14.849)" fill="none" stroke="#263238" stroke-linecap="round" stroke-linejoin="round" stroke-width="1"/>
      <path id="Path_6091" data-name="Path 6091" d="M85.45,250.024a40.429,40.429,0,0,1,2.758-10.974" transform="translate(-6.431 -11.133)" fill="none" stroke="#263238" stroke-linecap="round" stroke-linejoin="round" stroke-width="1"/>
      <path id="Path_6092" data-name="Path 6092" d="M107.764,249.56a3.8,3.8,0,0,1,0,5.53,15.883,15.883,0,0,1-1.993,1.256c-2.05,1.328-3.162,3.711-5.025,5.285-2.57,2.166-6.859,2.339-9.125-.144-1.892-2.108-2.368-6.555-2.267-9.385" transform="translate(-4.703 -6.468)" fill="none" stroke="#263238" stroke-linecap="round" stroke-linejoin="round" stroke-width="1"/>
      <path id="Path_6093" data-name="Path 6093" d="M107.39,284.827c-12.114,1.444-51.259-41.007-51.259-41.007-5.848-7.22-5.963-18.179-1.6-26.366,4.173-7.84,12.4-12.75,17.226-20.215" transform="translate(-21.512 -29.693)" fill="none" stroke="#263238" stroke-linecap="round" stroke-linejoin="round" stroke-width="1"/>
      <path id="Path_6094" data-name="Path 6094" d="M65.59,185.68a37.209,37.209,0,0,1,7.537,14.15" transform="translate(-15.246 -34.825)" fill="none" stroke="#263238" stroke-linecap="round" stroke-linejoin="round" stroke-width="1"/>
      <path id="Path_6095" data-name="Path 6095" d="M80.21,177.07a20.749,20.749,0,0,0,6.772,15.161" transform="translate(-8.757 -38.647)" fill="none" stroke="#263238" stroke-linecap="round" stroke-linejoin="round" stroke-width="1"/>
      <path id="Path_6096" data-name="Path 6096" d="M67.683,194.26c-2.888,2.989-1.66,9.227,1.964,11.262s8.663.245,13,1.285a3.335,3.335,0,0,1,1.6.78,4.332,4.332,0,0,1,.823,3.018c0,2.267.448,4.823,2.31,6.122a11.06,11.06,0,0,0,3.942,1.242c7.378,1.718,12.345,6.238,16.1,12.822" transform="translate(-15.029 -31.016)" fill="none" stroke="#263238" stroke-linecap="round" stroke-linejoin="round" stroke-width="1"/>
      <path id="Path_6097" data-name="Path 6097" d="M70.16,195.74a65.654,65.654,0,0,1,36.921,38.032" transform="translate(-13.218 -30.359)" fill="none" stroke="#263238" stroke-linecap="round" stroke-linejoin="round" stroke-width="1"/>
      <path id="Path_6098" data-name="Path 6098" d="M59.6,234.77c4.332,14.035,20.114,20.879,25.008,34.654,1.256,3.523,1.762,7.378,3.87,10.454,2.7,3.927,7.436,5.776,11.9,7.494,3.032,1.155,6.555,3.711,9.588,4.852" transform="translate(-17.905 -13.033)" fill="none" stroke="#263238" stroke-linecap="round" stroke-linejoin="round" stroke-width="1"/>
      <path id="Path_6099" data-name="Path 6099" d="M109.578,279.553c-3.812-.476-6.772-3.48-9.14-6.5s-4.606-6.353-8.028-8.086" transform="translate(-3.341 0.373)" fill="none" stroke="#263238" stroke-linecap="round" stroke-linejoin="round" stroke-width="1"/>
      <path id="Path_6100" data-name="Path 6100" d="M83.15,186.007a27.074,27.074,0,0,0,15.132-1.357" transform="translate(-7.451 -35.282)" fill="none" stroke="#263238" stroke-linecap="round" stroke-linejoin="round" stroke-width="1"/>
      <path id="Path_6101" data-name="Path 6101" d="M87.21,186c4.158,12.663,8.49,28.084,7.537,41.57" transform="translate(-5.649 -34.683)" fill="none" stroke="#263238" stroke-linecap="round" stroke-linejoin="round" stroke-width="1"/>
      <path id="Path_6102" data-name="Path 6102" d="M94.72,250.637s.578,17.327,8.158,24.705c0,0,18.771-18.525,26.683-29.99S146.441,220.3,149.04,210.8s-4.028-12.071-4.028-12.071-1.993-5.4-4.029-4.794-5.415,10.526-5.415,10.526-2.108-5.111-6.31,2.339-6.209,10.873-3.321,17.645l-16.489,16.085Z" transform="translate(-2.315 -31.182)" fill="#fff"/>
      <path id="Path_6103" data-name="Path 6103" d="M133.229,208s3.566-9.847,0-7.725-6.916,7.941-8.172,11.291.881,10.18.881,10.18c-8.909,11.883-22.871,21.067-31.217,26.192" transform="translate(-2.316 -28.48)" fill="none" stroke="#263238" stroke-linecap="round" stroke-linejoin="round" stroke-width="1"/>
      <path id="Path_6104" data-name="Path 6104" d="M131.169,209.439s5.01-13.746,7.306-15.421,2.31,3.769,2.31,3.769,3.566,1.718,4.187,3.8,2.31,3.624,1.892,7.869-11.089,23.1-11.089,23.1c-3.494,7.407-21.37,29.412-35.4,42.841" transform="translate(0.193 -31.265)" fill="none" stroke="#263238" stroke-linecap="round" stroke-linejoin="round" stroke-width="1"/>
      <path id="Path_6105" data-name="Path 6105" d="M128.831,196.53a67.232,67.232,0,0,1-1.531,8.129" transform="translate(12.147 -30.008)" fill="none" stroke="#263238" stroke-linecap="round" stroke-linejoin="round" stroke-width="1"/>
      <path id="Path_6106" data-name="Path 6106" d="M95.257,232.87a2.628,2.628,0,0,0-.794,2.382,39.794,39.794,0,0,0,9.746,24.907" transform="translate(-2.448 -13.877)" fill="none" stroke="#263238" stroke-linecap="round" stroke-linejoin="round" stroke-width="1"/>
      <path id="Path_6107" data-name="Path 6107" d="M42.385,173.19a86.4,86.4,0,0,1,2.556,31.492c-.837,8.115-2.888,16.143-2.57,24.3s3.335,16.821,10.252,21.153" transform="translate(-25.569 -40.369)" fill="none" stroke="#fff" stroke-linecap="round" stroke-linejoin="round" stroke-width="1" opacity="0.2"/>
      <path id="Path_6108" data-name="Path 6108" d="M46.88,172.662A164.026,164.026,0,0,0,58.287,148" transform="translate(-23.552 -51.551)" fill="none" stroke="#fff" stroke-linecap="round" stroke-linejoin="round" stroke-width="1" opacity="0.2"/>
      <path id="Path_6109" data-name="Path 6109" d="M43.32,172.359c3.538-8.447,2.787-18.107,5.66-26.8" transform="translate(-25.132 -52.634)" fill="none" stroke="#fff" stroke-linecap="round" stroke-linejoin="round" stroke-width="1" opacity="0.2"/>
      <path id="Path_6110" data-name="Path 6110" d="M67.57,188.881s9.66,4.548,14.511,2.613S84.9,178.73,84.9,178.73,80.031,190.9,67.57,188.881Z" transform="translate(-14.368 -37.91)" fill="#263238"/>
    </g>
  </g>
</svg>
