<svg xmlns="http://www.w3.org/2000/svg" xmlns:xlink="http://www.w3.org/1999/xlink" width="3015" height="3015" viewBox="0 0 3015 3015">
  <defs>
    <clipPath id="clip-path">
      <circle id="Ellipse_15" data-name="Ellipse 15" cx="1340" cy="1340" r="1340" transform="translate(6850 6192)" fill="#fff" stroke="#707070" stroke-width="1"/>
    </clipPath>
  </defs>
  <g id="Business" transform="translate(-6809 -6151)">
    <g id="Ellipse_14" data-name="Ellipse 14" transform="translate(6809 6151)" fill="#fff" stroke="#2155cd" stroke-width="100">
      <circle cx="1507.5" cy="1507.5" r="1507.5" stroke="none"/>
      <circle cx="1507.5" cy="1507.5" r="1457.5" fill="none"/>
    </g>
    <g id="Mask_Group_5" data-name="Mask Group 5" transform="translate(127 179)" clip-path="url(#clip-path)">
      <g id="business-2" data-name="business" transform="translate(6850 6263.348)">
        <g id="freepik--Floor--inject-448" transform="translate(0 990.134)">
          <ellipse id="freepik--floor--inject-448-2" data-name="freepik--floor--inject-448" cx="1340.175" cy="773.76" rx="1340.175" ry="773.76" fill="#f5f5f5"/>
        </g>
        <g id="freepik--Shadows--inject-448" transform="translate(168.521 1124.893)">
          <ellipse id="freepik--Shadow--inject-448" cx="291.26" cy="168.176" rx="291.26" ry="168.176" transform="translate(869.868)" fill="#e0e0e0"/>
          <ellipse id="freepik--shadow--inject-448-2" data-name="freepik--shadow--inject-448" cx="347.453" cy="211.198" rx="347.453" ry="211.198" transform="translate(1517.956 757.598)" fill="#e0e0e0"/>
          <ellipse id="freepik--shadow--inject-448-3" data-name="freepik--shadow--inject-448" cx="317.084" cy="183.073" rx="317.084" ry="183.073" transform="translate(0 633.939)" fill="#e0e0e0"/>
        </g>
        <g id="freepik--papel-planes--inject-448" transform="translate(617.041 469.14)">
          <g id="freepik--paper-planes--inject-448">
            <path id="Path_669" data-name="Path 669" d="M2279.808,963.712l-92.485-95.764-51.764,3.969Z" transform="translate(-936.711 -767.107)" fill="#0579ff"/>
            <path id="Path_670" data-name="Path 670" d="M2286.3,961.393l-75.633-101.055,26.745-19.21Z" transform="translate(-943.205 -764.788)" fill="#0579ff"/>
            <path id="Path_671" data-name="Path 671" d="M2210.26,862.156l-4.314,18.29,79.947,82.765Z" transform="translate(-942.797 -766.606)" fill="#0579ff"/>
            <path id="Path_672" data-name="Path 672" d="M2210.26,862.156l-4.314,18.29,79.947,82.765Z" transform="translate(-942.797 -766.606)" opacity="0.3"/>
            <path id="Path_673" data-name="Path 673" d="M850.131,1131.868l110.89-102.493,58.263,7.822Z" transform="translate(-825.584 -781.062)" fill="#0579ff"/>
            <path id="Path_674" data-name="Path 674" d="M850.131,1128.983l92.083-109.51-28.988-23.466Z" transform="translate(-825.584 -778.177)" fill="#0579ff"/>
            <path id="Path_675" data-name="Path 675" d="M942.214,1021.693l3.739,20.936L850.131,1131.2Z" transform="translate(-825.584 -780.398)" fill="#0579ff"/>
            <path id="Path_676" data-name="Path 676" d="M942.214,1021.693l3.739,20.936L850.131,1131.2Z" transform="translate(-825.584 -780.398)" opacity="0.3"/>
            <path id="Path_677" data-name="Path 677" d="M1998.749,1523.551,2117,1447.861l52.052,16.737Z" transform="translate(-924.884 -817.241)" fill="#0579ff"/>
            <path id="Path_678" data-name="Path 678" d="M1998.749,1520.171l102.205-85.181-22.719-26.227Z" transform="translate(-924.884 -813.861)" fill="#0579ff"/>
            <path id="Path_679" data-name="Path 679" d="M2100.954,1437.473v19.785l-102.205,65.4Z" transform="translate(-924.884 -816.343)" fill="#0579ff"/>
            <path id="Path_680" data-name="Path 680" d="M2100.954,1437.473v19.785l-102.205,65.4Z" transform="translate(-924.884 -816.343)" opacity="0.3"/>
            <path id="Path_681" data-name="Path 681" d="M1151.363,1859.851l-137.348-87.942-60.507,19.383Z" transform="translate(-834.521 -845.256)" fill="#0579ff"/>
            <path id="Path_682" data-name="Path 682" d="M1158.853,1855.921l-118.713-98.985,26.4-30.483Z" transform="translate(-842.01 -841.326)" fill="#0579ff"/>
            <path id="Path_683" data-name="Path 683" d="M1040.14,1759.821v22.949l118.713,76.036Z" transform="translate(-842.01 -844.211)" fill="#0579ff"/>
            <path id="Path_684" data-name="Path 684" d="M1040.14,1759.821v22.949l118.713,76.036Z" transform="translate(-842.01 -844.211)" opacity="0.3"/>
            <path id="Path_685" data-name="Path 685" d="M827.447,1503.971a2.7,2.7,0,0,1-2.588-2.128l-1.553-7.88a2.662,2.662,0,0,1,5.234-.978c.518,2.588.978,5.176,1.553,7.765a2.7,2.7,0,0,1-2.071,3.163Z" transform="translate(-823.261 -820.954)" fill="#e0e0e0"/>
            <path id="Path_686" data-name="Path 686" d="M968.284,1720.237a2.877,2.877,0,0,1-1.5-.46q-6.844-4.659-13.459-9.663a2.646,2.646,0,0,1-.46-3.738,2.7,2.7,0,0,1,3.739-.518c4.256,3.279,8.685,6.5,13.171,9.49a2.7,2.7,0,0,1-1.5,4.889Zm-26.055-19.843a2.76,2.76,0,0,1-1.725-.632c-4.141-3.509-8.282-7.247-12.308-11.043a2.7,2.7,0,1,1,3.681-3.911c3.969,3.8,8.052,7.42,12.078,10.87a2.7,2.7,0,0,1-1.726,4.716ZM918.418,1677.9a2.531,2.531,0,0,1-1.9-.863c-3.739-3.854-7.477-7.995-11.158-12.193a2.7,2.7,0,0,1,.288-3.8,2.589,2.589,0,0,1,3.739.288c3.623,4.084,7.3,8.167,10.985,11.963a2.7,2.7,0,0,1,0,3.8,2.761,2.761,0,0,1-1.955.806Zm-21.453-24.732a2.647,2.647,0,0,1-2.128-1.035c-3.336-4.256-6.672-8.685-9.893-13.171a2.588,2.588,0,0,1,.575-3.681,2.646,2.646,0,0,1,3.738.575c3.163,4.428,6.442,8.8,9.778,13a2.646,2.646,0,0,1-.46,3.738,2.416,2.416,0,0,1-1.61.575Zm-19.153-26.63a2.531,2.531,0,0,1-2.186-1.208c-2.991-4.544-5.752-9.26-8.685-14.034a2.654,2.654,0,1,1,4.6-2.646c2.761,4.659,5.751,9.26,8.512,13.8a2.7,2.7,0,0,1-.748,3.681,2.759,2.759,0,0,1-1.5.4Zm-16.565-28.183a2.645,2.645,0,0,1-2.358-1.438c-2.531-4.889-5.061-9.835-7.362-14.781a2.588,2.588,0,0,1,1.265-3.509,2.7,2.7,0,0,1,3.566,1.266c2.3,4.831,4.716,9.72,7.247,14.552a2.7,2.7,0,0,1-2.358,3.911Zm-13.919-29.678a2.646,2.646,0,0,1-2.473-1.61c-2.071-5-4.084-10.18-5.752-15.414a2.646,2.646,0,0,1,1.61-3.394,2.7,2.7,0,0,1,3.393,1.611c1.841,5.119,3.854,10.238,5.752,15.127a2.7,2.7,0,0,1-1.38,3.509A3.279,3.279,0,0,1,847.329,1568.682Zm-11.158-30.771a2.646,2.646,0,0,1-2.531-1.9c-1.61-5.234-3.163-10.583-4.544-15.817a2.761,2.761,0,0,1,1.956-3.278,2.646,2.646,0,0,1,3.221,1.9c1.323,5.234,2.818,10.468,4.429,15.644a2.646,2.646,0,0,1-1.725,3.336Z" transform="translate(-823.759 -823.204)" fill="#e0e0e0"/>
            <path id="Path_687" data-name="Path 687" d="M1003.342,1752.459a2.474,2.474,0,0,1-1.265-.345c-2.358-1.265-4.716-2.588-7.017-3.969a2.588,2.588,0,0,1-.978-3.624,2.646,2.646,0,0,1,3.624-.978c2.3,1.38,4.6,2.646,6.9,3.854a2.7,2.7,0,0,1-1.265,5.061Z" transform="translate(-837.996 -842.773)" fill="#e0e0e0"/>
            <path id="Path_688" data-name="Path 688" d="M1256.4,910.84a2.646,2.646,0,1,1,0-5.291c2.7,0,5.349-.4,8.052-.518a2.7,2.7,0,0,1,2.761,2.531,2.588,2.588,0,0,1-2.473,2.761l-7.937.518Z" transform="translate(-860.478 -770.312)" fill="#e0e0e0"/>
            <path id="Path_689" data-name="Path 689" d="M1002.868,991.881a2.653,2.653,0,0,1-1.553-4.831c4.256-2.991,8.57-5.752,12.941-8.742a2.7,2.7,0,0,1,3.681.748,2.646,2.646,0,0,1-.805,3.681c-4.314,2.818-8.57,5.752-12.768,8.685a2.876,2.876,0,0,1-1.5.46Zm26-16.91a2.646,2.646,0,0,1-1.38-4.946c4.486-2.7,8.972-5.291,13.516-7.822a2.7,2.7,0,0,1,3.624,1.035,2.588,2.588,0,0,1-1.035,3.624c-4.486,2.531-8.973,5.061-13.344,7.707A2.532,2.532,0,0,1,1028.865,974.972Zm27.147-15.012a2.588,2.588,0,0,1-2.358-1.5,2.7,2.7,0,0,1,1.15-3.566c4.659-2.358,9.318-4.6,14.091-6.787a2.646,2.646,0,0,1,3.508,1.265,2.7,2.7,0,0,1-1.265,3.566c-4.659,2.128-9.318,4.371-13.919,6.729A2.875,2.875,0,0,1,1056.012,959.96Zm28.183-13.056a2.761,2.761,0,0,1-2.473-1.668,2.646,2.646,0,0,1,1.438-3.451q7.189-3.106,14.494-5.752a2.646,2.646,0,0,1,3.393,1.553,2.531,2.531,0,0,1-1.5,3.393c-4.831,1.9-9.605,3.8-14.322,5.752A3.335,3.335,0,0,1,1084.195,946.9Zm28.758-11.158a2.7,2.7,0,0,1-2.531-1.783,2.646,2.646,0,0,1,1.668-3.393q7.3-2.588,14.839-4.831a2.646,2.646,0,0,1,3.336,1.725,2.7,2.7,0,0,1-1.783,3.336c-4.946,1.553-9.835,3.106-14.666,4.831Zm29.621-9.145a2.666,2.666,0,0,1-.69-5.234c5-1.38,10.065-2.646,15.127-3.853a2.7,2.7,0,0,1,3.221,1.956,2.646,2.646,0,0,1-1.955,3.221c-5,1.208-10.008,2.473-14.954,3.8Zm30.2-7.19a2.7,2.7,0,0,1-2.588-2.128,2.646,2.646,0,0,1,2.071-3.106c5.119-1.035,10.238-2.013,15.357-2.876a2.7,2.7,0,0,1,3.048,2.186,2.589,2.589,0,0,1-2.128,3.048c-5.119.863-10.18,1.84-15.184,2.818Zm30.656-5.176a2.66,2.66,0,0,1-.4-5.292q7.765-1.035,15.529-1.9a2.7,2.7,0,0,1,.518,5.349c-5.119.518-10.238,1.093-15.3,1.841Z" transform="translate(-838.557 -770.487)" fill="#e0e0e0"/>
            <path id="Path_690" data-name="Path 690" d="M981.9,1014.369a2.76,2.76,0,0,1-2.071-.978,2.588,2.588,0,0,1,.46-3.739l6.327-4.946a2.669,2.669,0,1,1,3.221,4.256l-6.269,4.831A2.646,2.646,0,0,1,981.9,1014.369Z" transform="translate(-836.745 -778.883)" fill="#e0e0e0"/>
            <path id="Path_691" data-name="Path 691" d="M2145.506,1385.627a2.7,2.7,0,0,1-2.128-1.093,2.646,2.646,0,0,1,.575-3.739l3.8-2.818a2.669,2.669,0,0,1,3.22,4.256l-3.853,2.876a2.705,2.705,0,0,1-1.611.518Zm16.507-12.6a2.589,2.589,0,0,1-2.071-1.035,2.7,2.7,0,0,1,.4-3.738c4.141-3.278,8.282-6.614,12.309-10.065a2.673,2.673,0,1,1,3.451,4.084q-6.1,5.176-12.423,10.18A2.936,2.936,0,0,1,2162.013,1373.031Zm24.444-20.648a2.761,2.761,0,0,1-2.013-.92,2.646,2.646,0,0,1,0-3.738c3.911-3.566,7.764-7.132,11.5-10.813a2.646,2.646,0,1,1,3.681,3.8c-3.854,3.739-7.765,7.42-11.5,10.986a2.7,2.7,0,0,1-1.668.69Zm23.006-22.2a2.588,2.588,0,0,1-1.841-.748,2.646,2.646,0,0,1,0-3.739c3.681-3.8,7.362-7.707,10.928-11.5a2.646,2.646,0,0,1,3.911,3.566c-3.624,3.969-7.3,7.88-10.986,11.5a2.818,2.818,0,0,1-2.013,1.15Zm21.511-23.7a2.358,2.358,0,0,1-1.725-.633,2.646,2.646,0,0,1-.345-3.739c3.451-4.026,6.787-8.167,10.008-12.308a2.664,2.664,0,0,1,4.2,3.279c-3.279,4.2-6.672,8.4-10.123,12.481a2.531,2.531,0,0,1-2.013.92Zm19.613-25.192a2.76,2.76,0,0,1-1.552-.518,2.646,2.646,0,0,1-.575-3.681q4.659-6.442,8.972-13.114a2.761,2.761,0,0,1,3.739-.748,2.7,2.7,0,0,1,.747,3.681q-4.486,6.729-9.145,13.286A2.7,2.7,0,0,1,2250.587,1281.293Zm17.6-26.687a2.53,2.53,0,0,1-1.38-.4,2.646,2.646,0,0,1-.92-3.624c2.7-4.544,5.349-9.145,7.88-13.8a2.651,2.651,0,1,1,4.659,2.531q-3.8,7.074-7.937,13.976a2.645,2.645,0,0,1-2.3,1.323Zm15.184-28.125a2.7,2.7,0,0,1-2.416-3.8c2.3-4.774,4.544-9.663,6.557-14.494a2.7,2.7,0,0,1,3.508-1.381,2.646,2.646,0,0,1,1.438,3.509c-2.128,4.889-4.371,9.835-6.672,14.667a2.76,2.76,0,0,1-2.415,1.5Zm12.481-29.391h-.92a2.7,2.7,0,0,1-1.553-3.451c1.841-5,3.566-10.008,5.119-15.012a2.656,2.656,0,0,1,5.062,1.61c-1.553,5.061-3.336,10.18-5.176,15.242a2.7,2.7,0,0,1-2.3,1.611Zm9.548-30.541h-.69a2.761,2.761,0,0,1-1.9-3.278c1.323-5.119,2.473-10.3,3.508-15.414a2.668,2.668,0,1,1,5.234,1.035c-1.035,5.234-2.243,10.468-3.566,15.7A2.76,2.76,0,0,1,2305.4,1166.55Zm6.269-31.289h-.345a2.588,2.588,0,0,1-2.244-2.991c.748-5.234,1.381-10.525,1.841-15.7a2.818,2.818,0,0,1,2.933-2.416,2.7,2.7,0,0,1,2.416,2.876c-.518,5.292-1.15,10.7-1.956,15.99a2.646,2.646,0,0,1-2.646,2.243Zm2.991-31.806h0a2.645,2.645,0,0,1-2.531-2.761v-15.817a2.588,2.588,0,0,1,2.588-2.7h0a2.7,2.7,0,0,1,2.646,2.646v3.508c0,4.256,0,8.455-.288,12.6a2.588,2.588,0,0,1-2.416,2.531Zm-.345-31.921a2.7,2.7,0,0,1-2.7-2.473c-.287-5.234-.748-10.583-1.38-15.817a2.761,2.761,0,0,1,2.358-2.933,2.645,2.645,0,0,1,2.933,2.358c.633,5.291,1.093,10.7,1.438,16.047a2.7,2.7,0,0,1-2.473,2.818Zm-3.566-31.749a2.646,2.646,0,0,1-2.646-2.243c-.806-5.119-1.841-10.353-2.934-15.587a2.7,2.7,0,0,1,2.07-3.163,2.646,2.646,0,0,1,3.163,2.071c1.093,5.292,2.128,10.641,2.933,15.817a2.646,2.646,0,0,1-2.185,3.048Z" transform="translate(-937.342 -780.142)" fill="#e0e0e0"/>
            <path id="Path_692" data-name="Path 692" d="M2135.736,825.679a2.588,2.588,0,0,1-1.438-.4c-4.486-2.818-9.03-5.751-13.574-8.167a2.646,2.646,0,0,1-1.035-3.624,2.7,2.7,0,0,1,3.681-.978c4.6,2.646,9.2,5.406,13.746,8.282a2.7,2.7,0,0,1,.863,3.681,2.646,2.646,0,0,1-2.243,1.208ZM2108.013,809.8a3.4,3.4,0,0,1-1.265,0c-4.659-2.473-9.433-4.831-14.206-7.074a2.646,2.646,0,0,1-1.265-3.508,2.761,2.761,0,0,1,3.566-1.323c4.831,2.3,9.605,4.716,14.379,7.189a2.646,2.646,0,0,1-1.208,5Zm-28.758-13.631a3.28,3.28,0,0,1-1.035,0c-4.889-2.071-9.778-4.084-14.724-5.752a2.7,2.7,0,1,1,1.9-5c5,1.9,10.007,3.911,14.9,5.752a2.646,2.646,0,0,1-1.035,5.119Zm-29.851-11.5h-.863c-5-1.726-10.065-3.278-15.127-4.774a2.646,2.646,0,0,1-1.783-3.336,2.588,2.588,0,0,1,3.278-1.783c5.176,1.5,10.238,3.106,15.357,4.831a2.694,2.694,0,0,1-1.035,5.234Zm-30.656-9.03h-.632c-5.119-1.323-10.3-2.531-15.472-3.623a2.7,2.7,0,0,1-2.013-3.221,2.646,2.646,0,0,1,3.163-2.013c5.234,1.15,10.41,2.358,15.644,3.681a2.761,2.761,0,0,1,1.9,3.278,2.646,2.646,0,0,1-2.761,2.071Zm-31.174-6.844h-.518c-5.176-.978-10.41-1.783-15.644-2.531a2.672,2.672,0,1,1,.748-5.291q7.938,1.093,15.875,2.588a2.588,2.588,0,0,1,2.128,3.048,2.646,2.646,0,0,1-2.761,2.358Zm-31.634-4.486h-.287c-5.292-.575-10.583-1.035-15.817-1.438a2.646,2.646,0,0,1-2.473-2.818,2.53,2.53,0,0,1,2.818-2.473q8.052.518,16.047,1.38a2.7,2.7,0,0,1-.287,5.349Z" transform="translate(-919.577 -757.564)" fill="#e0e0e0"/>
          </g>
        </g>
        <g id="freepik--speech-bubbles--inject-448" transform="translate(101.86 4.987)">
          <g id="freepik--speach-bubble--inject-448" transform="translate(1683.084 102.853)">
            <path id="Path_693" data-name="Path 693" d="M2417.613,889.03l45.207-26.112a4.257,4.257,0,0,0,2.128-1.9l8.282-14.494-26.86-15.472.8,2.358Z" transform="translate(-2128.999 -402.617)" fill="#0579ff"/>
            <g id="Group_48" data-name="Group 48" transform="translate(288.614 428.437)" opacity="0.1">
              <path id="Path_694" data-name="Path 694" d="M2417.613,889.03l45.207-26.112a4.257,4.257,0,0,0,2.128-1.9l8.282-14.494-26.86-15.472.8,2.358Z" transform="translate(-2417.613 -831.055)"/>
            </g>
            <path id="Path_695" data-name="Path 695" d="M2446.415,829.468l-31.289,54.18a4.659,4.659,0,0,1-8.455-.805l-33.129-95.419Z" transform="translate(-2125.189 -398.845)" fill="#0579ff"/>
            <path id="Path_696" data-name="Path 696" d="M2101.687,405.156a48.371,48.371,0,0,1,21.8-37.845h0a48.371,48.371,0,0,1,43.712,0l353.837,204.066a48.371,48.371,0,0,1,21.856,37.845V788.441a48.312,48.312,0,0,1-21.856,37.845h0a48.37,48.37,0,0,1-43.712,0l-355.85-205.561c-19.613-11.216-19.785-22.431-19.785-36.35Z" transform="translate(-2101.687 -362.074)" fill="#0579ff"/>
            <path id="Path_697" data-name="Path 697" d="M2430.724,683.241,2178,536.576c-7.3-4.2-13.229-2.243-13.229,4.314A26.458,26.458,0,0,0,2178,560.5L2430.724,707.11c7.3,4.256,13.229,2.3,13.229-4.256a26.456,26.456,0,0,0-13.228-19.613Z" transform="translate(-2107.14 -376.968)" fill="#455a64"/>
            <path id="Path_698" data-name="Path 698" d="M2354.17,694.82,2178,592.672c-7.3-4.2-13.229-2.243-13.229,4.314A26.457,26.457,0,0,0,2178,616.6l176.17,102.09c7.3,4.256,13.229,2.3,13.229-4.256A26.457,26.457,0,0,0,2354.17,694.82Z" transform="translate(-2107.14 -381.817)" fill="#455a64"/>
            <path id="Path_699" data-name="Path 699" d="M2430.724,626.643,2178,480.035c-7.3-4.256-13.229-2.3-13.229,4.314A26.573,26.573,0,0,0,2178,503.962L2430.724,650.57c7.3,4.2,13.229,2.3,13.229-4.314a26.573,26.573,0,0,0-13.229-19.613Z" transform="translate(-2107.14 -372.076)" fill="#455a64"/>
            <path id="Path_700" data-name="Path 700" d="M2578.764,809.729a48.312,48.312,0,0,1-21.856,37.845h0a48.6,48.6,0,0,1-40.261,1.841c10.3,3.911,18.117-1.955,18.117-14.436V655.7a44.4,44.4,0,0,0-6.384-21.511L2572.092,609a45.033,45.033,0,0,1,6.384,21.511Z" transform="translate(-2137.561 -383.42)" opacity="0.1"/>
            <path id="Path_701" data-name="Path 701" d="M2102.442,398.828c2.531-9.26,10.986-12.193,21.108-6.384l353.895,204.123a43.309,43.309,0,0,1,15.357,16.277l43.654-25.134a43.939,43.939,0,0,0-15.356-16.334L2167.32,367.252a48.831,48.831,0,0,0-43.77,0h0a48.139,48.139,0,0,0-21.108,31.576Z" transform="translate(-2101.752 -362.073)" fill="#fff" opacity="0.3"/>
          </g>
          <g id="freepik--speach-bubble--inject-448-2" data-name="freepik--speach-bubble--inject-448" transform="translate(0 96.916)">
            <path id="Path_702" data-name="Path 702" d="M626.184,739.176l-43.252-24.962a4.084,4.084,0,0,1-2.013-1.783l-7.995-13.919,25.652-14.782-.805,2.243Z" transform="translate(-286.438 -383.944)" fill="#0579ff"/>
            <g id="Group_49" data-name="Group 49" transform="translate(286.486 299.787)" opacity="0.55">
              <path id="Path_703" data-name="Path 703" d="M626.184,739.176l-43.252-24.962a4.084,4.084,0,0,1-2.013-1.783l-7.995-13.919,25.652-14.782-.805,2.243Z" transform="translate(-572.924 -683.731)" fill="#fff"/>
            </g>
            <path id="Path_704" data-name="Path 704" d="M596.785,682.44,626.693,734.2a4.429,4.429,0,0,0,8.052-.748l31.634-91.278Z" transform="translate(-288.501 -380.352)" fill="#0579ff"/>
            <path id="Path_705" data-name="Path 705" d="M596.785,682.44,626.693,734.2a4.429,4.429,0,0,0,8.052-.748l31.634-91.278Z" transform="translate(-288.501 -380.352)" fill="#fff" opacity="0.7"/>
            <path id="Path_706" data-name="Path 706" d="M681.32,396.892a46.013,46.013,0,0,0-20.878-36.235h0a46.013,46.013,0,0,0-41.756,0L280.263,555.923A46.013,46.013,0,0,0,259.327,592.1V763.5a46.013,46.013,0,0,0,20.936,36.177h0a46.012,46.012,0,0,0,41.756,0L662.4,603.028c18.75-10.7,18.923-21.453,18.923-34.509Z" transform="translate(-259.327 -355.58)" fill="#0579ff"/>
            <path id="Path_707" data-name="Path 707" d="M685.334,399.249V570.589c0,13.344,0,24.1-18.98,34.509L325.976,802.032a34.045,34.045,0,0,1-3.566,1.726h-1.035l-.805.288h.345C311.827,806.633,305.1,801,305.1,789.724v-171.4a43.137,43.137,0,0,1,6.1-20.591h0a41.239,41.239,0,0,1,14.724-15.644L664.4,386.883c9.663-5.752,17.715-2.7,20.188,6.1a45.211,45.211,0,0,0-3.163-10.065A38.593,38.593,0,0,1,685.334,399.249Z" transform="translate(-263.284 -357.938)" fill="#fff" opacity="0.7"/>
            <path id="Path_708" data-name="Path 708" d="M259.39,783.914a46.013,46.013,0,0,0,20.878,36.177h0a46.7,46.7,0,0,0,38.19,1.783c-9.835,3.738-17.255-1.9-17.255-13.8v-171.4a43.137,43.137,0,0,1,6.1-20.591l-41.814-24.272a42.5,42.5,0,0,0-6.1,20.706Z" transform="translate(-259.332 -375.997)" fill="#fff" opacity="0.55"/>
            <path id="Path_709" data-name="Path 709" d="M681.218,390.9c-2.416-8.857-10.525-11.5-20.13-6.1L322.607,580.016A41.929,41.929,0,0,0,307.883,595.6l-41.756-24.214a42.1,42.1,0,0,1,14.724-15.644L619.216,360.536a46.531,46.531,0,0,1,41.814,0h0A46.012,46.012,0,0,1,681.218,390.9Z" transform="translate(-259.915 -355.574)" fill="#fff" opacity="0.85"/>
            <path id="Path_710" data-name="Path 710" d="M365.348,672.143,606.914,531.862c7.017-4.026,12.653-2.186,12.653,4.141a25.249,25.249,0,0,1-12.653,18.75L365.348,694.977c-6.959,4.026-12.654,2.186-12.654-4.084a25.422,25.422,0,0,1,12.654-18.75Z" transform="translate(-267.399 -370.63)" fill="#455a64"/>
            <path id="Path_711" data-name="Path 711" d="M365.348,730.436l168.521-97.777c6.959-4.026,12.653-2.186,12.653,4.141a25.6,25.6,0,0,1-12.653,18.75L365.348,753.327c-6.959,4.084-12.654,2.243-12.654-4.084a25.422,25.422,0,0,1,12.654-18.808Z" transform="translate(-267.399 -379.344)" fill="#455a64"/>
            <path id="Path_712" data-name="Path 712" d="M365.348,618,606.914,477.781c7.017-4.026,12.653-2.186,12.653,4.141a25.364,25.364,0,0,1-12.653,18.75L365.348,640.9c-6.959,4.026-12.654,2.186-12.654-4.141A25.422,25.422,0,0,1,365.348,618Z" transform="translate(-267.399 -365.955)" fill="#455a64"/>
          </g>
          <g id="freepik--speach-bubble--inject-448-3" data-name="freepik--speach-bubble--inject-448" transform="translate(643.084)">
            <path id="Path_713" data-name="Path 713" d="M1398.464,314.723a6.1,6.1,0,0,0-2.876-.748h-52.4l-21.626,12.251V401l21.626-12.481,18.693-21.626v57.516l21.626-12.481,56.711-65.51a5.752,5.752,0,0,0-1.438-8.685Z" transform="translate(-994.243 -255.062)" fill="#455a64"/>
            <path id="Path_714" data-name="Path 714" d="M1365.7,426.771l21.626-12.481,56.71-65.51a5.752,5.752,0,0,0-4.313-9.433h-52.4L1365.7,351.828Z" transform="translate(-998.059 -257.255)" fill="#37474f"/>
            <path id="Path_715" data-name="Path 715" d="M1352.562,287.522a42.677,42.677,0,0,0-19.268-33.417h0a42.5,42.5,0,0,0-38.536,0L982.85,434.072a42.619,42.619,0,0,0-19.268,33.359V625.484a42.562,42.562,0,0,0,19.268,33.359h0a42.907,42.907,0,0,0,38.536,0l313.749-181.232c17.255-9.893,17.255-19.785,17.255-32.094Z" transform="translate(-963.295 -249.487)" fill="#37474f"/>
            <path id="Path_716" data-name="Path 716" d="M963.555,644.313a42.561,42.561,0,0,0,19.268,33.359h0a43.194,43.194,0,0,0,35.257,1.61c-9.088,3.393-15.99-1.783-15.99-12.768v-158a39.053,39.053,0,0,1,5.751-18.98l-38.823-22.259a39.859,39.859,0,0,0-5.751,18.98Z" transform="translate(-963.268 -268.315)" fill="#263238"/>
            <path id="Path_717" data-name="Path 717" d="M1352.446,282.01c-2.243-8.167-9.663-10.755-18.578-5.752L1021.9,456.34a37.731,37.731,0,0,0-13.574,14.379l-38.766-22.2a39.054,39.054,0,0,1,13.574-14.379l311.908-179.967a43.022,43.022,0,0,1,38.593,0h0A42.332,42.332,0,0,1,1352.446,282.01Z" transform="translate(-963.812 -249.497)" fill="#455a64"/>
            <path id="Path_718" data-name="Path 718" d="M1073.49,535.322l222.874-129.238c6.442-3.739,11.5-2.071,11.5,3.8a23.409,23.409,0,0,1-11.5,17.255L1073.49,556.545c-6.442,3.681-11.5,2.013-11.5-3.8a23.409,23.409,0,0,1,11.5-17.427Z" transform="translate(-971.802 -262.853)" fill="#0579ff"/>
            <path id="Path_719" data-name="Path 719" d="M1147.4,546.338,1302.7,456.326c6.442-3.739,11.5-2.013,11.5,3.8a23.294,23.294,0,0,1-11.5,17.255L1147.4,567.389c-6.442,3.739-11.5,2.071-11.5-3.8a23.409,23.409,0,0,1,11.5-17.255Z" transform="translate(-978.192 -267.198)" fill="#0579ff"/>
            <path id="Path_720" data-name="Path 720" d="M1073.49,485.583l222.874-129.3c6.442-3.681,11.5-2.013,11.5,3.8a23.409,23.409,0,0,1-11.5,17.255l-222.874,129.3c-6.442,3.738-11.5,2.071-11.5-3.8a23.409,23.409,0,0,1,11.5-17.255Z" transform="translate(-971.802 -258.551)" fill="#0579ff"/>
          </g>
        </g>
        <g id="freepik--character-3--inject-448" transform="translate(1651.046 630.239)">
          <g id="freepik--Character--inject-448">
            <g id="freepik--character--inject-448-2" data-name="freepik--character--inject-448" transform="translate(503.552 282.495)">
              <path id="Path_721" data-name="Path 721" d="M2506.322,1244.789c29.621-6.614,63.268,5.752,85.641,53.26,21.626,45.323,84.2,178.7,85.641,210.68,1.5,33.187-133.609,136.542-129.813,134.76,1.15-.575-30.2-63.9-30.2-63.9l68.731-85.411-38.881-76.553Z" transform="translate(-2506.322 -1243.137)" fill="#0579ff"/>
            </g>
            <g id="freepik--character--inject-448-3" data-name="freepik--character--inject-448" transform="translate(503.552 282.495)" opacity="0.35">
              <path id="Path_722" data-name="Path 722" d="M2506.322,1244.789c29.621-6.614,63.268,5.752,85.641,53.26,21.626,45.323,84.2,178.7,85.641,210.68,1.5,33.187-133.609,136.542-129.813,134.76,1.15-.575-30.2-63.9-30.2-63.9l68.731-85.411-38.881-76.553Z" transform="translate(-2506.322 -1243.137)"/>
            </g>
            <path id="Path_723" data-name="Path 723" d="M2549.816,2416.821c3.911,1.5,6.154,8.915,7.937,27.032,1.035,11.5,4.889,26.112-12.251,35.2a43.08,43.08,0,0,1-40.261-.4c-14.839-9.2-22.374-26.227-39.743-39.858-15.3-11.963-34.51-20.821-46.818-42.619s-10.353-36.292,14.954-36.292c40.721,0,52.914,22.431,73.85,23.006C2518.93,2383,2545.847,2415.383,2549.816,2416.821Z" transform="translate(-1994.557 -1057.187)" fill="#263238"/>
            <path id="Path_724" data-name="Path 724" d="M2557.786,2411.814v18.29c0,8.915-38.018,22.259-48.658,1.841-.805-1.783-4.946-26.86-4.946-26.86Z" transform="translate(-2002.585 -1061.095)" fill="#ffa8a7"/>
            <path id="Path_725" data-name="Path 725" d="M2350.2,2538.809s7.247,0,10.065,29.506c1.093,11.5,3.8,34.51,0,42.677s-24.617,12.021-47.968,14.092c-17.254,1.553-33.129,10.008-49.233,19.1a107.611,107.611,0,0,1-49.923,13.8c-22.086,0-40.779-2.243-56.481-14.667-8.34-6.614-18.98-20.533-11.216-31.059a23.006,23.006,0,0,1,11.791-6.212c9.835-3.681,19.728-7.017,29.736-10.18a301.043,301.043,0,0,0,43.654-16.737c20.591-10.18,43.54-21.511,59.126-38.881Z" transform="translate(-1971.337 -1072.656)" fill="#263238"/>
            <path id="Path_726" data-name="Path 726" d="M2363.979,2522.125v21.338c0,7.765-8.972,19.325-32.726,18.635-16.622-.517-28.3-4.946-27.723-18.692v-19.728Z" transform="translate(-1985.236 -1071.213)" fill="#ffa8a7"/>
            <path id="Path_727" data-name="Path 727" d="M2547,2099.786a497.607,497.607,0,0,0-22.086-95.131s6.1-82.247,8.858-160.239a2073.763,2073.763,0,0,0-6.672-239.5s-264.917-25.077-269.289,72.24,1.956,345.095,5.406,387.771,6.844,82.765,15.932,162.31c7.765,68.5,20.361,217.179,20.361,217.179a64.015,64.015,0,0,0,60.392-1.553s19.958-199.637,22.259-248.928c2.99-63.958-11.906-99.215-11.906-99.215s5.751-40.261,15.471-122.969c6.959-58.378,16.219-124.924,16.219-124.924s9.088,82.363,14.552,128.26c5.119,42.562,13.747,76.208,26.515,155.58,11.1,69.019,41.354,214.534,41.354,214.534,31.116,16.622,51.764-2.531,51.764-2.531S2555.683,2159.257,2547,2099.786Z" transform="translate(-1981.157 -991.668)" fill="#37474f"/>
            <path id="Path_728" data-name="Path 728" d="M2415.724,1857.719l12.539-81.327s51.764-16.449,77.761-47.105c0,0-13.976,35.717-62,54.928l-19.268,68.5-3.279,56.481Z" transform="translate(-1994.937 -1002.671)"/>
            <path id="Path_729" data-name="Path 729" d="M2368.128,1217.362l12.366,86.906,78.221-2.7-7.535-101.573Z" transform="translate(-1990.823 -956.912)" fill="#ffa8a7"/>
            <path id="Path_730" data-name="Path 730" d="M2304.894,1101.777s-20.993,30.771-18.693,33.877,17.255,6.039,17.255,6.039Z" transform="translate(-1983.725 -948.421)" fill="#f28f8f"/>
            <path id="Path_731" data-name="Path 731" d="M2311.8,1118.665a25.537,25.537,0,1,1,26-25.134A25.537,25.537,0,0,1,2311.8,1118.665Zm.748-45.38a19.843,19.843,0,1,0,19.555,20.13,19.843,19.843,0,0,0-19.555-20.13Z" transform="translate(-1983.785 -945.466)" fill="#263238"/>
            <path id="Path_732" data-name="Path 732" d="M2364.718,1008.017c-41.641,8.11-53.892,26.112-58.839,92.025-5.177,68.731,1.5,90.472,10.41,99.9,6.039,6.327,39.916,7.995,57.113,3.566,21.511-5.752,70.169-21.971,93.406-56.193,27.32-40.261,35.2-95.419,6.959-118.54C2434.139,996.226,2381.627,1004.738,2364.718,1008.017Z" transform="translate(-1985.284 -940.014)" fill="#ffa8a7"/>
            <path id="Path_733" data-name="Path 733" d="M2364.379,1222.84c-17.887,2.013-41.929,0-46.933-5.291a123.2,123.2,0,0,0,44.517-8.742Z" transform="translate(-1986.441 -957.674)" fill="#f28f8f"/>
            <path id="Path_734" data-name="Path 734" d="M2289.659,1018.245a25.137,25.137,0,0,0,5.752,16.507,29.1,29.1,0,0,0,28.24,8.34,19.21,19.21,0,0,0,21.914,25.479c-2.013.46,3.279,15.817,3.8,17.255a21.221,21.221,0,0,0,10.928,13.286s7.3-26.515,29.678-23.006,25.135,32.554,10.641,49.809-27.665,10.353-27.665,10.353,0,38.075,16.565,59.874c0,0,19.1,6.557,54.525-.46,21.741-4.256,52.857-30.886,66.2-59.356,28.24-60.334,31-115.031-7.534-131.941-1.5-.69-2.071-8.167-2.531-9.778a44.694,44.694,0,0,0-5-12.136,50.726,50.726,0,0,0-21.511-18.75,110.544,110.544,0,0,0-41.009-8.742,260.942,260.942,0,0,1-41.872-4.256c-12.366-2.876-23.984-8.167-36.062-12.078a71.146,71.146,0,0,0-37.385-3.739,33.82,33.82,0,0,0-26.342,24.444c-2.7,13.976,5.406,25.594,13.861,35.832a24.56,24.56,0,0,0-15.414,23.006Z" transform="translate(-1984.019 -933.909)" fill="#263238"/>
            <path id="Path_735" data-name="Path 735" d="M2516.909,1024.189l25.02-14.264a14.4,14.4,0,1,0-25.02,14.264Z" transform="translate(-2003.521 -939.852)" fill="#263238"/>
            <path id="Path_736" data-name="Path 736" d="M2365.389,1128.258l1.208-28.758a14.437,14.437,0,1,0-1.208,28.758Z" transform="translate(-1989.292 -948.215)" fill="#263238"/>
            <path id="Path_737" data-name="Path 737" d="M2289.361,1089.311l77.014,11.215-3.221,5.349-73.85-10.755Z" transform="translate(-1984.008 -947.344)" fill="#263238"/>
            <path id="Path_738" data-name="Path 738" d="M2535.23,1293.086c-9.145-35.66-22.028-47.335-53.087-48.141a390.7,390.7,0,0,0-47.738,6.1c-3.279,15.069-42.217,25.307-81.673,17.255-11.5,3.393-42.734,11.848-52.512,15.357-27.9,10.123-41.411,39.111-43.252,131.136,0,0-5.349,218.1,0,255.773,70.342,27.435,143.387,26.227,183.706,17.255,83.915-18.808,93.866-53.72,93.866-53.72s-4.371-87.539-7.247-154.142c4.2-42.389,10.525-74.253,12.826-108.072A284.353,284.353,0,0,0,2535.23,1293.086Z" transform="translate(-1981.007 -960.798)" fill="#0579ff"/>
            <g id="Group_50" data-name="Group 50" transform="translate(273.585 284.146)" opacity="0.2">
              <path id="Path_739" data-name="Path 739" d="M2535.23,1293.086c-9.145-35.66-22.028-47.335-53.087-48.141a390.7,390.7,0,0,0-47.738,6.1c-3.279,15.069-42.217,25.307-81.673,17.255-11.5,3.393-42.734,11.848-52.512,15.357-27.9,10.123-41.411,39.111-43.252,131.136,0,0-5.349,218.1,0,255.773,70.342,27.435,143.387,26.227,183.706,17.255,83.915-18.808,93.866-53.72,93.866-53.72s-4.371-87.539-7.247-154.142c4.2-42.389,10.525-74.253,12.826-108.072A284.353,284.353,0,0,0,2535.23,1293.086Z" transform="translate(-2254.592 -1244.945)"/>
            </g>
            <path id="Path_740" data-name="Path 740" d="M2449.7,1226.852l.575,8.4s-4.083,11.5-27.838,16.219c-39.858,7.42-53.835-5-53.835-5l-.978-7.189s-3.854-1.553-10.353,3.451a348.251,348.251,0,0,0-27.55,32.324s7.592-2.243,32.5,8.34a118.483,118.483,0,0,0,77.819,2.933,42.85,42.85,0,0,0,28.47-31.864C2469.486,1247.155,2456.545,1223.918,2449.7,1226.852Z" transform="translate(-1987.502 -959.212)" fill="#0579ff"/>
            <path id="Path_741" data-name="Path 741" d="M2449.7,1226.852l.575,8.4s-4.083,11.5-27.838,16.219c-39.858,7.42-53.835-5-53.835-5l-.978-7.189s-3.854-1.553-10.353,3.451a348.251,348.251,0,0,0-27.55,32.324s7.592-2.243,32.5,8.34a118.483,118.483,0,0,0,77.819,2.933,42.85,42.85,0,0,0,28.47-31.864C2469.486,1247.155,2456.545,1223.918,2449.7,1226.852Z" transform="translate(-1987.502 -959.212)" opacity="0.35"/>
            <path id="Path_742" data-name="Path 742" d="M2265.531,1291.156c-33.3,6.442-62.52,21.626-61.945,61.082a444.124,444.124,0,0,1-24.789,148.046c-10.353,32.727-95.649,130.618-116.7,136.715s-51.246-7.075-58.551,3.508,21.683,23.524,23.006,28.758-35.6,19.728-57.976,15.874-16.91,23.524,16.795,38.593,75.4-2.243,115.376-32.151,119.978-93.751,140.626-138.038c25.019-53.375,39-103.528,42.044-142.064C2288.71,1332.51,2265.531,1291.156,2265.531,1291.156Z" transform="translate(-1955.117 -964.793)" fill="#ffa8a7"/>
            <path id="Path_743" data-name="Path 743" d="M2284.261,1288.953s-34.51,0-55.1,20.533c-17.6,17.255-19.9,45.552-24.79,101a446.292,446.292,0,0,1-15.874,86.274c-4.141,14.091-62.635,95.3-62.635,95.3s23.812,35.43,47.681,54.352c0,0,53.662-44.229,80.982-81.327s45.84-142.294,45.84-142.294S2314.342,1342.27,2284.261,1288.953Z" transform="translate(-1969.878 -964.603)" fill="#0579ff"/>
            <path id="Path_744" data-name="Path 744" d="M2284.261,1288.953s-34.51,0-55.1,20.533c-17.6,17.255-19.9,45.552-24.79,101a446.292,446.292,0,0,1-15.874,86.274c-4.141,14.091-62.635,95.3-62.635,95.3s23.812,35.43,47.681,54.352c0,0,53.662-44.229,80.982-81.327s45.84-142.294,45.84-142.294S2314.342,1342.27,2284.261,1288.953Z" transform="translate(-1969.878 -964.603)" opacity="0.35"/>
            <path id="Path_745" data-name="Path 745" d="M2126.484,1616.716a157.53,157.53,0,0,0,49.234,54.582s-18.98,16.1-29.218,22.546c0,0-28.24-10.065-45.38-48.831Z" transform="translate(-1967.739 -992.939)" fill="#0579ff"/>
            <path id="Path_746" data-name="Path 746" d="M2126.484,1616.716a157.53,157.53,0,0,0,49.234,54.582s-18.98,16.1-29.218,22.546c0,0-28.24-10.065-45.38-48.831Z" transform="translate(-1967.739 -992.939)" opacity="0.5"/>
            <path id="Path_747" data-name="Path 747" d="M2117.556,1644.812a4.256,4.256,0,1,0,.047-4.515A4.256,4.256,0,0,0,2117.556,1644.812Z" transform="translate(-1969.106 -994.808)" fill="#263238"/>
          </g>
        </g>
        <g id="freepik--character-2--inject-448" transform="translate(933.452 0)">
          <g id="freepik--character--inject-448-4" data-name="freepik--character--inject-448">
            <path id="Path_748" data-name="Path 748" d="M1504.335,474.724h88.057a128.433,128.433,0,0,0,128.433-128.433h0a102.263,102.263,0,0,0-102.263-102.263H1606.6a102.263,102.263,0,0,0-102.263,102.263Z" transform="translate(-1198.552 -244.028)" fill="#263238"/>
            <path id="Path_749" data-name="Path 749" d="M1465.275,568.493c-21.683,41.3-42.217,91.68-58.263,108.36-30.483,14.206-100.078,40.664-128.03,44.345a20.937,20.937,0,0,1-14.092-3.336c-10.985-7.189-19.5-8.4-31.116-12.366-9.087-3.163-12.941-7.535-14.609-5.752a10.238,10.238,0,0,0,.92,14.379,74.766,74.766,0,0,0,14.379,10.813,85.813,85.813,0,0,1-37.9.633c-24.214-6.384-35.66,5.291-19.268,31.576,5.752,9.433,28.758,24.5,75.806,20.476a416.623,416.623,0,0,0,49.751-5.752c44.92-9.548,92.888-23.581,123.6-32.726a79.948,79.948,0,0,0,29.793-20.706c51.764-58.839,77.014-111.005,99.617-149.138l-16.45-56.883C1502.832,511.034,1483.91,533.178,1465.275,568.493Z" transform="translate(-1169.614 -267.225)" fill="#b16668"/>
            <path id="Path_750" data-name="Path 750" d="M1558.786,512.065c-28.183-2.071-38.881,3.221-51.764,15.817-30.771,30.253-77.7,145.4-78.452,146.32s-34.854,16.449-34.854,16.449,18.175,30.426,13.976,59.241c0,0,33.3-7.362,45.207-11.906s16.162-7.707,27.377-20.706,73.908-87.309,73.908-87.309Z" transform="translate(-1188.988 -267.162)" fill="#263238"/>
            <g id="freepik--character--inject-448-5" data-name="freepik--character--inject-448" transform="translate(201.554 243.809)">
              <path id="Path_751" data-name="Path 751" d="M1506.64,653.07a241.965,241.965,0,0,1,4.831,61.312c-1.841,27.032-21.051,76.553-21.051,76.553s15.127,13.746,56.308,7.3c33.532-5.234,21.684-106.347,2.416-125.96A63.267,63.267,0,0,0,1506.64,653.07Z" transform="translate(-1398.903 -523.2)" fill="#37474f"/>
              <path id="Path_752" data-name="Path 752" d="M1756.97,1597.325a246.751,246.751,0,0,1,3.8,40.261c.518,24.559,5,33.244,5.752,53.375.69,23.006-3.279,31.634-12.6,44.575s-33.877,24.674-44.23,2.761-9.03-36.177-5.751-58.724,3.854-36.235,5.751-54.007c1.725-15.7,3.8-27.608,3.8-27.608Z" transform="translate(-1417.156 -604.832)" fill="#263238"/>
              <path id="Path_753" data-name="Path 753" d="M1685.97,1386.025l80.522-1.438c-1.208,53.95-9.778,143.789-11.158,194.346,0,9.548,0,74.08-3.393,93.693-5.406,29.448-40.261,25.479-42.216,7.822s2.243-92.946,2.128-100.71c.345-32.439-14.9-117.16-23.006-175.481C1688.9,1401.439,1686.315,1388.843,1685.97,1386.025Z" transform="translate(-1415.808 -586.441)" fill="#b16668"/>
              <path id="Path_754" data-name="Path 754" d="M1541.576,1551.365s4.2.288,4.889,3.681.92,10.41,2.646,17.255a98.409,98.409,0,0,1,2.876,31.979c-1.438,7.535-18.635,18.808-30.369,20.763s-28.355,13.574-37.615,22.259a89.953,89.953,0,0,1-52.224,20.533c-19.613,0-33.3-6.5-39.8-17.255s5.752-11.791,28.355-26.342l17.255-11.5c35.545-23.006,48.543-35.66,58.609-58.9Z" transform="translate(-1390.242 -600.859)" fill="#263238"/>
              <path id="Path_755" data-name="Path 755" d="M1498.929,1524.351c.575-16.737-7.937-139.763-7.937-139.763l69.479,7.822c-16.392,98.064-17.772,131.539-15.874,145.8h0a14.493,14.493,0,0,1,.46,4.084c0,19.1-21.626,29.333-38.363,42.044-6.672,5-23.7,20.476-43.654,27.32-12.884,4.371-36.81,6.039-39.859-1.783,20.418-15.587,48.2-36,64.475-53.777C1495.363,1547.587,1498.354,1541.03,1498.929,1524.351Z" transform="translate(-1393.09 -586.441)" fill="#b16668"/>
              <path id="Path_756" data-name="Path 756" d="M1691.281,748.7A295,295,0,0,1,1742.124,853.5c23.007,92.658-13.113,290.915-13.113,290.915,1.15,13.4,16.507,39.859,22.259,99.042,6.729,69.882-12.481,257.038-12.481,257.038s-18.52,13.8-45.265.92c0,0-48.946-274.925-57.516-344.4-7.65-60.679-23.006-186.7-23.006-186.7l-35.487,186.351s4.889,33.992,7.362,59.874c3.969,40.836-35.832,246.052-35.832,246.052a56.135,56.135,0,0,1-45.092-.92s-17.6-265.033-21.338-314.266c-3.8-50.671,9.375-168.809,19.1-262.847,2.933-28.355,16.392-103.528,21.4-128.03Z" transform="translate(-1398.17 -531.468)" fill="#455a64"/>
              <path id="Path_757" data-name="Path 757" d="M1617.779,983.779l-8.34-57.516a142.525,142.525,0,0,1-67.581-21.8,86.274,86.274,0,0,0,56.6,31.634l5.234,51.3-16.679,160.066Z" transform="translate(-1403.349 -544.933)" fill="#263238" opacity="0.6"/>
              <path id="Path_758" data-name="Path 758" d="M1521.624,666.95c.863,16.852,3.278,69.019,3.278,69.019,69.019,46.588,168.119-7.822,168.119-7.822l14.321-97.777S1671.4,580.1,1705.1,526.841l-53.777-10.64-64.13-5.291-19.038.863c-21.051,15.472-53.317,49.291-60.1,66.6S1490.911,630.83,1521.624,666.95Z" transform="translate(-1399.795 -510.91)" fill="#0579ff"/>
              <g id="Group_51" data-name="Group 51" transform="translate(100.953)" opacity="0.6">
                <path id="Path_759" data-name="Path 759" d="M1521.624,666.95c.863,16.852,3.278,69.019,3.278,69.019,69.019,46.588,168.119-7.822,168.119-7.822l14.321-97.777S1671.4,580.1,1705.1,526.841l-53.777-10.64-64.13-5.291-19.038.863c-21.051,15.472-53.317,49.291-60.1,66.6S1490.911,630.83,1521.624,666.95Z" transform="translate(-1500.749 -510.91)" fill="#fff"/>
              </g>
              <path id="Path_760" data-name="Path 760" d="M1666.758,517.709s60.909,2.7,72.47,8.225,30.828,38.766,13.574,87.194-32.841,105.2-31.059,116.642,42.849,70.514,42.849,70.514a111.98,111.98,0,0,1-37.845,18.175L1705.7,772.447l4.946,48.946s-37.96,9.2-65.05,6.844C1645.592,828.179,1623.736,642.921,1666.758,517.709Z" transform="translate(-1411.838 -511.497)" fill="#37474f"/>
            </g>
            <path id="Path_761" data-name="Path 761" d="M1707.531,244.028l-7.017,26.8a13.459,13.459,0,0,0,17.255-9.375,14.609,14.609,0,0,0-10.238-17.427Z" transform="translate(-1215.512 -244.028)" fill="#263238"/>
            <path id="Path_762" data-name="Path 762" d="M1730.76,270.722l-27.665.978a13.4,13.4,0,0,0,13.861,13.631,14.552,14.552,0,0,0,13.8-14.609Z" transform="translate(-1215.735 -246.336)" fill="#263238"/>
            <path id="Path_763" data-name="Path 763" d="M1545.985,297.228c-11.5,6.729-25.537,35.487-24.157,95.764,1.208,51.074,17.715,63.727,26.055,67.351s24.329,1.438,39.916-1.208v30.656s-21.511,25.019-20.188,39.111,31.116,17.255,51.3,3.623a130.215,130.215,0,0,0,33.072-34.51V418.471s8.512,9.03,23.639-1.323a27.895,27.895,0,0,0,7.132-40.261,20.591,20.591,0,0,0-31.288,3.739s-20.936-1.841-54.065-20.016a106.807,106.807,0,0,1-51.419-63.382Z" transform="translate(-1200.056 -248.627)" fill="#b16668"/>
            <path id="Path_764" data-name="Path 764" d="M1590.525,387.41a6.442,6.442,0,1,0,6.729-6.384A6.557,6.557,0,0,0,1590.525,387.41Z" transform="translate(-1206.003 -255.871)" fill="#263238"/>
            <path id="Path_765" data-name="Path 765" d="M1580.988,435.422l-14.954,4.716a7.764,7.764,0,0,0,9.72,5.406A8.225,8.225,0,0,0,1580.988,435.422Z" transform="translate(-1203.886 -260.574)" fill="#9a4a4d"/>
            <path id="Path_766" data-name="Path 766" d="M1528.076,365.229l13.056-9.03a7.65,7.65,0,0,0-10.813-2.186,8.34,8.34,0,0,0-2.243,11.216Z" transform="translate(-1200.495 -253.419)" fill="#263238"/>
            <path id="Path_767" data-name="Path 767" d="M1531.47,382.316a6.442,6.442,0,1,0,6.729-6.327,6.557,6.557,0,0,0-6.729,6.327Z" transform="translate(-1200.897 -255.436)" fill="#263238"/>
            <path id="Path_768" data-name="Path 768" d="M1568.479,378.885l-1.035,38.708-20.361-6.327Z" transform="translate(-1202.247 -255.686)" fill="#9a4a4d"/>
            <path id="Path_769" data-name="Path 769" d="M1594.051,472.073c16.449-2.128,50.269-11.848,55.5-25.192a34.508,34.508,0,0,1-11.848,17.255c-10.066,8.685-43.655,18.4-43.655,18.4Z" transform="translate(-1206.308 -261.565)" fill="#9a4a4d"/>
            <path id="Path_770" data-name="Path 770" d="M1854.156,738.781c-10.641-41.469-55.733-132.286-68.559-165.53-14.609-38.075-39.8-51.764-67.006-51.764-10.008,12.883-14.207,77.7,16.622,115.032,13.114,27.665,52.454,104.966,52.454,104.966-.978,7.477-28.47,103.528-40.261,129.065a19.957,19.957,0,0,1-10.353,9.893c-12.136,5.291-26.4,18.578-36.062,26.112-7.592,5.752-13.4,6.729-12.884,9.088a10.985,10.985,0,0,0,13.114,6.96,178.319,178.319,0,0,0,24.042-9.72,292.174,292.174,0,0,1-24.042,32.9c-16.334,18.865-15.759,34.97,16.047,35.487,24.042.345,36.753-13.171,58.091-54.41,6.1-11.848,12.884-29.736,20.245-44.977,18.578-38.593,30.311-54.64,40.261-79.314C1852.2,763.283,1858.3,754.771,1854.156,738.781Z" transform="translate(-1214.436 -268.015)" fill="#b16668"/>
            <path id="Path_771" data-name="Path 771" d="M1708.05,520.29c30.138,0,52.4,2.416,69.767,27.9s71.089,159.549,77.071,176.919,9.893,31.576-15.127,72.24a130.96,130.96,0,0,1-59.874-21.108l6.039-34.855L1733.3,639.406a183.649,183.649,0,0,1-25.249-119.115Z" transform="translate(-1216.031 -267.911)" fill="#263238"/>
          </g>
        </g>
        <g id="freepik--character-1--inject-448" transform="translate(139.531 502.383)">
          <g id="freepik--character--inject-448-6" data-name="freepik--character--inject-448">
            <path id="Path_772" data-name="Path 772" d="M693.175,1087.737c34.509,11.5,42.619,13.861,66.316,50.729,23.006,35.372,46.013,100.825,66.546,153.279,37.673-10.7,117.562-29.275,143.789-44.575s23.754-25.94,34.509-35.717c12.423-11.5,25.422-38.766,35.545-23.754,6.787,10.123-7.3,16.91-6.442,29.736s39.628-17.255,55.905-28.758c10.755-7.535,35.717,16.1,25.709,41.7-8.857,23.006-23.006,37.1-48.543,47.853-26.86,11.5-40.894,17.255-74.77,32.209-35.257,15.874-180.6,80.177-194.979,71.2-32.727-16.162-62.692-117.447-82.535-161.044S707.554,1131.449,693.175,1087.737Z" transform="translate(-334.504 -819.351)" fill="#ffa8a7"/>
            <path id="Path_773" data-name="Path 773" d="M684.172,1082.807c14.667,19.268,8.627,11.5,13.114,41.3,3.681,23.984,54.122,255.14,99.847,264.573,20.015,4.2,164.668-62,199.752-81.327a168.292,168.292,0,0,1-27.723-61.082c-42.044,16.392-114.514,32.611-140.511,40.721-12.078-33.589-26.8-68.1-40.606-101.975C761.761,1120.883,746.864,1074.985,684.172,1082.807Z" transform="translate(-333.726 -818.85)" fill="#37474f"/>
            <rect id="Rectangle_33" data-name="Rectangle 33" width="56.365" height="96.454" transform="translate(210.625 1408.003) rotate(180)" fill="#ffa8a7"/>
            <path id="Path_774" data-name="Path 774" d="M698.168,2259.032l61.484,2.128L762.7,2149.7l-69.652-2.3Z" transform="translate(-334.493 -910.961)" fill="#ffa8a7"/>
            <path id="Path_775" data-name="Path 775" d="M475.057,1509.969c0,51.3-3.566,349.523-3.566,349.523-1.208,14.782-15.414,41.009-16.565,94.153-1.553,77.129,10.3,258.821,10.3,258.821a70.572,70.572,0,0,0,59.816,1.15S567.2,1956.751,576.8,1880.485c8.4-66.6,32.439-240.876,32.439-240.876l36.235,226.382a380.068,380.068,0,0,0-2.991,81.9c2.531,35.257,29.218,210.738,29.218,210.738a117.962,117.962,0,0,0,71.722.633s5.752-273.373,6.212-305.754c.69-36.925-15.414-354.527-15.414-354.527Z" transform="translate(-313.895 -854.905)" fill="#263238"/>
            <path id="Path_776" data-name="Path 776" d="M524.478,2304.029v-8.052c3.048,0,4.889,2.933,6.039,10.18.863,5.234,1.61,9.145,3.336,15.989a186.23,186.23,0,0,0,9.835,28.758c7.937,19.613,14.666,26.975,32.9,49.866a221.915,221.915,0,0,1,17.255,20.188c3.393,6.039,4.6,23.006-1.208,26.8-21.223,14.149-53.547,14.551-76.438,7.879a46.012,46.012,0,0,1-32.957-37.04c-.805-5.234-.518-10.525-1.093-15.76a75.172,75.172,0,0,0-14.091-32.726,97.769,97.769,0,0,1-10.87-17.83c-4.716-11.5-.92-24.617,2.128-36.12,2.588-10.008,5.406-20.936,8.8-20.016v6.154a44.46,44.46,0,0,0,28.183,9.49C504.577,2311.966,524.535,2310.356,524.478,2304.029Z" transform="translate(-313.91 -923.806)" fill="#263238"/>
            <path id="Path_777" data-name="Path 777" d="M759.011,2250.766c3.221,0,5.752,4.6,12.826,12.251a134.985,134.985,0,0,0,36.235,26c23.006,11.5,67.811,29.275,88.114,38.42,12.654,5.752,12.021,20.993-1.035,29.736s-44.69,14.954-82.65,6.5c-20.706-4.659-47.566-23.754-64.648-22.719s-48.888.805-61.484-7.879-7.535-27.205-3.969-43.079c3.854-17.255,7.765-44.4,13.516-43.252v6.5c7.42,11.158,46.013,15.242,62.52,7.017Z" transform="translate(-333.22 -919.547)" fill="#263238"/>
            <path id="Path_778" data-name="Path 778" d="M623.857,1648.525s47.911-15.644,79.774-46.415c0,0-14.436,27.032-57.516,52.167l10.468,198.2Z" transform="translate(-328.511 -863.82)"/>
            <path id="Path_779" data-name="Path 779" d="M569.309,1081.764c-11.5,2.761-38.938,6.1-59.126,11.906-14.839,4.256-21.108,22.374-24.214,36.063-9.95,43.712-11.5,135.45-11.5,135.45L473.89,1478.8c37.04,26.917,189.054,40.606,266.873-16.219,0,0-9.49-254.45-9.49-294.021s-22.029-87.194-82.765-90.7Z" transform="translate(-315.546 -818.497)" fill="#455a64"/>
            <path id="Path_780" data-name="Path 780" d="M394.551,1410.9s47.163,71.607,55.273,80.925,13.631,6.269,22.374,2.128a241,241,0,0,1,32.727-11.5c14.436-3.853,17.255,10.41,3.278,20.533-10.353,7.3-22.144,10.526-17.255,16.565a109.858,109.858,0,0,0,34.509,22.546c34.509,14.667,36,23.582,29.563,35.66-5.752,10.468-26.285,39.111-88.517,12.423-25.652-11.043-61.254-49.981-78.279-70.169-24.617-29.161-58.321-85.871-58.321-85.871Z" transform="translate(-303.098 -847.29)" fill="#ffa8a7"/>
            <path id="Path_781" data-name="Path 781" d="M495.2,1095.431c-56.711-4.889-71.32,24.272-111.581,95.706-35.545,62.347-81.557,140.108-83.053,172.547-.4,10.468,45.092,83.168,77.646,120.093,28.183-1.323,48.6-12.193,61.944-28.758-7.765-12.941-49.636-88.747-49.636-88.747L465.29,1250.9a152.129,152.129,0,0,0,30.483-60.967C505.436,1147.2,501.64,1104.979,495.2,1095.431Z" transform="translate(-300.562 -819.971)" fill="#37474f"/>
            <path id="Path_782" data-name="Path 782" d="M592.567,888.843a71.32,71.32,0,1,0,71.32-71.262,71.32,71.32,0,0,0-71.32,71.262Z" transform="translate(-325.806 -795.996)" fill="#263238"/>
            <path id="Path_783" data-name="Path 783" d="M535.715,951.054s11.5,54.295,16.162,63.267a24.617,24.617,0,0,0,14.206,11.5l-.805-38.19Z" transform="translate(-320.891 -807.535)" fill="#263238"/>
            <path id="Path_784" data-name="Path 784" d="M548.352,857.371a29.276,29.276,0,0,0-21.166,9.2c-9.49,9.72-4.486,46.588,7.362,76.381l21.741,2.531Z" transform="translate(-319.724 -799.436)" fill="#263238"/>
            <path id="Path_785" data-name="Path 785" d="M561.886,943.051c-4.371,2.646-10.583-5.752-15.989-11.5s-23.006-13.344-31.691,5.119,7.707,43.712,21.568,48.026c23.812,7.477,27.378-7.822,27.378-7.822l1.783,88.632h0c16.45,21.108,53.49,46.013,73.448,42.389,15.874-2.818,19.383-29.678,4.141-47.278v-26.17a148.44,148.44,0,0,0,32.151,1.61c17.255-2.7,28.758-16.507,33.877-35.487,8.512-30.483,11.5-55.1,4.486-115.032-7.937-65.683-84.318-66.373-125.557-40.261S561.886,943.051,561.886,943.051Z" transform="translate(-318.822 -797.001)" fill="#ffa8a7"/>
            <path id="Path_786" data-name="Path 786" d="M723.563,855.915a36.7,36.7,0,0,1-14.724,14.322,85.7,85.7,0,0,1-50.384,10.008c-18.117-2.013-34.509-10.755-50.729-18.865a36.407,36.407,0,0,1-8.225,18.232,54.583,54.583,0,0,1-19.555,12.826c-1.5,11.791-1.438,26.975-2.186,38.88,0,4.026,0,24.9-9.72,18.923a47.158,47.158,0,0,1-8.282-9.318,146.216,146.216,0,0,0-10.986-12.136c-2.818-2.588-2.646-8.512-2.761-11.906a165.018,165.018,0,0,1,.69-21.338c.633-7.362,1.841-14.667,2.473-21.971a33.19,33.19,0,0,0-2.933-12.193,43.712,43.712,0,0,1-1.84-13.919c.805-14.724,12.078-27.2,25.307-33.7a118.424,118.424,0,0,1,61.024-8.915c18.06,1.5,36.7,3.566,53.892-2.071,6.614-2.186,12.884-5.752,19.613-7.362a26.515,26.515,0,0,1,20.361,1.265c13,7.535,13.8,30.713.978,38.593-.863.518-1.9,1.093-2.186,2.071a4.544,4.544,0,0,0,.69,3.278,17.255,17.255,0,0,1-.518,15.3Z" transform="translate(-321.641 -793.953)" fill="#263238"/>
            <path id="Path_787" data-name="Path 787" d="M543.605,863.619l-26.4-14.149a14.609,14.609,0,0,1,20.016-6.614,15.759,15.759,0,0,1,6.384,20.763Z" transform="translate(-319.291 -798.034)" fill="#263238"/>
            <path id="Path_788" data-name="Path 788" d="M647.983,1050.785s-39.111-7.88-52.8-15.184a45.151,45.151,0,0,1-18.923-18.693,62.114,62.114,0,0,0,10.755,22.086c10.008,12.769,60.967,22.2,60.967,22.2Z" transform="translate(-324.397 -813.228)" fill="#f28f8f"/>
            <path id="Path_789" data-name="Path 789" d="M648.963,937.824a8.4,8.4,0,1,1-8.4-8.743,8.512,8.512,0,0,1,8.4,8.743Z" transform="translate(-329.231 -805.635)" fill="#263238"/>
            <path id="Path_790" data-name="Path 790" d="M639.616,906.982l-17.255,9.605a10.41,10.41,0,0,1,4.026-13.8,9.72,9.72,0,0,1,13.229,4.2Z" transform="translate(-328.281 -803.264)" fill="#263238"/>
            <path id="Path_791" data-name="Path 791" d="M651.248,1001.043l19.383,7.247a10.18,10.18,0,0,1-13.171,6.442,10.813,10.813,0,0,1-6.212-13.689Z" transform="translate(-330.825 -811.857)" fill="#f28f8f"/>
            <path id="Path_792" data-name="Path 792" d="M724.857,913.623,709.041,901.43a9.605,9.605,0,0,1,13.746-2.128,10.468,10.468,0,0,1,2.071,14.321Z" transform="translate(-335.876 -802.888)" fill="#263238"/>
            <path id="Path_793" data-name="Path 793" d="M720.917,936.088a8.11,8.11,0,1,1-8.11-8.455,8.282,8.282,0,0,1,8.11,8.455Z" transform="translate(-335.501 -805.51)" fill="#263238"/>
            <path id="Path_794" data-name="Path 794" d="M674.854,929.585l2.818,51.131,26.687-9.087Z" transform="translate(-332.92 -805.679)" fill="#f28f8f"/>
            <path id="Path_795" data-name="Path 795" d="M678.159,1126.35c-5,11.5-14.206,16.622-30.828,18.52a61.83,61.83,0,0,1-46.013-16.047l20.706-20.648,26.285,19.843,2.243-22.086Z" transform="translate(-326.563 -820.924)" fill="#0579ff"/>
            <path id="Path_796" data-name="Path 796" d="M678.159,1126.35c-5,11.5-14.206,16.622-30.828,18.52a61.83,61.83,0,0,1-46.013-16.047l20.706-20.648,26.285,19.843,2.243-22.086Z" transform="translate(-326.563 -820.924)" opacity="0.2"/>
            <path id="Path_797" data-name="Path 797" d="M667.367,1121.168a55.328,55.328,0,0,1,2.7,22.2,37.731,37.731,0,0,1-7.362,18.463,20.477,20.477,0,0,1-17.945,1.956,49,49,0,0,1-17.255-37.1l23.006,2.646Z" transform="translate(-328.827 -822.242)" fill="#0579ff"/>
            <path id="Path_798" data-name="Path 798" d="M663.345,1165.68s26.975,148.793,28.068,161.044-15.529,54.64-25.767,55.043-30.483-38.248-30.771-49.176S645.4,1167.865,645.4,1167.865Z" transform="translate(-329.463 -826.09)" fill="#0579ff"/>
            <path id="Path_799" data-name="Path 799" d="M646.37,1167.635a18.06,18.06,0,0,0,17.945-1.956l.4,2.358a20.476,20.476,0,0,1-18.635,3.681Z" transform="translate(-330.433 -826.09)" fill="#37474f"/>
            <path id="Path_800" data-name="Path 800" d="M643.451,1123.2l-75.921-57.918v-15.127s-17.772,4.716-21.741,35.832a134.07,134.07,0,0,0,59.241,63.267l15.932-28.758Z" transform="translate(-321.762 -816.102)" fill="#37474f"/>
            <path id="Path_801" data-name="Path 801" d="M654.58,1058.083a67.638,67.638,0,0,1,25.479,20.878c7.592,12.538,7.535,53.26,7.535,53.26l-18.175-16.507-16.852,8.167c1.61-15.989,2.071-43.367,2.071-43.367Z" transform="translate(-330.993 -816.788)" fill="#37474f"/>
          </g>
        </g>
      </g>
    </g>
  </g>
</svg>
