<svg xmlns="http://www.w3.org/2000/svg" xmlns:xlink="http://www.w3.org/1999/xlink" width="3015" height="3015" viewBox="0 0 3015 3015">
  <defs>
    <clipPath id="clip-path">
      <circle id="Ellipse_9" data-name="Ellipse 9" cx="1429" cy="1429" r="1429" transform="translate(977 496)" fill="#fff" stroke="#707070" stroke-width="1"/>
    </clipPath>
    <clipPath id="clip-path-2">
      <rect id="Rectangle_7" data-name="Rectangle 7" width="2199.349" height="1453.858" fill="#fff" stroke="#263238" stroke-linecap="round" stroke-linejoin="round" stroke-width="7.94"/>
    </clipPath>
  </defs>
  <g id="Management" transform="translate(-936 -455)">
    <g id="Ellipse_7" data-name="Ellipse 7" transform="translate(936 455)" fill="#fff" stroke="#2155cd" stroke-width="100">
      <circle cx="1507.5" cy="1507.5" r="1507.5" stroke="none"/>
      <circle cx="1507.5" cy="1507.5" r="1457.5" fill="none"/>
    </g>
    <g id="Mask_Group_2" data-name="Mask Group 2" transform="translate(38 38)" clip-path="url(#clip-path)">
      <g id="management-2" data-name="management" transform="translate(990.412 496)">
        <g id="freepik--background-simple--inject-298">
          <path id="Path_264" data-name="Path 264" d="M761.035,872.25s-144.783,82.755-165.587,289.488,206.733,496.375,241.227,757.943S595.448,2244.05,705.891,2574.915s689.341,406.66,999.479,275.721,455-461.8,916.879-461.8,792.669-213.771,765.213-689.419-131.093-620.353-503.336-896.074S1215.955,403.486,761.035,872.25Z" transform="translate(-594.106 -558.231)" fill="#1e72f9"/>
          <path id="Path_265" data-name="Path 265" d="M761.035,872.25s-144.783,82.755-165.587,289.488,206.733,496.375,241.227,757.943S595.448,2244.05,705.891,2574.915s689.341,406.66,999.479,275.721,455-461.8,916.879-461.8,792.669-213.771,765.213-689.419-131.093-620.353-503.336-896.074S1215.955,403.486,761.035,872.25Z" transform="translate(-594.106 -558.231)" fill="#fff" opacity="0.85"/>
        </g>
        <g id="freepik--Ground--inject-298" transform="translate(120.988 2719.25)">
          <ellipse id="Ellipse_16" data-name="Ellipse 16" cx="1355.094" cy="69.375" rx="1355.094" ry="69.375" fill="#1e72f9"/>
          <ellipse id="Ellipse_17" data-name="Ellipse 17" cx="1355.094" cy="69.375" rx="1355.094" ry="69.375" fill="#fff" opacity="0.3"/>
        </g>
        <g id="freepik--Desk--inject-298" transform="translate(781.249 1737.482)">
          <path id="Path_266" data-name="Path 266" d="M3394.161,2341.917H1396.13V2426.6h42.383v861.348H3351.778V2426.6h42.383Z" transform="translate(-1396.13 -2341.917)" fill="#1e72f9"/>
          <path id="Path_267" data-name="Path 267" d="M3394.161,2341.917H1396.13V2426.6h42.383v861.348H3351.778V2426.6h42.383Z" transform="translate(-1396.13 -2341.917)" fill="#fff" opacity="0.5"/>
          <path id="Path_268" data-name="Path 268" d="M1492.2,2796.528h521.821V2518.1H1492.2Zm10.6-268.219h500.32v257.7H1502.8Z" transform="translate(-1398.619 -2346.48)" fill="#fff"/>
          <path id="Path_269" data-name="Path 269" d="M2157.476,2796.528h521.9V2518.1h-521.9Zm10.6-268.219h500.706v257.7H2168.071Z" transform="translate(-1415.852 -2346.48)" fill="#fff"/>
          <path id="Path_270" data-name="Path 270" d="M2822.829,2517.7v278.428h521.821V2517.7ZM3334.054,2786H2833.425V2528.3h500.629Z" transform="translate(-1433.086 -2346.47)" fill="#fff"/>
          <path id="Path_271" data-name="Path 271" d="M1492.2,3180.722h521.821V2901.83H1492.2Zm10.6-268.3h500.32v257.7H1502.8Z" transform="translate(-1398.619 -2356.42)" fill="#fff"/>
          <path id="Path_272" data-name="Path 272" d="M2157.476,3180.722h521.9V2901.83h-521.9Zm10.6-268.3h500.706v257.7H2168.071Z" transform="translate(-1415.852 -2356.42)" fill="#fff"/>
          <path id="Path_273" data-name="Path 273" d="M2822.829,3180.722h521.821V2901.83H2822.829Zm10.6-268.3h500.629v257.7H2833.425Z" transform="translate(-1433.086 -2356.42)" fill="#fff"/>
          <path id="Path_274" data-name="Path 274" d="M1763.544,2631.8c-46.791,0-85.075,14.23-85.075,31.787s37.975,31.787,85.075,31.787,84.689-14.231,84.689-31.787S1810.335,2631.8,1763.544,2631.8Z" transform="translate(-1403.444 -2349.425)" fill="#fff"/>
          <path id="Path_275" data-name="Path 275" d="M2425.642,2631.8c-46.791,0-85.075,14.23-85.075,31.787s37.975,31.787,85.075,31.787,84.689-14.231,84.689-31.787S2472.433,2631.8,2425.642,2631.8Z" transform="translate(-1420.594 -2349.425)" fill="#fff"/>
          <path id="Path_276" data-name="Path 276" d="M3106.954,2695.372c46.4,0,84.688-14.231,84.688-31.787s-37.9-31.787-84.688-31.787-85.075,14.231-85.075,31.787S3060.163,2695.372,3106.954,2695.372Z" transform="translate(-1438.242 -2349.425)" fill="#fff"/>
          <ellipse id="Ellipse_18" data-name="Ellipse 18" cx="84.689" cy="31.787" rx="84.689" ry="31.787" transform="translate(275.412 656.549)" fill="#fff"/>
          <ellipse id="Ellipse_19" data-name="Ellipse 19" cx="84.689" cy="31.787" rx="84.689" ry="31.787" transform="translate(920.359 656.549)" fill="#fff"/>
          <ellipse id="Ellipse_20" data-name="Ellipse 20" cx="84.689" cy="31.787" rx="84.689" ry="31.787" transform="translate(1584.023 656.549)" fill="#fff"/>
        </g>
        <g id="freepik--Plants--inject-298" transform="translate(69.48 1649.153)">
          <path id="Path_277" data-name="Path 277" d="M1067.458,2424.939s6.5-23.744,6.729-25.291c2.475-18.02-3.248-54.139-21.655-63.188a24.054,24.054,0,0,0-32.793,14.54c-4.872,13.457,1.315,30.086,8.74,41.455C1037.141,2405.913,1067.381,2424.939,1067.458,2424.939Z" transform="translate(-674.567 -2253.391)" fill="#1e72f9"/>
          <path id="Path_278" data-name="Path 278" d="M708.893,2518.535c15.468,2.243,47.1-7.038,49.653-7.734a420.1,420.1,0,0,0,19.335,53.52c4.408,10.209,9.126,20.263,14,30.4-2.862-4.331-5.569-8.121-5.955-8.585-11.91-13.767-43-33.334-61.873-25.368a24.13,24.13,0,0,0-10.673,34.339c6.961,12.607,23.2,18.794,36.969,20.8s41.068-5.336,48.261-7.734c1.934,3.867,3.79,7.734,5.723,11.524,9.2,18.407,18.562,36.737,27.069,54.989,3.094,6.5,5.8,12.916,8.585,19.335-2.63-3.79-4.8-6.961-5.182-7.734-11.911-13.767-43-33.334-61.873-25.368a24.052,24.052,0,0,0-10.518,34.726c6.961,12.607,23.2,18.871,36.969,20.8s38.671-4.641,46.946-7.038c2.63,6.651,5.259,13.38,7.734,19.954,1.47,4.563,3.171,8.817,4.331,13.457s2.552,9.049,3.79,13.535c2.088,8.74,4.331,17.711,6.11,26.219,1.315,5.955,2.475,11.678,3.635,17.324-2.939-6.419-8.894-18.871-9.513-19.877-9.745-15.468-37.51-39.444-57.232-34.417a24.13,24.13,0,0,0-15.468,32.251c4.95,13.458,20.418,22.12,33.411,26.141,14.308,4.331,46.018.387,49.962,0,1.856,9.436,3.635,18.717,5.182,27.456,5.337,30.24,8.585,55.608,10.673,73.4.387,3.171.7,6.032.928,8.662H828.54l19.258,374.8h110.83l19.258-374.8H920.731c.387-.851.851-1.7,1.237-2.63,7.734-16.319,18.716-39.831,30.472-68.524,3.712-9.049,7.734-18.794,11.369-28.926,3.867.851,35.19,7.193,49.808,3.945,13.3-3.017,29.312-10.519,35.267-23.667a24.13,24.13,0,0,0-13.3-33.334c-19.335-6.5-48.8,15.468-59.63,30.086-.619.928-6.5,11.06-10.132,17.479,1.547-4.1,3.094-7.734,4.64-12.3,3.094-8.43,5.878-16.938,8.972-26.064,1.315-4.408,2.707-8.894,4.022-13.458s2.4-9.358,3.635-14.076c2.63-11.06,4.8-22.352,6.651-33.8,7.347,2.63,33.643,11.833,47.255,10.828s30.936-5.878,38.671-17.943a24.053,24.053,0,0,0-7.734-34.958c-18.1-9.358-50.581,7.734-63.42,20.727-.851.773-9.049,10.983-13.457,16.706,1.083-6.883,2.166-13.689,3.016-20.727,2.552-20.186,4.486-40.759,6.419-61.177.619-6.342,1.315-12.529,2.011-18.794,2.552,1.005,33.566,12.529,48.88,11.447,13.535-.928,30.936-5.955,38.671-17.943a24.208,24.208,0,0,0-7.734-35.036c-18.175-9.281-50.581,7.734-63.5,20.728-1.005,1.005-12.761,15.468-15.468,19.645,1.47-13.767,3.016-27.456,5.182-40.914a436.362,436.362,0,0,1,11.679-54.139c1.237.464,33.566,12.684,49.189,11.6,13.535-1.005,30.55-5.955,38.671-18.021a24.13,24.13,0,0,0-8.121-34.958c-18.1-9.358-50.581,7.734-63.5,20.727-.851.851-9.822,12.065-14,17.556l-1.005-.542a305.274,305.274,0,0,1,21.346-51.122c4.641-9.049,9.59-17.479,14.54-25.6,5.8,2.939,32.406,15.855,46.4,16.4s30.937-2.552,40.14-13.689a24.053,24.053,0,0,0-4.176-35.577c-17.015-11.292-51.123,2.243-65.353,13.612-.773.619-7.734,7.734-13.148,12.993,2.32-3.635,4.641-7.347,6.961-10.75,8.508-12.839,17.093-24.13,24.749-33.953,4.486-5.646,8.585-10.6,12.452-15.468,7.193,0,35.964-1.005,48.57-6.961s26.373-16.551,29.39-30.936a24.13,24.13,0,0,0-20.186-29.7c-20.263-2.166-44.316,25.6-51.741,42.228-.619,1.47-7.734,25.059-7.734,25.059h.387c-3.79,4.331-7.734,9.049-12.22,14.308-7.734,9.745-16.783,20.8-25.6,33.489a417.615,417.615,0,0,0-26.605,42.383,317.074,317.074,0,0,0-22.661,51.045v-23.28c-2.32-18.02-17.479-51.509-37.51-55.221a24.053,24.053,0,0,0-27.843,22.661c-1.16,14.308,9.281,28.693,19.413,37.742,11.446,10.209,43.156,20.109,45.708,20.882a419.51,419.51,0,0,0-13.457,55.376c-1.934,10.906-3.558,21.965-5.027,33.025v-10.441c-2.32-18.021-17.4-51.509-37.433-55.222a24.131,24.131,0,0,0-27.843,22.661c-1.16,14.308,9.2,28.694,19.335,37.742s37.2,18.176,44.317,20.418L999,2620.007c-2.4,20.418-4.8,40.836-7.734,60.79-1.083,7.038-2.32,13.921-3.558,20.8v-8.971c-2.32-18.1-17.479-51.586-37.51-55.3a24.131,24.131,0,0,0-27.843,22.661c-1.16,14.385,9.2,28.693,19.413,37.82s34.494,17.247,43,19.954c-1.469,7.038-2.939,14.076-4.718,20.8-1.315,4.64-2.243,9.126-3.79,13.612s-2.939,8.972-4.331,13.38c-3.094,8.43-6.187,17.17-9.358,25.291-2.166,5.646-4.408,11.06-6.574,16.474,1.083-7.038,3.016-20.728,3.016-21.887a93.349,93.349,0,0,0-12.529-45.554,30.936,30.936,0,0,0-.387-5.337,24.13,24.13,0,0,0-29.467-20.5c-19.722,5.259-32.174,39.831-33.1,58.006,0,1.083.619,12.761,1.16,20.109-.928-4.254-1.856-8.43-2.939-12.839-2.088-8.662-4.409-17.324-6.883-26.605-1.315-4.486-2.707-8.972-4.022-13.457s-3.171-9.2-4.8-13.844c-3.867-10.6-8.353-21.192-13.071-31.787,7.734-1.856,34.571-8.74,45.4-17.015s22.274-21.81,22.12-36.2a24.13,24.13,0,0,0-25.987-24.749c-20.263,2.243-37.9,34.494-41.532,52.36,0,1.083-1.47,14.153-2.011,21.346-2.862-6.342-5.723-12.684-8.894-18.949-9.049-18.252-18.717-36.427-28.384-54.6l-8.74-16.706c2.707-.619,34.958-8.121,47.1-17.4,10.828-8.276,22.2-21.887,22.12-36.273a24.131,24.131,0,0,0-29.312-23.822c-20.263,2.243-37.82,34.494-41.532,52.283,0,1.392-1.934,20.186-2.166,24.981-6.342-12.22-12.607-24.517-18.253-36.892a408.91,408.91,0,0,1-19.877-51.432c1.237,0,34.958-7.734,47.333-17.479,10.828-8.276,22.274-21.811,22.12-36.2a24.13,24.13,0,0,0-26.064-24.672c-20.263,2.243-37.82,34.494-41.455,52.283,0,1.16-1.624,15.468-2.088,22.352h-1.083a309.349,309.349,0,0,1-10.441-54.139c-1.083-10.131-1.624-19.876-1.933-29.312,6.419-.773,35.732-4.718,47.874-12.065s24.517-19.181,25.987-33.489a24.208,24.208,0,0,0-23.2-27.456c-20.418,0-41.378,30.163-47.023,47.41,0,1.006-2.32,10.905-3.712,18.1v-12.761c0-15.468,1.005-29.544,2.011-42,.619-7.115,1.237-13.535,2.011-19.49,5.878-4.1,29.467-20.727,36.66-32.638s12.916-28.307,7.734-41.687a24.053,24.053,0,0,0-33.179-13.689c-18.1,9.358-23.2,45.786-19.877,63.806,0,1.547,7.115,25.29,7.734,25.136h0c-.851,5.8-1.624,11.988-2.32,18.717-1.238,12.452-2.552,26.605-2.939,42.074a425.868,425.868,0,0,0,1.238,49.962,312.073,312.073,0,0,0,9.2,55.144v.7c-3.171-5.1-12.607-18.871-13.457-19.8-11.911-13.767-43-33.411-61.873-25.445a24.13,24.13,0,0,0-10.673,34.262C678.885,2510.027,695.436,2516.6,708.893,2518.535Zm202.092,267.136c10.441,11.292,37.124,24.517,40.6,26.219-3.635,8.894-7.27,17.556-10.828,25.677-12.22,28.229-23.2,51.2-31.555,67.209-1.7,3.171-3.171,6.033-4.486,8.662h-1.392c0-3.094-.851-6.5-1.315-10.364-2.475-17.943-6.419-43.543-12.452-73.938-1.856-9.668-4.1-19.877-6.419-30.4a272.44,272.44,0,0,0,27.843-13.071Z" transform="translate(-665.506 -2251.239)" fill="#1e72f9"/>
          <path id="Path_279" data-name="Path 279" d="M696.446,2417.726c14.618,6.342,50.426,5.569,50.426,5.569s-7.734-23.2-8.353-24.826c-7.734-16.474-32.638-43.543-52.824-40.836a24.208,24.208,0,0,0-19.413,30.24C669.686,2401.872,683.995,2412.235,696.446,2417.726Z" transform="translate(-665.434 -2253.99)" fill="#1e72f9"/>
          <path id="Path_280" data-name="Path 280" d="M708.893,2518.535c15.468,2.243,47.1-7.038,49.653-7.734a420.1,420.1,0,0,0,19.335,53.52c4.408,10.209,9.126,20.263,14,30.4-2.862-4.331-5.569-8.121-5.955-8.585-11.91-13.767-43-33.334-61.873-25.368a24.13,24.13,0,0,0-10.673,34.339c6.961,12.607,23.2,18.794,36.969,20.8s41.068-5.336,48.261-7.734c1.934,3.867,3.79,7.734,5.723,11.524,9.2,18.407,18.562,36.737,27.069,54.989,3.094,6.5,5.8,12.916,8.585,19.335-2.63-3.79-4.8-6.961-5.182-7.734-11.911-13.767-43-33.334-61.873-25.368a24.052,24.052,0,0,0-10.518,34.726c6.961,12.607,23.2,18.871,36.969,20.8s38.671-4.641,46.946-7.038c2.63,6.651,5.259,13.38,7.734,19.954,1.47,4.563,3.171,8.817,4.331,13.457s2.552,9.049,3.79,13.535c2.088,8.74,4.331,17.711,6.11,26.219,1.315,5.955,2.475,11.678,3.635,17.324-2.939-6.419-8.894-18.871-9.513-19.877-9.745-15.468-37.51-39.444-57.232-34.417a24.13,24.13,0,0,0-15.468,32.251c4.95,13.458,20.418,22.12,33.411,26.141,14.308,4.331,46.018.387,49.962,0,1.856,9.436,3.635,18.717,5.182,27.456,5.337,30.24,8.585,55.608,10.673,73.4.387,3.171.7,6.032.928,8.662H828.54l19.258,374.8h110.83l19.258-374.8H920.731c.387-.851.851-1.7,1.237-2.63,7.734-16.319,18.716-39.831,30.472-68.524,3.712-9.049,7.734-18.794,11.369-28.926,3.867.851,35.19,7.193,49.808,3.945,13.3-3.017,29.312-10.519,35.267-23.667a24.13,24.13,0,0,0-13.3-33.334c-19.335-6.5-48.8,15.468-59.63,30.086-.619.928-6.5,11.06-10.132,17.479,1.547-4.1,3.094-7.734,4.64-12.3,3.094-8.43,5.878-16.938,8.972-26.064,1.315-4.408,2.707-8.894,4.022-13.458s2.4-9.358,3.635-14.076c2.63-11.06,4.8-22.352,6.651-33.8,7.347,2.63,33.643,11.833,47.255,10.828s30.936-5.878,38.671-17.943a24.053,24.053,0,0,0-7.734-34.958c-18.1-9.358-50.581,7.734-63.42,20.727-.851.773-9.049,10.983-13.457,16.706,1.083-6.883,2.166-13.689,3.016-20.727,2.552-20.186,4.486-40.759,6.419-61.177.619-6.342,1.315-12.529,2.011-18.794,2.552,1.005,33.566,12.529,48.88,11.447,13.535-.928,30.936-5.955,38.671-17.943a24.208,24.208,0,0,0-7.734-35.036c-18.175-9.281-50.581,7.734-63.5,20.728-1.005,1.005-12.761,15.468-15.468,19.645,1.47-13.767,3.016-27.456,5.182-40.914a436.362,436.362,0,0,1,11.679-54.139c1.237.464,33.566,12.684,49.189,11.6,13.535-1.005,30.55-5.955,38.671-18.021a24.13,24.13,0,0,0-8.121-34.958c-18.1-9.358-50.581,7.734-63.5,20.727-.851.851-9.822,12.065-14,17.556l-1.005-.542a305.274,305.274,0,0,1,21.346-51.122c4.641-9.049,9.59-17.479,14.54-25.6,5.8,2.939,32.406,15.855,46.4,16.4s30.937-2.552,40.14-13.689a24.053,24.053,0,0,0-4.176-35.577c-17.015-11.292-51.123,2.243-65.353,13.612-.773.619-7.734,7.734-13.148,12.993,2.32-3.635,4.641-7.347,6.961-10.75,8.508-12.839,17.093-24.13,24.749-33.953,4.486-5.646,8.585-10.6,12.452-15.468,7.193,0,35.964-1.005,48.57-6.961s26.373-16.551,29.39-30.936a24.13,24.13,0,0,0-20.186-29.7c-20.263-2.166-44.316,25.6-51.741,42.228-.619,1.47-7.734,25.059-7.734,25.059h.387c-3.79,4.331-7.734,9.049-12.22,14.308-7.734,9.745-16.783,20.8-25.6,33.489a417.615,417.615,0,0,0-26.605,42.383,317.074,317.074,0,0,0-22.661,51.045v-23.28c-2.32-18.02-17.479-51.509-37.51-55.221a24.053,24.053,0,0,0-27.843,22.661c-1.16,14.308,9.281,28.693,19.413,37.742,11.446,10.209,43.156,20.109,45.708,20.882a419.51,419.51,0,0,0-13.457,55.376c-1.934,10.906-3.558,21.965-5.027,33.025v-10.441c-2.32-18.021-17.4-51.509-37.433-55.222a24.131,24.131,0,0,0-27.843,22.661c-1.16,14.308,9.2,28.694,19.335,37.742s37.2,18.176,44.317,20.418L999,2620.007c-2.4,20.418-4.8,40.836-7.734,60.79-1.083,7.038-2.32,13.921-3.558,20.8v-8.971c-2.32-18.1-17.479-51.586-37.51-55.3a24.131,24.131,0,0,0-27.843,22.661c-1.16,14.385,9.2,28.693,19.413,37.82s34.494,17.247,43,19.954c-1.469,7.038-2.939,14.076-4.718,20.8-1.315,4.64-2.243,9.126-3.79,13.612s-2.939,8.972-4.331,13.38c-3.094,8.43-6.187,17.17-9.358,25.291-2.166,5.646-4.408,11.06-6.574,16.474,1.083-7.038,3.016-20.728,3.016-21.887a93.349,93.349,0,0,0-12.529-45.554,30.936,30.936,0,0,0-.387-5.337,24.13,24.13,0,0,0-29.467-20.5c-19.722,5.259-32.174,39.831-33.1,58.006,0,1.083.619,12.761,1.16,20.109-.928-4.254-1.856-8.43-2.939-12.839-2.088-8.662-4.409-17.324-6.883-26.605-1.315-4.486-2.707-8.972-4.022-13.457s-3.171-9.2-4.8-13.844c-3.867-10.6-8.353-21.192-13.071-31.787,7.734-1.856,34.571-8.74,45.4-17.015s22.274-21.81,22.12-36.2a24.13,24.13,0,0,0-25.987-24.749c-20.263,2.243-37.9,34.494-41.532,52.36,0,1.083-1.47,14.153-2.011,21.346-2.862-6.342-5.723-12.684-8.894-18.949-9.049-18.252-18.717-36.427-28.384-54.6l-8.74-16.706c2.707-.619,34.958-8.121,47.1-17.4,10.828-8.276,22.2-21.887,22.12-36.273a24.131,24.131,0,0,0-29.312-23.822c-20.263,2.243-37.82,34.494-41.532,52.283,0,1.392-1.934,20.186-2.166,24.981-6.342-12.22-12.607-24.517-18.253-36.892a408.91,408.91,0,0,1-19.877-51.432c1.237,0,34.958-7.734,47.333-17.479,10.828-8.276,22.274-21.811,22.12-36.2a24.13,24.13,0,0,0-26.064-24.672c-20.263,2.243-37.82,34.494-41.455,52.283,0,1.16-1.624,15.468-2.088,22.352h-1.083a309.349,309.349,0,0,1-10.441-54.139c-1.083-10.131-1.624-19.876-1.933-29.312,6.419-.773,35.732-4.718,47.874-12.065s24.517-19.181,25.987-33.489a24.208,24.208,0,0,0-23.2-27.456c-20.418,0-41.378,30.163-47.023,47.41,0,1.006-2.32,10.905-3.712,18.1v-12.761c0-15.468,1.005-29.544,2.011-42,.619-7.115,1.237-13.535,2.011-19.49,5.878-4.1,29.467-20.727,36.66-32.638s12.916-28.307,7.734-41.687a24.053,24.053,0,0,0-33.179-13.689c-18.1,9.358-23.2,45.786-19.877,63.806,0,1.547,7.115,25.29,7.734,25.136h0c-.851,5.8-1.624,11.988-2.32,18.717-1.238,12.452-2.552,26.605-2.939,42.074a425.868,425.868,0,0,0,1.238,49.962,312.073,312.073,0,0,0,9.2,55.144v.7c-3.171-5.1-12.607-18.871-13.457-19.8-11.911-13.767-43-33.411-61.873-25.445a24.13,24.13,0,0,0-10.673,34.262C678.885,2510.027,695.436,2516.6,708.893,2518.535Zm202.092,267.136c10.441,11.292,37.124,24.517,40.6,26.219-3.635,8.894-7.27,17.556-10.828,25.677-12.22,28.229-23.2,51.2-31.555,67.209-1.7,3.171-3.171,6.033-4.486,8.662h-1.392c0-3.094-.851-6.5-1.315-10.364-2.475-17.943-6.419-43.543-12.452-73.938-1.856-9.668-4.1-19.877-6.419-30.4a272.44,272.44,0,0,0,27.843-13.071Z" transform="translate(-665.506 -2251.239)" fill="#fff" opacity="0.5"/>
          <path id="Path_281" data-name="Path 281" d="M1067.458,2424.939s6.5-23.744,6.729-25.291c2.475-18.02-3.248-54.139-21.655-63.188a24.054,24.054,0,0,0-32.793,14.54c-4.872,13.457,1.315,30.086,8.74,41.455C1037.141,2405.913,1067.381,2424.939,1067.458,2424.939Z" transform="translate(-674.567 -2253.391)" fill="#fff" opacity="0.3"/>
          <path id="Path_282" data-name="Path 282" d="M696.446,2417.726c14.618,6.342,50.426,5.569,50.426,5.569s-7.734-23.2-8.353-24.826c-7.734-16.474-32.638-43.543-52.824-40.836a24.208,24.208,0,0,0-19.413,30.24C669.686,2401.872,683.995,2412.235,696.446,2417.726Z" transform="translate(-665.434 -2253.99)" fill="#fff" opacity="0.3"/>
        </g>
        <g id="freepik--Calendar--inject-298" transform="translate(339.709 146.266)">
          <rect id="Rectangle_4" data-name="Rectangle 4" width="2199.349" height="1453.858" fill="#fff"/>
          <g id="Group_39" data-name="Group 39" clip-path="url(#clip-path-2)">
            <rect id="Rectangle_5" data-name="Rectangle 5" width="2199.349" height="1453.858" fill="#263238"/>
            <rect id="Rectangle_6" data-name="Rectangle 6" width="2199.349" height="1453.858" fill="#fff" opacity="0.8"/>
          </g>
          <rect id="Rectangle_8" data-name="Rectangle 8" width="2199.349" height="1453.858" fill="none" stroke="#263238" stroke-linecap="round" stroke-linejoin="round" stroke-width="7.94"/>
          <rect id="Rectangle_9" data-name="Rectangle 9" width="1534.216" height="1247.28" transform="translate(608.907 162.107)" fill="#fff"/>
          <rect id="Rectangle_10" data-name="Rectangle 10" width="222.433" height="451.672" transform="translate(820.976 277.964)" fill="#1e72f9"/>
          <rect id="Rectangle_11" data-name="Rectangle 11" width="222.433" height="224.521" transform="translate(1922.777 280.594)" fill="#1e72f9"/>
          <rect id="Rectangle_12" data-name="Rectangle 12" width="222.433" height="224.521" transform="translate(1260.738 280.594)" fill="#1e72f9"/>
          <rect id="Rectangle_13" data-name="Rectangle 13" width="435.817" height="224.521" transform="translate(606.896 958.102)" fill="#1e72f9"/>
          <rect id="Rectangle_14" data-name="Rectangle 14" width="2199.349" height="141.302" fill="#263238" stroke="#263238" stroke-linecap="round" stroke-linejoin="round" stroke-width="7.94"/>
          <rect id="Rectangle_15" data-name="Rectangle 15" width="1534.216" height="1247.28" transform="translate(608.907 162.107)" fill="none" stroke="#263238" stroke-linecap="round" stroke-linejoin="round" stroke-width="7.94"/>
          <line id="Line_2" data-name="Line 2" y2="1118.43" transform="translate(824.534 286.781)" fill="none" stroke="#263238" stroke-linecap="round" stroke-linejoin="round" stroke-width="7.94"/>
          <line id="Line_3" data-name="Line 3" y2="1118.43" transform="translate(1044.26 286.781)" fill="none" stroke="#263238" stroke-linecap="round" stroke-linejoin="round" stroke-width="7.94"/>
          <line id="Line_4" data-name="Line 4" y2="1118.43" transform="translate(1264.063 286.781)" fill="none" stroke="#263238" stroke-linecap="round" stroke-linejoin="round" stroke-width="7.94"/>
          <line id="Line_5" data-name="Line 5" y2="1118.43" transform="translate(1483.789 286.781)" fill="none" stroke="#263238" stroke-linecap="round" stroke-linejoin="round" stroke-width="7.94"/>
          <line id="Line_6" data-name="Line 6" y2="1118.43" transform="translate(1703.592 286.781)" fill="none" stroke="#263238" stroke-linecap="round" stroke-linejoin="round" stroke-width="7.94"/>
          <line id="Line_7" data-name="Line 7" y2="1118.43" transform="translate(1923.319 286.781)" fill="none" stroke="#263238" stroke-linecap="round" stroke-linejoin="round" stroke-width="7.94"/>
          <line id="Line_8" data-name="Line 8" x2="1534.216" transform="translate(608.907 282.682)" fill="#fff" stroke="#263238" stroke-linecap="round" stroke-linejoin="round" stroke-width="7.94"/>
          <line id="Line_9" data-name="Line 9" x2="1534.216" transform="translate(608.907 507.203)" fill="none" stroke="#263238" stroke-linecap="round" stroke-linejoin="round" stroke-width="7.94"/>
          <line id="Line_10" data-name="Line 10" x2="1534.216" transform="translate(608.907 731.724)" fill="none" stroke="#263238" stroke-linecap="round" stroke-linejoin="round" stroke-width="7.94"/>
          <line id="Line_11" data-name="Line 11" x2="1534.216" transform="translate(608.907 956.245)" fill="none" stroke="#263238" stroke-linecap="round" stroke-linejoin="round" stroke-width="7.94"/>
          <line id="Line_12" data-name="Line 12" x2="1534.216" transform="translate(608.907 1180.689)" fill="none" stroke="#263238" stroke-linecap="round" stroke-linejoin="round" stroke-width="7.94"/>
          <circle id="Ellipse_21" data-name="Ellipse 21" cx="12.375" cy="12.375" r="12.375" transform="translate(84.998 224.831)" opacity="0.28"/>
          <circle id="Ellipse_22" data-name="Ellipse 22" cx="12.375" cy="12.375" r="12.375" transform="translate(152.981 224.831)" opacity="0.28"/>
          <circle id="Ellipse_23" data-name="Ellipse 23" cx="12.375" cy="12.375" r="12.375" transform="translate(220.886 224.831)" opacity="0.28"/>
          <path id="Path_283" data-name="Path 283" d="M1264.148,951.573a12.375,12.375,0,1,1-12.375-12.3,12.374,12.374,0,0,1,12.375,12.3Z" transform="translate(-950.53 -714.368)" opacity="0.28"/>
          <circle id="Ellipse_24" data-name="Ellipse 24" cx="12.375" cy="12.375" r="12.375" transform="translate(356.775 224.831)" opacity="0.28"/>
          <circle id="Ellipse_25" data-name="Ellipse 25" cx="12.375" cy="12.375" r="12.375" transform="translate(424.757 224.831)" opacity="0.28"/>
          <circle id="Ellipse_26" data-name="Ellipse 26" cx="12.375" cy="12.375" r="12.375" transform="translate(492.74 224.831)" opacity="0.28"/>
          <circle id="Ellipse_27" data-name="Ellipse 27" cx="12.375" cy="12.375" r="12.375" transform="translate(84.998 287.013)" opacity="0.28"/>
          <circle id="Ellipse_28" data-name="Ellipse 28" cx="12.375" cy="12.375" r="12.375" transform="translate(152.981 287.013)" opacity="0.28"/>
          <circle id="Ellipse_29" data-name="Ellipse 29" cx="12.375" cy="12.375" r="12.375" transform="translate(220.886 287.013)" opacity="0.28"/>
          <path id="Path_284" data-name="Path 284" d="M1264.148,1015.409a12.375,12.375,0,1,1-12.375-12.3,12.374,12.374,0,0,1,12.375,12.3Z" transform="translate(-950.53 -716.021)" opacity="0.28"/>
          <circle id="Ellipse_30" data-name="Ellipse 30" cx="12.375" cy="12.375" r="12.375" transform="translate(356.775 287.013)" opacity="0.28"/>
          <circle id="Ellipse_31" data-name="Ellipse 31" cx="12.375" cy="12.375" r="12.375" transform="translate(424.757 287.013)" opacity="0.28"/>
          <circle id="Ellipse_32" data-name="Ellipse 32" cx="12.375" cy="12.375" r="12.375" transform="translate(492.74 287.013)" opacity="0.28"/>
          <circle id="Ellipse_33" data-name="Ellipse 33" cx="12.375" cy="12.375" r="12.375" transform="translate(84.998 349.195)" opacity="0.28"/>
          <circle id="Ellipse_34" data-name="Ellipse 34" cx="12.375" cy="12.375" r="12.375" transform="translate(152.981 349.195)" opacity="0.28"/>
          <circle id="Ellipse_35" data-name="Ellipse 35" cx="12.375" cy="12.375" r="12.375" transform="translate(220.886 349.195)" opacity="0.28"/>
          <path id="Path_285" data-name="Path 285" d="M1264.148,1079.481a12.375,12.375,0,1,1-12.375-12.375A12.375,12.375,0,0,1,1264.148,1079.481Z" transform="translate(-950.53 -717.679)" opacity="0.28"/>
          <circle id="Ellipse_36" data-name="Ellipse 36" cx="12.375" cy="12.375" r="12.375" transform="translate(356.775 349.195)" opacity="0.28"/>
          <circle id="Ellipse_37" data-name="Ellipse 37" cx="12.375" cy="12.375" r="12.375" transform="translate(424.757 349.195)" opacity="0.28"/>
          <circle id="Ellipse_38" data-name="Ellipse 38" cx="12.375" cy="12.375" r="12.375" transform="translate(492.74 349.195)" opacity="0.28"/>
          <path id="Path_286" data-name="Path 286" d="M1054.856,1143a12.375,12.375,0,1,1-12.375-12.375A12.375,12.375,0,0,1,1054.856,1143Z" transform="translate(-945.109 -719.324)" opacity="0.28"/>
          <path id="Path_287" data-name="Path 287" d="M1124.646,1143a12.375,12.375,0,1,1-12.375-12.375A12.375,12.375,0,0,1,1124.646,1143Z" transform="translate(-946.917 -719.324)" opacity="0.28"/>
          <path id="Path_288" data-name="Path 288" d="M1194.358,1143a12.375,12.375,0,1,1-12.375-12.375A12.375,12.375,0,0,1,1194.358,1143Z" transform="translate(-948.722 -719.324)" opacity="0.28"/>
          <path id="Path_289" data-name="Path 289" d="M1264.148,1143a12.375,12.375,0,1,1-12.375-12.375A12.375,12.375,0,0,1,1264.148,1143Z" transform="translate(-950.53 -719.324)" opacity="0.28"/>
          <path id="Path_290" data-name="Path 290" d="M1333.859,1143a12.375,12.375,0,1,1-12.375-12.375A12.375,12.375,0,0,1,1333.859,1143Z" transform="translate(-952.336 -719.324)" opacity="0.28"/>
          <path id="Path_291" data-name="Path 291" d="M1403.65,1143a12.375,12.375,0,1,1-12.375-12.375A12.375,12.375,0,0,1,1403.65,1143Z" transform="translate(-954.144 -719.324)" opacity="0.28"/>
          <path id="Path_292" data-name="Path 292" d="M1473.361,1143a12.374,12.374,0,1,1-12.3-12.375,12.374,12.374,0,0,1,12.3,12.375Z" transform="translate(-955.949 -719.324)" opacity="0.28"/>
          <path id="Path_293" data-name="Path 293" d="M1054.856,1206.914a12.375,12.375,0,1,1-12.375-12.375A12.375,12.375,0,0,1,1054.856,1206.914Z" transform="translate(-945.109 -720.98)" opacity="0.28"/>
          <path id="Path_294" data-name="Path 294" d="M1124.646,1206.914a12.375,12.375,0,1,1-12.375-12.375A12.375,12.375,0,0,1,1124.646,1206.914Z" transform="translate(-946.917 -720.98)" opacity="0.28"/>
          <path id="Path_295" data-name="Path 295" d="M1194.358,1206.914a12.3,12.3,0,1,1-3.6-8.773A12.375,12.375,0,0,1,1194.358,1206.914Z" transform="translate(-948.722 -720.98)" opacity="0.28"/>
          <path id="Path_296" data-name="Path 296" d="M1264.148,1206.914a12.375,12.375,0,1,1-12.375-12.375A12.375,12.375,0,0,1,1264.148,1206.914Z" transform="translate(-950.53 -720.98)" opacity="0.28"/>
          <path id="Path_297" data-name="Path 297" d="M1333.859,1206.914a12.3,12.3,0,1,1-3.6-8.773A12.374,12.374,0,0,1,1333.859,1206.914Z" transform="translate(-952.336 -720.98)" opacity="0.28"/>
          <path id="Path_298" data-name="Path 298" d="M1403.65,1206.914a12.375,12.375,0,1,1-12.375-12.375,12.374,12.374,0,0,1,12.375,12.375Z" transform="translate(-954.144 -720.98)" opacity="0.28"/>
          <path id="Path_299" data-name="Path 299" d="M1473.361,1206.914a12.3,12.3,0,1,1-3.574-8.745A12.374,12.374,0,0,1,1473.361,1206.914Z" transform="translate(-955.949 -720.98)" opacity="0.28"/>
          <path id="Path_300" data-name="Path 300" d="M1054.856,1270.75a12.375,12.375,0,1,1-12.375-12.375A12.375,12.375,0,0,1,1054.856,1270.75Z" transform="translate(-945.109 -722.633)" opacity="0.28"/>
          <path id="Path_301" data-name="Path 301" d="M1124.646,1270.75a12.375,12.375,0,1,1-12.375-12.375A12.375,12.375,0,0,1,1124.646,1270.75Z" transform="translate(-946.917 -722.633)" opacity="0.28"/>
          <path id="Path_302" data-name="Path 302" d="M1194.358,1270.75a12.3,12.3,0,1,1-3.6-8.773A12.375,12.375,0,0,1,1194.358,1270.75Z" transform="translate(-948.722 -722.633)" opacity="0.28"/>
          <path id="Path_303" data-name="Path 303" d="M1264.148,1270.75a12.375,12.375,0,1,1-12.375-12.375A12.375,12.375,0,0,1,1264.148,1270.75Z" transform="translate(-950.53 -722.633)" opacity="0.28"/>
          <path id="Path_304" data-name="Path 304" d="M1333.859,1270.75a12.3,12.3,0,1,1-3.6-8.773A12.375,12.375,0,0,1,1333.859,1270.75Z" transform="translate(-952.336 -722.633)" opacity="0.28"/>
          <path id="Path_305" data-name="Path 305" d="M1403.65,1270.75a12.375,12.375,0,1,1-12.375-12.375,12.375,12.375,0,0,1,12.375,12.375Z" transform="translate(-954.144 -722.633)" opacity="0.28"/>
          <path id="Path_306" data-name="Path 306" d="M1473.361,1270.75a12.3,12.3,0,1,1-3.574-8.745A12.374,12.374,0,0,1,1473.361,1270.75Z" transform="translate(-955.949 -722.633)" opacity="0.28"/>
          <line id="Line_13" data-name="Line 13" x2="189.872" transform="translate(85.849 686.093)" fill="none" stroke="#263238" stroke-linecap="round" stroke-linejoin="round" stroke-width="7.94"/>
          <line id="Line_14" data-name="Line 14" x2="189.872" transform="translate(85.849 814.325)" fill="none" stroke="#263238" stroke-linecap="round" stroke-linejoin="round" stroke-width="7.94"/>
          <line id="Line_15" data-name="Line 15" x2="189.872" transform="translate(85.849 942.556)" fill="none" stroke="#263238" stroke-linecap="round" stroke-linejoin="round" stroke-width="7.94"/>
        </g>
        <g id="freepik--Character--inject-298" transform="translate(1244.083 422.142)">
          <path id="Path_307" data-name="Path 307" d="M2590.866,1087.447s-23.2,60.945-18.485,69.066,16.86,28.384,10.364,44.626-32.251,19.026-29,32.019,21.114,22.738,21.114,22.738,19.258,86.545,27.379,97.914,51.973,4.873,51.973,4.873l3.248,43.852,130.01-8.121-4.873-77.96-6.5-240.376Z" transform="translate(-1888.942 -993.787)" fill="#fff" stroke="#263238" stroke-linecap="round" stroke-linejoin="round" stroke-width="7.94"/>
          <path id="Path_308" data-name="Path 308" d="M2831.135,1057.416a89.871,89.871,0,0,0-65.354-37.433h0S2732.6,991.6,2699.5,991.6s-47.255,16.551-68.524,16.551-35.5-25.987-71,11.833,9.513,78.037,9.513,78.037a40.759,40.759,0,0,0,35.113,12.375c-1.469,7.193-4.486,23.2-5.723,35.036-1.624,16.242,27.611,34.107,27.611,34.107a120.276,120.276,0,0,0,1.624,32.483c3.248,8.121,11.369,9.745,16.242,3.248s8.121-37.356,12.993-24.362,24.362,110.443,37.356,121.812,71.541,4.873,87.782,1.624,47.1-71.463,61.873-112.067S2852.249,1089.9,2831.135,1057.416Z" transform="translate(-1888.758 -991.599)" fill="#263238" stroke="#263238" stroke-linecap="round" stroke-linejoin="round" stroke-width="7.94"/>
          <path id="Path_309" data-name="Path 309" d="M2645.858,1194.857a416.142,416.142,0,0,1,3.944,45.554c0,17.866-11.911,27.766-3.944,35.732s13.844,3.944,19.8-9.977a117.559,117.559,0,0,0,7.735-51.509C2671.612,1200.813,2669.6,1171.036,2645.858,1194.857Z" transform="translate(-1891.264 -996.632)" fill="#fff" stroke="#263238" stroke-linecap="round" stroke-linejoin="round" stroke-width="7.94"/>
          <path id="Path_310" data-name="Path 310" d="M2507.513,2131.91s-40.6,270.694-71.927,537.366-27.456,638.837-27.456,638.837l82.6-.464s93.738-520.815,113.382-579.594,86.235-305.729,86.235-305.729,35.268,282.218,47.023,301.63,171.156,587.328,171.156,587.328l86.313-1.083-85.075-613.16-47.1-564.59Z" transform="translate(-1885.174 -1021.136)" fill="#263238" stroke="#263238" stroke-linecap="round" stroke-linejoin="round" stroke-width="7.94"/>
          <path id="Path_311" data-name="Path 311" d="M2849.677,2335.247l-115.316,43.7-36.5,48.647" transform="translate(-1892.682 -1026.404)" fill="none" stroke="#fff" stroke-linecap="round" stroke-linejoin="round" stroke-width="5.955"/>
          <line id="Line_16" data-name="Line 16" x2="102.864" transform="translate(679.572 1181.076)" fill="none" stroke="#fff" stroke-linecap="round" stroke-linejoin="round" stroke-width="5.955"/>
          <line id="Line_17" data-name="Line 17" x1="40.527" transform="translate(928.92 1181.076)" fill="none" stroke="#fff" stroke-linecap="round" stroke-linejoin="round" stroke-width="5.955"/>
          <path id="Path_312" data-name="Path 312" d="M2400.064,3342.619l-14.308,19.8s-118.951,48.493-118.951,52.9-1.083,7.734,8.817,7.734H2428.68l16.551-5.491v5.491h44.007l1.083-81.44Z" transform="translate(-1881.516 -1052.472)" fill="#263238"/>
          <path id="Path_313" data-name="Path 313" d="M2918.93,3342.619l-14.308,19.8s-118.873,48.493-118.873,52.9-1.16,7.734,8.74,7.734h153.135l16.474-5.491v5.491h44.084l1.083-81.44Z" transform="translate(-1894.958 -1052.472)" fill="#263238"/>
          <path id="Path_314" data-name="Path 314" d="M2627.592,1405.62l-35.731,64.967s89.329-25.987,138.054-25.987a668.2,668.2,0,0,1,102.4,9.745l-25.755-52.669S2686.062,1378.009,2627.592,1405.62Z" transform="translate(-1889.937 -1001.977)" fill="#1e72f9" stroke="#263238" stroke-linecap="round" stroke-linejoin="round" stroke-width="7.94"/>
          <path id="Path_315" data-name="Path 315" d="M2967.035,1504.667l109.9,446.954a47.255,47.255,0,0,1-39.521,58.083L2800.6,2042.11l5.646-76.49,118.95-56.614-25.522-127.458S2926.431,1507.915,2967.035,1504.667Z" transform="translate(-1895.344 -1004.889)" fill="#1e72f9" stroke="#263238" stroke-linecap="round" stroke-linejoin="round" stroke-width="7.94"/>
          <path id="Path_316" data-name="Path 316" d="M2599.323,1453.619a411.759,411.759,0,0,0-91.649,30.008,502.061,502.061,0,0,1-48.725,21.114s42,544.559,42,572.324-1.624,29.235,7.734,37.355,60.171,11.833,149.5,10.209,168.913-.464,177.033-.464a41.919,41.919,0,0,0,32.484-19.49c9.745-14.618,88.71-594.753,90.334-601.25s-122.74-44.084-134.187-47.41C2760.192,1437.223,2674.808,1437.841,2599.323,1453.619Z" transform="translate(-1886.494 -1003.262)" fill="#1e72f9" stroke="#263238" stroke-linecap="round" stroke-linejoin="round" stroke-width="7.94"/>
          <path id="Path_317" data-name="Path 317" d="M2806.476,1889.667a279.9,279.9,0,0,1-32.715,25.445" transform="translate(-1894.649 -1014.861)" fill="none" stroke="#263238" stroke-linecap="round" stroke-linejoin="round" stroke-width="7.94"/>
          <path id="Path_318" data-name="Path 318" d="M2927.425,1671.8s-22.583,99.77-88.478,179.354" transform="translate(-1896.337 -1009.218)" fill="none" stroke="#263238" stroke-linecap="round" stroke-linejoin="round" stroke-width="7.94"/>
          <path id="Path_319" data-name="Path 319" d="M2940.258,1921.426s23.821,33.411,82.059,37.278" transform="translate(-1898.961 -1015.684)" fill="none" stroke="#263238" stroke-linecap="round" stroke-linejoin="round" stroke-width="7.94"/>
          <path id="Path_320" data-name="Path 320" d="M2928.507,1919.917a94.2,94.2,0,0,0,48.725,55.995" transform="translate(-1898.657 -1015.645)" fill="none" stroke="#263238" stroke-linecap="round" stroke-linejoin="round" stroke-width="7.94"/>
          <path id="Path_321" data-name="Path 321" d="M2445.375,1500.54,2215.9,1572.468l-227.769-283.842-44.239,36.892L2148,1718.178a61.873,61.873,0,0,0,68.37,31.942l243.47-53.907S2489.846,1614.232,2445.375,1500.54Z" transform="translate(-1873.152 -999.293)" fill="#1e72f9" stroke="#263238" stroke-linecap="round" stroke-linejoin="round" stroke-width="7.94"/>
          <path id="Path_322" data-name="Path 322" d="M2215.14,1589.543s-22.352,29.854-19.877,61.873" transform="translate(-1879.659 -1007.087)" fill="none" stroke="#263238" stroke-linecap="round" stroke-linejoin="round" stroke-width="7.94"/>
          <path id="Path_323" data-name="Path 323" d="M2177.33,1615.109s-9.977,44.7,7.734,72.082" transform="translate(-1879.127 -1007.75)" fill="none" stroke="#263238" stroke-linecap="round" stroke-linejoin="round" stroke-width="7.94"/>
          <path id="Path_324" data-name="Path 324" d="M2473.558,1707.052s57,66.745,101.7,89.1" transform="translate(-1886.872 -1010.131)" fill="none" stroke="#263238" stroke-linecap="round" stroke-linejoin="round" stroke-width="7.94"/>
          <path id="Path_325" data-name="Path 325" d="M2488.644,1742.622s32.328,74.634,96.986,109.36" transform="translate(-1887.263 -1011.053)" fill="none" stroke="#263238" stroke-linecap="round" stroke-linejoin="round" stroke-width="7.94"/>
          <line id="Line_18" data-name="Line 18" y1="31.942" x2="49.189" transform="translate(90.388 333.572)" fill="none" stroke="#263238" stroke-linecap="round" stroke-linejoin="round" stroke-width="7.94"/>
          <path id="Path_326" data-name="Path 326" d="M1986.254,1283.877s15.468-19.181,15.468-36.892-12.375-38.671-7.038-53.133,28.307-31.865,8.817-37.2-35.422,5.337-37.2,19.49,0,15.932,0,15.932-21.269-42.538-35.422-56.691-24.749-30.086-33.643-30.086-17.711,5.259-12.375,14.153,31.864,51.354,31.864,51.354l5.337,17.711s-30.163,1.779-33.721,7.115-1.7,21.269-10.6,31.865-7.115,21.269-3.558,31.942,14.154,28.307,21.269,28.307a24.13,24.13,0,0,0,12.375-3.558l33.8,36.582Z" transform="translate(-1871.271 -994.544)" fill="#fff" stroke="#263238" stroke-linecap="round" stroke-linejoin="round" stroke-width="7.94"/>
          <line id="Line_19" data-name="Line 19" x1="17.711" y1="26.528" transform="translate(19.234 263.114)" fill="none" stroke="#263238" stroke-linecap="round" stroke-linejoin="round" stroke-width="7.94"/>
        </g>
      </g>
    </g>
  </g>
</svg>
