<svg xmlns="http://www.w3.org/2000/svg" width="575.066" height="545.901" viewBox="0 0 575.066 545.901">
  <g id="Static_assets-amico" data-name="Static assets-amico" transform="translate(-22.17 -38.644)">
    <g id="freepik--Floor--inject-48" transform="translate(22.17 268.421)">
      <ellipse id="freepik--floor--inject-48-2" data-name="freepik--floor--inject-48" cx="287.533" cy="158.062" rx="287.533" ry="158.062" fill="#f5f5f5"/>
    </g>
    <g id="freepik--Shadows--inject-48" transform="translate(43.45 297.332)">
      <ellipse id="freepik--Shadow--inject-48" cx="91.579" cy="52.868" rx="91.579" ry="52.868" transform="translate(228.589 157.137)" fill="#e0e0e0"/>
      <path id="freepik--shadow--inject-48-2" data-name="freepik--shadow--inject-48" d="M250.926,388.8l165.128-95.365c1.956-1.123,1.956-2.953,0-4.076l-72.426-41.815a7.747,7.747,0,0,0-7.066,0L171.434,342.975c-1.956,1.123-1.956,2.953,0,4.076l72.438,41.815a7.722,7.722,0,0,0,7.053-.063Z" transform="translate(-4.76 -242.869)" fill="#e0e0e0"/>
      <path id="freepik--shadow--inject-48-3" data-name="freepik--shadow--inject-48" d="M146.052,408.724,40.492,347.781c-1.943-1.123-1.943-2.953,0-4.076l171.8-99.2a7.836,7.836,0,0,1,7.066,0l105.56,60.944c1.956,1.136,1.956,2.953,0,4.088l-171.8,99.188a7.836,7.836,0,0,1-7.066,0Z" transform="translate(-39.035 -243.663)" fill="#e0e0e0"/>
    </g>
    <g id="freepik--Photos--inject-48" transform="translate(45.412 40.027)">
      <g id="freepik--photos--inject-48-2" data-name="freepik--photos--inject-48" transform="translate(0 147.766)">
        <path id="Path_5391" data-name="Path 5391" d="M201.252,237.032,42.659,328.612a4.542,4.542,0,0,0-2.069,3.571v4.176a4.542,4.542,0,0,0,2.069,3.571l104.273,60.212a4.568,4.568,0,0,0,4.126,0l158.63-91.592a4.568,4.568,0,0,0,2.057-3.571V300.8a4.542,4.542,0,0,0-2.069-3.571l-104.3-60.2a4.568,4.568,0,0,0-4.126,0Z" transform="translate(-40.59 -135.989)" fill="#37474f"/>
        <path id="Path_5392" data-name="Path 5392" d="M146.679,391.2,42.406,331a1.262,1.262,0,0,1,0-2.385L201,237.032a4.568,4.568,0,0,1,4.126,0l104.3,60.2a1.262,1.262,0,0,1,0,2.372L150.805,391.2a4.568,4.568,0,0,1-4.126,0Z" transform="translate(-40.337 -135.989)" fill="#455a64"/>
        <path id="Path_5393" data-name="Path 5393" d="M149.128,372.531v8.933a4.277,4.277,0,0,1-2.183-.467l-104.3-60.224a4.555,4.555,0,0,1-2.057-3.558v-4.176a4.631,4.631,0,0,1,1.678-3.318c-.732.669-.606,1.539.379,2.107l104.3,60.212a4.29,4.29,0,0,0,2.183.492Z" transform="translate(-40.59 -116.833)" fill="#263238"/>
        <path id="Path_5394" data-name="Path 5394" d="M235.01,315.612l-4.341,2.524L246.076,201.9l4.353-2.511Z" transform="translate(9.168 -145.714)" fill="#e0e0e0"/>
        <path id="Path_5395" data-name="Path 5395" d="M249.955,328.742,157,275.092,172.406,158.87l92.955,53.638Z" transform="translate(-10.117 -156.321)" fill="#fafafa"/>
        <path id="Path_5396" data-name="Path 5396" d="M266.518,210.526l-4.353,2.511L169.21,159.4l4.416-2.549Z" transform="translate(-6.921 -156.85)" fill="#ebebeb"/>
        <path id="Path_5397" data-name="Path 5397" d="M259.605,212.971,174.41,163.8,160.43,270l85.195,49.1Z" transform="translate(-9.219 -155.031)" fill="#ff725e"/>
        <path id="Path_5398" data-name="Path 5398" d="M259.605,212.971,174.41,163.8,160.43,270l85.195,49.1Z" transform="translate(-9.219 -155.031)" fill="#fff" opacity="0.8"/>
        <path id="Path_5399" data-name="Path 5399" d="M168.762,220.111l21.867-20.718c2.284-2.158,4.984-1.489,5.993,1.489l15.671,46.156a1.035,1.035,0,0,0,2.019-.4l-.681-9.728,13.943-9.817a4.782,4.782,0,0,1,7.23,1.83l16.4,32.806-5.829,44.162L163.5,258.7Z" transform="translate(-8.416 -146.045)" fill="#ff725e"/>
        <path id="Path_5400" data-name="Path 5400" d="M228.1,203.212c-3.785-2.221-7.444-.707-8.037,3.369s2.095,9.2,5.981,11.444,7.482.744,8.037-3.356S231.953,205.408,228.1,203.212Z" transform="translate(6.371 -144.982)" fill="#ff725e"/>
        <path id="Path_5401" data-name="Path 5401" d="M178.269,166.046,164.3,267.682l-3.861,2.246L174.408,163.8Z" transform="translate(-9.217 -155.031)" fill="#e0e0e0"/>
        <path id="Path_5402" data-name="Path 5402" d="M164.3,246.13l81.876,47.241-.555,4.176L160.44,248.376Z" transform="translate(-9.217 -133.479)" fill="#ebebeb"/>
        <path id="Path_5403" data-name="Path 5403" d="M216.693,326.232l-4.353,2.511,15.419-116.222,4.353-2.511Z" transform="translate(4.369 -142.934)" fill="#e0e0e0"/>
        <path id="Path_5404" data-name="Path 5404" d="M231.625,339.352,138.67,285.7,154.076,169.48l92.967,53.651Z" transform="translate(-14.915 -153.544)" fill="#fafafa"/>
        <path id="Path_5405" data-name="Path 5405" d="M248.2,221.148l-4.353,2.511L150.88,170.009l4.416-2.549Z" transform="translate(-11.719 -154.073)" fill="#ebebeb"/>
        <path id="Path_5406" data-name="Path 5406" d="M241.285,223.579,156.09,174.42,142.11,280.611,227.3,329.719Z" transform="translate(-14.015 -152.251)" fill="#ff725e"/>
        <path id="Path_5407" data-name="Path 5407" d="M241.285,223.579,156.09,174.42,142.11,280.611,227.3,329.719Z" transform="translate(-14.015 -152.251)" fill="#fff" opacity="0.8"/>
        <path id="Path_5408" data-name="Path 5408" d="M150.432,230.72l21.854-20.706c2.284-2.17,5.047-1.5,5.993,1.476l15.671,46.156a1.035,1.035,0,0,0,2.019-.4l-.681-9.728,13.943-9.8a4.795,4.795,0,0,1,7.243,1.83l16.4,32.806-5.817,44.162L145.17,269.28Z" transform="translate(-13.214 -143.267)" fill="#ff725e"/>
        <path id="Path_5409" data-name="Path 5409" d="M209.772,213.813c-3.848-2.221-7.432-.719-8.025,3.356s2.082,9.211,5.981,11.457,7.482.732,8.025-3.369S213.62,216.034,209.772,213.813Z" transform="translate(1.575 -142.207)" fill="#ff725e"/>
        <path id="Path_5410" data-name="Path 5410" d="M159.949,176.653,145.968,278.3l-3.848,2.233L156.088,174.42Z" transform="translate(-14.012 -152.251)" fill="#e0e0e0"/>
        <path id="Path_5411" data-name="Path 5411" d="M145.968,256.75l81.876,47.228-.543,4.189L142.12,258.983Z" transform="translate(-14.012 -130.699)" fill="#ebebeb"/>
        <path id="Path_5412" data-name="Path 5412" d="M198.361,336.855l-4.34,2.511,15.406-116.222,4.353-2.524Z" transform="translate(-0.426 -140.157)" fill="#e0e0e0"/>
        <path id="Path_5413" data-name="Path 5413" d="M213.307,349.973,120.34,296.322,135.759,180.1l92.955,53.651Z" transform="translate(-19.714 -150.764)" fill="#fafafa"/>
        <path id="Path_5414" data-name="Path 5414" d="M229.868,231.756l-4.353,2.524L132.56,180.629l4.416-2.549Z" transform="translate(-16.515 -151.293)" fill="#ebebeb"/>
        <path id="Path_5415" data-name="Path 5415" d="M222.955,234.2,137.76,185.03l-13.98,106.2,85.195,49.1Z" transform="translate(-18.813 -149.473)" fill="#ff725e"/>
        <path id="Path_5416" data-name="Path 5416" d="M222.955,234.2,137.76,185.03l-13.98,106.2,85.195,49.1Z" transform="translate(-18.813 -149.473)" fill="#fff" opacity="0.8"/>
        <path id="Path_5417" data-name="Path 5417" d="M132.092,241.341l21.854-20.718c2.284-2.158,4.971-1.489,5.993,1.489L175.6,268.267a1.035,1.035,0,0,0,2.019-.4l-.681-9.728,13.955-9.817a4.782,4.782,0,0,1,7.23,1.83l16.4,32.806-5.817,44.162L126.83,279.888Z" transform="translate(-18.015 -140.487)" fill="#ff725e"/>
        <path id="Path_5418" data-name="Path 5418" d="M191.455,224.422c-3.848-2.221-7.444-.707-8.037,3.369s2.095,9.2,5.981,11.444,7.482.744,8.025-3.356S195.29,226.681,191.455,224.422Z" transform="translate(-3.223 -139.429)" fill="#ff725e"/>
        <path id="Path_5419" data-name="Path 5419" d="M141.619,187.276,127.651,288.924l-3.861,2.233L137.758,185.03Z" transform="translate(-18.811 -149.473)" fill="#e0e0e0"/>
        <path id="Path_5420" data-name="Path 5420" d="M127.651,267.37,209.527,314.6l-.555,4.176L123.79,269.6Z" transform="translate(-18.811 -127.919)" fill="#ebebeb"/>
        <path id="Path_5421" data-name="Path 5421" d="M180.031,347.462l-4.34,2.511,15.419-116.222,4.34-2.511Z" transform="translate(-5.224 -137.377)" fill="#e0e0e0"/>
        <path id="Path_5422" data-name="Path 5422" d="M194.975,360.582,102.02,306.932,117.426,190.71l92.967,53.651Z" transform="translate(-24.509 -147.986)" fill="#fafafa"/>
        <path id="Path_5423" data-name="Path 5423" d="M211.538,242.378l-4.34,2.511L114.23,191.239l4.416-2.549Z" transform="translate(-21.313 -148.515)" fill="#ebebeb"/>
        <path id="Path_5424" data-name="Path 5424" d="M204.635,244.809,119.44,195.65,105.46,301.841l85.195,49.108Z" transform="translate(-23.609 -146.693)" fill="#ff725e"/>
        <path id="Path_5425" data-name="Path 5425" d="M204.635,244.809,119.44,195.65,105.46,301.841l85.195,49.108Z" transform="translate(-23.609 -146.693)" fill="#fff" opacity="0.8"/>
        <path id="Path_5426" data-name="Path 5426" d="M113.782,251.944l21.841-20.68c2.284-2.158,5.047-1.5,5.993,1.476L157.288,278.9a1.035,1.035,0,0,0,2.019-.4l-.681-9.728,13.88-9.8a4.795,4.795,0,0,1,7.243,1.83l16.4,32.806-5.829,44.162-81.8-47.19Z" transform="translate(-22.808 -137.703)" fill="#ff725e"/>
        <path id="Path_5427" data-name="Path 5427" d="M173.121,235.043c-3.848-2.221-7.444-.719-8.025,3.356s2.082,9.211,5.968,11.457,7.495.744,8.037-3.369S176.97,237.264,173.121,235.043Z" transform="translate(-8.018 -136.65)" fill="#ff725e"/>
        <path id="Path_5428" data-name="Path 5428" d="M123.289,197.9,109.321,299.532l-3.861,2.233L119.44,195.65Z" transform="translate(-23.609 -146.693)" fill="#e0e0e0"/>
        <path id="Path_5429" data-name="Path 5429" d="M109.321,277.98,191.2,325.208l-.543,4.189L105.46,280.213Z" transform="translate(-23.609 -125.141)" fill="#ebebeb"/>
        <path id="Path_5430" data-name="Path 5430" d="M161.71,358.072l-4.34,2.524,15.406-116.235,4.353-2.511Z" transform="translate(-10.02 -134.599)" fill="#e0e0e0"/>
        <path id="Path_5431" data-name="Path 5431" d="M176.657,371.2,83.69,317.552,99.109,201.33l92.955,53.638Z" transform="translate(-29.308 -145.206)" fill="#fafafa"/>
        <path id="Path_5432" data-name="Path 5432" d="M193.218,252.986l-4.353,2.511L95.91,201.859l4.4-2.549Z" transform="translate(-26.109 -145.735)" fill="#ebebeb"/>
        <path id="Path_5433" data-name="Path 5433" d="M186.305,255.431,101.11,206.26l-13.98,106.2,85.195,49.1Z" transform="translate(-28.407 -143.916)" fill="#ff725e"/>
        <path id="Path_5434" data-name="Path 5434" d="M186.305,255.431,101.11,206.26l-13.98,106.2,85.195,49.1Z" transform="translate(-28.407 -143.916)" fill="#fff" opacity="0.8"/>
        <path id="Path_5435" data-name="Path 5435" d="M95.462,262.561l21.854-20.718c2.284-2.158,4.971-1.489,5.981,1.489l15.671,46.156a1.035,1.035,0,0,0,2.019-.4l-.681-9.728,13.993-9.8a4.795,4.795,0,0,1,7.192,1.842l16.4,32.806-5.817,44.162L90.2,301.171Z" transform="translate(-27.603 -134.933)" fill="#ff725e"/>
        <path id="Path_5436" data-name="Path 5436" d="M154.792,245.651c-3.785-2.208-7.432-.707-8.025,3.369s2.095,9.2,5.981,11.444,7.482.744,8.025-3.356S158.64,247.872,154.792,245.651Z" transform="translate(-12.817 -133.871)" fill="#ff725e"/>
        <path id="Path_5437" data-name="Path 5437" d="M104.969,208.506,91,310.154l-3.861,2.233L101.108,206.26Z" transform="translate(-28.404 -143.916)" fill="#e0e0e0"/>
        <path id="Path_5438" data-name="Path 5438" d="M91,288.6l81.876,47.228L172.322,340,87.14,290.833Z" transform="translate(-28.404 -122.361)" fill="#ebebeb"/>
        <path id="Path_5439" data-name="Path 5439" d="M143.38,368.692l-4.34,2.511,15.406-116.222,4.353-2.511Z" transform="translate(-14.818 -131.819)" fill="#e0e0e0"/>
        <path id="Path_5440" data-name="Path 5440" d="M158.325,381.813,65.37,328.162,80.776,211.94l92.955,53.651Z" transform="translate(-34.103 -142.429)" fill="#fafafa"/>
        <path id="Path_5441" data-name="Path 5441" d="M174.888,263.608l-4.353,2.511L77.58,212.469,82,209.92Z" transform="translate(-30.907 -142.958)" fill="#ebebeb"/>
        <path id="Path_5442" data-name="Path 5442" d="M167.975,266.039,82.793,216.88,68.8,323.071l85.195,49.108Z" transform="translate(-33.205 -141.136)" fill="#ff725e"/>
        <path id="Path_5443" data-name="Path 5443" d="M167.975,266.039,82.793,216.88,68.8,323.071l85.195,49.108Z" transform="translate(-33.205 -141.136)" fill="#fff" opacity="0.8"/>
        <path id="Path_5444" data-name="Path 5444" d="M77.081,273.179l21.854-20.706c2.284-2.158,5.047-1.5,5.993,1.476l15.722,46.206a1.035,1.035,0,0,0,2.019-.4l-.681-9.728,13.88-9.8a4.782,4.782,0,0,1,7.23,1.83l16.4,32.806-5.829,44.162-81.8-47.241Z" transform="translate(-32.402 -132.151)" fill="#ff725e"/>
        <path id="Path_5445" data-name="Path 5445" d="M136.471,256.273c-3.785-2.221-7.444-.719-8.025,3.369s2.082,9.2,5.968,11.444,7.482.744,8.038-3.369S140.32,258.494,136.471,256.273Z" transform="translate(-17.612 -131.092)" fill="#ff725e"/>
        <path id="Path_5446" data-name="Path 5446" d="M86.639,219.126,72.671,320.762l-3.861,2.246L82.79,216.88Z" transform="translate(-33.203 -141.136)" fill="#e0e0e0"/>
        <path id="Path_5447" data-name="Path 5447" d="M72.671,299.21l81.876,47.228-.555,4.189L68.81,301.456Z" transform="translate(-33.203 -119.584)" fill="#ebebeb"/>
      </g>
      <g id="freepik--photos--inject-48-3" data-name="freepik--photos--inject-48">
        <path id="Path_5448" data-name="Path 5448" d="M201.252,120.681,42.659,212.26a4.542,4.542,0,0,0-2.069,3.583v4.176a4.568,4.568,0,0,0,2.069,3.583l104.273,60.2a4.568,4.568,0,0,0,4.126,0l158.63-91.592a4.568,4.568,0,0,0,2.057-3.571v-4.176a4.542,4.542,0,0,0-2.069-3.571l-104.3-60.2a4.568,4.568,0,0,0-4.126-.013Z" transform="translate(-40.59 -18.679)" fill="#37474f"/>
        <path id="Path_5449" data-name="Path 5449" d="M146.679,274.846l-104.273-60.2a1.262,1.262,0,0,1,0-2.385L201,120.682a4.568,4.568,0,0,1,4.126,0l104.3,60.2c1.148.656,1.148,1.716,0,2.385L150.805,274.846A4.492,4.492,0,0,1,146.679,274.846Z" transform="translate(-40.337 -18.68)" fill="#455a64"/>
        <path id="Path_5450" data-name="Path 5450" d="M149.128,256.181v8.946a4.416,4.416,0,0,1-2.183-.479l-104.3-60.224a4.555,4.555,0,0,1-2.057-3.558v-4.176a4.631,4.631,0,0,1,1.678-3.318c-.732.669-.606,1.539.379,2.12l104.3,60.2A4.164,4.164,0,0,0,149.128,256.181Z" transform="translate(-40.59 0.476)" fill="#263238"/>
        <path id="Path_5451" data-name="Path 5451" d="M235.01,198.512l-4.341,2.511L246.076,84.8l4.353-2.511Z" transform="translate(9.168 -28.602)" fill="#e0e0e0"/>
        <path id="Path_5452" data-name="Path 5452" d="M249.955,211.632,157,157.982,172.406,41.76l92.955,53.651Z" transform="translate(-10.117 -39.211)" fill="#fafafa"/>
        <path id="Path_5453" data-name="Path 5453" d="M266.518,93.428l-4.353,2.511L169.21,42.289l4.416-2.549Z" transform="translate(-6.921 -39.74)" fill="#ebebeb"/>
        <path id="Path_5454" data-name="Path 5454" d="M259.605,95.859,174.41,46.7,160.43,152.891,245.625,202Z" transform="translate(-9.219 -37.918)" fill="#ff725e"/>
        <path id="Path_5455" data-name="Path 5455" d="M259.605,95.859,174.41,46.7,160.43,152.891,245.625,202Z" transform="translate(-9.219 -37.918)" fill="#fff" opacity="0.8"/>
        <path id="Path_5456" data-name="Path 5456" d="M168.762,103.008l21.867-20.744c2.284-2.17,4.984-1.5,5.993,1.476L212.293,129.9a1.035,1.035,0,0,0,2.019-.4l-.681-9.728,13.93-9.741a4.77,4.77,0,0,1,7.23,1.817l16.4,32.806-5.829,44.162L163.5,141.568Z" transform="translate(-8.416 -28.942)" fill="#ff725e"/>
        <path id="Path_5457" data-name="Path 5457" d="M228.1,86.093c-3.785-2.221-7.444-.719-8.037,3.356s2.095,9.211,5.981,11.457,7.482.732,8.037-3.369S231.953,88.314,228.1,86.093Z" transform="translate(6.371 -27.875)" fill="#ff725e"/>
        <path id="Path_5458" data-name="Path 5458" d="M178.269,48.933,164.3,150.582l-3.861,2.233L174.408,46.7Z" transform="translate(-9.217 -37.918)" fill="#e0e0e0"/>
        <path id="Path_5459" data-name="Path 5459" d="M164.3,129.03l81.876,47.228-.555,4.189L160.44,131.263Z" transform="translate(-9.217 -16.366)" fill="#ebebeb"/>
        <path id="Path_5460" data-name="Path 5460" d="M216.693,209.122l-4.353,2.511L227.759,95.411l4.353-2.511Z" transform="translate(4.369 -25.824)" fill="#e0e0e0"/>
        <path id="Path_5461" data-name="Path 5461" d="M231.625,222.24,138.67,168.6,154.076,52.38l92.967,53.638Z" transform="translate(-14.915 -36.431)" fill="#fafafa"/>
        <path id="Path_5462" data-name="Path 5462" d="M248.2,104.036l-4.353,2.511L150.88,52.909,155.3,50.36Z" transform="translate(-11.719 -36.96)" fill="#ebebeb"/>
        <path id="Path_5463" data-name="Path 5463" d="M241.285,106.481,156.09,57.31,142.11,163.5,227.3,212.609Z" transform="translate(-14.015 -35.141)" fill="#ff725e"/>
        <path id="Path_5464" data-name="Path 5464" d="M241.285,106.481,156.09,57.31,142.11,163.5,227.3,212.609Z" transform="translate(-14.015 -35.141)" fill="#fff" opacity="0.8"/>
        <path id="Path_5465" data-name="Path 5465" d="M150.432,113.608,172.286,92.9c2.284-2.158,5.047-1.489,5.993,1.489l15.671,46.156a1.035,1.035,0,0,0,2.019-.416l-.681-9.716L209.23,120.6a4.795,4.795,0,0,1,7.243,1.83l16.4,32.806L227.059,199.4,145.17,152.168Z" transform="translate(-13.214 -26.155)" fill="#ff725e"/>
        <path id="Path_5466" data-name="Path 5466" d="M209.772,96.7c-3.848-2.221-7.432-.707-8.025,3.369s2.082,9.2,5.981,11.444,7.482.744,8.025-3.356S213.62,98.923,209.772,96.7Z" transform="translate(1.575 -25.097)" fill="#ff725e"/>
        <path id="Path_5467" data-name="Path 5467" d="M159.949,59.556l-13.98,101.636-3.848,2.246L156.088,57.31Z" transform="translate(-14.012 -35.141)" fill="#e0e0e0"/>
        <path id="Path_5468" data-name="Path 5468" d="M145.968,139.64l81.876,47.228-.543,4.189L142.12,141.886Z" transform="translate(-14.012 -13.589)" fill="#ebebeb"/>
        <path id="Path_5469" data-name="Path 5469" d="M198.361,219.742l-4.34,2.511,15.406-116.222,4.353-2.511Z" transform="translate(-0.426 -23.044)" fill="#e0e0e0"/>
        <path id="Path_5470" data-name="Path 5470" d="M213.307,232.862,120.34,179.212,135.759,62.99l92.955,53.651Z" transform="translate(-19.714 -33.654)" fill="#fafafa"/>
        <path id="Path_5471" data-name="Path 5471" d="M229.868,114.658l-4.353,2.511L132.56,63.519l4.416-2.549Z" transform="translate(-16.515 -34.183)" fill="#ebebeb"/>
        <path id="Path_5472" data-name="Path 5472" d="M222.955,117.091,137.76,67.92l-13.98,106.2,85.195,49.1Z" transform="translate(-18.813 -32.363)" fill="#ff725e"/>
        <path id="Path_5473" data-name="Path 5473" d="M222.955,117.091,137.76,67.92l-13.98,106.2,85.195,49.1Z" transform="translate(-18.813 -32.363)" fill="#fff" opacity="0.8"/>
        <path id="Path_5474" data-name="Path 5474" d="M132.086,124.23l21.854-20.706c2.284-2.17,4.971-1.5,5.993,1.476l15.684,46.143a1.035,1.035,0,0,0,2.019-.4l-.681-9.728,13.955-9.8a4.77,4.77,0,0,1,7.23,1.817l16.4,32.806-5.817,44.162L126.85,162.765Z" transform="translate(-18.009 -23.377)" fill="#ff725e"/>
        <path id="Path_5475" data-name="Path 5475" d="M191.455,107.323c-3.848-2.221-7.444-.719-8.037,3.356s2.095,9.211,5.981,11.457,7.482.732,8.025-3.369S195.29,109.544,191.455,107.323Z" transform="translate(-3.223 -22.317)" fill="#ff725e"/>
        <path id="Path_5476" data-name="Path 5476" d="M141.619,70.166,127.651,171.814l-3.861,2.233L137.758,67.92Z" transform="translate(-18.811 -32.363)" fill="#e0e0e0"/>
        <path id="Path_5477" data-name="Path 5477" d="M127.651,150.26l81.876,47.228-.555,4.176L123.79,152.493Z" transform="translate(-18.811 -10.809)" fill="#ebebeb"/>
        <path id="Path_5478" data-name="Path 5478" d="M180.031,230.352l-4.34,2.511,15.419-116.222,4.34-2.511Z" transform="translate(-5.224 -20.267)" fill="#e0e0e0"/>
        <path id="Path_5479" data-name="Path 5479" d="M194.975,243.47,102.02,189.832,117.426,73.61l92.967,53.638Z" transform="translate(-24.509 -30.874)" fill="#fafafa"/>
        <path id="Path_5480" data-name="Path 5480" d="M211.538,125.266l-4.34,2.511L114.23,74.139l4.416-2.549Z" transform="translate(-21.313 -31.403)" fill="#ebebeb"/>
        <path id="Path_5481" data-name="Path 5481" d="M204.635,127.7,119.44,78.54,105.46,184.731l85.195,49.108Z" transform="translate(-23.609 -29.583)" fill="#ff725e"/>
        <path id="Path_5482" data-name="Path 5482" d="M204.635,127.7,119.44,78.54,105.46,184.731l85.195,49.108Z" transform="translate(-23.609 -29.583)" fill="#fff" opacity="0.8"/>
        <path id="Path_5483" data-name="Path 5483" d="M113.8,134.838l21.841-20.706c2.284-2.158,5.047-1.489,5.993,1.489L157.3,161.777a1.035,1.035,0,0,0,2.019-.4l-.681-9.728,13.88-9.817a4.795,4.795,0,0,1,7.243,1.83l16.4,32.806-5.829,44.162L108.46,173.385Z" transform="translate(-22.823 -20.597)" fill="#ff725e"/>
        <path id="Path_5484" data-name="Path 5484" d="M173.121,117.932c-3.848-2.221-7.444-.707-8.025,3.369s2.082,9.2,5.968,11.444,7.495.744,8.037-3.356S176.97,120.153,173.121,117.932Z" transform="translate(-8.018 -19.539)" fill="#ff725e"/>
        <path id="Path_5485" data-name="Path 5485" d="M123.289,80.786,109.321,182.422l-3.861,2.246L119.44,78.54Z" transform="translate(-23.609 -29.583)" fill="#e0e0e0"/>
        <path id="Path_5486" data-name="Path 5486" d="M109.321,160.87,191.2,208.111l-.543,4.176L105.46,163.116Z" transform="translate(-23.609 -8.031)" fill="#ebebeb"/>
        <path id="Path_5487" data-name="Path 5487" d="M161.71,240.972l-4.34,2.511,15.406-116.222,4.353-2.511Z" transform="translate(-10.02 -17.487)" fill="#e0e0e0"/>
        <path id="Path_5488" data-name="Path 5488" d="M176.657,254.092,83.69,200.442,99.109,84.22l92.955,53.651Z" transform="translate(-29.308 -28.096)" fill="#fafafa"/>
        <path id="Path_5489" data-name="Path 5489" d="M193.218,135.888l-4.353,2.511L95.91,84.749l4.4-2.549Z" transform="translate(-26.109 -28.625)" fill="#ebebeb"/>
        <path id="Path_5490" data-name="Path 5490" d="M186.305,138.319,101.11,89.16,87.13,195.351l85.195,49.108Z" transform="translate(-28.407 -26.803)" fill="#ff725e"/>
        <path id="Path_5491" data-name="Path 5491" d="M186.305,138.319,101.11,89.16,87.13,195.351l85.195,49.108Z" transform="translate(-28.407 -26.803)" fill="#fff" opacity="0.8"/>
        <path id="Path_5492" data-name="Path 5492" d="M95.462,145.46l21.854-20.706c2.284-2.17,4.971-1.5,5.981,1.476l15.671,46.156a1.035,1.035,0,0,0,2.019-.4l-.681-9.728,13.993-9.8a4.782,4.782,0,0,1,7.243,1.817l16.4,32.806-5.817,44.162L90.2,184.058Z" transform="translate(-27.603 -17.819)" fill="#ff725e"/>
        <path id="Path_5493" data-name="Path 5493" d="M154.792,128.553c-3.785-2.221-7.432-.719-8.025,3.356s2.095,9.211,5.981,11.457,7.482.732,8.025-3.369S158.64,130.774,154.792,128.553Z" transform="translate(-12.817 -16.76)" fill="#ff725e"/>
        <path id="Path_5494" data-name="Path 5494" d="M104.969,91.393,91,193.042l-3.861,2.233L101.108,89.16Z" transform="translate(-28.404 -26.803)" fill="#e0e0e0"/>
        <path id="Path_5495" data-name="Path 5495" d="M91,171.49l81.876,47.228-.555,4.189L87.14,173.723Z" transform="translate(-28.404 -5.251)" fill="#ebebeb"/>
        <path id="Path_5496" data-name="Path 5496" d="M143.38,251.582l-4.34,2.511,15.406-116.222,4.353-2.511Z" transform="translate(-14.818 -14.709)" fill="#e0e0e0"/>
        <path id="Path_5497" data-name="Path 5497" d="M158.325,264.7,65.37,211.062,80.776,94.84l92.955,53.638Z" transform="translate(-34.103 -25.316)" fill="#fafafa"/>
        <path id="Path_5498" data-name="Path 5498" d="M174.888,146.5l-4.353,2.511L77.58,95.369,82,92.82Z" transform="translate(-30.907 -25.845)" fill="#ebebeb"/>
        <path id="Path_5499" data-name="Path 5499" d="M167.975,148.941,82.793,99.77,68.8,205.961l85.195,49.108Z" transform="translate(-33.205 -24.026)" fill="#ff725e"/>
        <path id="Path_5500" data-name="Path 5500" d="M167.975,148.941,82.793,99.77,68.8,205.961l85.195,49.108Z" transform="translate(-33.205 -24.026)" fill="#fff" opacity="0.8"/>
        <path id="Path_5501" data-name="Path 5501" d="M77.081,156.081l21.9-20.718c2.284-2.158,5.047-1.489,5.993,1.489l15.671,46.156a1.035,1.035,0,0,0,2.019-.4l-.681-9.728,13.88-9.817a4.782,4.782,0,0,1,7.23,1.83l16.4,32.806-5.829,44.162-81.8-47.19Z" transform="translate(-32.402 -15.04)" fill="#ff725e"/>
        <path id="Path_5502" data-name="Path 5502" d="M136.471,139.212c-3.785-2.221-7.444-.707-8.025,3.369s2.082,9.2,5.968,11.444,7.482.744,8.038-3.356S140.32,141.37,136.471,139.212Z" transform="translate(-17.612 -13.969)" fill="#ff725e"/>
        <path id="Path_5503" data-name="Path 5503" d="M86.639,102.016,72.671,203.652,68.81,205.9,82.79,99.77Z" transform="translate(-33.203 -24.026)" fill="#e0e0e0"/>
        <path id="Path_5504" data-name="Path 5504" d="M72.671,182.1l81.876,47.228-.555,4.189L68.81,184.346Z" transform="translate(-33.203 -2.474)" fill="#ebebeb"/>
      </g>
    </g>
    <g id="freepik--Window--inject-48" transform="translate(274.373 38.643)">
      <g id="freepik--window--inject-48-2" data-name="freepik--window--inject-48">
        <path id="Path_5505" data-name="Path 5505" d="M402.369,46.183v283a12.984,12.984,0,0,1-5.88,10.183L233.91,433.144a3.646,3.646,0,0,1-1.943.555,3.872,3.872,0,0,1-.757-.088,2.4,2.4,0,0,1-.5-.177l-.3-.177-.353-.227a3.607,3.607,0,0,1-.328-.29,4.757,4.757,0,0,1-1.073-1.539,7.306,7.306,0,0,1-.618-2.978v-281.5a13,13,0,0,1,5.88-10.182l162.579-93.75a4.265,4.265,0,0,1,3.949-.492,2.019,2.019,0,0,1,.5.29h0a1.856,1.856,0,0,1,.391.379,1.45,1.45,0,0,1,.177.214,1.1,1.1,0,0,1,.189.3,2.9,2.9,0,0,1,.341.757,1.642,1.642,0,0,1,.139.517.126.126,0,0,1,0,.114,2.525,2.525,0,0,1,.088.543,7.107,7.107,0,0,1,.1.77Z" transform="translate(-220.485 -37.759)" fill="#455a64"/>
        <path id="Path_5506" data-name="Path 5506" d="M402,43.182a4.265,4.265,0,0,0-3.949.492L235.475,137.385a13,13,0,0,0-5.918,10.22v19.179l-7.508-4.4V143.3a12.959,12.959,0,0,1,5.867-10.094l162.63-93.775a4.126,4.126,0,0,1,4.3-.341C395.872,39.724,400.755,42.525,402,43.182Z" transform="translate(-222.05 -38.643)" fill="#ff725e"/>
        <path id="Path_5507" data-name="Path 5507" d="M402.364,46.15c0-3.71-2.637-5.211-5.867-3.344l-162.579,93.7A13.021,13.021,0,0,0,228,146.726v19.179L402.364,65.443Z" transform="translate(-220.492 -37.764)" fill="#ff725e"/>
        <g id="Group_205" data-name="Group 205" transform="translate(1.83)" opacity="0.4">
          <path id="Path_5508" data-name="Path 5508" d="M397.675,43.686,235.1,137.385a12.227,12.227,0,0,0-4.139,4.366l-7.457-4.328a11.76,11.76,0,0,1,4.088-4.29l162.579-93.7a4.126,4.126,0,0,1,4.3-.341c1.06.644,5.943,3.419,7.179,4.088a4.227,4.227,0,0,0-3.975.5Z" transform="translate(-223.5 -38.643)" fill="#fff"/>
        </g>
        <path id="Path_5509" data-name="Path 5509" d="M222.07,141.913v-19.1a12.049,12.049,0,0,1,1.792-5.88l7.482,4.3a11.823,11.823,0,0,0-1.792,5.88v19.179Z" transform="translate(-222.045 -18.15)" opacity="0.15"/>
        <path id="Path_5510" data-name="Path 5510" d="M338.828,62.7c-1.83,1.06-3.318,4.214-3.318,7.028s1.489,4.265,3.318,3.2,3.318-4.214,3.318-7.028S340.658,61.642,338.828,62.7Z" transform="translate(-192.349 -32.436)" fill="#455a64"/>
        <path id="Path_5511" data-name="Path 5511" d="M348.3,57.222c-1.83,1.06-3.318,4.214-3.318,7.028s1.489,4.265,3.318,3.2,3.318-4.214,3.318-7.028S350.141,56.162,348.3,57.222Z" transform="translate(-189.87 -33.871)" fill="#455a64"/>
        <path id="Path_5512" data-name="Path 5512" d="M357.778,51.741c-1.842,1.06-3.318,4.214-3.318,7.028s1.476,4.265,3.318,3.2,3.318-4.214,3.318-7.028S359.608,50.694,357.778,51.741Z" transform="translate(-187.389 -35.304)" fill="#455a64"/>
        <path id="Path_5513" data-name="Path 5513" d="M231.737,408.347c-.214-.139-.467-.278-.732-.429-.543-.328-1.161-.681-1.817-1.022h0l-.984-.555h-.076c-.543-.3-1.06-.618-1.552-.883l-1.262-.732a7.807,7.807,0,0,0-.732-.4,3.444,3.444,0,0,1-1.009-.82,4.4,4.4,0,0,1-.782-1.186,7.255,7.255,0,0,1-.681-3.117V136.75l7.432,4.353V403.451a8.517,8.517,0,0,0,.618,2.978,4.756,4.756,0,0,0,1.072,1.539,1.047,1.047,0,0,0,.328.29.48.48,0,0,0,.177.088Z" transform="translate(-222.034 -12.962)" fill="#37474f"/>
        <path id="Path_5514" data-name="Path 5514" d="M239.471,154.973a2.334,2.334,0,0,1,.3-1.1L244,145.132a.619.619,0,0,1,.189-.252s.088-.076.114-.076a.24.24,0,0,1,.328,0,.581.581,0,0,1,.139.429v2.927a3.549,3.549,0,0,1-.088.908,3.419,3.419,0,0,1-.3.808l-2.221,4.618,2.221,2.044a1.035,1.035,0,0,1,.3.454,2.523,2.523,0,0,1,.088.808v2.94a1.451,1.451,0,0,1-.139.593.921.921,0,0,1-.328.4h-.114a.215.215,0,0,1-.189,0l-4.227-3.874a.845.845,0,0,1-.3-.744Z" transform="translate(-217.491 -10.87)" fill="#ff725e"/>
        <path id="Path_5515" data-name="Path 5515" d="M253.211,135.99a4.251,4.251,0,0,1,.328-.858,1.451,1.451,0,0,1,.618-.669l1.59-.921a.252.252,0,0,1,.328,0,.606.606,0,0,1,.139.429,1.743,1.743,0,0,1,0,.328l-7.255,30.876a3.659,3.659,0,0,1-.29.833,1.665,1.665,0,0,1-.643.707l-1.527.883a.252.252,0,0,1-.328,0,.555.555,0,0,1-.139-.429,1.74,1.74,0,0,1,0-.328Z" transform="translate(-215.774 -13.817)" fill="#ff725e"/>
        <path id="Path_5516" data-name="Path 5516" d="M261.715,143.789a2.334,2.334,0,0,1-.3,1.1l-4.252,8.744a.757.757,0,0,1-.189.252c-.063,0-.088.076-.114.076a.252.252,0,0,1-.328,0,.644.644,0,0,1-.139-.442V150.59a3.547,3.547,0,0,1,.088-.908,3.418,3.418,0,0,1,.3-.808L259,144.256l-2.221-2.044a1.034,1.034,0,0,1-.3-.454,2.524,2.524,0,0,1-.088-.808v-2.94a1.452,1.452,0,0,1,.139-.593.921.921,0,0,1,.328-.4h.114a.265.265,0,0,1,.189,0l4.227,3.874a.845.845,0,0,1,.3.744Z" transform="translate(-213.061 -12.897)" fill="#ff725e"/>
        <path id="Path_5517" data-name="Path 5517" d="M270.455,140.785a.315.315,0,0,1,.4,0,.719.719,0,0,1,.177.53v3.23a1.691,1.691,0,0,1-.177.732,1.086,1.086,0,0,1-.4.492l-1.994,1.161a.315.315,0,0,1-.416,0,.669.669,0,0,1-.164-.517V143.17a1.653,1.653,0,0,1,.164-.719,1.072,1.072,0,0,1,.416-.5Z" transform="translate(-210.054 -11.925)" fill="#ff725e"/>
        <path id="Path_5518" data-name="Path 5518" d="M275.735,137.736a.3.3,0,0,1,.4,0,.669.669,0,0,1,.177.53v3.23a1.528,1.528,0,0,1-.177.732,1.022,1.022,0,0,1-.4.492l-1.994,1.161a.3.3,0,0,1-.4,0,.681.681,0,0,1-.177-.53v-3.243a1.678,1.678,0,0,1,.177-.719,1.06,1.06,0,0,1,.4-.5Z" transform="translate(-208.672 -12.724)" fill="#ff725e"/>
        <path id="Path_5519" data-name="Path 5519" d="M281.012,134.686a.315.315,0,0,1,.416,0,.719.719,0,0,1,.164.53v3.23a1.679,1.679,0,0,1-.164.732,1.035,1.035,0,0,1-.416.492l-1.994,1.161a.3.3,0,0,1-.4,0,.681.681,0,0,1-.164-.53v-3.23a1.654,1.654,0,0,1,.164-.719,1.06,1.06,0,0,1,.4-.5Z" transform="translate(-207.287 -13.522)" fill="#ff725e"/>
        <path id="Path_5520" data-name="Path 5520" d="M241.312,183.3,339,126.913c1.148-.669,2.095-.2,2.095,1.047A4.5,4.5,0,0,1,339,131.43l-97.687,56.4c-1.148.669-2.082.189-2.082-1.06a4.492,4.492,0,0,1,2.082-3.47Z" transform="translate(-217.553 -15.617)" fill="#ff725e"/>
        <path id="Path_5521" data-name="Path 5521" d="M266.152,211.994l97.686-56.4c1.148-.669,2.095-.189,2.095,1.06a4.467,4.467,0,0,1-2.095,3.457l-97.686,56.4c-1.148.669-2.082.189-2.082-1.06A4.454,4.454,0,0,1,266.152,211.994Z" transform="translate(-211.05 -8.108)" fill="#fff"/>
        <path id="Path_5522" data-name="Path 5522" d="M266.152,234.569l46.761-26.977c1.148-.669,2.082-.189,2.082,1.06a4.492,4.492,0,0,1-2.082,3.47l-46.761,26.964c-1.148.669-2.082.2-2.082-1.047A4.492,4.492,0,0,1,266.152,234.569Z" transform="translate(-211.05 5.504)" fill="#e0e0e0"/>
        <path id="Path_5523" data-name="Path 5523" d="M325.155,127.881l38.913-22.548c1.148-.669,2.082-.189,2.082,1.06a4.454,4.454,0,0,1-2.082,3.457L325.155,132.41c-1.161.669-2.095.189-2.095-1.06a4.48,4.48,0,0,1,2.095-3.47Z" transform="translate(-195.608 -21.265)" fill="#ff725e"/>
        <path id="Path_5524" data-name="Path 5524" d="M241.312,341.043,339,284.642c1.148-.656,2.095-.189,2.095,1.06a4.5,4.5,0,0,1-2.094,3.47l-97.687,56.4c-1.148.656-2.082.189-2.082-1.06a4.492,4.492,0,0,1,2.082-3.47Z" transform="translate(-217.553 25.675)" fill="#ff725e"/>
        <path id="Path_5525" data-name="Path 5525" d="M325.155,285.624l38.913-22.561c1.148-.669,2.082-.2,2.082,1.047a4.492,4.492,0,0,1-2.082,3.47l-38.913,22.548c-1.161.669-2.095.2-2.095-1.047A4.479,4.479,0,0,1,325.155,285.624Z" transform="translate(-195.608 20.024)" fill="#ff725e"/>
        <path id="Path_5526" data-name="Path 5526" d="M325.155,242.671l38.913-22.548c1.148-.669,2.082-.189,2.082,1.06a4.492,4.492,0,0,1-2.082,3.47L325.155,247.2c-1.161.669-2.095.189-2.095-1.06A4.479,4.479,0,0,1,325.155,242.671Z" transform="translate(-195.608 8.784)" fill="#ff725e"/>
        <path id="Path_5527" data-name="Path 5527" d="M325.155,257.011l38.913-22.548c1.148-.669,2.082-.2,2.082,1.047a4.492,4.492,0,0,1-2.082,3.47l-38.913,22.561c-1.161.656-2.095.189-2.095-1.06A4.479,4.479,0,0,1,325.155,257.011Z" transform="translate(-195.608 12.537)" fill="#ff725e"/>
        <path id="Path_5528" data-name="Path 5528" d="M298.855,255.75l21.854-12.618c1.161-.669,2.095-.189,2.095,1.06a4.479,4.479,0,0,1-2.094,3.47L298.855,260.28c-1.161.669-2.095.189-2.095-1.06A4.48,4.48,0,0,1,298.855,255.75Z" transform="translate(-202.493 14.807)" fill="#ff725e"/>
        <path id="Path_5529" data-name="Path 5529" d="M241.312,192.812l56.931-32.92c1.148-.669,2.082-.189,2.082,1.047a4.479,4.479,0,0,1-2.082,3.47l-56.931,32.92c-1.148.669-2.082.2-2.082-1.047A4.492,4.492,0,0,1,241.312,192.812Z" transform="translate(-217.553 -6.983)" fill="#ff725e"/>
        <path id="Path_5530" data-name="Path 5530" d="M241.312,192.812l56.931-32.92c1.148-.669,2.082-.189,2.082,1.047a4.479,4.479,0,0,1-2.082,3.47l-56.931,32.92c-1.148.669-2.082.2-2.082-1.047A4.492,4.492,0,0,1,241.312,192.812Z" transform="translate(-217.553 -6.983)" fill="#fff" opacity="0.6"/>
        <path id="Path_5531" data-name="Path 5531" d="M241.312,202.61l19.33-11.167c1.161-.669,2.095-.2,2.095,1.047a4.479,4.479,0,0,1-2.095,3.52l-19.33,11.179c-1.148.656-2.082.189-2.082-1.06a4.492,4.492,0,0,1,2.082-3.52Z" transform="translate(-217.553 1.276)" fill="#ff725e"/>
        <path id="Path_5532" data-name="Path 5532" d="M241.312,202.61l19.33-11.167c1.161-.669,2.095-.2,2.095,1.047a4.479,4.479,0,0,1-2.095,3.52l-19.33,11.179c-1.148.656-2.082.189-2.082-1.06a4.492,4.492,0,0,1,2.082-3.52Z" transform="translate(-217.553 1.276)" fill="#fff" opacity="0.6"/>
        <path id="Path_5533" data-name="Path 5533" d="M241.312,216.95l19.33-11.167c1.161-.669,2.095-.2,2.095,1.047a4.479,4.479,0,0,1-2.095,3.47l-19.33,11.179c-1.148.669-2.082.189-2.082-1.06a4.492,4.492,0,0,1,2.082-3.47Z" transform="translate(-217.553 5.029)" fill="#ff725e"/>
        <path id="Path_5534" data-name="Path 5534" d="M241.312,216.95l19.33-11.167c1.161-.669,2.095-.2,2.095,1.047a4.479,4.479,0,0,1-2.095,3.47l-19.33,11.179c-1.148.669-2.082.189-2.082-1.06a4.492,4.492,0,0,1,2.082-3.47Z" transform="translate(-217.553 5.029)" fill="#fff" opacity="0.6"/>
        <path id="Path_5535" data-name="Path 5535" d="M241.312,231.29l19.33-11.167c1.161-.669,2.095-.2,2.095,1.047a4.479,4.479,0,0,1-2.095,3.47l-19.33,11.179c-1.148.669-2.082.189-2.082-1.06a4.492,4.492,0,0,1,2.082-3.47Z" transform="translate(-217.553 8.783)" fill="#ff725e"/>
        <path id="Path_5536" data-name="Path 5536" d="M241.312,231.292l19.33-11.179c1.161-.669,2.095-.189,2.095,1.06a4.479,4.479,0,0,1-2.095,3.47l-19.33,11.167c-1.148.669-2.082.2-2.082-1.047a4.492,4.492,0,0,1,2.082-3.47Z" transform="translate(-217.553 8.781)" fill="#fff" opacity="0.6"/>
        <path id="Path_5537" data-name="Path 5537" d="M266.152,221.463l56.982-32.92c1.148-.669,2.082-.2,2.082,1.047a4.492,4.492,0,0,1-2.082,3.47l-56.982,32.92c-1.148.669-2.082.2-2.082-1.047a4.479,4.479,0,0,1,2.082-3.47Z" transform="translate(-211.05 0.517)" fill="#ff725e"/>
        <path id="Path_5538" data-name="Path 5538" d="M317.722,187.791,342.5,173.533c1.148-.669,2.082-.189,2.082,1.06a4.492,4.492,0,0,1-2.082,3.47L317.722,192.32c-1.148.669-2.082.189-2.082-1.06a4.492,4.492,0,0,1,2.082-3.47Z" transform="translate(-197.551 -3.412)" fill="#ff725e"/>
        <path id="Path_5539" data-name="Path 5539" d="M241.312,245.63l19.33-11.167c1.161-.669,2.095-.2,2.095,1.047a4.479,4.479,0,0,1-2.095,3.5l-19.33,11.179c-1.148.669-2.082.189-2.082-1.06a4.492,4.492,0,0,1,2.082-3.5Z" transform="translate(-217.553 12.537)" fill="#ff725e"/>
        <path id="Path_5540" data-name="Path 5540" d="M241.312,245.63l19.33-11.167c1.161-.669,2.095-.2,2.095,1.047a4.479,4.479,0,0,1-2.095,3.5l-19.33,11.179c-1.148.669-2.082.189-2.082-1.06a4.492,4.492,0,0,1,2.082-3.5Z" transform="translate(-217.553 12.537)" fill="#fff" opacity="0.6"/>
        <path id="Path_5541" data-name="Path 5541" d="M292.882,159.14l24.781-14.258c1.148-.656,2.095-.189,2.095,1.06a4.5,4.5,0,0,1-2.095,3.47l-24.781,14.258c-1.148.669-2.082.189-2.082-1.06A4.492,4.492,0,0,1,292.882,159.14Z" transform="translate(-204.053 -10.911)" fill="#ff725e"/>
        <path id="Path_5542" data-name="Path 5542" d="M292.882,159.14l24.781-14.258c1.148-.656,2.095-.189,2.095,1.06a4.5,4.5,0,0,1-2.095,3.47l-24.781,14.258c-1.148.669-2.082.189-2.082-1.06A4.492,4.492,0,0,1,292.882,159.14Z" transform="translate(-204.053 -10.911)" fill="#fff" opacity="0.6"/>
        <path id="Path_5543" data-name="Path 5543" d="M284.782,239.362l56.982-32.92c1.148-.669,2.082-.189,2.082,1.06a4.492,4.492,0,0,1-2.082,3.47l-56.982,32.92c-1.148.656-2.082.189-2.082-1.06a4.492,4.492,0,0,1,2.082-3.47Z" transform="translate(-206.174 5.203)" fill="#e0e0e0"/>
        <path id="Path_5544" data-name="Path 5544" d="M310.832,238.722l56.982-32.92c1.148-.669,2.095-.189,2.095,1.06a4.467,4.467,0,0,1-2.095,3.457l-56.982,32.92c-1.148.669-2.082.2-2.082-1.047a4.492,4.492,0,0,1,2.082-3.47Z" transform="translate(-199.354 5.035)" fill="#fff"/>
        <path id="Path_5545" data-name="Path 5545" d="M336.352,205.7l24.781-14.258c1.148-.669,2.082-.2,2.082,1.047a4.492,4.492,0,0,1-2.082,3.47l-24.781,14.258c-1.148.669-2.082.2-2.082-1.047A4.479,4.479,0,0,1,336.352,205.7Z" transform="translate(-192.674 1.276)" fill="#e0e0e0"/>
        <path id="Path_5546" data-name="Path 5546" d="M336.352,262.5l24.781-14.258c1.148-.669,2.082-.2,2.082,1.047a4.492,4.492,0,0,1-2.082,3.47l-24.781,14.258c-1.148.669-2.082.189-2.082-1.06A4.454,4.454,0,0,1,336.352,262.5Z" transform="translate(-192.674 16.144)" fill="#e0e0e0"/>
        <path id="Path_5547" data-name="Path 5547" d="M266.152,192.782l56.982-32.92c1.148-.669,2.082-.189,2.082,1.06a4.492,4.492,0,0,1-2.082,3.47l-56.982,32.92c-1.148.656-2.082.189-2.082-1.06a4.492,4.492,0,0,1,2.082-3.47Z" transform="translate(-211.05 -6.991)" fill="#ff725e"/>
        <path id="Path_5548" data-name="Path 5548" d="M266.152,192.782l56.982-32.92c1.148-.669,2.082-.189,2.082,1.06a4.492,4.492,0,0,1-2.082,3.47l-56.982,32.92c-1.148.656-2.082.189-2.082-1.06a4.492,4.492,0,0,1,2.082-3.47Z" transform="translate(-211.05 -6.991)" fill="#fff" opacity="0.6"/>
        <path id="Path_5549" data-name="Path 5549" d="M317.722,159.121,342.5,144.863c1.148-.669,2.082-.2,2.082,1.047a4.492,4.492,0,0,1-2.082,3.47l-24.781,14.258c-1.148.669-2.082.2-2.082-1.047a4.454,4.454,0,0,1,2.082-3.47Z" transform="translate(-197.551 -10.918)" fill="#ff725e"/>
        <path id="Path_5550" data-name="Path 5550" d="M317.722,159.121,342.5,144.863c1.148-.669,2.082-.2,2.082,1.047a4.492,4.492,0,0,1-2.082,3.47l-24.781,14.258c-1.148.669-2.082.2-2.082-1.047a4.454,4.454,0,0,1,2.082-3.47Z" transform="translate(-197.551 -10.918)" fill="#fff" opacity="0.6"/>
        <path id="Path_5551" data-name="Path 5551" d="M266.152,221.463l56.982-32.92c1.148-.669,2.082-.2,2.082,1.047a4.492,4.492,0,0,1-2.082,3.47l-56.982,32.92c-1.148.669-2.082.2-2.082-1.047a4.479,4.479,0,0,1,2.082-3.47Z" transform="translate(-211.05 0.517)" fill="#fff" opacity="0.6"/>
        <path id="Path_5552" data-name="Path 5552" d="M317.722,187.791,342.5,173.533c1.148-.669,2.082-.189,2.082,1.06a4.492,4.492,0,0,1-2.082,3.47L317.722,192.32c-1.148.669-2.082.189-2.082-1.06a4.492,4.492,0,0,1,2.082-3.47Z" transform="translate(-197.551 -3.412)" fill="#fff" opacity="0.6"/>
      </g>
    </g>
    <g id="freepik--Icons--inject-48" transform="translate(495.672 44.986)">
      <g id="freepik--Java--inject-48">
        <path id="Path_5553" data-name="Path 5553" d="M425.641,64.258l-13.589,7.785-13.665-1.262a.959.959,0,0,0-.467.076c1.1-.643,13.009-7.457,13.5-7.722a.858.858,0,0,1,.568-.114Z" transform="translate(-397.311 -38.607)" fill="#ff725e"/>
        <path id="Path_5554" data-name="Path 5554" d="M425.641,64.258l-13.589,7.785-13.665-1.262a.959.959,0,0,0-.467.076c1.1-.643,13.009-7.457,13.5-7.722a.858.858,0,0,1,.568-.114Z" transform="translate(-397.311 -38.607)" fill="#fff" opacity="0.5"/>
        <path id="Path_5555" data-name="Path 5555" d="M465.58,72.047,416.446,43.67l-9.766,5.678,3.6,72.905,20.971,24.832,20.971-.618,9.766-5.678Z" transform="translate(-395.017 -43.67)" fill="#ff725e"/>
        <path id="Path_5556" data-name="Path 5556" d="M465.58,72.047l-9.753,5.678L406.68,49.348l9.766-5.678Z" transform="translate(-395.017 -43.67)" fill="#fff" opacity="0.5"/>
        <path id="Path_5557" data-name="Path 5557" d="M456.132,66.16l-9.753,5.678-3.609,68.741,9.766-5.678Z" transform="translate(-385.57 -37.783)" opacity="0.15"/>
        <path id="Path_5558" data-name="Path 5558" d="M409.1,48.17l1.363,27.608L398.526,74.73a1.009,1.009,0,0,0-.833,1.678l13.526,14.649,1.476,30.081,20.971,24.832,20.971-.618,3.609-68.741Z" transform="translate(-397.437 -42.492)" fill="#ff725e"/>
        <path id="Path_5559" data-name="Path 5559" d="M426.15,65.05l19.532,11.268-2.877,56.553-16.655,1.237Z" transform="translate(-389.921 -38.073)" fill="#fff" opacity="0.5"/>
        <path id="Path_5560" data-name="Path 5560" d="M444.125,79.825l-2.057,46.32-12.832.732-12.82-15.545-.656-13.085,4.643,2.675.379,7.81,8.454,10.586,8.454-.833,1.438-34.434-24.4-14.094-.366-7.318Z" transform="translate(-393.007 -38.704)" fill="#fff"/>
      </g>
      <g id="freepik--CSS--inject-48" transform="translate(0 116.411)">
        <path id="Path_5561" data-name="Path 5561" d="M425.641,156.52l-13.589,7.785-13.665-1.262a1.136,1.136,0,0,0-.467.063c1.1-.643,13.009-7.457,13.5-7.722a.946.946,0,0,1,.568-.114Z" transform="translate(-397.311 -130.869)" fill="#ff725e"/>
        <path id="Path_5562" data-name="Path 5562" d="M465.58,164.307,416.446,135.93l-9.766,5.678,3.6,72.905,20.971,24.832,20.971-.618,9.766-5.678Z" transform="translate(-395.017 -135.93)" fill="#ff725e"/>
        <path id="Path_5563" data-name="Path 5563" d="M456.132,158.42l-9.753,5.665-3.609,68.754,9.766-5.678Z" transform="translate(-385.57 -130.043)" opacity="0.35"/>
        <path id="Path_5564" data-name="Path 5564" d="M409.1,140.43l1.363,27.595-11.936-1.035a1.009,1.009,0,0,0-.833,1.678l13.526,14.649,1.476,30.018,20.971,24.832,20.971-.618,3.609-68.754Z" transform="translate(-397.437 -134.752)" fill="#ff725e"/>
        <path id="Path_5565" data-name="Path 5565" d="M409.1,140.43l1.363,27.595-11.936-1.035a1.009,1.009,0,0,0-.833,1.678l13.526,14.649,1.476,30.018,20.971,24.832,20.971-.618,3.609-68.754Z" transform="translate(-397.437 -134.752)" opacity="0.25"/>
        <path id="Path_5566" data-name="Path 5566" d="M426.15,157.3l19.532,11.28-2.877,56.54-16.655,1.249Z" transform="translate(-389.921 -130.336)" fill="#ff725e" opacity="0.7"/>
        <path id="Path_5567" data-name="Path 5567" d="M414.36,154.9l.3,7.28L439.129,176.3l-.593,14.359-23.229-13.413.3,7.28L438.245,197.6l-.555,13.148-8.454.833-8.454-10.6-.379-7.8-4.643-2.675.656,13.085,12.82,15.545,12.832-.732,2.057-46.332Z" transform="translate(-393.007 -130.964)" fill="#fff"/>
      </g>
      <g id="freepik--HTML--inject-48" transform="translate(0 232.81)">
        <path id="Path_5568" data-name="Path 5568" d="M465.58,256.545,416.446,228.18l-9.766,5.665,3.6,72.905,20.971,24.832,20.971-.618,9.766-5.678Z" transform="translate(-395.017 -228.18)" fill="#ff725e"/>
        <path id="Path_5569" data-name="Path 5569" d="M465.58,256.545l-9.753,5.678L406.68,233.845l9.766-5.665Z" transform="translate(-395.017 -228.18)" opacity="0.25"/>
        <path id="Path_5570" data-name="Path 5570" d="M456.132,250.66l-9.753,5.678-3.609,68.741,9.766-5.678Z" transform="translate(-385.57 -222.295)" opacity="0.55"/>
        <path id="Path_5571" data-name="Path 5571" d="M425.641,248.747l-13.589,7.785-13.665-1.2a.958.958,0,0,0-.467.076c1.1-.643,13.009-7.47,13.5-7.735a1.047,1.047,0,0,1,.568-.114Z" transform="translate(-397.311 -223.108)" fill="#ff725e"/>
        <path id="Path_5572" data-name="Path 5572" d="M425.641,248.747l-13.589,7.785-13.665-1.2a.958.958,0,0,0-.467.076c1.1-.643,13.009-7.47,13.5-7.735a1.047,1.047,0,0,1,.568-.114Z" transform="translate(-397.311 -223.108)" opacity="0.25"/>
        <path id="Path_5573" data-name="Path 5573" d="M409.1,232.67l1.363,27.608-11.936-1.047a1.009,1.009,0,0,0-.833,1.678l13.526,14.649,1.476,30.018,20.971,24.832,20.971-.618,3.609-68.741Z" transform="translate(-397.437 -227.005)" fill="#ff725e"/>
        <path id="Path_5574" data-name="Path 5574" d="M409.1,232.67l1.363,27.608-11.936-1.047a1.009,1.009,0,0,0-.833,1.678l13.526,14.649,1.476,30.018,20.971,24.832,20.971-.618,3.609-68.741Z" transform="translate(-397.437 -227.005)" opacity="0.4"/>
        <path id="Path_5575" data-name="Path 5575" d="M426.15,249.55l19.532,11.268-2.877,56.553-16.655,1.237Z" transform="translate(-389.921 -222.586)" fill="#ff725e" opacity="0.5"/>
        <path id="Path_5576" data-name="Path 5576" d="M444.125,264.325,414.36,247.14l1.249,29.639,22.636,13.059L437.69,303l-8.454.82-8.454-10.586-.379-7.81-4.643-2.675.656,13.1,12.82,15.532,12.832-.732,1.1-25.071-23.217-13.4-.606-15.04,24.415,14.094Z" transform="translate(-393.007 -223.217)" fill="#fff"/>
      </g>
    </g>
    <g id="freepik--Character--inject-48" transform="translate(285.982 291.511)">
      <g id="freepik--character--inject-48-2" data-name="freepik--character--inject-48">
        <path id="Path_5577" data-name="Path 5577" d="M253.326,369.337c-3.533,10.548-6.561,24.176-11.356,44.7-4.479,19.229-4.5,32.806,1.716,37.475s24.049,1.817,35.33-22.207c3.533-7.571,16.819-30.724,16.819-30.724s9.842-3.546,13.236-6.208c0,0,32.806.959,48.755-2.309s32.907-22.712,26.371-24.655c-11.734-3.457-43-4.77-69.486-6.473Z" transform="translate(-229.277 -207.666)" fill="#37474f"/>
        <path id="Path_5578" data-name="Path 5578" d="M332.854,382.135c-7.18,1.666-17.816-.555-23.81-2.3a15.8,15.8,0,0,0-.2-6.309,20.731,20.731,0,0,1-2.662,7.974c-.984.555-1.817,1.022-2.423,1.338-3.987,2.031-14.939,7.634-16.971,5.867a21.375,21.375,0,0,0-12.277-7.785c3.432,2.309,13.375,9.438,9.842,17.665l2.158-3.785s9.842-3.546,13.236-6.208c0,0,18.359.53,34.27-.555l18.927-13.085S343.857,374.388,332.854,382.135Z" transform="translate(-219.926 -203.847)" fill="#263238"/>
        <path id="Path_5579" data-name="Path 5579" d="M314.234,398.09a20.718,20.718,0,0,1-8.53,5.047,7.42,7.42,0,0,1-3.2,0c-3.684-.77-9.59-.757-11.659,6.6-2.334,8.34-11.659,12.3-14.144,18.018-1.262,2.852-1.893,11.116-.681,16.2,1.009,4.164,9.072,1.073,12.063-4.012s9.4-11.785,13.627-15.646c6.877-3.874,14.51-9.552,17.766-11.835Z" transform="translate(-219.702 -197.418)" fill="#f28f8f"/>
        <path id="Path_5580" data-name="Path 5580" d="M356.474,361.82c21.16,1.413,21.879,12.618,16.592,21.147-5.691,9.148-26.5,21.45-37.853,27.961-10.359,5.968-28.037,16.542-28.037,16.542s-8.946-6.99-7.785-14.851c11.709-8.164,27.481-31.406,47-34.636Z" transform="translate(-213.44 -206.912)" fill="#263238"/>
        <path id="Path_5581" data-name="Path 5581" d="M279.536,446a4.833,4.833,0,0,1-3.47-.808c-.946-.669-3.041-6.561-1.262-13.7a30.472,30.472,0,0,1,7.823-14.056c2.309-2.448,3.142-5.262,3.975-8.832s3.432-7.949,5.236-8.441,4.542.908,4.542.908Z" transform="translate(-220.031 -196.903)" fill="#263238"/>
        <path id="Path_5582" data-name="Path 5582" d="M306.879,420.688c-.442,2.271-2.309,2.852-4.315,3.647-2.738,1.085-5.337,3.911-7.81,7.066-1.678,2.145-3.066,4.29-4.593,6.536s-2.814,5.489-4.454,7.2c-2.41,2.524-7.28,2.044-8.618-1.527-1.161-3.079-1.653-10.725,1.855-18.043,1.918-4,7.217-7.873,8.605-13.312.921-3.634,2.2-7.962,4.87-10.725,1.59-1.64,3.041-1.262,5.047-.681a64.76,64.76,0,0,0,8.025,1.678,12.189,12.189,0,0,1-1.956,6.309,5.262,5.262,0,0,0-1.009,2.044,4.238,4.238,0,0,0,.139,1.539c.151.707.4,1.527,1.1,1.729a6.735,6.735,0,0,0,.871.063c1.085.139,1.615,1.388,1.893,2.448a10.093,10.093,0,0,1,.442,3.52,4.511,4.511,0,0,1-.088.5Z" transform="translate(-219.477 -196.825)" fill="#ff725e"/>
        <path id="Path_5583" data-name="Path 5583" d="M306.879,420.688c-.442,2.271-2.309,2.852-4.315,3.647-2.738,1.085-5.337,3.911-7.81,7.066-1.678,2.145-3.066,4.29-4.593,6.536s-2.814,5.489-4.454,7.2c-2.41,2.524-7.28,2.044-8.618-1.527-1.161-3.079-1.653-10.725,1.855-18.043,1.918-4,7.217-7.873,8.605-13.312.921-3.634,2.2-7.962,4.87-10.725,1.59-1.64,3.041-1.262,5.047-.681a64.76,64.76,0,0,0,8.025,1.678,12.189,12.189,0,0,1-1.956,6.309,5.262,5.262,0,0,0-1.009,2.044,4.238,4.238,0,0,0,.139,1.539c.151.707.4,1.527,1.1,1.729a6.735,6.735,0,0,0,.871.063c1.085.139,1.615,1.388,1.893,2.448a10.093,10.093,0,0,1,.442,3.52,4.511,4.511,0,0,1-.088.5Z" transform="translate(-219.477 -196.825)" opacity="0.4"/>
        <path id="Path_5584" data-name="Path 5584" d="M293.193,424.617a3.293,3.293,0,0,0,2.183-2.284c.568-1.539-.114-4.568-1.262-6.561a1.262,1.262,0,0,0-2.183-.189h0a1.337,1.337,0,0,0-.1,1.527A10.094,10.094,0,0,1,293.193,424.617Z" transform="translate(-215.443 -192.981)" fill="#f5f5f5"/>
        <path id="Path_5585" data-name="Path 5585" d="M290.341,428.367a3.785,3.785,0,0,0,2.107-2.788,11.786,11.786,0,0,0-1.35-7.167,1.262,1.262,0,0,0-2.12-.189h0a1.262,1.262,0,0,0-.088,1.464A10.094,10.094,0,0,1,290.341,428.367Z" transform="translate(-216.212 -192.277)" fill="#f5f5f5"/>
        <path id="Path_5586" data-name="Path 5586" d="M287.654,432.321a4.265,4.265,0,0,0,1.981-2.927,11.355,11.355,0,0,0-1.426-6.9,1.262,1.262,0,0,0-2.12-.189h0a1.262,1.262,0,0,0-.088,1.476,9.627,9.627,0,0,1,1.653,8.542Z" transform="translate(-216.97 -191.209)" fill="#f5f5f5"/>
        <path id="Path_5587" data-name="Path 5587" d="M299.48,402.456c3.785-.946,9.261-2.284,11.533-5.287s7-5.905,13.387-1.7c4.038,2.662,8.832,3.533,13.627,3.848a44.81,44.81,0,0,1,6.385.3,23.53,23.53,0,0,1,7.066,3.268,11.673,11.673,0,0,1,3.52,3.041,7.217,7.217,0,0,1,.114,7.873,3.936,3.936,0,0,1-1,1.1,4.151,4.151,0,0,1-1.665.694c-2.208.492-4.05-.2-6.132-.782-1.729-.479-3.5-.845-5.249-1.161a88.459,88.459,0,0,0-12.088-1.413c-1.729-.063-5.325-.341-7.053-.214-7.217.492-17.425,4.555-17.425,4.555Z" transform="translate(-213.39 -198.655)" fill="#ffa8a7"/>
        <path id="Path_5588" data-name="Path 5588" d="M240,435.324c1.186,7.293,9.375,10.813,26.926,7.306s59.3-29.816,59.3-29.816S324.6,402.72,315,400.02c0,0-8.731,1.59-22.99,4.694A184.218,184.218,0,0,0,273,409.975c-9.64,12.933-19.658,7.709-23.267,12.252C243.785,429.785,240,435.324,240,435.324Z" transform="translate(-228.96 -196.913)" fill="#37474f"/>
        <path id="Path_5589" data-name="Path 5589" d="M353.769,415.4a4.845,4.845,0,0,0,2.082-2.9c.265-1.123-2.031-6.927-8.063-11.167a30.535,30.535,0,0,0-15.141-5.413c-3.344-.315-5.829-1.88-8.832-4s-7.81-3.71-9.5-2.889S311.5,392.7,311.5,392.7Z" transform="translate(-210.243 -199.848)" fill="#263238"/>
        <path id="Path_5590" data-name="Path 5590" d="M317.472,414.362c1.83,1.413,3.621.618,5.653-.1,2.776-.984,6.6-.58,10.536.164,2.675.5,5.135,1.262,7.76,1.893s5.728,2.271,8.1,2.524c3.457.29,6.814-3.268,5.476-6.826-1.161-3.079-5.829-9.16-13.3-12.353-4.063-1.741-10.6-1.173-15.23-4.34-3.091-2.12-6.9-4.555-10.738-4.858-2.271-.189-3.1,1.073-4.24,2.8a65.405,65.405,0,0,1-4.921,6.561,12.289,12.289,0,0,0,5.653,3.483,5.552,5.552,0,0,1,2.107.858,4.529,4.529,0,0,1,.909,1.262c.353.618.694,1.413.3,2.019a7,7,0,0,1-.606.618c-.719.833-.29,2.107.189,3.091a10.258,10.258,0,0,0,1.994,2.94,3.8,3.8,0,0,0,.353.265Z" transform="translate(-211.534 -199.419)" fill="#ff725e"/>
        <path id="Path_5591" data-name="Path 5591" d="M317.472,414.362c1.83,1.413,3.621.618,5.653-.1,2.776-.984,6.6-.58,10.536.164,2.675.5,5.135,1.262,7.76,1.893s5.728,2.271,8.1,2.524c3.457.29,6.814-3.268,5.476-6.826-1.161-3.079-5.829-9.16-13.3-12.353-4.063-1.741-10.6-1.173-15.23-4.34-3.091-2.12-6.9-4.555-10.738-4.858-2.271-.189-3.1,1.073-4.24,2.8a65.405,65.405,0,0,1-4.921,6.561,12.289,12.289,0,0,0,5.653,3.483,5.552,5.552,0,0,1,2.107.858,4.529,4.529,0,0,1,.909,1.262c.353.618.694,1.413.3,2.019a7,7,0,0,1-.606.618c-.719.833-.29,2.107.189,3.091a10.258,10.258,0,0,0,1.994,2.94,3.8,3.8,0,0,0,.353.265Z" transform="translate(-211.534 -199.419)" opacity="0.4"/>
        <path id="Path_5592" data-name="Path 5592" d="M326.364,410.59a3.281,3.281,0,0,1-3.142-.278c-1.451-.782-2.927-3.508-3.382-5.766a1.262,1.262,0,0,1,1.527-1.577h0a1.325,1.325,0,0,1,1.072,1.073A10.1,10.1,0,0,0,326.364,410.59Z" transform="translate(-208.073 -196.151)" fill="#f5f5f5"/>
        <path id="Path_5593" data-name="Path 5593" d="M331.007,411.533a3.785,3.785,0,0,1-3.432-.719,11.8,11.8,0,0,1-3.71-6.309A1.262,1.262,0,0,1,325.3,403h0a1.262,1.262,0,0,1,1.022,1.047A10.182,10.182,0,0,0,331.007,411.533Z" transform="translate(-207.013 -196.136)" fill="#f5f5f5"/>
        <path id="Path_5594" data-name="Path 5594" d="M335.627,412.782a4.265,4.265,0,0,1-3.419-.9,11.356,11.356,0,0,1-3.47-6.132,1.262,1.262,0,0,1,1.464-1.539h0a1.262,1.262,0,0,1,1.035,1.047,9.678,9.678,0,0,0,4.391,7.52Z" transform="translate(-205.74 -195.821)" fill="#f5f5f5"/>
        <path id="Path_5595" data-name="Path 5595" d="M280.049,405.874s-11.785,2.309-20.529,8.189c0,0,8.984-10.523,22.863-12.4Z" transform="translate(-223.85 -196.483)" fill="#263238"/>
        <path id="Path_5596" data-name="Path 5596" d="M314.621,342.387,299.934,300.9l-3.874,1.388,2.322,45.828,2.524,6.814C307.479,351.5,312.842,348.974,314.621,342.387Z" transform="translate(-214.285 -222.86)" fill="#ffa8a7"/>
        <path id="Path_5597" data-name="Path 5597" d="M283.39,292.26c9.1.1,17.4,3.407,20.844,10.536s13.993,39.519,13.993,39.519-8.656,10.183-21.45,9.362Z" transform="translate(-217.602 -225.121)" fill="#ff725e"/>
        <path id="Path_5598" data-name="Path 5598" d="M283.39,292.26c9.1.1,17.4,3.407,20.844,10.536s13.993,39.519,13.993,39.519-8.656,10.183-21.45,9.362Z" transform="translate(-217.602 -225.121)" opacity="0.1"/>
        <path id="Path_5599" data-name="Path 5599" d="M273.936,292.815c-12.757,2.36-21.261,5.047-23.671,7.432-5.426,11.116,1.628,48.376,1.628,48.376l1.262,17.728-2.246,20.441c13.791,11.659,56,5.93,63.518-10.4,0,0-2.107-53.146-2.107-62.571s-5.224-20.718-19.671-21.564Z" transform="translate(-226.81 -225.121)" fill="#fafafa"/>
        <path id="Path_5600" data-name="Path 5600" d="M264.481,374.654c-3.7-5.665-3.546-20.075-3.546-20.075s6.46-37.6,4.971-46.559L248.86,324.4c1.085,10.763,2.864,20.188,2.864,20.188l1.262,17.728-2.246,20.441c11.028,9.325,40.225,7.571,55.329-1.931C283.9,389.619,268.165,380.32,264.481,374.654Z" transform="translate(-226.641 -220.996)" fill="#ebebeb"/>
        <path id="Path_5601" data-name="Path 5601" d="M263,269s1.918,14.144,2.94,16.517a6.309,6.309,0,0,0,3.419,3.2l.53-9.8Z" transform="translate(-222.939 -231.21)" fill="#263238"/>
        <path id="Path_5602" data-name="Path 5602" d="M268.7,253.4a6.851,6.851,0,0,0-5.829,1.565c-2.624,2.309-1.842,10.22.618,18.094l5.539,1.06Z" transform="translate(-223.401 -235.328)" fill="#263238"/>
        <path id="Path_5603" data-name="Path 5603" d="M271.421,275.63c-1.161.58-2.6-1.678-3.874-3.23s-5.627-3.861-8.227.707,1.136,11.356,4.605,12.731c5.968,2.372,7.18-1.476,7.18-1.476l-1.262,22.51c5.539,12.063,27.645,7.76,20.1-.53l.4-5.716a64.985,64.985,0,0,0,9.224.694c4.555-.366,6.624-3.331,8.353-8.1,2.776-7.646,4.088-13.879,3.369-29.412-.77-17-20.352-18.636-31.431-12.769S271.421,275.63,271.421,275.63Z" transform="translate(-224.13 -236.717)" fill="#ffa8a7"/>
        <path id="Path_5604" data-name="Path 5604" d="M269.8,247.971a54.353,54.353,0,0,1,11.823-2.612c8.681-1.262,17.513-2.271,25.614-5.64a5.426,5.426,0,0,1,3.129-.643c2.044.416,2.751,2.978,2.675,5.047a16.983,16.983,0,0,1-1.161,5.64,3.268,3.268,0,0,1,4.593.416,5.678,5.678,0,0,1,.972,4.9,12.025,12.025,0,0,1-7.571,8.189,27.116,27.116,0,0,1-11.432,1.4,77.841,77.841,0,0,1-16-2.423,11.355,11.355,0,0,0-3.874-.568,3.508,3.508,0,0,0-3.091,2.095c-.719,2.082-2.4,16.5-5.375,16.4-.555,0-2.385-3.785-3.672-5.224-1.6-1.766-2.41-14.3-2.524-16.6a1.261,1.261,0,0,0-.2-.5c-1.741-2.877.883-7.293,3.394-8.605A27.151,27.151,0,0,1,269.8,247.971Z" transform="translate(-222.902 -239.05)" fill="#263238"/>
        <path id="Path_5605" data-name="Path 5605" d="M265.882,255.314a4.091,4.091,0,1,1-5.817-5.754Z" transform="translate(-224.017 -236.299)" fill="#263238"/>
        <path id="Path_5606" data-name="Path 5606" d="M287.416,291.556s-9.955-1.716-13.324-3.785a11.621,11.621,0,0,1-4.492-5.161,15.722,15.722,0,0,0,2.334,5.867c2.322,3.47,15.2,6.864,15.2,6.864Z" transform="translate(-221.211 -227.647)" fill="#f28f8f"/>
        <path id="Path_5607" data-name="Path 5607" d="M285.355,269.467a2.019,2.019,0,1,1-1.855-2.246,2.057,2.057,0,0,1,1.855,2.246Z" transform="translate(-218.141 -231.677)" fill="#263238"/>
        <path id="Path_5608" data-name="Path 5608" d="M284.253,263.153l-4.479,2.057a2.587,2.587,0,0,1,1.262-3.356,2.41,2.41,0,0,1,3.218,1.3Z" transform="translate(-218.603 -233.136)" fill="#263238"/>
        <path id="Path_5609" data-name="Path 5609" d="M283.767,280.08l4.467,2.069a2.423,2.423,0,0,1-3.243,1.262,2.523,2.523,0,0,1-1.224-3.331Z" transform="translate(-217.562 -228.31)" fill="#f28f8f"/>
        <path id="Path_5610" data-name="Path 5610" d="M299.407,266.232l-3.7-3.318a2.372,2.372,0,0,1,3.445-.265A2.612,2.612,0,0,1,299.407,266.232Z" transform="translate(-214.377 -233.035)" fill="#263238"/>
        <path id="Path_5611" data-name="Path 5611" d="M298.2,269.987a2.019,2.019,0,1,1-1.855-2.246A2.069,2.069,0,0,1,298.2,269.987Z" transform="translate(-214.777 -231.541)" fill="#263238"/>
        <path id="Path_5612" data-name="Path 5612" d="M289.292,267.88l-.252,12.138,6.485-1.678Z" transform="translate(-216.123 -231.503)" fill="#f28f8f"/>
        <path id="Path_5613" data-name="Path 5613" d="M239.969,383.855c-8.176-8.227-9.489-10.914-8.378-16.05,2.2-10.094,11.167-42.408,14.573-52.01,4.277-12.063,6.183-16.883,13.3-18.434,5.741,4.542,11.356,21.551,3.634,36.869l-9.312,33.437" transform="translate(-231.25 -223.786)" fill="#ffa8a7"/>
        <path id="Path_5614" data-name="Path 5614" d="M264.785,295c-10.99,1.262-15.646,5.7-19.608,17.576s-10.927,39.2-10.927,39.2,9.224,9.993,22.157,8.946l10.776-35.708S274.766,299.05,264.785,295Z" transform="translate(-230.465 -224.404)" fill="#ff725e"/>
        <path id="Path_5615" data-name="Path 5615" d="M264.785,295c-10.99,1.262-15.646,5.7-19.608,17.576s-10.927,39.2-10.927,39.2,9.224,9.993,22.157,8.946l10.776-35.708S274.766,299.05,264.785,295Z" transform="translate(-230.465 -224.404)" opacity="0.1"/>
        <path id="Path_5616" data-name="Path 5616" d="M256.43,395.852v1.262a3.647,3.647,0,0,0,1.8,3.129l34.4,19.785a3.609,3.609,0,0,0,3.6,0L359.315,383.6a3.583,3.583,0,0,0,1.8-3.117V379.6l-66.685,38.509Z" transform="translate(-224.659 -202.258)" fill="#ebebeb"/>
        <path id="Path_5617" data-name="Path 5617" d="M361.12,384.15l-37.4-21.589a2.132,2.132,0,0,0-2.158,0L256.67,400.023a.479.479,0,0,0,0,.833l37.765,21.8Z" transform="translate(-224.659 -206.795)" fill="#fafafa"/>
        <path id="Path_5618" data-name="Path 5618" d="M333.107,369.728c-5.135-9.11-19.494-35.948-19.494-35.948L299.91,346.4c5.59,10.574,20.769,31.847,20.769,31.847C327.656,382.8,336.06,374.977,333.107,369.728Z" transform="translate(-213.277 -214.253)" fill="#ffa8a7"/>
        <path id="Path_5619" data-name="Path 5619" d="M290.456,417.089,270.28,405.455l59-34.055,20.277,11.57Z" transform="translate(-221.033 -204.405)" fill="#e0e0e0"/>
        <path id="Path_5620" data-name="Path 5620" d="M278.42,384.109l.366.215,9.892,5.7,17.589-10.145.353-.214-10.258-5.918Z" transform="translate(-218.903 -203.789)" fill="#e0e0e0"/>
        <path id="Path_5621" data-name="Path 5621" d="M278.71,384.237l9.892,5.7L306.191,379.8l-9.9-5.716Z" transform="translate(-218.827 -203.703)" fill="#e6e6e6"/>
        <path id="Path_5622" data-name="Path 5622" d="M286.55,418.127v2.359a3.508,3.508,0,0,0,1.792-.479L351.43,383.58a3.583,3.583,0,0,0,1.8-3.117v-.883Z" transform="translate(-216.774 -202.263)" fill="#ebebeb"/>
        <path id="Path_5623" data-name="Path 5623" d="M286.55,418.127v2.359a3.508,3.508,0,0,0,1.792-.479L351.43,383.58a3.583,3.583,0,0,0,1.8-3.117v-.883Z" transform="translate(-216.774 -202.263)" fill="#e0e0e0"/>
        <path id="Path_5624" data-name="Path 5624" d="M287.35,428.034a4.252,4.252,0,0,0,3.684-.278l62.811-36.276a4.252,4.252,0,0,0,2.082-2.978l6.877-41.008a4.452,4.452,0,0,0,0-.707,4.252,4.252,0,0,0-1.262-3.028l-65.272,37.689a3.154,3.154,0,0,0-1.539,2.208Z" transform="translate(-216.565 -211.64)" fill="#ff725e"/>
        <g id="Group_206" data-name="Group 206" transform="translate(70.785 132.12)" opacity="0.7">
          <path id="Path_5625" data-name="Path 5625" d="M287.35,428.034a4.252,4.252,0,0,0,3.684-.278l62.811-36.276a4.252,4.252,0,0,0,2.082-2.978l6.877-41.008a4.452,4.452,0,0,0,0-.707,4.252,4.252,0,0,0-1.262-3.028l-65.272,37.689a3.154,3.154,0,0,0-1.539,2.208Z" transform="translate(-287.35 -343.76)" fill="#fff"/>
        </g>
        <path id="Path_5626" data-name="Path 5626" d="M286.55,427.643l.429.252a4.907,4.907,0,0,0,.58.278l7.432-44.376a3.154,3.154,0,0,1,1.539-2.208L361.8,343.9a4.189,4.189,0,0,0-.871-.669l-65.41,37.765a3.129,3.129,0,0,0-1.527,2.208Z" transform="translate(-216.774 -211.779)" fill="#fafafa"/>
        <path id="Path_5627" data-name="Path 5627" d="M315.4,382.433c.454-2.751,3.293-6.4,6.309-8.151s5.123-.946,4.656,1.8-3.293,6.385-6.309,8.138S314.913,385.184,315.4,382.433Z" transform="translate(-209.24 -203.893)" fill="#ff725e"/>
        <path id="Path_5628" data-name="Path 5628" d="M251.976,353.08s4.719,7.836,10.17,15.141,11.356,15,15.772,16.3c4.151,1.262,9.022,2.688,10.435,3.987a108.8,108.8,0,0,1,9.463,10.977c1.262,2.158,4.429,6.549,0,7.949-4.05,1.262-7.356-.454-10.637-2.713a42.625,42.625,0,0,1-4.4-3.621,16.087,16.087,0,0,1-9.5-1.893c-2.524-1.413-6.687-3.886-6.687-3.886-3.457-2.372-20.63-18.27-28.428-26.093" transform="translate(-229.442 -209.2)" fill="#ffa8a7"/>
      </g>
    </g>
  </g>
</svg>
