<svg xmlns="http://www.w3.org/2000/svg" xmlns:xlink="http://www.w3.org/1999/xlink" width="3015" height="3015" viewBox="0 0 3015 3015">
  <defs>
    <clipPath id="clip-path">
      <circle id="Ellipse_8" data-name="Ellipse 8" cx="1352.5" cy="1352.5" r="1352.5" transform="translate(847 719)" fill="#fff" stroke="#2155cd" stroke-width="50"/>
    </clipPath>
  </defs>
  <g id="Web" transform="translate(-847 -719)">
    <g id="Ellipse_7" data-name="Ellipse 7" transform="translate(847 719)" fill="#fff" stroke="#2155cd" stroke-width="100">
      <circle cx="1507.5" cy="1507.5" r="1507.5" stroke="none"/>
      <circle cx="1507.5" cy="1507.5" r="1457.5" fill="none"/>
    </g>
    <g id="Mask_Group_1" data-name="Mask Group 1" transform="translate(155 214)" clip-path="url(#clip-path)">
      <g id="web-2" data-name="web" transform="translate(847 801.011)">
        <g id="freepik--Floor--inject-168" transform="translate(0 974.143)">
          <path id="Path_9" data-name="Path 9" d="M2434.542,1596.119c-529.867-305.952-1385.886-305.952-1912.64,0s-523.7,801.935,5.872,1107.887,1386.3,305.952,1912.758,0S2964.467,1902.247,2434.542,1596.119Z" transform="translate(-128.708 -1366.655)" fill="#f5f5f5"/>
        </g>
        <g id="freepik--Shadows--inject-168" transform="translate(136.444 1241.777)">
          <path id="Path_10" data-name="Path 10" d="M310.337,2339.486c39.169-22.667,102.532-22.667,141.466,0s38.7,59.311-.47,81.92-102.532,22.667-141.466,0S271.109,2362.095,310.337,2339.486Z" transform="translate(-280.791 -1732.573)" fill="#e0e0e0"/>
          <path id="Path_11" data-name="Path 11" d="M2870.685,2159.285c41.107-23.49,107.524-23.49,148.4,0s40.578,62.189-.47,85.913-107.582,23.49-148.4,0S2829.579,2183.009,2870.685,2159.285Z" transform="translate(-543.916 -1713.981)" fill="#e0e0e0"/>
          <path id="Path_12" data-name="Path 12" d="M1971.7,1701.783l-1505.448,879.1-63.774-36.82,1505.448-879.1Z" transform="translate(-293.303 -1664.963)" fill="#e0e0e0"/>
          <path id="Path_13" data-name="Path 13" d="M2496.989,2218.165c-146.81-84.739-383.879-84.739-529.632,0-128.84,74.814-143.11,190.735-43.514,275.18-80.393-4.991-163.664,10.335-225.03,45.981-107.759,62.6-107.171,164.134,1.233,226.733s283.7,62.6,391.4,0c85.737-49.8,102.826-124.26,51.618-184.1,123.32,17.617,259.442-1.116,355.632-57.021C2644.562,2440.377,2643.74,2303.021,2496.989,2218.165Z" transform="translate(-418.328 -1715.312)" fill="#e0e0e0"/>
        </g>
        <g id="freepik--Pictures--inject-168" transform="translate(306.282 0)">
          <path id="Path_14" data-name="Path 14" d="M723.159,610.493l-206,118.975.47,157.439,206-118.975Z" transform="translate(-474.933 -314.759)" fill="none"/>
          <path id="Path_15" data-name="Path 15" d="M746.769,609.234l.47,157.439,19.085,11.1L765.8,598.253Z" transform="translate(-498.543 -313.501)" fill="#f0f0f0"/>
          <path id="Path_16" data-name="Path 16" d="M517.679,904.951l.059,22.08,225.03-129.956-19.085-11.1Z" transform="translate(-474.986 -332.803)" fill="#f5f5f5"/>
          <path id="Path_17" data-name="Path 17" d="M762.553,553.94,491.366,710.5l.646,232.488L763.2,786.429ZM515.032,903.172v-22.08l-.587-157.439,206-118.975L739.475,593.7,740,773.216Z" transform="translate(-472.281 -308.944)" fill="#e0e0e0"/>
          <path id="Path_18" data-name="Path 18" d="M760.366,552.668l-19.085-11.1L470.093,698.128l19.085,11.1Z" transform="translate(-470.093 -307.672)" fill="#f5f5f5"/>
          <path id="Path_19" data-name="Path 19" d="M470.093,716.071l.646,232.488,19.085,11.1-.646-232.488Z" transform="translate(-470.093 -325.615)" fill="#f0f0f0"/>
          <path id="Path_20" data-name="Path 20" d="M2550.376,1109.845l206,118.975-.411,157.439-206.062-118.916Z" transform="translate(-683.952 -366.106)" fill="none"/>
          <path id="Path_21" data-name="Path 21" d="M2548.189,1108.586l-.47,157.5-19.085,11.04.529-179.519Z" transform="translate(-681.765 -364.847)" fill="#f0f0f0"/>
          <path id="Path_22" data-name="Path 22" d="M2753.782,1404.309l-.059,22.08-225.089-129.956,19.085-11.04Z" transform="translate(-681.765 -384.156)" fill="#f5f5f5"/>
          <path id="Path_23" data-name="Path 23" d="M2502.911,1285.78l271.128,156.558.646-232.488-271.128-156.558Zm23.137-13.213.47-179.519,19.026,10.981,206,118.975-.411,157.439v22.08Z" transform="translate(-679.12 -360.29)" fill="#e0e0e0"/>
          <path id="Path_24" data-name="Path 24" d="M2503.631,1052.02l19.085-11.1,271.129,156.558-19.085,11.1Z" transform="translate(-679.194 -359.018)" fill="#f5f5f5"/>
          <path id="Path_25" data-name="Path 25" d="M2824.845,1215.422l-.646,232.488-19.085,11.1.646-232.488Z" transform="translate(-710.194 -376.962)" fill="#f0f0f0"/>
          <path id="Path_26" data-name="Path 26" d="M1101.6,718.337h0l7.4-3.641h0Z" transform="translate(-535.029 -325.474)" fill="none"/>
          <path id="Path_27" data-name="Path 27" d="M1098.587,719.85h0l2.7-1.292h0Z" transform="translate(-534.719 -325.871)" fill="none"/>
          <path id="Path_28" data-name="Path 28" d="M1182.246,376.755l-56.316,32.533-57.256,33.062,57.256-33.062Z" transform="translate(-531.643 -290.725)" fill="none"/>
          <path id="Path_29" data-name="Path 29" d="M1195.818,572.319l-.117-52.264-.176-47.8.176,47.8Z" transform="translate(-544.687 -300.545)" fill="none"/>
          <path id="Path_30" data-name="Path 30" d="M1109.845,714.609l1.586-.763Z" transform="translate(-535.877 -325.387)" fill="none"/>
          <path id="Path_31" data-name="Path 31" d="M1196.545,829.8l-.117-43.691-.117-38.288.117,38.288Z" transform="translate(-544.767 -328.88)" fill="none"/>
          <path id="Path_32" data-name="Path 32" d="M1074.237,729.179q10.805-3.876,21.845-8.985h0A226.961,226.961,0,0,1,1074.237,729.179Z" transform="translate(-532.215 -326.039)" fill="none"/>
          <path id="Path_33" data-name="Path 33" d="M1008.783,556.559l.47,167.892.294,97.306-.294-97.306Z" transform="translate(-525.485 -309.213)" fill="none"/>
          <path id="Path_34" data-name="Path 34" d="M1177.266,786.046V747.816l-1.762,1-3.171,1.879c-28.246,17.089-56.61,43.867-82.977,72.876-4.4,4.757-8.691,9.631-12.978,14.5-22.256,25.486-43.984,52.5-66.417,77.751V977.6l26.954-15.562a593.465,593.465,0,0,1,140.351-176Z" transform="translate(-525.606 -328.88)" fill="#ebebeb"/>
          <path id="Path_35" data-name="Path 35" d="M1190.2,890.281v-51.09a324.1,324.1,0,0,0-57.314,84.269Z" transform="translate(-538.246 -338.275)" fill="#ebebeb"/>
          <path id="Path_36" data-name="Path 36" d="M1123.178,918.445a324.1,324.1,0,0,1,57.314-84.269V790.427A593.465,593.465,0,0,0,1040.2,966.6l83.094-47.977Z" transform="translate(-528.715 -333.261)" fill="#fafafa"/>
          <path id="Path_37" data-name="Path 37" d="M1098.587,720h0" transform="translate(-534.719 -326.019)" fill="none" stroke="gray" stroke-linecap="round" stroke-linejoin="round" stroke-width="0"/>
          <path id="Path_38" data-name="Path 38" d="M1101.6,718.755h0" transform="translate(-535.029 -325.891)" fill="none" stroke="gray" stroke-linecap="round" stroke-linejoin="round" stroke-width="0"/>
          <path id="Path_39" data-name="Path 39" d="M1063.573,713.684l3.934-1.351q10.805-3.876,21.845-8.985l2.7-1.292,7.4-3.641c4.287-2.173,8.515-4.463,12.8-6.871-4.287,2.408-8.515,4.7-12.8,6.871l1.586-.763c3.7-1.938,7.458-3.993,11.216-5.872l2.408-1.351,2-1.174a410.078,410.078,0,0,0,57.667-41.107l2.466-2.173v-64.6c-41.107,20.964-81.333,27.483-113.866,17.617a99.831,99.831,0,0,1-54.144-42.634l.47,167.892a196.492,196.492,0,0,0,54.32-10.57Z" transform="translate(-525.485 -309.193)" fill="#fafafa"/>
          <path id="Path_40" data-name="Path 40" d="M1089.178,819.33c26.367-29.01,54.731-55.788,82.977-72.876l3.171-1.879,1.762-1v-37a801.219,801.219,0,0,0-151.332,114.981c-5.461,5.227-10.923,10.512-16.384,15.621v74.4c22.433-25.251,44.161-52.264,66.417-77.751C1080.487,828.961,1084.774,824.322,1089.178,819.33Z" transform="translate(-525.545 -324.639)" fill="#fafafa"/>
          <path id="Path_41" data-name="Path 41" d="M1176.977,701.685v-45.57l-2.466,2.173a410.068,410.068,0,0,1-57.667,41.107l-2,1.174-2.408,1.351c-3.758,2.114-7.517,4.169-11.216,5.872l-1.586.763-1,.528h0l1-.528-7.4,3.641-2.7,1.292q-10.981,5.109-21.845,8.985l4.111-1.527-4.111,1.527-3.935,1.351a196.487,196.487,0,0,1-54.32,10.747l.294,97.306c5.461-5.109,10.923-10.394,16.384-15.621a801.232,801.232,0,0,1,150.862-114.571Z" transform="translate(-525.552 -319.45)" fill="#ebebeb"/>
          <path id="Path_42" data-name="Path 42" d="M1182.677,513.964v-47.8c-25.9-5.872-45.981-24.9-56.551-53.145l-57.256,33.062A118.329,118.329,0,0,0,1182.677,513.964Z" transform="translate(-531.663 -294.454)" fill="#fafafa"/>
          <path id="Path_43" data-name="Path 43" d="M1062.73,587.373c32.533,10.1,72.876,3.582,113.866-17.617V517.491a118.329,118.329,0,0,1-113.983-67.885l-54.026,31.182v64.6a99.83,99.83,0,0,0,54.143,41.988Z" transform="translate(-525.465 -298.216)" fill="#ebebeb"/>
          <path id="Path_44" data-name="Path 44" d="M1184.373,358.625,997.983,466.266l1.409,487.409,186.39-107.582Zm-175.585,578.96V801.4l-.294-97.306-.822-168.068v-64.6l53.909-31.124,56.962-32.885,56.316-32.533V840.866l-57.491,33.179h0l-83.094,47.978Z" transform="translate(-524.374 -288.861)" fill="#fff"/>
          <path id="Path_45" data-name="Path 45" d="M1108.536,715.351h0" transform="translate(-535.742 -325.541)" fill="none" stroke="gray" stroke-linecap="round" stroke-linejoin="round" stroke-width="0"/>
          <path id="Path_46" data-name="Path 46" d="M1108.732,715.225l1-.528" transform="translate(-535.762 -325.474)" fill="none" stroke="gray" stroke-linecap="round" stroke-linejoin="round" stroke-width="0"/>
          <path id="Path_47" data-name="Path 47" d="M1122.646,706.907c-4.287,2.408-8.515,4.7-12.8,6.871" transform="translate(-535.877 -324.673)" fill="none" stroke="gray" stroke-linecap="round" stroke-linejoin="round" stroke-width="0"/>
          <line id="Line_1" data-name="Line 1" transform="translate(573.968 389.223)" fill="none" stroke="gray" stroke-linecap="round" stroke-linejoin="round" stroke-width="0"/>
          <path id="Path_48" data-name="Path 48" d="M1074.237,730.034l4.111-1.527" transform="translate(-532.215 -326.894)" fill="none" stroke="gray" stroke-linecap="round" stroke-linejoin="round" stroke-width="0"/>
          <path id="Path_49" data-name="Path 49" d="M1189.03,462.434V376.755l-56.669,32.533C1143.049,437.535,1163.132,456.385,1189.03,462.434Z" transform="translate(-538.192 -290.725)" fill="#ebebeb"/>
          <path id="Path_50" data-name="Path 50" d="M1185.944,902.092l-186.39,107.641v12.978l197.547-114.1Z" transform="translate(-524.536 -344.743)" fill="#cacaca"/>
          <path id="Path_51" data-name="Path 51" d="M1205.735,357.891l1.409,487.585,11.158,6.518-1.409-500.5Z" transform="translate(-545.737 -288.127)" fill="#f0f0f0"/>
          <path id="Path_52" data-name="Path 52" d="M1222.079,293.628,964.34,442.376,965.984,1012l257.681-148.807ZM995.933,960.146V947.167l-1.409-487.409,186.39-107.641,11.158-6.4,1.468,500.5Z" transform="translate(-520.915 -282.177)" fill="#e0e0e0"/>
          <path id="Path_53" data-name="Path 53" d="M1219.649,292.316l-21.258-11.451L940.711,429.671l21.258,11.392Z" transform="translate(-518.485 -280.865)" fill="#f5f5f5"/>
          <path id="Path_54" data-name="Path 54" d="M940.711,446.726l1.586,569.623,21.258,11.392-1.586-569.623Z" transform="translate(-518.485 -297.92)" fill="#f0f0f0"/>
          <path id="Path_55" data-name="Path 55" d="M658.871,677.126l56.14,44.219.117,43.221L528.269,872.5l-.117-43.221L563.8,758.517l31.946,24.84-11.275,35.117,16.384-31.182Z" transform="translate(-476.063 -321.611)" fill="#e0e0e0"/>
          <path id="Path_56" data-name="Path 56" d="M603.57,701.16c8.809-5.05,15.973-1,16.032,9.1a35.234,35.234,0,0,1-15.914,27.483c-8.809,5.109-15.914,1-15.973-9.1A35.235,35.235,0,0,1,603.57,701.16Z" transform="translate(-482.188 -323.859)" fill="#e0e0e0"/>
          <path id="Path_57" data-name="Path 57" d="M2616.957,1176.477l-56.2,44.278-.117,43.221,186.86,107.876.117-43.221-35.587-70.762-32,24.84,11.334,35.117-16.443-31.182Z" transform="translate(-685.056 -372.957)" fill="#e0e0e0"/>
          <path id="Path_58" data-name="Path 58" d="M2689.981,1200.512c-8.809-5.05-15.973-1-15.973,9.1a35.235,35.235,0,0,0,15.856,27.541c8.809,5.051,15.973,1,15.973-9.161A34.882,34.882,0,0,0,2689.981,1200.512Z" transform="translate(-696.713 -375.205)" fill="#e0e0e0"/>
        </g>
        <g id="freepik--Plants--inject-168" transform="translate(18.769 1206.973)">
          <path id="Path_59" data-name="Path 59" d="M286.405,2196.257l94.9,2.819,94.9-2.819c4.111,64.126-8.4,129.192-25.662,161.315h0a43.519,43.519,0,0,1-18.792,19.144c-28.07,16.031-73.522,16.031-101.123,0a42.454,42.454,0,0,1-18.792-19.614C294.744,2324.979,282.353,2260.031,286.405,2196.257Z" transform="translate(-163.613 -1684.789)" fill="#fff"/>
          <path id="Path_60" data-name="Path 60" d="M314.507,2151.146c-37.172,21.434-37.348,56.258-.411,77.692s97.012,21.493,134.184,0,37.407-56.257.47-77.692S351.738,2129.653,314.507,2151.146Z" transform="translate(-163.704 -1678.496)" fill="#ebebeb"/>
          <path id="Path_61" data-name="Path 61" d="M331.631,2161.043c-29.01,16.736-29.362,43.926-.352,60.662s75.7,16.736,104.7,0,29.362-43.926.352-60.662S360.7,2144.307,331.631,2161.043Z" transform="translate(-166.088 -1679.878)" fill="#e0e0e0"/>
          <g id="Group_9" data-name="Group 9" transform="translate(143.609 468.613)" opacity="0.15">
            <path id="Path_62" data-name="Path 62" d="M331.631,2161.043c-29.01,16.736-29.362,43.926-.352,60.662s75.7,16.736,104.7,0,29.362-43.926.352-60.662S360.7,2144.307,331.631,2161.043Z" transform="translate(-309.697 -2148.491)"/>
          </g>
          <path id="Path_63" data-name="Path 63" d="M218.356,1744.949c213.873,70,215.811,213.051,167.6,314.937-12.156,20.671-48.976,31.711-80.98-95.015l56.2,7.223L295.7,1938.914l-17.03-50.62,54.613,4.052-69.294-29.362a1027.655,1027.655,0,0,0-45.629-118.035Z" transform="translate(-156.696 -1638.383)" fill="#063aff"/>
          <path id="Path_64" data-name="Path 64" d="M218.356,1744.949c213.873,70,215.811,213.051,167.6,314.937-12.156,20.671-48.976,31.711-80.98-95.015l56.2,7.223L295.7,1938.914l-17.03-50.62,54.613,4.052-69.294-29.362a1027.655,1027.655,0,0,0-45.629-118.035Z" transform="translate(-156.696 -1638.383)" opacity="0.2"/>
          <path id="Path_65" data-name="Path 65" d="M218.356,1744.949c213.873,70,215.811,213.051,167.6,314.937-12.156,20.671-48.976,31.711-80.98-95.015l56.2,7.223L295.7,1938.914l-17.03-50.62,54.613,4.052-69.294-29.362a1027.655,1027.655,0,0,0-45.629-118.035Z" transform="translate(-156.696 -1638.383)" fill="#fff" opacity="0.2"/>
          <path id="Path_66" data-name="Path 66" d="M285.774,1784.81c112.809,85.62,122.968,183.923,91.14,286.162C388.188,1980.772,400.344,1889.574,285.774,1784.81Z" transform="translate(-163.628 -1642.482)" fill="#fff"/>
          <path id="Path_67" data-name="Path 67" d="M597.188,1906.948C386.369,1936.6,360.765,2069.5,388.776,2172.439c7.869,21.2,40.285,37.642,91.2-75.049l-53.38-2.642,66.476-20.025,24.253-44.513-51.5-5.285,69.353-15.621a960.491,960.491,0,0,1,62.013-102.356Z" transform="translate(-173.259 -1655.041)" fill="#063aff"/>
          <path id="Path_68" data-name="Path 68" d="M597.188,1906.948C386.369,1936.6,360.765,2069.5,388.776,2172.439c7.869,21.2,40.285,37.642,91.2-75.049l-53.38-2.642,66.476-20.025,24.253-44.513-51.5-5.285,69.353-15.621a960.491,960.491,0,0,1,62.013-102.356Z" transform="translate(-173.259 -1655.041)" fill="#fff" opacity="0.2"/>
          <path id="Path_69" data-name="Path 69" d="M597.188,1906.948C386.369,1936.6,360.765,2069.5,388.776,2172.439c7.869,21.2,40.285,37.642,91.2-75.049l-53.38-2.642,66.476-20.025,24.253-44.513-51.5-5.285,69.353-15.621a960.491,960.491,0,0,1,62.013-102.356Z" transform="translate(-173.259 -1655.041)" opacity="0.1"/>
          <path id="Path_70" data-name="Path 70" d="M537.191,1932.868c-119.268,60.956-145.048,150.921-132.364,251.4C409.29,2098.353,413.107,2011.382,537.191,1932.868Z" transform="translate(-175.569 -1657.706)" fill="#fff"/>
          <path id="Path_71" data-name="Path 71" d="M149.629,1962.454c193.319,3.171,231.255,120.091,217.279,215.928-4.7,20.025-32.122,38.464-90.552-57.373l47.919-8.4-62.189-10.57-26.837-37.407,45.8-10.512-64.244-6.342A882.011,882.011,0,0,0,149.629,1962.454Z" transform="translate(-149.629 -1660.748)" fill="#063aff"/>
          <path id="Path_72" data-name="Path 72" d="M215.083,1978.032c114.277,41.635,147.632,119.562,147.632,211.759C348.856,2112.921,335.7,2034.935,215.083,1978.032Z" transform="translate(-156.359 -1662.35)" fill="#fff"/>
          <path id="Path_73" data-name="Path 73" d="M149.629,1962.454c193.319,3.171,231.255,120.091,217.279,215.928-4.7,20.025-32.122,38.464-90.552-57.373l47.919-8.4-62.189-10.57-26.837-37.407,45.8-10.512-64.244-6.342A882.011,882.011,0,0,0,149.629,1962.454Z" transform="translate(-149.629 -1660.748)" fill="#fff" opacity="0.2"/>
          <path id="Path_74" data-name="Path 74" d="M2845.658,2009.057l99.479,2.936,99.831-2.936c4.287,67.239-8.809,135.711-26.9,169.184h0a45.336,45.336,0,0,1-19.673,20.025c-29.362,16.971-76.811,16.971-105.7,0a44.105,44.105,0,0,1-19.672-20.554C2854.349,2144.063,2841.137,2075.944,2845.658,2009.057Z" transform="translate(-426.759 -1665.541)" fill="#fff"/>
          <path id="Path_75" data-name="Path 75" d="M2875.119,1961.7c-38.993,22.55-39.228,59.018-.47,81.568s101.769,22.491,140.938,0,39.169-59.018.47-81.568S2914.112,1939.2,2875.119,1961.7Z" transform="translate(-426.858 -1658.934)" fill="#ebebeb"/>
          <path id="Path_76" data-name="Path 76" d="M2893.074,1972.137c-30.419,17.617-30.6,46.04-.411,63.6s79.395,17.617,109.814,0,30.6-46.04.353-63.6S2923.493,1954.578,2893.074,1972.137Z" transform="translate(-429.368 -1660.39)" fill="#e0e0e0"/>
          <g id="Group_10" data-name="Group 10" transform="translate(2440.773 298.578)" opacity="0.15">
            <path id="Path_77" data-name="Path 77" d="M2893.074,1972.137c-30.419,17.617-30.6,46.04-.411,63.6s79.395,17.617,109.814,0,30.6-46.04.353-63.6S2923.493,1954.578,2893.074,1972.137Z" transform="translate(-2870.142 -1958.968)"/>
          </g>
          <path id="Path_78" data-name="Path 78" d="M2998.534,1766.032c16.149-20.084,34.941-38.112,49.8-59.253,10.159-14.446,18.616-32.063,14.329-49.152a44.042,44.042,0,0,0-34.823-30.713,66.829,66.829,0,0,0-46.979,10.453,142.585,142.585,0,0,0-35.234,33.649,351.225,351.225,0,0,0-73.992,250.751,52.849,52.849,0,0,0,9.279,28.833,28.716,28.716,0,0,0,29.714,9.1c27.13-8.045,23.49-44.689,27.953-66.182a300.018,300.018,0,0,1,59.84-127.49Z" transform="translate(-429.361 -1626.17)" fill="#063aff"/>
          <path id="Path_79" data-name="Path 79" d="M2998.534,1766.032c16.149-20.084,34.941-38.112,49.8-59.253,10.159-14.446,18.616-32.063,14.329-49.152a44.042,44.042,0,0,0-34.823-30.713,66.829,66.829,0,0,0-46.979,10.453,142.585,142.585,0,0,0-35.234,33.649,351.225,351.225,0,0,0-73.992,250.751,52.849,52.849,0,0,0,9.279,28.833,28.716,28.716,0,0,0,29.714,9.1c27.13-8.045,23.49-44.689,27.953-66.182a300.018,300.018,0,0,1,59.84-127.49Z" transform="translate(-429.361 -1626.17)" fill="#fff" opacity="0.2"/>
          <path id="Path_80" data-name="Path 80" d="M2913.183,1935.121a2.407,2.407,0,0,0,1.938-2.232c1.879-43.515,16.032-192.027,118.387-276a2.349,2.349,0,0,0,.353-3.347,2.408,2.408,0,0,0-3.347-.353c-103.883,85.561-118.211,235.777-120.149,279.82a2.408,2.408,0,0,0,2.291,2.466Z" transform="translate(-433.504 -1628.894)" fill="#f0f0f0"/>
          <path id="Path_81" data-name="Path 81" d="M2896.51,1953.282a72.464,72.464,0,0,0,33.238,46.04,93.428,93.428,0,0,0,50.268,8.456,222.408,222.408,0,0,0,51.09-12.1c8.163-2.76,17.324-6.518,18.2-16.678a18.087,18.087,0,0,0-5.873-14.329,67.226,67.226,0,0,0-5.284-4.58,5.226,5.226,0,0,1,2.76-9.4,121.868,121.868,0,0,0,14.564-1.82,63.955,63.955,0,0,0,30.536-13.8,51.152,51.152,0,0,0,14.153-20.906c2.466-6.812,3.171-15.386-2.056-20.495a22.077,22.077,0,0,0-11.275-4.933c-3.641-.764-7.282-1.468-10.981-2.056a4.874,4.874,0,0,1-1.116-9.278l15.444-6.4a29.009,29.009,0,0,0,11.745-7.282,25.428,25.428,0,0,0,3-21.258c-1.879-9.689-5.227-18.968-7.517-28.6a61.425,61.425,0,0,1-1-29.362,245.062,245.062,0,0,0-86.5,5.872,62.25,62.25,0,0,0-23.49,10.335c-9.631,7.693-12.1,19.261-11.1,31.77a2.232,2.232,0,0,1-4.169,1.175l-9.983-17.794a11.745,11.745,0,0,0-15.386-4.933,71.064,71.064,0,0,0-22.55,17.617,39.109,39.109,0,0,0-9.631,28.892,252.5,252.5,0,0,0,7.164,42.4,3.876,3.876,0,0,1-5.872,4.111l-.469-.293a13.1,13.1,0,0,0-9.337-2.7c-8.691,1.057-10.923,9.866-11.745,17.617a146.837,146.837,0,0,0,3.171,34.705Z" transform="translate(-431.748 -1642.299)" fill="#063aff"/>
          <path id="Path_82" data-name="Path 82" d="M2896.51,1953.282a72.464,72.464,0,0,0,33.238,46.04,93.428,93.428,0,0,0,50.268,8.456,222.408,222.408,0,0,0,51.09-12.1c8.163-2.76,17.324-6.518,18.2-16.678a18.087,18.087,0,0,0-5.873-14.329,67.226,67.226,0,0,0-5.284-4.58,5.226,5.226,0,0,1,2.76-9.4,121.868,121.868,0,0,0,14.564-1.82,63.955,63.955,0,0,0,30.536-13.8,51.152,51.152,0,0,0,14.153-20.906c2.466-6.812,3.171-15.386-2.056-20.495a22.077,22.077,0,0,0-11.275-4.933c-3.641-.764-7.282-1.468-10.981-2.056a4.874,4.874,0,0,1-1.116-9.278l15.444-6.4a29.009,29.009,0,0,0,11.745-7.282,25.428,25.428,0,0,0,3-21.258c-1.879-9.689-5.227-18.968-7.517-28.6a61.425,61.425,0,0,1-1-29.362,245.062,245.062,0,0,0-86.5,5.872,62.25,62.25,0,0,0-23.49,10.335c-9.631,7.693-12.1,19.261-11.1,31.77a2.232,2.232,0,0,1-4.169,1.175l-9.983-17.794a11.745,11.745,0,0,0-15.386-4.933,71.064,71.064,0,0,0-22.55,17.617,39.109,39.109,0,0,0-9.631,28.892,252.5,252.5,0,0,0,7.164,42.4,3.876,3.876,0,0,1-5.872,4.111l-.469-.293a13.1,13.1,0,0,0-9.337-2.7c-8.691,1.057-10.923,9.866-11.745,17.617a146.837,146.837,0,0,0,3.171,34.705Z" transform="translate(-431.748 -1642.299)" opacity="0.2"/>
          <path id="Path_83" data-name="Path 83" d="M2896.51,1953.282a72.464,72.464,0,0,0,33.238,46.04,93.428,93.428,0,0,0,50.268,8.456,222.408,222.408,0,0,0,51.09-12.1c8.163-2.76,17.324-6.518,18.2-16.678a18.087,18.087,0,0,0-5.873-14.329,67.226,67.226,0,0,0-5.284-4.58,5.226,5.226,0,0,1,2.76-9.4,121.868,121.868,0,0,0,14.564-1.82,63.955,63.955,0,0,0,30.536-13.8,51.152,51.152,0,0,0,14.153-20.906c2.466-6.812,3.171-15.386-2.056-20.495a22.077,22.077,0,0,0-11.275-4.933c-3.641-.764-7.282-1.468-10.981-2.056a4.874,4.874,0,0,1-1.116-9.278l15.444-6.4a29.009,29.009,0,0,0,11.745-7.282,25.428,25.428,0,0,0,3-21.258c-1.879-9.689-5.227-18.968-7.517-28.6a61.425,61.425,0,0,1-1-29.362,245.062,245.062,0,0,0-86.5,5.872,62.25,62.25,0,0,0-23.49,10.335c-9.631,7.693-12.1,19.261-11.1,31.77a2.232,2.232,0,0,1-4.169,1.175l-9.983-17.794a11.745,11.745,0,0,0-15.386-4.933,71.064,71.064,0,0,0-22.55,17.617,39.109,39.109,0,0,0-9.631,28.892,252.5,252.5,0,0,0,7.164,42.4,3.876,3.876,0,0,1-5.872,4.111l-.469-.293a13.1,13.1,0,0,0-9.337-2.7c-8.691,1.057-10.923,9.866-11.745,17.617a146.837,146.837,0,0,0,3.171,34.705Z" transform="translate(-431.748 -1642.299)" fill="#fff" opacity="0.2"/>
          <path id="Path_84" data-name="Path 84" d="M2947.994,1998.531a347.237,347.237,0,0,1,23.49-67.415,2.407,2.407,0,0,1,.822-1.761l1.586-3.524a217.928,217.928,0,0,0-23.02-77.163,2.408,2.408,0,1,1,4.111-2.408,221.1,221.1,0,0,1,22.726,71.761c19.673-39.463,51.09-85.678,99.831-119.386a2.29,2.29,0,0,1,3.288.588,2.349,2.349,0,0,1-.587,3.288c-50.033,34.823-81.568,83.036-100.771,123.32a145.224,145.224,0,0,1,82.213-11.158,2.35,2.35,0,0,1,1.88,2.76,2.291,2.291,0,0,1-1.88,1.879h-.881c-.47,0-45.746-8.28-84.856,13.565a345.613,345.613,0,0,0-23.313,66.593,2.292,2.292,0,0,1-1.879,1.821h-.94a2.29,2.29,0,0,1-1.82-2.76Z" transform="translate(-437.368 -1643.857)" fill="#f0f0f0"/>
        </g>
        <g id="freepik--landing-page--inject-168" transform="translate(243.095 1.013)">
          <path id="Path_85" data-name="Path 85" d="M443.656,1441.618l-.235-83.8-43.691-24.84.235,81.8h0v1.879l43.691,24.958Z" transform="translate(-399.671 -390.063)" fill="#063aff"/>
          <path id="Path_86" data-name="Path 86" d="M446.312,2421.505l-2.76-970.3-43.691-24.958,2.7,968.476a18.38,18.38,0,0,0,7.34,16.384h0l43.1,26.309a18.145,18.145,0,0,1-6.694-15.914Z" transform="translate(-399.685 -399.654)" fill="#063aff"/>
          <path id="Path_87" data-name="Path 87" d="M446.312,2421.505l-2.76-970.3-43.691-24.958,2.7,968.476a18.38,18.38,0,0,0,7.34,16.384h0l43.1,26.309a18.145,18.145,0,0,1-6.694-15.914Z" transform="translate(-399.685 -399.654)" fill="#fff" opacity="0.2"/>
          <path id="Path_88" data-name="Path 88" d="M480.118,2552.067a32.011,32.011,0,0,1-5.05,2.349A32.011,32.011,0,0,0,480.118,2552.067Z" transform="translate(-407.418 -515.417)" fill="#455a64"/>
          <path id="Path_89" data-name="Path 89" d="M471.15,2555.6h0Z" transform="translate(-406.906 -515.78)" fill="#455a64"/>
          <path id="Path_90" data-name="Path 90" d="M461.126,2554.554Z" transform="translate(-405.984 -515.672)" fill="#455a64"/>
          <path id="Path_91" data-name="Path 91" d="M443.59,1249.574v-48.213a57.021,57.021,0,0,1,25.6-44.865L1931.421,312.34a18.5,18.5,0,0,1,18.087-1.938l-43.162-26.485h0a17.969,17.969,0,0,0-18.674,1.527L425.444,1129.6a56.845,56.845,0,0,0-25.78,44.748v48.271h0v1.879l43.691,24.9Z" transform="translate(-399.664 -281.994)" fill="#063aff"/>
          <path id="Path_92" data-name="Path 92" d="M443.59,1249.574v-48.213a57.021,57.021,0,0,1,25.6-44.865L1931.421,312.34a18.5,18.5,0,0,1,18.087-1.938l-43.162-26.485h0a17.969,17.969,0,0,0-18.674,1.527L425.444,1129.6a56.845,56.845,0,0,0-25.78,44.748v48.271h0v1.879l43.691,24.9Z" transform="translate(-399.664 -281.994)" fill="#fff" opacity="0.3"/>
          <path id="Path_93" data-name="Path 93" d="M443.656,1441.618l-.235-83.8-43.691-24.84.235,81.8h0v1.879l43.691,24.958Z" transform="translate(-399.671 -390.063)" opacity="0.2"/>
          <path id="Path_94" data-name="Path 94" d="M443.656,1441.618l-.235-83.8-43.691-24.84.235,81.8h0v1.879l43.691,24.958Z" transform="translate(-399.671 -390.063)" fill="#fff" opacity="0.2"/>
          <path id="Path_95" data-name="Path 95" d="M1936.4,315.544c14.27-8.221,25.9-1.586,25.956,14.857v48.271L448.624,1252.661v-48.213a57.021,57.021,0,0,1,25.6-44.865Z" transform="translate(-404.699 -285.081)" fill="#063aff"/>
          <path id="Path_96" data-name="Path 96" d="M1996.086,404.746c7.634-4.463,13.859-.881,13.859,7.869a30.3,30.3,0,0,1-13.8,23.9c-7.634,4.463-13.859.881-13.859-7.869A30.125,30.125,0,0,1,1996.086,404.746Z" transform="translate(-562.399 -294.418)" fill="#fff"/>
          <path id="Path_97" data-name="Path 97" d="M2043.148,377.521c7.634-4.4,13.859-.822,13.859,7.928a30.125,30.125,0,0,1-13.8,23.9c-7.634,4.4-13.859.881-13.859-7.928a30.478,30.478,0,0,1,13.8-23.9Z" transform="translate(-567.238 -291.623)" fill="#fff"/>
          <path id="Path_98" data-name="Path 98" d="M2090.144,350.419c7.693-4.463,13.859-.881,13.918,7.869a30.477,30.477,0,0,1-13.8,24.018c-7.634,4.463-13.859.881-13.917-7.869a30.478,30.478,0,0,1,13.8-24.018Z" transform="translate(-572.071 -288.832)" fill="#fff"/>
          <path id="Path_99" data-name="Path 99" d="M753.056,1036.666c5.872-3.288,10.981-2.7,13.683,1.527l13.741,21.141c2.76,4.228,7.986,4.815,13.683,1.527L1962.3,386.181V470.1L448.69,1344.38v-83.917l44.865-25.9a34.589,34.589,0,0,0,13.683-17.324l13.507-36.879a34,34,0,0,1,13.624-17.265Z" transform="translate(-404.705 -292.707)" fill="#e0e0e0"/>
          <path id="Path_100" data-name="Path 100" d="M1962.535,479.846l2.76,970.355a56.787,56.787,0,0,1-25.78,44.63L477.406,2338.988c-14.329,8.28-25.9,1.644-25.956-14.8l-2.76-970.3Z" transform="translate(-404.705 -302.338)" fill="#063aff"/>
          <g id="Group_11" data-name="Group 11" transform="translate(43.984 177.508)" opacity="0.4">
            <path id="Path_101" data-name="Path 101" d="M1962.535,479.846l2.76,970.355a56.787,56.787,0,0,1-25.78,44.63L477.406,2338.988c-14.329,8.28-25.9,1.644-25.956-14.8l-2.76-970.3Z" transform="translate(-448.69 -479.846)" fill="#fff"/>
          </g>
          <path id="Path_102" data-name="Path 102" d="M1920.4,443.622c10.159-5.872,18.381-1.174,18.439,10.512a40.519,40.519,0,0,1-18.322,31.652L639.333,1225.708c-10.159,5.872-18.439,1.116-18.5-10.57a40.519,40.519,0,0,1,18.381-31.711Z" transform="translate(-422.406 -298.354)" fill="#fff"/>
          <path id="Path_103" data-name="Path 103" d="M473.894,1368.947a1.821,1.821,0,0,1,1.938,0c.94.646.881,2.584,0,4.287l-8.045,13.213,21.023-12.508a1.586,1.586,0,0,1,2.584,1.468,5.52,5.52,0,0,1-2.584,4.522l-21.2,12.215,8.1,3.876c1.057.528,1.174,2.349,0,4.052a5.872,5.872,0,0,1-1.879,2.114,2.056,2.056,0,0,1-1.82,0l-12.978-6.225-.529-.529h0v-2.349h0l.47-1.057,12.978-21.258A4.756,4.756,0,0,1,473.894,1368.947Z" transform="translate(-405.715 -393.732)" fill="#e0e0e0"/>
          <path id="Path_104" data-name="Path 104" d="M524.87,1339.434a1.939,1.939,0,0,1,1.762,0l12.978,5.931.47.587h0v2.643l-.411,1.057L526.75,1370.91a5.051,5.051,0,0,1-1.762,1.762,1.7,1.7,0,0,1-1.879,0c-1-.587-.94-2.525,0-4.287l8.045-13.154-20.906,12.449a1.621,1.621,0,0,1-2.584-1.527,5.872,5.872,0,0,1,2.525-4.463l21.258-12.215-8.1-3.876c-1.116-.528-1.116-2.349,0-4.169a5.167,5.167,0,0,1,1.527-2Z" transform="translate(-410.77 -390.705)" fill="#e0e0e0"/>
          <path id="Path_105" data-name="Path 105" d="M573.754,1310.734a11.745,11.745,0,0,1,8.809-1.644l1.938-2.584a4.874,4.874,0,0,1,1.409-1.292,2.464,2.464,0,0,1,1.409,0c.881,0,1.292,1.057,1.174,2.349l-1.116,7.986a5.874,5.874,0,0,1-1.116,2.643,4.814,4.814,0,0,1-1.409,1.292l-.646.294-6.283,1.762a1.468,1.468,0,0,1-1.938-1.351,4.992,4.992,0,0,1,1.174-3.582l.587-.822a8.163,8.163,0,0,0-3.935,1.174,20.612,20.612,0,0,0-9.337,16.09c0,5.872,4.228,8.339,9.4,5.344a20.084,20.084,0,0,0,8.163-10.218,5.872,5.872,0,0,1,2.232-2.877,2.642,2.642,0,0,1,1.233-.352c1.292,0,1.762,1.644,1.057,3.465a31.886,31.886,0,0,1-12.684,15.5c-7.987,4.581-14.5.881-14.564-8.339a31.946,31.946,0,0,1,14.446-24.84Z" transform="translate(-416.08 -387.197)" fill="#e0e0e0"/>
          <g id="Group_12" data-name="Group 12" transform="translate(52.793 974.935)" opacity="0.3">
            <path id="Path_106" data-name="Path 106" d="M473.894,1368.947a1.821,1.821,0,0,1,1.938,0c.94.646.881,2.584,0,4.287l-8.045,13.213,21.023-12.508a1.586,1.586,0,0,1,2.584,1.468,5.52,5.52,0,0,1-2.584,4.522l-21.2,12.215,8.1,3.876c1.057.528,1.174,2.349,0,4.052a5.872,5.872,0,0,1-1.879,2.114,2.056,2.056,0,0,1-1.82,0l-12.978-6.225-.529-.529h0v-2.349h0l.47-1.057,12.978-21.258A4.756,4.756,0,0,1,473.894,1368.947Z" transform="translate(-458.508 -1368.667)"/>
          </g>
          <g id="Group_13" data-name="Group 13" transform="translate(96.895 948.518)" opacity="0.3">
            <path id="Path_107" data-name="Path 107" d="M524.87,1339.434a1.939,1.939,0,0,1,1.762,0l12.978,5.931.47.587h0v2.643l-.411,1.057L526.75,1370.91a5.051,5.051,0,0,1-1.762,1.762,1.7,1.7,0,0,1-1.879,0c-1-.587-.94-2.525,0-4.287l8.045-13.154-20.906,12.449a1.621,1.621,0,0,1-2.584-1.527,5.872,5.872,0,0,1,2.525-4.463l21.258-12.215-8.1-3.876c-1.116-.528-1.116-2.349,0-4.169a5.167,5.167,0,0,1,1.527-2Z" transform="translate(-507.664 -1339.223)"/>
          </g>
          <g id="Group_14" data-name="Group 14" transform="translate(143.228 917.914)" opacity="0.3">
            <path id="Path_108" data-name="Path 108" d="M573.754,1310.734a11.745,11.745,0,0,1,8.809-1.644l1.938-2.584a4.874,4.874,0,0,1,1.409-1.292,2.464,2.464,0,0,1,1.409,0c.881,0,1.292,1.057,1.174,2.349l-1.116,7.986a5.874,5.874,0,0,1-1.116,2.643,4.814,4.814,0,0,1-1.409,1.292l-.646.294-6.283,1.762a1.468,1.468,0,0,1-1.938-1.351,4.992,4.992,0,0,1,1.174-3.582l.587-.822a8.163,8.163,0,0,0-3.935,1.174,20.612,20.612,0,0,0-9.337,16.09c0,5.872,4.228,8.339,9.4,5.344a20.084,20.084,0,0,0,8.163-10.218,5.872,5.872,0,0,1,2.232-2.877,2.642,2.642,0,0,1,1.233-.352c1.292,0,1.762,1.644,1.057,3.465a31.886,31.886,0,0,1-12.684,15.5c-7.987,4.581-14.5.881-14.564-8.339a31.946,31.946,0,0,1,14.446-24.84Z" transform="translate(-559.308 -1305.111)"/>
          </g>
          <g id="Group_15" data-name="Group 15" transform="translate(645.082 431.435)" opacity="0.6">
            <path id="Path_109" data-name="Path 109" d="M1964.247,792.645l1.351,348.879a90.083,90.083,0,0,1-44.807,78.044l-755.836,438.551a29.949,29.949,0,0,1-44.983-25.839l-1.292-348.879a89.907,89.907,0,0,1,44.748-78.044l755.836-438.433a29.949,29.949,0,0,1,44.983,25.721Z" transform="translate(-1118.68 -762.877)" fill="#fff"/>
          </g>
          <path id="Path_110" data-name="Path 110" d="M1680.374,1031.5,1528.69,1319.6l-42.927,81.626,29.538-91.9-83.623-64.949-93.136,185.039.352,113.044,488.76-282.228-.352-113.044Z" transform="translate(-496.205 -359.062)" fill="#063aff"/>
          <path id="Path_111" data-name="Path 111" d="M1536.135,1190.112a91.785,91.785,0,0,0,41.518-71.937c0-26.426-18.792-37.114-41.812-23.842a91.609,91.609,0,0,0-41.518,71.937C1494.382,1192.461,1513.115,1203.383,1536.135,1190.112Z" transform="translate(-512.224 -364.937)" fill="#063aff"/>
          <g id="Group_16" data-name="Group 16" transform="translate(842.337 672.433)" opacity="0.3">
            <path id="Path_112" data-name="Path 112" d="M1680.374,1031.5,1528.69,1319.6l-42.927,81.626,29.538-91.9-83.623-64.949-93.136,185.039.352,113.044,488.76-282.228-.352-113.044Z" transform="translate(-1338.542 -1031.496)" fill="#fff"/>
            <path id="Path_113" data-name="Path 113" d="M1536.135,1190.112a91.785,91.785,0,0,0,41.518-71.937c0-26.426-18.792-37.114-41.812-23.842a91.609,91.609,0,0,0-41.518,71.937C1494.382,1192.461,1513.115,1203.383,1536.135,1190.112Z" transform="translate(-1354.561 -1037.371)" fill="#fff"/>
          </g>
          <g id="Group_17" data-name="Group 17" transform="translate(645.082 1175.767)" opacity="0.6">
            <path id="Path_114" data-name="Path 114" d="M1518.532,1606.072l.587,210.7a40.758,40.758,0,0,1-20.267,35.239l-359.266,208.524a13.565,13.565,0,0,1-20.319-11.745l-.587-210.76a40.46,40.46,0,0,1,20.26-35.234L1498.1,1594.385a13.565,13.565,0,0,1,20.436,11.686Z" transform="translate(-1118.681 -1592.517)" fill="#fff"/>
          </g>
          <path id="Path_115" data-name="Path 115" d="M1302.084,1804.381l111.282,9.572L1302.5,1951.72Z" transform="translate(-492.457 -438.535)" fill="#063aff"/>
          <g id="Group_18" data-name="Group 18" transform="translate(809.628 1365.846)" opacity="0.3">
            <path id="Path_116" data-name="Path 116" d="M1302.084,1804.381l111.282,9.572L1302.5,1951.72Z" transform="translate(-1302.084 -1804.381)" fill="#fff"/>
          </g>
          <g id="Group_19" data-name="Group 19" transform="translate(1088.566 919.647)" opacity="0.6">
            <path id="Path_117" data-name="Path 117" d="M2010.965,1320.622l.587,210.7a40.579,40.579,0,0,1-20.26,35.234l-357.335,204.77a13.565,13.565,0,0,1-20.377-11.745l-.587-210.7a40.758,40.758,0,0,1,20.267-35.239l357.328-204.766a13.565,13.565,0,0,1,20.377,11.745Z" transform="translate(-1612.993 -1307.043)" fill="#fff"/>
          </g>
          <path id="Path_118" data-name="Path 118" d="M1790.243,1510.425,1901.466,1520l-110.812,137.766Z" transform="translate(-542.652 -408.309)" fill="#063aff"/>
          <g id="Group_20" data-name="Group 20" transform="translate(1247.591 1102.117)" opacity="0.3">
            <path id="Path_119" data-name="Path 119" d="M1790.243,1510.425,1901.466,1520l-110.812,137.766Z" transform="translate(-1790.243 -1510.425)" fill="#fff"/>
          </g>
          <g id="Group_21" data-name="Group 21" transform="translate(138.589 313.395)" opacity="0.7">
            <path id="Path_120" data-name="Path 120" d="M858.151,1304.833l.117,53.145L554.254,1533.5l-.117-53.086Z" transform="translate(-554.137 -700.564)" fill="#fff"/>
            <path id="Path_121" data-name="Path 121" d="M736.149,1475.015l.117,26.426-181.809,105-.059-26.426Z" transform="translate(-554.164 -718.063)" fill="#fff"/>
            <path id="Path_122" data-name="Path 122" d="M1295.4,1066.972l.118,31.006-88.027,50.8-.117-30.948Z" transform="translate(-621.306 -676.105)" fill="#fff"/>
            <path id="Path_123" data-name="Path 123" d="M1480.222,958.318l.059,31.006-117.331,67.767-.059-31.006Z" transform="translate(-637.298 -664.933)" fill="#fff"/>
            <path id="Path_124" data-name="Path 124" d="M1861.841,739.962l.059,31.006-88.027,50.8-.059-30.948Z" transform="translate(-679.551 -642.48)" fill="#fff"/>
            <path id="Path_125" data-name="Path 125" d="M2046.657,631.308l.059,31.006-117.331,67.767-.117-31.006Z" transform="translate(-695.536 -631.308)" fill="#fff"/>
            <path id="Path_126" data-name="Path 126" d="M1690.4,835.46l.059,31.006L1550.4,947.388l-.117-31.006Z" transform="translate(-656.567 -652.3)" fill="#fff"/>
          </g>
          <g id="Group_22" data-name="Group 22" transform="translate(139.059 1175.58)" opacity="0.7">
            <path id="Path_127" data-name="Path 127" d="M860.567,1637.6l.059,23.431L554.85,1837.558l-.059-23.431Z" transform="translate(-554.674 -1596.967)" fill="#fff"/>
            <path id="Path_128" data-name="Path 128" d="M674.954,1802.418l.117,23.372-120.091,69.353-.059-23.431Z" transform="translate(-554.687 -1613.914)" fill="#fff"/>
            <path id="Path_129" data-name="Path 129" d="M860.967,1790.636l.059,23.431L555.308,1990.591l-.059-23.431Z" transform="translate(-554.721 -1612.702)" fill="#fff"/>
            <path id="Path_130" data-name="Path 130" d="M860.836,1745.341l.059,23.372L555.177,1945.238l-.059-23.372Z" transform="translate(-554.708 -1608.045)" fill="#fff"/>
            <path id="Path_131" data-name="Path 131" d="M860.436,1592.309l.059,23.372L554.719,1792.205l-.059-23.372Z" transform="translate(-554.661 -1592.309)" fill="#fff"/>
            <path id="Path_132" data-name="Path 132" d="M795.085,1878.41l.059,23.372L555.432,2040.195l-.117-23.372Z" transform="translate(-554.728 -1621.728)" fill="#fff"/>
          </g>
          <g id="Group_23" data-name="Group 23" transform="translate(132.481 1572.648)" opacity="0.7">
            <path id="Path_133" data-name="Path 133" d="M850.815,2041.427c26.308-15.209,47.743-2.995,47.86,27.248s-21.2,67.121-47.566,82.213L595.19,2298.7c-26.367,15.209-47.8,3.053-47.86-27.248s21.2-67.121,47.508-82.214Z" transform="translate(-547.329 -2034.885)" fill="#063aff"/>
          </g>
          <path id="Path_134" data-name="Path 134" d="M696.837,2186.308l.235,40.99-10.981,6.283-.176-18.616-7.693,19.5-5.285,3.054-7.81-9.866.059,18.028L654.2,2252.02l-.117-41.048,9.866-5.7,11.745,15.15L686.971,2192Z" transform="translate(-425.825 -477.807)" fill="#fff"/>
          <path id="Path_135" data-name="Path 135" d="M726.919,2169.055c11.745-6.695,20.142-2.584,20.2,9.807a41.106,41.106,0,0,1-20.084,33.12c-11.745,6.695-20.2,2.584-20.26-9.807a41.107,41.107,0,0,1,20.142-33.12Zm0,31.711a17.617,17.617,0,0,0,7.986-14.857c0-6.4-3.582-8.222-8.045-5.873a17.617,17.617,0,0,0-7.928,14.857c0,6.4,3.582,8.163,7.987,5.873" transform="translate(-431.243 -475.705)" fill="#fff"/>
          <path id="Path_136" data-name="Path 136" d="M783.433,2166.1l7.575,8.28-12.861,7.458-5.872-6.812-3.289,1.879V2187.3l-11.745,6.929V2153.12l17.206-9.983c9.924-5.872,16.266-3.406,16.325,5.872A26.015,26.015,0,0,1,783.433,2166.1Zm-10.335-2.173a8.573,8.573,0,0,0,4.874-7.575c0-3-1.586-3.935-4.874-2l-4.4,2.525v9.572l4.346-2.525" transform="translate(-436.433 -473.042)" fill="#fff"/>
          <path id="Path_137" data-name="Path 137" d="M827.946,2111.493,828,2122,810.8,2131.87v4.815l15.092-8.691.059,9.924-15.092,8.691v5.461l17.852-10.335v10.453l-29.656,17.089-.118-40.989Z" transform="translate(-440.72 -470.114)" fill="#fff"/>
        </g>
        <g id="freepik--Datas--inject-168" transform="translate(724.453 241.649)">
          <path id="Path_138" data-name="Path 138" d="M1637.675,2782.823l-.059,25.663-174.645-100.829.059-25.662Z" transform="translate(-990.358 -769.412)" fill="#063aff"/>
          <path id="Path_139" data-name="Path 139" d="M1649.678,2746.474l-.117,25.721-71-40.99.059-25.78Z" transform="translate(-1002.244 -771.822)" fill="#063aff"/>
          <g id="Group_24" data-name="Group 24" transform="translate(230.964 1643.625)" style="isolation: isolate">
            <path id="Path_140" data-name="Path 140" d="M1320.657,2642.977l-.059,25.721-125.728-72.583.059-25.721Z" transform="translate(-1193.754 -2401.563)" fill="#063aff"/>
            <path id="Path_141" data-name="Path 141" d="M1396.6,2643.65l-.059,25.663L1195,2552.98l.059-25.721Z" transform="translate(-1193.768 -2397.127)" fill="#063aff"/>
            <path id="Path_142" data-name="Path 142" d="M1505.216,2663.08l-.059,25.721-199.485-115.158-19.438-11.217-92.608-53.439.059-25.78,92.667,53.5,19.438,11.216Z" transform="translate(-1193.626 -2392.598)" fill="#063aff"/>
            <path id="Path_143" data-name="Path 143" d="M1447.261,2527.555l-.059,25.662-251.808-145.342.117-25.663Z" transform="translate(-1193.808 -2382.212)" fill="#063aff"/>
            <path id="Path_144" data-name="Path 144" d="M1454.379,2488.395l-.117,25.663-49.152-28.422.059-25.663Z" transform="translate(-1215.372 -2390.208)" fill="#063aff"/>
          </g>
          <path id="Path_145" data-name="Path 145" d="M1435.911,2709.565l-.059,25.662-71-40.989.059-25.662Z" transform="translate(-980.269 -768.033)" fill="#063aff"/>
          <path id="Path_146" data-name="Path 146" d="M1642.169,2596.8l-.059,25.662-140-80.8.059-25.721Z" transform="translate(-994.383 -752.337)" fill="#063aff"/>
          <path id="Path_147" data-name="Path 147" d="M1629.782,2546.443l-.059,25.662-97.893-56.492-21.61-12.449L1380.5,2428.231l.059-25.662,129.721,74.873,21.61,12.508Z" transform="translate(-981.878 -740.68)" fill="#063aff"/>
          <path id="Path_148" data-name="Path 148" d="M1523.029,2398.332l-.117,25.662-162.9-94.076.059-25.662Z" transform="translate(-979.771 -730.571)" fill="#063aff"/>
          <path id="Path_149" data-name="Path 149" d="M1342.8,2423.986l-.059,25.662-147.221-84.974.059-25.662Z" transform="translate(-962.858 -734.145)" fill="#063aff"/>
          <g id="Group_25" data-name="Group 25" transform="translate(231.668 1449.19)" style="isolation: isolate">
            <path id="Path_150" data-name="Path 150" d="M1321.442,2368.461l-.059,25.662-125.728-72.583.059-25.662Z" transform="translate(-1194.54 -2178.9)" fill="#063aff"/>
            <path id="Path_151" data-name="Path 151" d="M1306.516,2273.341l-.059,25.662-112.045-64.655.059-25.721Z" transform="translate(-1194.412 -2169.928)" fill="#063aff"/>
            <path id="Path_152" data-name="Path 152" d="M1397.386,2369.076l-.059,25.662-201.541-116.332.059-25.662Z" transform="translate(-1194.553 -2174.465)" fill="#063aff"/>
            <path id="Path_153" data-name="Path 153" d="M1360.2,2261.1l-.059,25.721-165.6-95.6.059-25.721Z" transform="translate(-1194.425 -2165.493)" fill="#063aff"/>
          </g>
          <path id="Path_154" data-name="Path 154" d="M1638.46,2508.242l-.059,25.721-174.645-100.829.059-25.721Z" transform="translate(-990.439 -741.178)" fill="#063aff"/>
          <path id="Path_155" data-name="Path 155" d="M1650.464,2471.9l-.117,25.662-71-40.989.059-25.662Z" transform="translate(-1002.325 -743.595)" fill="#063aff"/>
          <g id="Group_28" data-name="Group 28" transform="translate(230.964 1449.19)" opacity="0.6">
            <path id="Path_156" data-name="Path 156" d="M1637.675,2782.823l-.059,25.663-174.645-100.829.059-25.662Z" transform="translate(-1221.322 -2218.603)" fill="#fff"/>
            <path id="Path_157" data-name="Path 157" d="M1649.678,2746.474l-.117,25.721-71-40.99.059-25.78Z" transform="translate(-1233.208 -2221.012)" fill="#fff"/>
            <g id="Group_26" data-name="Group 26" transform="translate(0 194.435)" style="isolation: isolate">
              <path id="Path_158" data-name="Path 158" d="M1320.657,2642.977l-.059,25.721-125.728-72.583.059-25.721Z" transform="translate(-1193.754 -2401.563)" fill="#fff"/>
              <path id="Path_159" data-name="Path 159" d="M1396.6,2643.65l-.059,25.663L1195,2552.98l.059-25.721Z" transform="translate(-1193.768 -2397.127)" fill="#fff"/>
              <path id="Path_160" data-name="Path 160" d="M1505.216,2663.08l-.059,25.721-199.485-115.158-19.438-11.217-92.608-53.439.059-25.78,92.667,53.5,19.438,11.216Z" transform="translate(-1193.626 -2392.598)" fill="#fff"/>
              <path id="Path_161" data-name="Path 161" d="M1447.261,2527.555l-.059,25.662-251.808-145.342.117-25.663Z" transform="translate(-1193.808 -2382.212)" fill="#fff"/>
              <path id="Path_162" data-name="Path 162" d="M1454.379,2488.395l-.117,25.663-49.152-28.422.059-25.663Z" transform="translate(-1215.372 -2390.208)" fill="#fff"/>
            </g>
            <path id="Path_163" data-name="Path 163" d="M1435.911,2709.565l-.059,25.662-71-40.989.059-25.662Z" transform="translate(-1211.233 -2217.223)" fill="#fff"/>
            <path id="Path_164" data-name="Path 164" d="M1642.169,2596.8l-.059,25.662-140-80.8.059-25.721Z" transform="translate(-1225.347 -2201.528)" fill="#fff"/>
            <path id="Path_165" data-name="Path 165" d="M1629.782,2546.443l-.059,25.662-97.893-56.492-21.61-12.449L1380.5,2428.231l.059-25.662,129.721,74.873,21.61,12.508Z" transform="translate(-1212.842 -2189.871)" fill="#fff"/>
            <path id="Path_166" data-name="Path 166" d="M1523.029,2398.332l-.117,25.662-162.9-94.076.059-25.662Z" transform="translate(-1210.735 -2179.761)" fill="#fff"/>
            <path id="Path_167" data-name="Path 167" d="M1342.8,2423.986l-.059,25.662-147.221-84.974.059-25.662Z" transform="translate(-1193.822 -2183.335)" fill="#fff"/>
            <g id="Group_27" data-name="Group 27" transform="translate(0.705 0)" style="isolation: isolate">
              <path id="Path_168" data-name="Path 168" d="M1321.442,2368.461l-.059,25.662-125.728-72.583.059-25.662Z" transform="translate(-1194.54 -2178.9)" fill="#fff"/>
              <path id="Path_169" data-name="Path 169" d="M1306.516,2273.341l-.059,25.662-112.045-64.655.059-25.721Z" transform="translate(-1194.412 -2169.928)" fill="#fff"/>
              <path id="Path_170" data-name="Path 170" d="M1397.386,2369.076l-.059,25.662-201.541-116.332.059-25.662Z" transform="translate(-1194.553 -2174.465)" fill="#fff"/>
              <path id="Path_171" data-name="Path 171" d="M1360.2,2261.1l-.059,25.721-165.6-95.6.059-25.721Z" transform="translate(-1194.425 -2165.493)" fill="#fff"/>
            </g>
            <path id="Path_172" data-name="Path 172" d="M1638.46,2508.242l-.059,25.721-174.645-100.829.059-25.721Z" transform="translate(-1221.403 -2190.369)" fill="#fff"/>
            <path id="Path_173" data-name="Path 173" d="M1650.464,2471.9l-.117,25.662-71-40.989.059-25.662Z" transform="translate(-1233.289 -2192.785)" fill="#fff"/>
          </g>
          <path id="Path_174" data-name="Path 174" d="M1083.838,2184.412l-59.546-35.234a3,3,0,0,1-1.468-2.584V1775.458L946.012,1731l2.995-5.168,78.279,45.335a3,3,0,0,1,1.527,2.584v371.312l58.078,34.178Z" transform="translate(-937.201 -671.094)" fill="#063aff"/>
          <path id="Path_175" data-name="Path 175" d="M1116.3,2216.6a46.979,46.979,0,0,1,21.2,36.761c0,13.507-9.572,18.968-21.376,12.156a46.979,46.979,0,0,1-21.2-36.761C1094.98,2215.253,1104.552,2209.792,1116.3,2216.6Z" transform="translate(-952.513 -721.257)" fill="#063aff"/>
          <path id="Path_176" data-name="Path 176" d="M957.569,1708.028a46.979,46.979,0,0,1,21.258,36.761c0,13.506-9.631,18.968-21.376,12.156a46.979,46.979,0,0,1-21.258-36.761C936.018,1706.736,945.825,1701.274,957.569,1708.028Z" transform="translate(-936.192 -668.966)" fill="#063aff"/>
          <g id="Group_29" data-name="Group 29" transform="translate(0 1036.165)" opacity="0.2">
            <path id="Path_177" data-name="Path 177" d="M1083.838,2184.412l-59.546-35.234a3,3,0,0,1-1.468-2.584V1775.458L946.012,1731l2.995-5.168,78.279,45.335a3,3,0,0,1,1.527,2.584v371.312l58.078,34.178Z" transform="translate(-937.201 -1707.26)" fill="#fff"/>
            <path id="Path_178" data-name="Path 178" d="M1116.3,2216.6a46.979,46.979,0,0,1,21.2,36.761c0,13.507-9.572,18.968-21.376,12.156a46.979,46.979,0,0,1-21.2-36.761C1094.98,2215.253,1104.552,2209.792,1116.3,2216.6Z" transform="translate(-952.513 -1757.422)" fill="#fff"/>
            <path id="Path_179" data-name="Path 179" d="M957.569,1708.028a46.979,46.979,0,0,1,21.258,36.761c0,13.506-9.631,18.968-21.376,12.156a46.979,46.979,0,0,1-21.258-36.761C936.018,1706.736,945.825,1701.274,957.569,1708.028Z" transform="translate(-936.192 -1705.131)" fill="#fff"/>
          </g>
          <path id="Path_180" data-name="Path 180" d="M2795.3,849.824l-.117,25.721L2620.6,774.716l.059-25.721Z" transform="translate(-1109.392 -570.65)" fill="#063aff"/>
          <path id="Path_181" data-name="Path 181" d="M2807.246,813.482l-.059,25.78-71-41.048.059-25.721Z" transform="translate(-1121.278 -573.066)" fill="#063aff"/>
          <g id="Group_30" data-name="Group 30" transform="translate(1269.556)" style="isolation: isolate">
            <path id="Path_182" data-name="Path 182" d="M2478.283,710.043l-.059,25.662L2352.5,663.123l.059-25.662Z" transform="translate(-2351.381 -559.181)" fill="#063aff"/>
            <path id="Path_183" data-name="Path 183" d="M2554.227,710.658l-.059,25.721L2352.627,619.988l.059-25.662Z" transform="translate(-2351.394 -554.746)" fill="#063aff"/>
            <path id="Path_184" data-name="Path 184" d="M2662.783,730.081l-.059,25.78L2463.3,640.7l-19.438-11.216-92.608-53.5.059-25.78,92.608,53.5,19.438,11.216Z" transform="translate(-2351.253 -550.21)" fill="#063aff"/>
          </g>
          <path id="Path_185" data-name="Path 185" d="M2593.537,776.566l-.117,25.662L2522.481,761.3l.059-25.721Z" transform="translate(-1099.303 -569.27)" fill="#063aff"/>
          <g id="Group_32" data-name="Group 32" transform="translate(1269.556)" opacity="0.6">
            <path id="Path_186" data-name="Path 186" d="M2795.3,849.824l-.117,25.721L2620.6,774.716l.059-25.721Z" transform="translate(-2378.948 -570.65)" fill="#fff"/>
            <path id="Path_187" data-name="Path 187" d="M2807.246,813.482l-.059,25.78-71-41.048.059-25.721Z" transform="translate(-2390.834 -573.066)" fill="#fff"/>
            <g id="Group_31" data-name="Group 31" style="isolation: isolate">
              <path id="Path_188" data-name="Path 188" d="M2478.283,710.043l-.059,25.662L2352.5,663.123l.059-25.662Z" transform="translate(-2351.381 -559.181)" fill="#fff"/>
              <path id="Path_189" data-name="Path 189" d="M2554.227,710.658l-.059,25.721L2352.627,619.988l.059-25.662Z" transform="translate(-2351.394 -554.746)" fill="#fff"/>
              <path id="Path_190" data-name="Path 190" d="M2662.783,730.081l-.059,25.78L2463.3,640.7l-19.438-11.216-92.608-53.5.059-25.78,92.608,53.5,19.438,11.216Z" transform="translate(-2351.253 -550.21)" fill="#fff"/>
            </g>
            <path id="Path_191" data-name="Path 191" d="M2593.537,776.566l-.117,25.662L2522.481,761.3l.059-25.721Z" transform="translate(-2368.859 -569.27)" fill="#fff"/>
          </g>
          <path id="Path_192" data-name="Path 192" d="M2807.246,968.282,2807.187,994l-71-40.989.059-25.721Z" transform="translate(-1121.278 -588.984)" fill="#063aff"/>
          <g id="Group_33" data-name="Group 33" transform="translate(1269.556 138.882)" style="isolation: isolate">
            <path id="Path_193" data-name="Path 193" d="M2554.227,865.458l-.059,25.662L2352.627,774.788l.059-25.662Z" transform="translate(-2351.394 -709.546)" fill="#063aff"/>
            <path id="Path_194" data-name="Path 194" d="M2662.783,884.881l-.059,25.721L2463.3,795.5l-19.438-11.275-92.608-53.439.059-25.78,92.608,53.5,19.438,11.216Z" transform="translate(-2351.253 -705.009)" fill="#063aff"/>
          </g>
          <g id="Group_35" data-name="Group 35" transform="translate(1269.556 138.882)" opacity="0.6">
            <path id="Path_195" data-name="Path 195" d="M2807.246,968.282,2807.187,994l-71-40.989.059-25.721Z" transform="translate(-2390.834 -727.866)" fill="#fff"/>
            <g id="Group_34" data-name="Group 34" style="isolation: isolate">
              <path id="Path_196" data-name="Path 196" d="M2554.227,865.458l-.059,25.662L2352.627,774.788l.059-25.662Z" transform="translate(-2351.394 -709.546)" fill="#fff"/>
              <path id="Path_197" data-name="Path 197" d="M2662.783,884.881l-.059,25.721L2463.3,795.5l-19.438-11.275-92.608-53.439.059-25.78,92.608,53.5,19.438,11.216Z" transform="translate(-2351.253 -705.009)" fill="#fff"/>
            </g>
          </g>
          <path id="Path_198" data-name="Path 198" d="M2417.572,883.3c-11.745-6.812-21.317-1.351-21.317,12.156a41.7,41.7,0,0,0,5.05,18.733L2101.813,1087.54l-94.428-55.083a46.981,46.981,0,0,0-21.2-36.409c-11.745-6.812-21.317-1.351-21.376,12.156a46.98,46.98,0,0,0,21.2,36.761c9.807,5.872,17.97,2.76,20.495-5.873l95.309,55.612,302.37-175.644a41.1,41.1,0,0,0,13.1,12.919c11.745,6.812,21.317,1.351,21.376-12.156A46.98,46.98,0,0,0,2417.572,883.3Z" transform="translate(-1041.96 -584.158)" fill="#063aff"/>
          <path id="Path_199" data-name="Path 199" d="M2417.572,883.3c-11.745-6.812-21.317-1.351-21.317,12.156a41.7,41.7,0,0,0,5.05,18.733L2101.813,1087.54l-94.428-55.083a46.981,46.981,0,0,0-21.2-36.409c-11.745-6.812-21.317-1.351-21.376,12.156a46.98,46.98,0,0,0,21.2,36.761c9.807,5.872,17.97,2.76,20.495-5.873l95.309,55.612,302.37-175.644a41.1,41.1,0,0,0,13.1,12.919c11.745,6.812,21.317,1.351,21.376-12.156A46.98,46.98,0,0,0,2417.572,883.3Z" transform="translate(-1041.96 -584.158)" fill="#fff" opacity="0.2"/>
        </g>
        <g id="freepik--Character--inject-168" transform="translate(1422.017 943.638)">
          <path id="Path_200" data-name="Path 200" d="M2062.287,1880.036c-50.033,34.765-106.408,58.724-148.161,105.41-78.1,86.97-79.923,227.027-18.615,326.505s175.35,159.318,291.565,173.059c121.793,14.329,249.577-19.32,345.179-96.19s156.323-197.019,156.265-319.635-62.835-244.762-165.543-311.766c-93.958-61.132-228.436-78.573-322.453-8.632-47.566,35.234-79.219,87.557-126.668,123.027C2069.98,1874.633,2066.163,1877.334,2062.287,1880.036Z" transform="translate(-1727.951 -1370.784)" fill="#37474f"/>
          <path id="Path_201" data-name="Path 201" d="M2062.287,1880.036c-50.033,34.765-106.408,58.724-148.161,105.41-78.1,86.97-79.923,227.027-18.615,326.505s175.35,159.318,291.565,173.059c121.793,14.329,249.577-19.32,345.179-96.19s156.323-197.019,156.265-319.635-62.835-244.762-165.543-311.766c-93.958-61.132-228.436-78.573-322.453-8.632-47.566,35.234-79.219,87.557-126.668,123.027C2069.98,1874.633,2066.163,1877.334,2062.287,1880.036Z" transform="translate(-1727.951 -1370.784)" opacity="0.2"/>
          <path id="Path_202" data-name="Path 202" d="M2062.287,1880.036c-50.033,34.765-106.408,58.724-148.161,105.41-78.1,86.97-79.923,227.027-18.615,326.505s175.35,159.318,291.565,173.059c121.793,14.329,249.577-19.32,345.179-96.19s156.323-197.019,156.265-319.635-62.835-244.762-165.543-311.766c-93.958-61.132-228.436-78.573-322.453-8.632-47.566,35.234-79.219,87.557-126.668,123.027C2069.98,1874.633,2066.163,1877.334,2062.287,1880.036Z" transform="translate(-1727.951 -1370.784)" fill="#fff" opacity="0.1"/>
          <path id="Path_203" data-name="Path 203" d="M2091.667,2403.4l.352-2.467A131.718,131.718,0,0,1,2198.779,2291a415.24,415.24,0,0,0,136.709-52.381c29.891-18.028,58.078-40.167,91.61-49.974a149.158,149.158,0,0,1,98.715,5.872c-28.129-29.362-76.341-42.634-115.041-29.362,26.719-41.107,50.209-84.915,59.429-132.892s2.7-100.594-26.25-139.939a140.937,140.937,0,0,0-217.279-11.745c-28.657,31.359-44.806,75.4-63.6,113.455-13.565,27.365-27.483,55.318-49.8,76.341-33.59,31.417-81.92,42.751-116.743,72.818-39.521,34.118-56.551,88.614-56.727,140.938a415.526,415.526,0,0,0,15.269,104.118,395.39,395.39,0,0,0,142.875,87.323,155.153,155.153,0,0,1-6.283-72.172Z" transform="translate(-1736.953 -1384.306)" opacity="0.1"/>
          <g id="Group_36" data-name="Group 36" transform="translate(451.96 334.02)" opacity="0.2">
            <path id="Path_204" data-name="Path 204" d="M2660.595,2052.485a358.217,358.217,0,0,0-305.365-347.529,263.182,263.182,0,0,0-34.53,5.873c182.763,9.67,327,158.9,330.44,341.891,2.231,114.159-53.556,230.492-149.335,311.237-75.049,63.3-174.763,105.233-284.342,120.325l7.047.94c9.807,1.116,19.731,1.938,29.362,2.466,97.306-18.85,185.509-59.017,253.688-116.508C2605.805,2288.555,2662.885,2169.463,2660.595,2052.485Z" transform="translate(-2217.464 -1704.956)" fill="#fff"/>
          </g>
          <path id="Path_205" data-name="Path 205" d="M1966.9,2425.448a348.431,348.431,0,0,1,5.872,56.962l13.506-5.109a34.882,34.882,0,0,1,37.525,8.515l.7.7a13.565,13.565,0,0,0,18.733.881h0a13.624,13.624,0,0,0,4.7-9.807l1.82-57.55Z" transform="translate(-1739.74 -1444.466)" fill="#ffa8a7"/>
          <path id="Path_206" data-name="Path 206" d="M2011.6,2651.26c-28.011,30.008-79.63,56.257-117.154,30.654l4.169,9.572c37.525,25.545,89.143-.646,117.448-30.654s9.866-50.8,35.234-77.4a91.081,91.081,0,0,0,21.845-32.416c-1.116-2.819-2.231-6.577-3.523-10.864a116.033,116.033,0,0,1-22.491,33.767C2021.466,2600.757,2039.671,2621.545,2011.6,2651.26Z" transform="translate(-1732.289 -1456.816)" fill="#f5f5f5"/>
          <path id="Path_207" data-name="Path 207" d="M2055.032,2502.165a55.671,55.671,0,0,1-8.868-20.436,11.745,11.745,0,0,0-5.52-8.339l-.294,9.69a13.624,13.624,0,0,1-23.49,8.926l-.7-.7a34.883,34.883,0,0,0-37.525-8.515l-13.741,5.168a10.57,10.57,0,0,0-6.812,10.1c.881,39.345-17.617,91.551-36.761,120.267-19.79,8.221-36.937,35.234-28.187,54.966l.881,2c37.525,25.6,89.143-.646,117.155-30.654s9.865-50.738,35.234-77.339a116.038,116.038,0,0,0,22.491-33.766A125.073,125.073,0,0,0,2055.032,2502.165Z" transform="translate(-1731.913 -1449.951)" fill="#455a64"/>
          <path id="Path_208" data-name="Path 208" d="M2006.687,2566.977a4.815,4.815,0,0,0,6.4-2.114,4.7,4.7,0,0,0-1.938-6.342,54.846,54.846,0,0,0-53.908,0c-.823,3.112-1.7,6.166-2.643,9.22A52.852,52.852,0,0,1,2006.687,2566.977Z" transform="translate(-1738.474 -1457.977)" fill="#fff"/>
          <path id="Path_209" data-name="Path 209" d="M2014.243,2543.281a4.815,4.815,0,0,0,4.4-8.515,57.608,57.608,0,0,0-56.023.47c-.587,3.229-1.233,6.4-1.938,9.631C1977.011,2536.234,1993.513,2532.828,2014.243,2543.281Z" transform="translate(-1739.101 -1455.539)" fill="#fff"/>
          <path id="Path_210" data-name="Path 210" d="M1998.23,2590.6a4.816,4.816,0,0,0,6.4-2.173,4.757,4.757,0,0,0-2-6.342,54.554,54.554,0,0,0-52.852-.528c-1.174,3.347-2.466,6.577-3.758,9.807a52.852,52.852,0,0,1,52.206-.763Z" transform="translate(-1737.593 -1460.398)" fill="#fff"/>
          <path id="Path_211" data-name="Path 211" d="M1921.383,2634.166c-19.79,8.221-36.937,35.234-28.187,54.966l.881,2c36.938,25.193,87.557,0,115.862-29.362C1986.332,2615.551,1937,2627.061,1921.383,2634.166Z" transform="translate(-1731.92 -1465.796)" fill="#fff"/>
          <path id="Path_212" data-name="Path 212" d="M1988.84,2613.641a4.815,4.815,0,0,0,4.4-8.515,54.554,54.554,0,0,0-52.852-.47c-1.7,3.641-3.406,7.165-5.168,10.57C1951.609,2606.594,1968.11,2603.129,1988.84,2613.641Z" transform="translate(-1736.482 -1462.771)" fill="#fff"/>
          <path id="Path_213" data-name="Path 213" d="M1899.169,2553.507a349.718,349.718,0,0,1-17.617,54.555l14.387.822a35.235,35.235,0,0,1,30.947,22.961v.881a13.682,13.682,0,0,0,16.854,8.4h0a13.86,13.86,0,0,0,8.221-7.105l24.841-51.912Z" transform="translate(-1730.964 -1458.189)" fill="#ffa8a7"/>
          <path id="Path_214" data-name="Path 214" d="M1844.547,2785.917c-37.759,16.149-95.6,19.32-119.562-19.261v10.453c23.959,38.523,81.8,35.234,119.562,19.261s29.362-42.458,63.3-56.61a91.78,91.78,0,0,0,33.062-20.847,111.963,111.963,0,0,1,1.175-11.392,113.984,113.984,0,0,1-34.236,21.787C1874.027,2743.46,1882.307,2769.827,1844.547,2785.917Z" transform="translate(-1714.864 -1474.026)" fill="#f5f5f5"/>
          <path id="Path_215" data-name="Path 215" d="M1942.094,2663.7a54.727,54.727,0,0,1,0-22.315,11.745,11.745,0,0,0-1.7-9.865l-4.169,8.75a13.859,13.859,0,0,1-8.221,7.105,13.683,13.683,0,0,1-16.854-8.4v-.881a35.234,35.234,0,0,0-30.948-22.961l-14.622-.823a10.571,10.571,0,0,0-10.335,6.459c-15.092,36.35-52.852,76.752-82.214,95.25-21.434-.529-47.978,17.265-47.978,38.934v2.114c23.959,38.582,81.8,35.234,119.562,19.261s29.362-42.458,63.3-56.61a113.982,113.982,0,0,0,34.236-21.787A122.438,122.438,0,0,0,1942.094,2663.7Z" transform="translate(-1714.871 -1464.44)" fill="#455a64"/>
          <path id="Path_216" data-name="Path 216" d="M1879.974,2699.358a4.757,4.757,0,0,0,7.458-5.873,54.79,54.79,0,0,0-49.328-21.669q-3,3.817-6.166,7.4A52.852,52.852,0,0,1,1879.974,2699.358Z" transform="translate(-1725.862 -1470.327)" fill="#fff"/>
          <path id="Path_217" data-name="Path 217" d="M1896.391,2680.693a4.756,4.756,0,0,0,6.694.646,4.815,4.815,0,0,0,.764-6.636,57.492,57.492,0,0,0-51.442-22.2c-1.821,2.7-3.759,5.4-5.873,8.045C1865.149,2659.258,1881.651,2662.782,1896.391,2680.693Z" transform="translate(-1727.363 -1468.339)" fill="#fff"/>
          <path id="Path_218" data-name="Path 218" d="M1862.766,2717.554a4.757,4.757,0,0,0,7.458-5.873,54.732,54.732,0,0,0-48.036-21.787c-2.408,2.584-4.874,5.05-7.4,7.458A52.851,52.851,0,0,1,1862.766,2717.554Z" transform="translate(-1724.098 -1472.197)" fill="#fff"/>
          <path id="Path_219" data-name="Path 219" d="M1772.962,2727.68c-21.434-.529-47.978,17.265-47.978,38.934v2.114c23.49,37.994,80.041,35.234,117.8,19.966C1839.908,2736.841,1790.11,2727.445,1772.962,2727.68Z" transform="translate(-1714.864 -1476.098)" fill="#fff"/>
          <path id="Path_220" data-name="Path 220" d="M1844.774,2734.885a4.816,4.816,0,0,0,6.695.587,4.7,4.7,0,0,0,.763-6.577,54.614,54.614,0,0,0-48.095-21.786c-2.995,2.7-5.872,5.227-8.985,7.575C1813.591,2713.392,1830.034,2716.915,1844.774,2734.885Z" transform="translate(-1722.079 -1473.966)" fill="#fff"/>
          <path id="Path_221" data-name="Path 221" d="M2121.3,2006.046,1932.27,2111.338a93.958,93.958,0,0,0-46.509,98.891l36.7,197.606-30.067,95.544c25.956,34.823,85.5,36.585,85.5,36.585,33.238-66.652,57.667-94.957,76.341-150.8s31.476-94.428,31.476-94.428l156.969-42.868a185.979,185.979,0,0,0,136-158.261c2.7-23.783,2.819-39.991,2.819-39.991Z" transform="translate(-1731.238 -1401.896)" fill="#063aff"/>
          <path id="Path_222" data-name="Path 222" d="M2121.3,2006.046,1932.27,2111.338a93.958,93.958,0,0,0-46.509,98.891l36.7,197.606-30.067,95.544c25.956,34.823,85.5,36.585,85.5,36.585,33.238-66.652,57.667-94.957,76.341-150.8s31.476-94.428,31.476-94.428l156.969-42.868a185.979,185.979,0,0,0,136-158.261c2.7-23.783,2.819-39.991,2.819-39.991Z" transform="translate(-1731.238 -1401.896)" opacity="0.3"/>
          <path id="Path_223" data-name="Path 223" d="M2121.3,2006.046,1932.27,2111.338a93.958,93.958,0,0,0-46.509,98.891l36.7,197.606-30.067,95.544c25.956,34.823,85.5,36.585,85.5,36.585,33.238-66.652,57.667-94.957,76.341-150.8s31.476-94.428,31.476-94.428l156.969-42.868a185.979,185.979,0,0,0,136-158.261c2.7-23.783,2.819-39.991,2.819-39.991Z" transform="translate(-1731.238 -1401.896)" fill="#fff" opacity="0.1"/>
          <path id="Path_224" data-name="Path 224" d="M2127.122,2065.217a89.2,89.2,0,0,0,21.141,57.609L2014.9,2206.331a95.779,95.779,0,0,0-40.813,53.2l-46.979,154.386,42.575-171.944a77.984,77.984,0,0,1,34.706-47.566l123.32-76.341C2114.672,2086.827,2127.122,2065.217,2127.122,2065.217Z" transform="translate(-1735.648 -1407.981)" opacity="0.2"/>
          <path id="Path_225" data-name="Path 225" d="M1978.687,1743.9l-42.516,38.406c-27.189-34.706-63.657-58.137-95.544-106.76-9.161-11.745-8.221-34.823-14.446-46.686-4.933-9.278-13.506-23.49-17.089-31.065a5.168,5.168,0,0,0-7.81-2.055c-8.75,6.694-3.993,22.315.7,38.7,5.579,19.379-23.49-6.871-27.6-11.334-18.557-17.265-34.471-59.6-46.979-55.377s-2.643,25.31-2.643,25.31c-11.745,2.466-7.223,21.023-7.223,21.023-6.871,12.156-4.933,30.889,9.22,48.33,10.277,12.626,38.053,30.008,52.5,38.523a47.568,47.568,0,0,1,15.033,14.211l90.787,135.418a54.554,54.554,0,0,0,77.868,13.213l61.837-46.274Z" transform="translate(-1713.704 -1356.796)" fill="#ffa8a7"/>
          <path id="Path_226" data-name="Path 226" d="M1978.687,1743.9l-42.516,38.406c-27.189-34.706-63.657-58.137-95.544-106.76-9.161-11.745-8.221-34.823-14.446-46.686-4.933-9.278-13.506-23.49-17.089-31.065a5.168,5.168,0,0,0-7.81-2.055c-8.75,6.694-3.993,22.315.7,38.7,5.579,19.379-23.49-6.871-27.6-11.334-18.557-17.265-34.471-59.6-46.979-55.377s-2.643,25.31-2.643,25.31c-11.745,2.466-7.223,21.023-7.223,21.023-6.871,12.156-4.933,30.889,9.22,48.33,10.277,12.626,38.053,30.008,52.5,38.523a47.568,47.568,0,0,1,15.033,14.211l90.787,135.418a54.554,54.554,0,0,0,77.868,13.213l61.837-46.274Z" transform="translate(-1713.704 -1356.796)" opacity="0.3"/>
          <path id="Path_227" data-name="Path 227" d="M2145.591,1645.584c-46.157-2-107.406,66.476-146.81,107.524a151.273,151.273,0,0,0,51.56,82.625,1118.884,1118.884,0,0,0,95.25-75.108Z" transform="translate(-1743.018 -1364.827)" fill="#455a64"/>
          <path id="Path_228" data-name="Path 228" d="M2145.591,1645.584c-46.157-2-107.406,66.476-146.81,107.524a151.273,151.273,0,0,0,51.56,82.625,1118.884,1118.884,0,0,0,95.25-75.108Z" transform="translate(-1743.018 -1364.827)" fill="#fff" opacity="0.3"/>
          <path id="Path_229" data-name="Path 229" d="M2408.763,2030.053c-33.531,32.239-194.552,38.17-276.707-40.05,7.869-55.259,5.227-114.394,0-172.883s-39.462-160.845,25.839-172.766c87.205-17.03,144.167-15.679,202.48,17.147C2422.563,1765.266,2414.107,1920.3,2408.763,2030.053Z" transform="translate(-1755.321 -1363.597)" fill="#455a64"/>
          <path id="Path_230" data-name="Path 230" d="M2408.763,2030.053c-33.531,32.239-194.552,38.17-276.707-40.05,7.869-55.259,5.227-114.394,0-172.883s-39.462-160.845,25.839-172.766c87.205-17.03,144.167-15.679,202.48,17.147C2422.563,1765.266,2414.107,1920.3,2408.763,2030.053Z" transform="translate(-1755.321 -1363.597)" fill="#455a64"/>
          <path id="Path_231" data-name="Path 231" d="M2408.763,2030.053c-33.531,32.239-194.552,38.17-276.707-40.05,7.869-55.259,5.227-114.394,0-172.883s-39.462-160.845,25.839-172.766c87.205-17.03,144.167-15.679,202.48,17.147C2422.563,1765.266,2414.107,1920.3,2408.763,2030.053Z" transform="translate(-1755.321 -1363.597)" fill="#fff" opacity="0.2"/>
          <path id="Path_232" data-name="Path 232" d="M2250.885,2147.07a7.4,7.4,0,0,1,0,2.525h0a7.338,7.338,0,0,1-.94,1.938h0a13,13,0,0,1-1.7,1.938h0a18.215,18.215,0,0,1-2.584,1.82l-138.295,80.334a22.248,22.248,0,0,1-3.993,1.762l-1.527.47-2,.529-2.467.411h-5.05a30.034,30.034,0,0,1-3.289,0h-.529a28.552,28.552,0,0,1-3.23-.529h-.587l-2.76-.822h-.529a18.271,18.271,0,0,1-3.054-1.468l-228.2-131.718a18.218,18.218,0,0,1-2.584-1.821l-.646-.7a12.045,12.045,0,0,1-1.174-1.351,6.383,6.383,0,0,1-.47-.881,5.333,5.333,0,0,1-.646-1.292,4.445,4.445,0,0,1,0-.94,8.373,8.373,0,0,1,0-1.292v8.1a8.33,8.33,0,0,0,0,1.292,4.342,4.342,0,0,0,.822,2.231,6.382,6.382,0,0,0,.469.881,8.043,8.043,0,0,0,1.175,1.292,7.719,7.719,0,0,0,.646.7,14.621,14.621,0,0,0,2.584,1.879l228.2,131.718a18.27,18.27,0,0,0,3.053,1.468h.529l2.76.822h.587a28.487,28.487,0,0,0,3.23.528h.529a30.034,30.034,0,0,0,3.289,0h4.522l2.467-.469,2-.47,1.527-.469a22.258,22.258,0,0,0,3.993-1.762l138-79.923a18,18,0,0,0,2.584-1.762,16.789,16.789,0,0,0,1.7-1.938h0a7.329,7.329,0,0,0,.94-1.937h0a6.821,6.821,0,0,0,0-1.879h0v-8.809Z" transform="translate(-1727.165 -1411.144)" fill="#e0e0e0"/>
          <path id="Path_233" data-name="Path 233" d="M2250.885,2147.07a7.4,7.4,0,0,1,0,2.525h0a7.338,7.338,0,0,1-.94,1.938h0a13,13,0,0,1-1.7,1.938h0a18.215,18.215,0,0,1-2.584,1.82l-138.295,80.334a22.248,22.248,0,0,1-3.993,1.762l-1.527.47-2,.529-2.467.411h-5.05a30.034,30.034,0,0,1-3.289,0h-.529a28.552,28.552,0,0,1-3.23-.529h-.587l-2.76-.822h-.529a18.271,18.271,0,0,1-3.054-1.468l-228.2-131.718a18.218,18.218,0,0,1-2.584-1.821l-.646-.7a12.045,12.045,0,0,1-1.174-1.351,6.383,6.383,0,0,1-.47-.881,5.333,5.333,0,0,1-.646-1.292,4.445,4.445,0,0,1,0-.94,8.373,8.373,0,0,1,0-1.292v8.1a8.33,8.33,0,0,0,0,1.292,4.342,4.342,0,0,0,.822,2.231,6.382,6.382,0,0,0,.469.881,8.043,8.043,0,0,0,1.175,1.292,7.719,7.719,0,0,0,.646.7,14.621,14.621,0,0,0,2.584,1.879l228.2,131.718a18.27,18.27,0,0,0,3.053,1.468h.529l2.76.822h.587a28.487,28.487,0,0,0,3.23.528h.529a30.034,30.034,0,0,0,3.289,0h4.522l2.467-.469,2-.47,1.527-.469a22.258,22.258,0,0,0,3.993-1.762l138-79.923a18,18,0,0,0,2.584-1.762,16.789,16.789,0,0,0,1.7-1.938h0a7.329,7.329,0,0,0,.94-1.937h0a6.821,6.821,0,0,0,0-1.879h0v-8.809Z" transform="translate(-1727.165 -1411.144)" opacity="0.2"/>
          <path id="Path_234" data-name="Path 234" d="M1844.258,2087.854a5.341,5.341,0,0,0,.646,1.292,6.372,6.372,0,0,0,.47.881,12.06,12.06,0,0,0,1.175,1.351l.646.7a18.231,18.231,0,0,0,2.584,1.82l228.2,131.718a18.274,18.274,0,0,0,3.054,1.468h.528l2.76.822h.587a28.575,28.575,0,0,0,3.229.528h.529a30.034,30.034,0,0,0,3.289,0h4.522l2.467-.411,2-.528,1.527-.47a22.266,22.266,0,0,0,3.993-1.762l138.471-79.982a18.155,18.155,0,0,0,2.584-1.821h0a12.972,12.972,0,0,0,1.7-1.938h0a7.334,7.334,0,0,0,.94-1.938h0a7.407,7.407,0,0,0,0-2.525,10.276,10.276,0,0,0-5.872-7.81l-228.2-131.718a31.007,31.007,0,0,0-28.364,0l-138,79.864a10.159,10.159,0,0,0-5.872,8.221,8.407,8.407,0,0,0,0,1.292,4.46,4.46,0,0,0,.411.939Z" transform="translate(-1727.084 -1400.668)" fill="#e0e0e0"/>
          <path id="Path_235" data-name="Path 235" d="M1865.45,2090.9l221.742,127.783.822.411h.529l1.7.528h4.228a16.085,16.085,0,0,0,2.291,0h1.468l1.762-.469a7.01,7.01,0,0,0,1.527-.646l71.526-40.93-229.023-132.188Z" transform="translate(-1729.308 -1405.941)" fill="#e0e0e0"/>
          <path id="Path_236" data-name="Path 236" d="M2120.722,2240.5Z" transform="translate(-1755.556 -1426.005)" fill="#263238"/>
          <path id="Path_237" data-name="Path 237" d="M2095.539,2056.8l-41.694,24.547a4.169,4.169,0,0,0,0,7.281l62.365,36a6.929,6.929,0,0,0,6.988,0l41.694-24.488a4.228,4.228,0,0,0,0-7.282l-62.365-36.057a6.929,6.929,0,0,0-6.989,0Z" transform="translate(-1748.46 -1407.017)" fill="#e0e0e0"/>
          <path id="Path_238" data-name="Path 238" d="M1865.45,2090.9l221.742,127.783.822.411h.529l1.7.528h4.228a16.085,16.085,0,0,0,2.291,0h1.468l1.762-.469a7.01,7.01,0,0,0,1.527-.646l71.526-40.93-229.023-132.188Z" transform="translate(-1729.308 -1405.941)" opacity="0.4"/>
          <path id="Path_239" data-name="Path 239" d="M2095.539,2056.8l-41.694,24.547a4.169,4.169,0,0,0,0,7.281l62.365,36a6.929,6.929,0,0,0,6.988,0l41.694-24.488a4.228,4.228,0,0,0,0-7.282l-62.365-36.057a6.929,6.929,0,0,0-6.989,0Z" transform="translate(-1748.46 -1407.017)" opacity="0.4"/>
          <path id="Path_240" data-name="Path 240" d="M2087.27,2208.166l-23.49-150.216a27.6,27.6,0,0,0-13.448-19.673l-229.9-133.656a6.871,6.871,0,0,0-5.873-.411h0l-5.461,2.7,1.82.7a6.7,6.7,0,0,0-.587,4.052l23.49,150.275a27.6,27.6,0,0,0,13.448,19.614l229.669,133.656a8.522,8.522,0,0,0,1.527.646v2.173l5.285-2.584h0a6.871,6.871,0,0,0,3.523-7.282Z" transform="translate(-1723.513 -1391.376)" fill="#e0e0e0"/>
          <path id="Path_241" data-name="Path 241" d="M2087.27,2208.166l-23.49-150.216a27.6,27.6,0,0,0-13.448-19.673l-229.9-133.656a6.871,6.871,0,0,0-5.873-.411h0l-5.461,2.7,1.82.7a6.7,6.7,0,0,0-.587,4.052l23.49,150.275a27.6,27.6,0,0,0,13.448,19.614l229.669,133.656a8.522,8.522,0,0,0,1.527.646v2.173l5.285-2.584h0a6.871,6.871,0,0,0,3.523-7.282Z" transform="translate(-1723.513 -1391.376)" opacity="0.3"/>
          <path id="Path_242" data-name="Path 242" d="M2045.147,2040.829l-229.787-133.6a6.93,6.93,0,0,0-10.336,7.106l23.49,150.216a28.071,28.071,0,0,0,13.506,19.673l229.787,133.6a6.929,6.929,0,0,0,10.335-7.106l-23.49-150.216A27.834,27.834,0,0,0,2045.147,2040.829Z" transform="translate(-1723.085 -1391.638)" fill="#e0e0e0"/>
          <path id="Path_243" data-name="Path 243" d="M1946.542,2060.234a50.855,50.855,0,0,1,22.785,32.885c1.527,11.745-6.225,16.091-17.617,9.631a50.737,50.737,0,0,1-22.785-32.827C1927.633,2058.179,1935.443,2053.892,1946.542,2060.234Z" transform="translate(-1735.82 -1407.167)" fill="#fff"/>
          <path id="Path_244" data-name="Path 244" d="M2463.639,1942.253l-24.664-91.727-86.5,19.261,20.73,71.115-126.785,90.024-42.634,17.969a66.943,66.943,0,0,0-28.246,22.432l-34.765,48.154a4,4,0,0,0-.352,2.055,6.636,6.636,0,0,0,11.745,3.171c7.693-8.809,14.152-16.971,22.2-24.664L2153.87,2127.7a8.279,8.279,0,0,0,2.584,11.745,31.823,31.823,0,0,0,7.4,3.23,31.243,31.243,0,0,0,28.775-7.223l26.836-24.605,7.4-2.584a112.4,112.4,0,0,0,53.908-40.461l148.631-57.725A56.786,56.786,0,0,0,2463.639,1942.253Z" transform="translate(-1757.58 -1385.905)" fill="#ffa8a7"/>
          <path id="Path_245" data-name="Path 245" d="M2463.639,1942.253l-24.664-91.727-86.5,19.261,20.73,71.115-126.785,90.024-42.634,17.969a66.943,66.943,0,0,0-28.246,22.432l-34.765,48.154a4,4,0,0,0-.352,2.055,6.636,6.636,0,0,0,11.745,3.171c7.693-8.809,14.152-16.971,22.2-24.664L2153.87,2127.7a8.279,8.279,0,0,0,2.584,11.745,31.823,31.823,0,0,0,7.4,3.23,31.243,31.243,0,0,0,28.775-7.223l26.836-24.605,7.4-2.584a112.4,112.4,0,0,0,53.908-40.461l148.631-57.725A56.786,56.786,0,0,0,2463.639,1942.253Z" transform="translate(-1757.58 -1385.905)" opacity="0.3"/>
          <path id="Path_246" data-name="Path 246" d="M2472.749,1842.712l-2.643-12.156c-31.417-142.817-56.492-152.976-98.6-172.531-41.107,35.7-34.119,96.425-34.119,96.425l36.7,109.873,1.116,3.171A127.725,127.725,0,0,0,2472.749,1842.712Z" transform="translate(-1777.789 -1366.111)" fill="#455a64"/>
          <path id="Path_247" data-name="Path 247" d="M2472.749,1842.712l-2.643-12.156c-31.417-142.817-56.492-152.976-98.6-172.531-41.107,35.7-34.119,96.425-34.119,96.425l36.7,109.873,1.116,3.171A127.725,127.725,0,0,0,2472.749,1842.712Z" transform="translate(-1777.789 -1366.111)" fill="#fff" opacity="0.3"/>
          <path id="Path_248" data-name="Path 248" d="M2300.375,1515.582a259.789,259.789,0,0,0,13.682-80.334c0-14.563-1.468-30.478-11.745-41.107-12.273-12.567-33.3-12.449-48.976-4.522s-27.189,21.963-38.229,35.587a322.591,322.591,0,0,0,24.195,68.825c5.52,10.688,12.214,21.552,22.9,27.013S2290.861,1522.981,2300.375,1515.582Z" transform="translate(-1765.262 -1337.945)" fill="#455a64"/>
          <path id="Path_249" data-name="Path 249" d="M2219.83,1700.229c-21.082,13.33-48.447-11.393-23.959-47.449a1.29,1.29,0,0,0,.294-.646V1592.06l79.512-43.867,1.82,80.276C2268.982,1653.309,2238.152,1688.6,2219.83,1700.229Z" transform="translate(-1762.291 -1354.817)" fill="#ffa8a7"/>
          <path id="Path_250" data-name="Path 250" d="M2219.83,1700.229c-21.082,13.33-48.447-11.393-23.959-47.449a1.29,1.29,0,0,0,.294-.646V1592.06l79.512-43.867,1.82,80.276C2268.982,1653.309,2238.152,1688.6,2219.83,1700.229Z" transform="translate(-1762.291 -1354.817)" opacity="0.3"/>
          <path id="Path_251" data-name="Path 251" d="M2238.214,1611.262c-13.271,6.4-29.832,12.861-41.107,17.03V1592.06l79.512-43.867C2276.15,1587.949,2260.294,1600.574,2238.214,1611.262Z" transform="translate(-1763.411 -1354.817)" opacity="0.2"/>
          <path id="Path_252" data-name="Path 252" d="M2119.723,1425.335a674.506,674.506,0,0,0,1.644,118.8,58.724,58.724,0,0,0,69.529,51.795c13.037-2.7,25.486-5.872,36.056-8.632a54.2,54.2,0,0,0,38.523-39.7l2.936-12.215a24.957,24.957,0,0,0,30.067,7.047,33.649,33.649,0,0,0,19.085-25.9,31.126,31.126,0,0,0-1.409-16.384,21.552,21.552,0,0,0-11.04-11.745,24.018,24.018,0,0,0-26.485,7.575,50.97,50.97,0,0,0-10.688,27.013,83.33,83.33,0,0,1-20.906-60.133,30.009,30.009,0,0,1-19.261-9.866,26.191,26.191,0,0,1-4.933-19.555C2191.778,1449,2148.909,1444.772,2119.723,1425.335Z" transform="translate(-1755.262 -1342.184)" fill="#ffa8a7"/>
          <path id="Path_253" data-name="Path 253" d="M2119.723,1425.335a674.506,674.506,0,0,0,1.644,118.8,58.724,58.724,0,0,0,69.529,51.795c13.037-2.7,25.486-5.872,36.056-8.632a54.2,54.2,0,0,0,38.523-39.7l2.936-12.215a24.957,24.957,0,0,0,30.067,7.047,33.649,33.649,0,0,0,19.085-25.9,31.126,31.126,0,0,0-1.409-16.384,21.552,21.552,0,0,0-11.04-11.745,24.018,24.018,0,0,0-26.485,7.575,50.97,50.97,0,0,0-10.688,27.013,83.33,83.33,0,0,1-20.906-60.133,30.009,30.009,0,0,1-19.261-9.866,26.191,26.191,0,0,1-4.933-19.555C2191.778,1449,2148.909,1444.772,2119.723,1425.335Z" transform="translate(-1755.262 -1342.184)" opacity="0.3"/>
          <path id="Path_254" data-name="Path 254" d="M2178.628,1499.429l-27.6,33.473,25.369,8.926Z" transform="translate(-1758.673 -1349.803)" fill="#f28f8f"/>
          <path id="Path_255" data-name="Path 255" d="M2178.628,1499.429l-27.6,33.473,25.369,8.926Z" transform="translate(-1758.673 -1349.803)" opacity="0.3"/>
          <path id="Path_256" data-name="Path 256" d="M2202.65,1565.211l-21.317,6.518a13.154,13.154,0,0,0,14.387,6.636A11.745,11.745,0,0,0,2202.65,1565.211Z" transform="translate(-1761.789 -1356.567)" fill="#f28f8f"/>
          <path id="Path_257" data-name="Path 257" d="M2202.65,1565.211l-21.317,6.518a13.154,13.154,0,0,0,14.387,6.636A11.745,11.745,0,0,0,2202.65,1565.211Z" transform="translate(-1761.789 -1356.567)" opacity="0.4"/>
          <path id="Path_258" data-name="Path 258" d="M2189.58,1578.34a12.39,12.39,0,0,0,6.988.411,10.747,10.747,0,0,0,6.93-9.631,13.038,13.038,0,0,0-8.28,1.468A12.8,12.8,0,0,0,2189.58,1578.34Z" transform="translate(-1762.637 -1356.953)" fill="#f28f8f"/>
          <path id="Path_259" data-name="Path 259" d="M2221.947,1506.694a7.575,7.575,0,1,1-1.925-5.48A7.575,7.575,0,0,1,2221.947,1506.694Z" transform="translate(-1764.408 -1349.728)" fill="#263238"/>
          <path id="Path_260" data-name="Path 260" d="M2151.256,1500.156a7.575,7.575,0,1,1-7.164-7.928A7.576,7.576,0,0,1,2151.256,1500.156Z" transform="translate(-1757.139 -1349.061)" fill="#263238"/>
          <path id="Path_261" data-name="Path 261" d="M2144.835,1466.815l-17.617,10.923a10.864,10.864,0,0,1,3.935-11.745,12.684,12.684,0,0,1,13.683.822Z" transform="translate(-1756.179 -1346.198)" fill="#263238"/>
          <path id="Path_262" data-name="Path 262" d="M2218.9,1469.733l16.208,12.508a10.923,10.923,0,0,0-2.643-11.745,13.1,13.1,0,0,0-13.565-.764Z" transform="translate(-1765.652 -1346.591)" fill="#263238"/>
          <path id="Path_263" data-name="Path 263" d="M2223.472,1421.207a26.307,26.307,0,0,1-7.281,14.153,20.67,20.67,0,0,1-14.916,5.872,16.443,16.443,0,0,1-13.741-7.928,19.437,19.437,0,0,1-17.911,7.928,21.552,21.552,0,0,1-17.265-11.275,20.436,20.436,0,0,1-21.258,8.339,19.555,19.555,0,0,1-14.505-16.971,25.428,25.428,0,0,1-18.968-2.7,18.733,18.733,0,0,1-9.043-16.443,15.032,15.032,0,0,1,11.744-13.8,19.732,19.732,0,0,1,4.933-23.49,19.321,19.321,0,0,1,23.9-.528,15.21,15.21,0,0,1,8.985-13.448,14.974,14.974,0,0,1,15.855,3.053,23.9,23.9,0,0,1,44.336-9.572,20.671,20.671,0,0,1,19.261-10.277,19.32,19.32,0,0,1,16.678,12.743,23.959,23.959,0,0,1,43.926,11.745,14.8,14.8,0,0,1,20.377,1.175,18.5,18.5,0,0,1,1.7,21.2,24.429,24.429,0,0,1-18.675,11.334,19.261,19.261,0,0,1-33.12,18.968,14.27,14.27,0,0,1-9.1,15.151,13.33,13.33,0,0,1-15.914-5.226Z" transform="translate(-1752.251 -1332.654)" fill="#263238"/>
        </g>
      </g>
    </g>
  </g>
</svg>
